<svg width="96" height="96" viewBox="0 0 96 96" fill="none" xmlns="http://www.w3.org/2000/svg">
  <rect width="96" height="96" rx="48" fill="#FDE68A"/>
  <circle cx="48" cy="50" r="25" fill="#F8D9B6"/>
  <path d="M27 40C29 24 40 16 51 16C63 16 72 25 73 38C67 34 62 33 55 33C45 33 36 36 27 40Z" fill="#1F2937"/>
  <circle cx="39" cy="49" r="3.5" fill="#1F2937"/>
  <circle cx="57" cy="49" r="3.5" fill="#1F2937"/>
  <path d="M40 61C43 65 53 65 56 61" stroke="#B45309" stroke-width="3" stroke-linecap="round"/>
  <path d="M25 92C28 74 38 66 48 66C58 66 68 74 71 92" fill="#F59E0B"/>
</svg>
