<svg width="96" height="96" viewBox="0 0 96 96" fill="none" xmlns="http://www.w3.org/2000/svg">
  <rect width="96" height="96" rx="48" fill="#EDE9FE"/>
  <circle cx="48" cy="50" r="25" fill="#F5D5B4"/>
  <path d="M24 40C26 23 38 14 50 14C61 14 71 22 73 40C66 36 58 34 49 34C40 34 31 36 24 40Z" fill="#4338CA"/>
  <circle cx="39" cy="50" r="3.5" fill="#1F2937"/>
  <circle cx="57" cy="50" r="3.5" fill="#1F2937"/>
  <path d="M40 60C44 64 52 64 56 60" stroke="#4338CA" stroke-width="3" stroke-linecap="round"/>
  <path d="M24 92C28 74 38 66 48 66C58 66 68 74 72 92" fill="#6366F1"/>
</svg>
