<svg width="96" height="96" viewBox="0 0 96 96" fill="none" xmlns="http://www.w3.org/2000/svg">
  <rect width="96" height="96" rx="48" fill="#DCFCE7"/>
  <circle cx="48" cy="50" r="25" fill="#F6D6B5"/>
  <path d="M24 39C26 24 37 16 49 16C59 16 69 23 72 37C66 34 59 32 49 32C40 32 31 34 24 39Z" fill="#065F46"/>
  <circle cx="39" cy="50" r="3.5" fill="#1F2937"/>
  <circle cx="57" cy="50" r="3.5" fill="#1F2937"/>
  <path d="M40 61C44 65 52 65 56 61" stroke="#065F46" stroke-width="3" stroke-linecap="round"/>
  <path d="M25 92C28 75 38 66 48 66C58 66 68 75 71 92" fill="#10B981"/>
</svg>
