<?xml version="1.0" encoding="UTF-8"?>
<svg version="1.1" xmlns="http://www.w3.org/2000/svg" width="512" height="512">
<path d="M0 0 C0.79277344 0.33902344 1.58554688 0.67804687 2.40234375 1.02734375 C10.23899139 4.89746323 17.79349569 11.19918553 22.203125 18.75 C23.73844882 20.95949997 24.52641078 21.85127943 27.11621094 22.66455078 C29.7555234 22.96746588 32.34391154 23.07414365 35 23.125 C65.18696694 24.80289099 93.22275938 36.54463802 117 55 C117.56928223 55.42845215 118.13856445 55.8569043 118.72509766 56.29833984 C120.41655151 57.57491779 122.08578726 58.87567619 123.75 60.1875 C125.19632812 61.32251953 125.19632812 61.32251953 126.671875 62.48046875 C129.5316851 65.57539747 130.28348521 67.87085389 131 72 C130.70609375 73.33804688 130.70609375 73.33804688 130.40625 74.703125 C130.2721875 75.46109375 130.138125 76.2190625 130 77 C131.3808315 79.03469069 131.3808315 79.03469069 133.5 80.75 C136.66774345 83.63677837 139.12876413 86.47413209 141.5625 90 C143.18044538 92.28075626 143.18044538 92.28075626 145 94 C148.58399407 94.41692853 148.58399407 94.41692853 152 94 C156.9952016 97.06130971 159.52358606 101.52382113 162.4375 106.4375 C162.91614502 107.23285156 163.39479004 108.02820313 163.88793945 108.84765625 C174 125.90736579 174 125.90736579 174 131 C175.12277344 130.79503906 176.24554688 130.59007812 177.40234375 130.37890625 C178.91403429 130.10661417 180.42575466 129.83448766 181.9375 129.5625 C182.67291016 129.42779297 183.40832031 129.29308594 184.16601562 129.15429688 C194.47476798 127.30862506 204.52130367 126.75923661 215 126.75 C215.6884198 126.74932526 216.3768396 126.74865051 217.08612061 126.74795532 C236.68025744 126.77843851 257.04916918 128.85666086 272 143 C278.90717808 152.18232352 279.95969926 160.83746443 279 172 C278.15292149 176.26600984 276.77667667 180.03705354 275 184 C274.54882812 185.01191406 274.09765625 186.02382812 273.6328125 187.06640625 C259.05893793 216.61294301 228.35244206 241.81843987 197.8203125 253.18359375 C195 254 195 254 191 254 C190.76925781 255.19753906 190.53851563 256.39507812 190.30078125 257.62890625 C183.81403718 290.41133987 169.38173262 318.85117788 142 339 C141.2383252 339.34659668 140.47665039 339.69319336 139.69189453 340.05029297 C136.89593398 341.45958957 135.06422544 342.6289666 133 345 C131.79363732 350.1210902 131.96130885 355.15614109 132.125 360.375 C132.46294367 381.20198551 132.46294367 381.20198551 124.8515625 389.39453125 C118.29323008 395.08118657 110.59715536 397.38182209 102 397 C93.82910305 395.93263058 88.54352092 391.92583271 83 386 C82.34 385.01 81.68 384.02 81 383 C80.98598145 384.90507324 80.98598145 384.90507324 80.97167969 386.84863281 C80.93146021 391.61264649 80.86561602 396.37603587 80.79248047 401.13964844 C80.76445471 403.19164948 80.74314981 405.24375478 80.72900391 407.29589844 C80.60486213 424.29504572 79.42286769 437.63484554 67.5 450.75 C66.675 451.4925 65.85 452.235 65 453 C64.071875 453.845625 63.14375 454.69125 62.1875 455.5625 C51.4095414 464.35068163 38.33728094 465.16635601 25 464 C15.15593559 461.99007502 6.74391653 456.32196652 0 449 C-1.32968205 447.66302536 -2.66246722 446.32912062 -4 445 C-4.53367188 445.65226562 -5.06734375 446.30453125 -5.6171875 446.9765625 C-13.28516915 455.97118458 -22.30120464 462.7413544 -34.32714844 464.30200195 C-36.68532047 464.43568461 -39.01333144 464.46842201 -41.375 464.4375 C-42.20644531 464.42847656 -43.03789062 464.41945313 -43.89453125 464.41015625 C-55.60272969 464.08137689 -64.24547972 459.75323048 -73 452 C-75.55388875 449.13520306 -77.84649724 446.17513035 -80 443 C-80.474375 443.639375 -80.94875 444.27875 -81.4375 444.9375 C-89.02127273 454.00103327 -97.06997563 461.43595599 -109 464 C-123.55627072 464.8800124 -135.31683316 463.53682748 -147 454 C-155.85587053 445.87616716 -160.39667616 434.93403982 -161 423 C-160.66506765 413.45983007 -158.36688548 404.97329158 -153 397 C-150.984375 395.14453125 -150.984375 395.14453125 -149 394 C-148.05125 394.12375 -147.1025 394.2475 -146.125 394.375 C-142.9700598 394.34380554 -142.9700598 394.34380554 -141.45703125 392.2890625 C-139.87594708 389.90727503 -138.4355255 387.47186744 -137 385 C-136.49726563 384.27296875 -135.99453125 383.5459375 -135.4765625 382.796875 C-132.69359633 378.93620995 -132.69359633 378.93620995 -132.125 374.375 C-132.41375 373.59125 -132.7025 372.8075 -133 372 C-133.93314661 368.49824458 -134.25506368 366.6279172 -132.875 363.23046875 C-132.25625 362.22628906 -131.6375 361.22210938 -131 360.1875 C-130.65839844 359.62144043 -130.31679687 359.05538086 -129.96484375 358.47216797 C-129.15395387 357.13110729 -128.3355457 355.79457817 -127.51171875 354.46142578 C-125.69158101 351.49782295 -123.90796067 348.513458 -122.125 345.52734375 C-118.43170599 339.34245192 -114.72015973 333.16878048 -111 327 C-114.03671382 322.91943518 -117.0828585 318.86814895 -120.3125 314.9375 C-133.91409415 297.34250183 -141.57752215 276.8770153 -145 255 C-145.90878906 254.731875 -146.81757813 254.46375 -147.75390625 254.1875 C-178.52137571 244.59436081 -209.17057368 220.11482932 -225.17480469 191.93115234 C-231.3068811 180.18595383 -234.29622374 169.27647343 -233 156 C-229.64816153 145.45038888 -222.58471435 139.0282355 -213 134 C-198.93757229 128.18264391 -184.90933907 126.61017424 -169.75 126.625 C-169.06510498 126.6235498 -168.38020996 126.62209961 -167.67456055 126.62060547 C-154.1999431 126.62372929 -141.20515337 128.28681002 -128 131 C-127.83491943 130.44892578 -127.66983887 129.89785156 -127.49975586 129.33007812 C-125.72601089 123.68574469 -123.47188555 118.64372891 -120.5625 113.5 C-120.12856934 112.72881836 -119.69463867 111.95763672 -119.24755859 111.16308594 C-111.30929401 97.3365946 -101.74927702 84.75083082 -91 73 C-90.14148438 72.05769531 -89.28296875 71.11539063 -88.3984375 70.14453125 C-63.40754347 43.98336877 -31.0528858 29.60641972 4 23 C-5.86052668 14.73698882 -14.227324 12.45538925 -26.95605469 12.59057617 C-31.44913874 12.54769001 -33.39284912 12.46288504 -37.07421875 9.65625 C-39 7 -39 7 -39.5 3.9375 C-38.95255192 0.72124253 -38.2924309 -0.7075691 -36 -3 C-24.94473559 -6.68508814 -10.41267357 -4.48796599 0 0 Z " fill="#AAE5F3" transform="translate(233,26)"/>
<path d="M0 0 C0.79277344 0.33902344 1.58554688 0.67804687 2.40234375 1.02734375 C10.23899139 4.89746323 17.79349569 11.19918553 22.203125 18.75 C23.73844882 20.95949997 24.52641078 21.85127943 27.11621094 22.66455078 C29.7555234 22.96746588 32.34391154 23.07414365 35 23.125 C65.18696694 24.80289099 93.22275938 36.54463802 117 55 C117.56928223 55.42845215 118.13856445 55.8569043 118.72509766 56.29833984 C120.41655151 57.57491779 122.08578726 58.87567619 123.75 60.1875 C125.19632812 61.32251953 125.19632812 61.32251953 126.671875 62.48046875 C129.50440987 65.54587981 130.28251164 67.91692477 131 72 C129.69868726 74.99301929 128.93517013 76.53241494 126 78 C121.63655937 78.49882895 119.63075237 78.43430183 115.96484375 75.91015625 C114.943119 74.97452437 113.93453381 74.02440024 112.9375 73.0625 C106.4035804 67.17893861 99.57615617 62.44214178 92 58 C91.02571045 57.42354736 91.02571045 57.42354736 90.03173828 56.83544922 C79.14764217 50.48530116 68.13513672 46.31565676 56 43 C54.80503906 42.67128906 53.61007812 42.34257813 52.37890625 42.00390625 C17.73192574 32.96368287 -17.5106368 41.24381676 -47.93457031 58.7578125 C-52.94887218 61.77350611 -57.49998105 65.26011938 -62 69 C-62.55494141 69.45101074 -63.10988281 69.90202148 -63.68164062 70.36669922 C-83.22964893 86.27774347 -107.67708041 111.53845956 -113 137 C-112.21625 137.20625 -111.4325 137.4125 -110.625 137.625 C-101.28847695 141.16643978 -94.07252643 147.07107817 -87 154 C-86.05833984 154.88751953 -86.05833984 154.88751953 -85.09765625 155.79296875 C-74.15979754 167.02845627 -68.46511426 183.69067623 -68.65014648 199.09326172 C-69.15892559 213.51380879 -75.53576682 227.42581555 -85.55859375 237.75390625 C-93.25047282 244.83043499 -101.16683315 249.50029941 -111 253 C-112.19625 253.433125 -113.3925 253.86625 -114.625 254.3125 C-119.11486924 255.22710299 -123.43560775 255.16530998 -128 255 C-125.67710908 267.92872183 -121.91162675 279.26916079 -116 291 C-115.45472656 292.09054687 -114.90945312 293.18109375 -114.34765625 294.3046875 C-100.00797272 320.7401921 -73.59201739 336.97546653 -45.38427734 345.35302734 C-37.02222474 347.62206681 -28.48864561 349.27970234 -20 351 C-19.91782227 349.98897217 -19.91782227 349.98897217 -19.83398438 348.95751953 C-19.71506836 347.62116455 -19.71506836 347.62116455 -19.59375 346.2578125 C-19.51833984 345.37754395 -19.44292969 344.49727539 -19.36523438 343.59033203 C-18.28993354 335.964034 -13.9499334 331.58237664 -8.31640625 326.6640625 C-1.54391712 321.79883422 6.97456624 321.83472401 15 323 C22.20896865 325.50426497 27.25450814 330.43273556 31 337 C32.8706134 340.92271062 33.22016629 343.98243395 33.125 348.3125 C33.10695313 349.38113281 33.08890625 350.44976562 33.0703125 351.55078125 C33.03550781 352.76314453 33.03550781 352.76314453 33 354 C46.4237616 353.13769632 59.69811007 352.23427793 72.90234375 349.5859375 C76 349 76 349 79 349 C78.99097656 348.39414062 78.98195313 347.78828125 78.97265625 347.1640625 C79.24287504 339.52744459 81.82538935 334.58026846 87 329 C94.77723816 322.80095825 102.2294256 322.21495928 112 323 C116.87792216 324.36663006 120.55225541 326.27472799 124 330 C129.5649586 327.98962229 133.48157197 324.7401342 138 321 C138.79792969 320.36191406 139.59585937 319.72382813 140.41796875 319.06640625 C156.036248 305.93116027 165.63080315 287.44604902 171 268 C171.29003906 266.96230469 171.58007812 265.92460937 171.87890625 264.85546875 C175.37293049 251.21879128 176.34782474 238.33808174 176.31567383 224.3190918 C176.31253237 221.466889 176.33598401 218.6157459 176.36132812 215.76367188 C176.42169491 198.74942805 174.40123947 182.41152303 169.8125 166 C169.35858887 164.359104 169.35858887 164.359104 168.89550781 162.68505859 C163.17278005 142.59693693 154.43987215 124.18912619 142.96801758 106.73608398 C141.41161747 103.94476969 141.31301354 102.09143907 142 99 C144.0625 96.0625 144.0625 96.0625 147 94 C150.4375 93.6875 150.4375 93.6875 154 95 C156.49823545 97.34860155 158.19105632 100.1030364 160 103 C160.64066406 103.97839844 161.28132813 104.95679688 161.94140625 105.96484375 C174 124.84214896 174 124.84214896 174 131 C175.12277344 130.79503906 176.24554688 130.59007812 177.40234375 130.37890625 C178.91403429 130.10661417 180.42575466 129.83448766 181.9375 129.5625 C182.67291016 129.42779297 183.40832031 129.29308594 184.16601562 129.15429688 C194.47476798 127.30862506 204.52130367 126.75923661 215 126.75 C215.6884198 126.74932526 216.3768396 126.74865051 217.08612061 126.74795532 C236.68025744 126.77843851 257.04916918 128.85666086 272 143 C278.90717808 152.18232352 279.95969926 160.83746443 279 172 C278.15292149 176.26600984 276.77667667 180.03705354 275 184 C274.54882812 185.01191406 274.09765625 186.02382812 273.6328125 187.06640625 C259.05893793 216.61294301 228.35244206 241.81843987 197.8203125 253.18359375 C195 254 195 254 191 254 C190.76925781 255.19753906 190.53851563 256.39507812 190.30078125 257.62890625 C183.81403718 290.41133987 169.38173262 318.85117788 142 339 C141.2383252 339.34659668 140.47665039 339.69319336 139.69189453 340.05029297 C136.89593398 341.45958957 135.06422544 342.6289666 133 345 C131.79363732 350.1210902 131.96130885 355.15614109 132.125 360.375 C132.46294367 381.20198551 132.46294367 381.20198551 124.8515625 389.39453125 C118.29323008 395.08118657 110.59715536 397.38182209 102 397 C93.82910305 395.93263058 88.54352092 391.92583271 83 386 C82.34 385.01 81.68 384.02 81 383 C80.98598145 384.90507324 80.98598145 384.90507324 80.97167969 386.84863281 C80.93146021 391.61264649 80.86561602 396.37603587 80.79248047 401.13964844 C80.76445471 403.19164948 80.74314981 405.24375478 80.72900391 407.29589844 C80.60486213 424.29504572 79.42286769 437.63484554 67.5 450.75 C66.675 451.4925 65.85 452.235 65 453 C64.071875 453.845625 63.14375 454.69125 62.1875 455.5625 C51.4095414 464.35068163 38.33728094 465.16635601 25 464 C15.15593559 461.99007502 6.74391653 456.32196652 0 449 C-1.32968205 447.66302536 -2.66246722 446.32912062 -4 445 C-4.53367188 445.65226562 -5.06734375 446.30453125 -5.6171875 446.9765625 C-13.28516915 455.97118458 -22.30120464 462.7413544 -34.32714844 464.30200195 C-36.68532047 464.43568461 -39.01333144 464.46842201 -41.375 464.4375 C-42.20644531 464.42847656 -43.03789062 464.41945313 -43.89453125 464.41015625 C-55.60272969 464.08137689 -64.24547972 459.75323048 -73 452 C-75.55388875 449.13520306 -77.84649724 446.17513035 -80 443 C-80.474375 443.639375 -80.94875 444.27875 -81.4375 444.9375 C-89.02127273 454.00103327 -97.06997563 461.43595599 -109 464 C-123.55627072 464.8800124 -135.31683316 463.53682748 -147 454 C-155.85587053 445.87616716 -160.39667616 434.93403982 -161 423 C-160.66506765 413.45983007 -158.36688548 404.97329158 -153 397 C-150.984375 395.14453125 -150.984375 395.14453125 -149 394 C-148.05125 394.12375 -147.1025 394.2475 -146.125 394.375 C-142.9700598 394.34380554 -142.9700598 394.34380554 -141.45703125 392.2890625 C-139.87594708 389.90727503 -138.4355255 387.47186744 -137 385 C-136.49726563 384.27296875 -135.99453125 383.5459375 -135.4765625 382.796875 C-132.69359633 378.93620995 -132.69359633 378.93620995 -132.125 374.375 C-132.41375 373.59125 -132.7025 372.8075 -133 372 C-133.93314661 368.49824458 -134.25506368 366.6279172 -132.875 363.23046875 C-132.25625 362.22628906 -131.6375 361.22210938 -131 360.1875 C-130.65839844 359.62144043 -130.31679687 359.05538086 -129.96484375 358.47216797 C-129.15395387 357.13110729 -128.3355457 355.79457817 -127.51171875 354.46142578 C-125.69158101 351.49782295 -123.90796067 348.513458 -122.125 345.52734375 C-118.43170599 339.34245192 -114.72015973 333.16878048 -111 327 C-114.03671382 322.91943518 -117.0828585 318.86814895 -120.3125 314.9375 C-133.91409415 297.34250183 -141.57752215 276.8770153 -145 255 C-145.90878906 254.731875 -146.81757813 254.46375 -147.75390625 254.1875 C-178.52137571 244.59436081 -209.17057368 220.11482932 -225.17480469 191.93115234 C-231.3068811 180.18595383 -234.29622374 169.27647343 -233 156 C-229.64816153 145.45038888 -222.58471435 139.0282355 -213 134 C-198.93757229 128.18264391 -184.90933907 126.61017424 -169.75 126.625 C-169.06510498 126.6235498 -168.38020996 126.62209961 -167.67456055 126.62060547 C-154.1999431 126.62372929 -141.20515337 128.28681002 -128 131 C-127.83491943 130.44892578 -127.66983887 129.89785156 -127.49975586 129.33007812 C-125.72601089 123.68574469 -123.47188555 118.64372891 -120.5625 113.5 C-120.12856934 112.72881836 -119.69463867 111.95763672 -119.24755859 111.16308594 C-111.30929401 97.3365946 -101.74927702 84.75083082 -91 73 C-90.14148438 72.05769531 -89.28296875 71.11539063 -88.3984375 70.14453125 C-63.40754347 43.98336877 -31.0528858 29.60641972 4 23 C-5.86052668 14.73698882 -14.227324 12.45538925 -26.95605469 12.59057617 C-31.44913874 12.54769001 -33.39284912 12.46288504 -37.07421875 9.65625 C-39 7 -39 7 -39.5 3.9375 C-38.95255192 0.72124253 -38.2924309 -0.7075691 -36 -3 C-24.94473559 -6.68508814 -10.41267357 -4.48796599 0 0 Z " fill="#010102" transform="translate(233,26)"/>
<path d="M0 0 C3.29257288 1.21694403 5.98170008 2.56099517 8.8125 4.625 C29.15263519 18.39731559 53.84759103 25.85687828 78 29 C78.14695312 29.90621094 78.29390625 30.81242187 78.4453125 31.74609375 C80.04975787 40.45989186 81.8463916 47.94934188 89.0625 53.62109375 C96.16072268 58.22710957 102.61641244 58.83071995 111 58 C117.93324581 55.89357791 123.06773053 52.06767408 127 46 C129.43141099 41.30486153 130.32432036 37.20707249 131 32 C132.15757812 31.93941406 133.31515625 31.87882812 134.5078125 31.81640625 C136.04688457 31.73194498 137.58594655 31.64729982 139.125 31.5625 C139.88554687 31.52318359 140.64609375 31.48386719 141.4296875 31.44335938 C144.67229388 31.2616616 147.79108155 31.03736531 150.9921875 30.46484375 C153.64719992 30.05452365 156.01241793 29.95292027 158.68798828 29.97094727 C159.90024582 29.977239 159.90024582 29.977239 161.13699341 29.98365784 C162.05918167 29.99174721 162.05918167 29.99174721 163 30 C163.07642165 37.64967407 163.12875549 45.29924869 163.16479492 52.94921875 C163.17982831 55.54854003 163.20026046 58.14783617 163.22631836 60.74707031 C163.26294101 64.49550605 163.27978152 68.24360472 163.29296875 71.9921875 C163.30845261 73.14363251 163.32393646 74.29507751 163.33988953 75.48141479 C163.34203114 85.88158299 161.76788756 95.1565506 154.2109375 102.8125 C146.92838212 109.56081386 139.87241548 111.97280326 130 112 C119.92308934 111.3163158 113.86577663 106.41161286 107.32421875 99.1015625 C102.29570246 91.12120332 102.76858482 83.86987782 103.20507812 74.78125 C103.46762752 69.23306629 103.46762752 69.23306629 101.22265625 64.32421875 C98.91203171 62.68329063 98.91203171 62.68329063 95.375 63.0625 C91.74483076 63.6750845 91.74483076 63.6750845 90 67 C89.54278469 68.66503305 89.15596936 70.35001932 88.81640625 72.04296875 C88.61080078 73.03490234 88.40519531 74.02683594 88.19335938 75.04882812 C87.88108398 76.6024707 87.88108398 76.6024707 87.5625 78.1875 C83.42306009 98.78023421 83.42306009 98.78023421 75 106 C68.23934631 110.41934247 62.10557964 113.21066946 54 112 C53.26136719 111.91492188 52.52273437 111.82984375 51.76171875 111.7421875 C44.67620933 110.591863 38.83653665 107.33353666 34.171875 101.8515625 C28.61494455 93.94777307 27.3727217 86.52587742 28 77 C28.31464636 75.66213358 28.64604734 74.32800843 29 73 C29.42397518 68.33178243 29.42397518 68.33178243 27.875 64.0625 C25.16808705 62.52858266 23.05925999 62.74506167 20 63 C18.515 63.495 18.515 63.495 17 64 C16.14535211 65.68522139 16.14535211 65.68522139 15.62109375 67.80078125 C13.80902149 73.75810145 11.45368511 79.44226029 9.0625 85.1875 C8.63259766 86.24130859 8.20269531 87.29511719 7.75976562 88.38085938 C3.61163605 98.37036109 -0.70526565 105.36842249 -10.25 110.875 C-19.16551187 113.54965356 -26.83375276 112.26838331 -35 108 C-40.98297291 104.2772613 -44.59519505 98.37392481 -46.375 91.625 C-47.7559589 83.91021996 -46.64754407 77.72351521 -42.86328125 70.953125 C-41.34918595 67.52757001 -41.6178954 64.69367779 -42 61 C-42.66 60.34 -43.32 59.68 -44 59 C-43.38036519 54.32401817 -40.64857325 50.29414358 -38.375 46.25 C-37.96121094 45.45722656 -37.54742187 44.66445313 -37.12109375 43.84765625 C-35.88109157 41.65786517 -34.75761381 39.80311651 -33 38 C-29.30859375 37.49609375 -29.30859375 37.49609375 -26 38 C-23.72476911 37.95502158 -23.72476911 37.95502158 -22 37 C-21.32736441 35.33573332 -20.66216061 33.66846203 -20 32 C-18.76700214 29.82136353 -17.49307665 27.66565962 -16.19140625 25.52734375 C-15.8240184 24.92241592 -15.45663055 24.3174881 -15.07810974 23.69422913 C-14.30411897 22.42160148 -13.52829237 21.15008873 -12.75073242 19.87963867 C-11.56564798 17.9426453 -10.38687695 16.00192018 -9.20898438 14.06054688 C-2.92263339 3.73880793 -2.92263339 3.73880793 0 0 Z " fill="#90CDE7" transform="translate(135,363)"/>
<path d="M0 0 C0.68481445 0.12358887 1.36962891 0.24717773 2.07519531 0.37451172 C22.67837409 4.12343596 39.68570149 11.22855296 52 29 C58.33130839 38.87451767 60.77679498 51.50714351 58.37890625 62.96875 C55.10923299 74.24548977 48.21892221 84.02729661 38 90 C24.83788662 96.00981158 9.85301969 98.86895937 -4.3125 94.4375 C-34.63939358 82.49942725 -60.62274501 57.45043637 -74 28 C-75.704561 22.88631699 -75.38787788 18.49979448 -74.0625 13.375 C-69.43486529 5.80250684 -61.68225303 3.09647549 -53.421875 0.8125 C-36.07677237 -3.30597186 -17.48046458 -3.43717 0 0 Z " fill="#82CAE9" transform="translate(90,170)"/>
<path d="M0 0 C1.34765625 1.32421875 1.34765625 1.32421875 3.16015625 3.63671875 C4.15015625 4.62671875 4.15015625 4.62671875 5.16015625 5.63671875 C7.4830457 11.67623131 6.48421006 17.43297181 4.22265625 23.26171875 C-1.61972621 36.23572449 -9.82213178 46.67028105 -19.83984375 56.63671875 C-20.54898926 57.34973145 -20.54898926 57.34973145 -21.27246094 58.07714844 C-31.4324588 68.18058403 -50.51832146 86.63671875 -65.83984375 86.63671875 C-65.85966309 85.47325928 -65.87948242 84.3097998 -65.89990234 83.11108398 C-65.97698731 78.72173345 -66.06552929 74.33267104 -66.15722656 69.94360352 C-66.19509759 68.0575944 -66.23001643 66.17152328 -66.26171875 64.28540039 C-66.50656928 49.88895446 -67.36852031 35.90215492 -70.65234375 21.82421875 C-70.81831055 21.09283691 -70.98427734 20.36145508 -71.15527344 19.60791016 C-73.10265502 11.20915711 -75.4511574 2.91880339 -77.83984375 -5.36328125 C-55.96362256 -11.92890627 -19.57924606 -14.50776406 0 0 Z " fill="#81CAE8" transform="translate(490.83984375,177.36328125)"/>
<path d="M0 0 C5.13727393 2.85638045 8.58423911 6.57029957 12.3125 11 C13.15409668 11.98552856 13.15409668 11.98552856 14.01269531 12.9909668 C29.54468202 31.34594309 29.54468202 31.34594309 29.390625 40.28125 C28.01125371 49.88167417 19.12373397 55.48351314 12 61 C10.70040937 62.13683816 9.4074352 63.28134397 8.125 64.4375 C3.77959723 68.14598794 -0.05639072 69.56387377 -5.90234375 69.3671875 C-12.99220103 68.12613241 -18.47720308 61.96870948 -23.53125 57.2734375 C-26.39773971 54.63372704 -29.38096269 52.15807126 -32.40625 49.703125 C-36.37629319 45.46062786 -36.55946438 40.30743068 -36.43359375 34.76171875 C-35.69437915 30.0533879 -33.13404083 27.43650473 -30 24 C-28.5349212 22.213845 -27.07702323 20.42178438 -25.625 18.625 C-24.85929687 17.69945312 -24.09359375 16.77390625 -23.3046875 15.8203125 C-20.43185594 12.30474574 -17.66831038 8.70871623 -14.921875 5.09375 C-10.80495866 0.60865415 -6.06544645 -1.39296871 0 0 Z " fill="#030303" transform="translate(296,156)"/>
<path d="M0 0 C5.87111028 2.67188252 9.03253253 5.547597 12.234375 11.125 C13.19507934 14.00711302 13.34019383 15.82350044 13.296875 18.8125 C13.28785156 19.62074219 13.27882813 20.42898437 13.26953125 21.26171875 C13.25792969 21.87660156 13.24632812 22.49148437 13.234375 23.125 C14.018125 23.021875 14.801875 22.91875 15.609375 22.8125 C22.77173167 23.42994454 28.47866445 26.87579824 33.234375 32.1875 C37.40820368 37.25428722 38.70663841 40.98446352 38.54296875 47.53125 C37.84392488 53.40675796 35.20192177 57.51861633 30.859375 61.4375 C22.0153778 68.39175421 13.15943669 68.78196362 2.234375 68.125 C-4.9308909 66.87054692 -11.80417256 63.23337332 -16.1171875 57.25 C-17.08093162 55.58598138 -17.93241876 53.85806897 -18.765625 52.125 C-19.095625 51.465 -19.425625 50.805 -19.765625 50.125 C-20.5942543 44.57633041 -20.27838429 40.18398434 -17.265625 35.375 C-13.45099135 30.2888218 -8.94975067 26.05370332 -2.765625 24.25 C-2.105625 24.20875 -1.445625 24.1675 -0.765625 24.125 C-1.89259543 19.15588634 -1.89259543 19.15588634 -4.765625 15.125 C-7.765625 14.79166667 -7.765625 14.79166667 -10.765625 15.125 C-13.06149952 17.09011523 -13.06149952 17.09011523 -13.703125 20.5625 C-15.21430535 25.62939883 -15.21430535 25.62939883 -17.765625 27.125 C-21.59102734 27.61186939 -23.85039823 27.66474912 -27.203125 25.6875 C-29.55922236 21.82350034 -29.59869235 18.52939084 -28.765625 14.125 C-23.74728501 2.16640257 -12.57408642 -3.97824203 0 0 Z " fill="#FDA6BB" transform="translate(361.765625,161.875)"/>
<path d="M0 0 C4.44233505 3.16089225 7.26200312 5.78600935 9 11 C9.99460562 20.62833494 9.99460562 20.62833494 7.69140625 23.8046875 C4.81722285 25.83586561 2.38816584 25.41609054 -1 25 C-4.39076635 22.80058399 -5.27913549 20.52632818 -6.25 16.75 C-6.4975 15.5125 -6.745 14.275 -7 13 C-11.63577051 12.60088914 -11.63577051 12.60088914 -15.875 14.125 C-17.40430823 16.67384706 -17.67470941 19.07238473 -18 22 C-17.175 22.20625 -16.35 22.4125 -15.5 22.625 C-9.38999445 25.02535932 -3.6237609 28.85851604 -0.625 34.8828125 C1.0615318 40.59593899 1.23183617 47.40980614 -1.5 52.8125 C-5.3083695 58.29708847 -10.96900279 63.51892946 -17.40625 65.5625 C-26.89716423 67.1633771 -37.80402532 67.66902103 -46 62 C-50.87382376 58.43736422 -55.20983061 54.9299361 -57 49 C-57.67838403 42.85160805 -58.03552985 36.78544802 -54.390625 31.5234375 C-49.49434821 26.15953877 -43.89686723 23.06906017 -37 21 C-35.68 21 -34.36 21 -33 21 C-33.0825 19.845 -33.165 18.69 -33.25 17.5 C-33.2196155 11.76745709 -31.25593474 7.41630925 -27.3515625 3.234375 C-19.24557932 -4.05747013 -9.74386963 -5.43408114 0 0 Z " fill="#FCA5B9" transform="translate(242,164)"/>
<path d="M0 0 C3.0625 2.4375 3.0625 2.4375 5 5 C5.33 5.33 5.66 5.66 6 6 C6.29100893 10.18279294 6.31410985 14.37162552 6.35009766 18.56323242 C6.36659626 19.97062792 6.39380612 21.37794173 6.43212891 22.78491211 C6.78948942 35.97462258 6.78948942 35.97462258 3.6015625 39.89453125 C-0.31267071 43.06235663 -2.80878646 43.40317684 -7.7421875 43.34765625 C-11.41125881 42.78269544 -12.86730801 40.90821636 -15 38 C-17.57144701 32.56529452 -17.33110467 27.53384288 -17.3125 21.625 C-17.32861328 20.60921875 -17.34472656 19.5934375 -17.36132812 18.546875 C-17.36573848 11.75493182 -17.12505412 6.17053308 -12.12109375 1.09375 C-8.22309179 -0.91626943 -4.25264462 -0.76382452 0 0 Z " fill="#F6D854" transform="translate(245,364)"/>
<path d="M0 0 C3.46092943 0.50310635 5.14413803 1.76664747 7.4453125 4.35546875 C10.54393122 9.36892578 9.77412676 14.96124102 9.7578125 20.66796875 C9.77392578 21.78365234 9.79003906 22.89933594 9.80664062 24.04882812 C9.8108337 31.12254056 9.52624728 36.68204651 4.8203125 42.29296875 C1.06277849 43.97397081 -2.51567117 44.01902143 -6.5546875 43.35546875 C-9.89069117 41.2970835 -11.3809051 39.61614235 -13.5546875 36.35546875 C-14.00194689 31.74452259 -13.87877464 27.1106899 -13.8671875 22.48046875 C-13.88330078 21.20042969 -13.89941406 19.92039062 -13.91601562 18.6015625 C-13.91698242 16.75111328 -13.91698242 16.75111328 -13.91796875 14.86328125 C-13.92094971 13.7355127 -13.92393066 12.60774414 -13.92700195 11.44580078 C-13.42683928 7.29428663 -11.68285378 4.8118868 -9.171875 1.5703125 C-6.33627934 -0.55980888 -3.41874283 -0.10465539 0 0 Z " fill="#F7D954" transform="translate(340.5546875,363.64453125)"/>
<path d="M0 0 C4.44233505 3.16089225 7.26200312 5.78600935 9 11 C9.99460562 20.62833494 9.99460562 20.62833494 7.69140625 23.8046875 C4.81722285 25.83586561 2.38816584 25.41609054 -1 25 C-4.39076635 22.80058399 -5.27913549 20.52632818 -6.25 16.75 C-6.4975 15.5125 -6.745 14.275 -7 13 C-11.59872392 12.51197911 -11.59872392 12.51197911 -15.6328125 14.25390625 C-17.13659417 16.17445027 -17.81535004 17.81096984 -18.5625 20.125 C-19.25390625 22.2578125 -19.25390625 22.2578125 -20 24 C-23.09173752 25.54586876 -25.59429552 25.29359521 -29 25 C-31.4375 23.5 -31.4375 23.5 -33 21 C-33.83489237 14.7383072 -32.65049505 10.16619767 -29 5 C-20.92715632 -3.64674252 -10.63471493 -5.93089871 0 0 Z " fill="#030404" transform="translate(242,164)"/>
<path d="M0 0 C5.87111028 2.67188252 9.03253253 5.547597 12.234375 11.125 C13.20284802 14.03041905 13.43020312 16.09137454 13.484375 19.125 C13.51015625 19.99125 13.5359375 20.8575 13.5625 21.75 C13.234375 24.125 13.234375 24.125 11.96875 25.9140625 C8.93078612 28.0351634 5.78770518 27.65279591 2.234375 27.125 C-0.7294948 25.44547378 -0.83833848 23.88119599 -1.828125 20.5625 C-2.2921875 18.8609375 -2.2921875 18.8609375 -2.765625 17.125 C-4.65062771 14.80936913 -4.65062771 14.80936913 -7.765625 14.875 C-10.88062229 14.80936913 -10.88062229 14.80936913 -12.765625 17.125 C-13.075 18.259375 -13.384375 19.39375 -13.703125 20.5625 C-15.21430535 25.62939883 -15.21430535 25.62939883 -17.765625 27.125 C-21.59102734 27.61186939 -23.85039823 27.66474912 -27.203125 25.6875 C-29.55922236 21.82350034 -29.59869235 18.52939084 -28.765625 14.125 C-23.74728501 2.16640257 -12.57408642 -3.97824203 0 0 Z " fill="#020303" transform="translate(361.765625,161.875)"/>
<path d="M0 0 C3.76547534 3.67631108 7.27362923 7.49624952 10.6875 11.5 C11.41549805 12.33337891 11.41549805 12.33337891 12.15820312 13.18359375 C14.8168558 16.30063482 16.75062674 19.08383586 18 23 C14.36990079 26.73219575 10.67105666 30.37840926 6.8125 33.875 C6.17957031 34.44992188 5.54664063 35.02484375 4.89453125 35.6171875 C1.59100576 38.02842054 1.59100576 38.02842054 -1 38 C-3.19885966 36.31500428 -5.05401655 34.69116666 -7 32.75 C-11.77130534 28.10898091 -11.77130534 28.10898091 -17 24 C-16.64570323 18.65518022 -13.61608516 15.78884972 -10.1875 12 C-9.1178221 10.79225752 -8.04879907 9.58393468 -6.98046875 8.375 C-6.47177246 7.80394531 -5.96307617 7.23289063 -5.43896484 6.64453125 C-3.55158305 4.48752348 -1.76560346 2.25723638 0 0 Z " fill="#F6D854" transform="translate(292,172)"/>
<path d="M0 0 C1.44986845 2.89973691 0.81199018 5.16291927 0.5 8.375 C-0.04449621 15.04680167 0.20993695 21.36347036 1 28 C-2.43264715 26.0462166 -5.37572063 23.95062384 -8.3125 21.3125 C-9.00988281 20.68988281 -9.70726562 20.06726563 -10.42578125 19.42578125 C-10.94527344 18.95527344 -11.46476562 18.48476562 -12 18 C-11.61472468 12.75432828 -8.78798357 9.93953966 -5.4375 6.1875 C-4.91736328 5.59001953 -4.39722656 4.99253906 -3.86132812 4.37695312 C-2.58264738 2.91057613 -1.29244159 1.45426294 0 0 Z " fill="#DBC04A" transform="translate(287,178)"/>
</svg>
