<?xml version="1.0" encoding="UTF-8"?>
<svg version="1.1" xmlns="http://www.w3.org/2000/svg" width="512" height="512">
<path d="M0 0 C0.99 -0.03287109 0.99 -0.03287109 2 -0.06640625 C5.1696649 0.93030478 6.20804323 2.82527451 8 5.5625 C8.45410156 8.8840332 8.45410156 8.8840332 8.390625 12.61328125 C8.38496521 13.27208786 8.37930542 13.93089447 8.37347412 14.60966492 C8.35121239 16.69887216 8.3010433 18.78631773 8.25 20.875 C8.22992144 22.29750114 8.21167304 23.72002937 8.1953125 25.14257812 C8.15138359 28.6164508 8.08243096 32.08930325 8 35.5625 C8.88300781 35.418125 9.76601563 35.27375 10.67578125 35.125 C18.19073909 33.96264347 25.3977987 33.28323546 33 33.5625 C32.97905273 32.74048096 32.95810547 31.91846191 32.93652344 31.0715332 C32.85326691 27.33948036 32.80130753 23.60762306 32.75 19.875 C32.71648437 18.58142578 32.68296875 17.28785156 32.6484375 15.95507812 C32.63554687 14.70791016 32.62265625 13.46074219 32.609375 12.17578125 C32.58842773 11.02891846 32.56748047 9.88205566 32.54589844 8.70043945 C33.09584575 4.90018529 34.32823994 3.26655469 37 0.5625 C39 -0.06640625 39 -0.06640625 41 0 C41.66 -0.00128906 42.32 -0.00257812 43 -0.00390625 C45.95265362 0.83229448 47.10117824 2.16407822 49 4.5625 C49.45410156 7.77050781 49.45410156 7.77050781 49.390625 11.515625 C49.38496521 12.17584656 49.37930542 12.83606812 49.37347412 13.51629639 C49.3511623 15.61578263 49.30098314 17.7135337 49.25 19.8125 C49.22992794 21.2395586 49.21167839 22.66664408 49.1953125 24.09375 C49.15131693 27.58389293 49.08232876 31.07302699 49 34.5625 C51.21953614 34.83647959 53.44315382 35.07752234 55.66796875 35.3046875 C56.90571045 35.44245605 58.14345215 35.58022461 59.41870117 35.72216797 C64.8323954 35.48080482 67.15954413 32.77744351 70.95703125 29.1875 C83.09193561 18.06625114 99.67937408 13.60743827 115.734375 14.14453125 C122.71135894 14.62997987 127.41051829 17.54845867 132.8125 21.75 C140.3403192 31.42862468 141.45492171 40.59425612 140 52.5625 C139.10888081 57.04328659 137.68002514 61.31743648 136 65.5625 C136.41773682 65.94994385 136.83547363 66.3373877 137.26586914 66.73657227 C139.19936653 68.53133381 141.130938 70.3281558 143.0625 72.125 C143.71927734 72.73408203 144.37605469 73.34316406 145.05273438 73.97070312 C164.8900298 92.43990921 179.49563886 115.3335199 180.9453125 143.17578125 C180.96335937 143.96339844 180.98140625 144.75101563 181 145.5625 C181.03867187 146.33980469 181.07734375 147.11710938 181.1171875 147.91796875 C181.62495306 165.21020704 177.64278742 181.45936296 166 194.5625 C160.27908833 200.29272912 153.89914352 204.42901834 146.75 208.125 C146.08871094 208.47199951 145.42742187 208.81899902 144.74609375 209.17651367 C140.37985048 211.30986976 136.94925991 212.17227724 132 211.5625 C130.65512285 210.57807975 129.32042997 209.57947712 128 208.5625 C125.45903834 208.59700121 125.45903834 208.59700121 122.8125 209.3125 C117.86374495 210.3900515 113.03914798 211.0668461 108 211.5625 C108.0928125 212.7071875 108.0928125 212.7071875 108.1875 213.875 C108 216.5625 108 216.5625 106.84619141 218.15673828 C97.9739191 224.91243042 78.19911429 221.77597933 67.625 221.6875 C65.52083761 221.6774462 63.41667055 221.66832461 61.3125 221.66015625 C56.20821595 221.63834197 51.10416085 221.6039454 46 221.5625 C46.00276538 222.24865891 46.00553076 222.93481781 46.00837994 223.64176941 C46.07488372 240.40452635 46.12439851 257.16724102 46.15543652 273.93009949 C46.17084854 282.03678145 46.19182847 290.14337489 46.22631836 298.25 C46.25639553 305.32286806 46.27561606 312.39567194 46.28226548 319.46860218 C46.28614702 323.2072069 46.29514802 326.94562817 46.31719017 330.68417358 C46.4128692 347.57984003 46.40968319 363.37924301 41 379.5625 C40.06149278 385.81314035 43.03535245 391.0686131 45.4375 396.6875 C51.11058437 410.40440372 55.71750387 424.35709102 60 438.5625 C60.25571777 439.38637207 60.51143555 440.21024414 60.77490234 441.05908203 C64.21431491 452.25398391 66.99886424 466.39983142 62.375 477.6875 C61.2578125 479.68359375 61.2578125 479.68359375 60 481.5625 C59.56429688 482.25472656 59.12859375 482.94695312 58.6796875 483.66015625 C52.19811235 493.13458988 44.08461459 497.11163044 33 499.5625 C23.01475424 500.92103684 13.87069714 497.5477729 6 491.5625 C1.90358665 487.55634661 -1.59745981 483.16165218 -5 478.5625 C-5.35191406 479.61308594 -5.70382812 480.66367187 -6.06640625 481.74609375 C-10.08424216 493.33568641 -14.85426819 503.27516411 -26 509.5625 C-31.65958284 512.23777863 -36.70778841 513.08366485 -42.9375 513 C-43.72946777 512.99242676 -44.52143555 512.98485352 -45.33740234 512.97705078 C-51.30886882 512.80847652 -55.96381964 511.93391388 -61 508.5625 C-61.69222656 508.12679688 -62.38445312 507.69109375 -63.09765625 507.2421875 C-72.57208988 500.76061235 -76.54913044 492.64711459 -79 481.5625 C-79.96252936 474.48790917 -78.19960221 467.33539671 -75.5 460.8125 C-71.68132144 451.05365479 -71.58911687 439.90305135 -71 429.5625 C-71.84087158 429.57035522 -71.84087158 429.57035522 -72.69873047 429.57836914 C-84.43448587 429.67196138 -96.14640764 429.56909888 -107.875 429.125 C-109.48544189 429.06614624 -109.48544189 429.06614624 -111.12841797 429.00610352 C-117.12905119 428.76097807 -123.0399094 428.30284528 -129 427.5625 C-129.14775879 428.21130127 -129.29551758 428.86010254 -129.44775391 429.52856445 C-135.12444384 453.64822271 -150.67323539 487.62245545 -172.25 501.5625 C-180.91847378 506.60058733 -190.39707722 507.62430738 -200.1875 505.5625 C-210.86067092 502.44655446 -217.81469255 495.82139261 -223.25 486.39453125 C-227.29157162 478.01669008 -227.40330545 468.21620178 -225.1875 459.2890625 C-222.67807864 452.64955181 -218.80905892 447.55226782 -214.46875 442.00390625 C-207.29205106 432.36884289 -202.17575544 421.0080621 -198.3125 409.6875 C-197.92831909 408.5735083 -197.92831909 408.5735083 -197.53637695 407.43701172 C-196.27515058 403.47080474 -195.58143379 400.53589689 -197 396.5625 C-197.9960633 394.85527141 -197.9960633 394.85527141 -199.25 393.25 C-201.8966729 389.21844012 -203.33137317 385.07072346 -204.75 380.5 C-204.96043945 379.82735107 -205.17087891 379.15470215 -205.38769531 378.46166992 C-210.79099111 360.37920006 -209.19775234 339.23956754 -203 321.5625 C-212.48742421 321.08812879 -221.71953996 322.73223164 -230 327.5625 C-229.67 328.614375 -229.34 329.66625 -229 330.75 C-226.83710644 339.52605731 -226.76426397 349.41914834 -231 357.5625 C-234.37348139 362.89532665 -237.735982 367.65605974 -244 369.5625 C-246.77711918 369.36413434 -248.432589 368.94289437 -250.7421875 367.39453125 C-254.10582574 366.15498982 -256.17236882 367.26977622 -259.5 368.4375 C-263.35238895 369.77169892 -265.88798093 370.5625 -270 370.5625 C-270.103125 371.325625 -270.20625 372.08875 -270.3125 372.875 C-271.07652055 375.86162579 -271.5836509 376.72374312 -274 378.5625 C-280.40436973 379.61782425 -287.41413693 379.03380221 -293 375.5625 C-297.09597496 371.95001429 -300.03816574 368.01289416 -301 362.5625 C-301.40916985 353.74079804 -297.69242066 346.37106172 -294 338.5625 C-293.52175781 337.49128906 -293.04351562 336.42007812 -292.55078125 335.31640625 C-287.03438077 323.45236686 -280.34595499 316.33059296 -268 311.5625 C-260.74187384 309.59030774 -252.29960078 310.27610938 -245.5625 313.5625 C-242.26123638 314.82758277 -241.19301677 314.63904113 -237.828125 313.3046875 C-236.04484359 312.35756693 -234.26186009 311.40946197 -232.49536133 310.43139648 C-224.01080768 305.78221776 -215.61901602 304.3327923 -206.01293945 304.87744141 C-198.83329691 305.45535197 -198.83329691 305.45535197 -192.46484375 302.734375 C-190.45209138 300.10581134 -188.75175628 297.37057283 -187 294.5625 C-164.49327177 268.47683302 -130.147641 259.73324295 -97.0625 256.875 C-91.05877718 256.53516663 -85.0708161 256.52626456 -79.05859375 256.54296875 C-77.60398743 256.54508362 -77.60398743 256.54508362 -76.11999512 256.54724121 C-73.74665701 256.55089587 -71.37333179 256.55601772 -69 256.5625 C-69.00138269 255.50039102 -69.00138269 255.50039102 -69.00279331 254.41682529 C-69.02490634 237.16413969 -69.04143972 219.91145769 -69.05181217 202.65876102 C-69.05696191 194.31538953 -69.06397938 185.97202752 -69.07543945 177.62866211 C-69.08542672 170.35406708 -69.09186304 163.07947892 -69.09408849 155.80487722 C-69.09538874 151.95534409 -69.09843104 148.1058306 -69.10573006 144.25630379 C-69.11255412 140.62761852 -69.11460404 136.99896085 -69.11310768 133.37026978 C-69.11351083 131.41464383 -69.11887258 129.45902083 -69.12442017 127.50340271 C-69.11848326 122.39883482 -69.05760333 117.42222906 -68.39134216 112.35716248 C-67.60219235 108.60154522 -67.60219235 108.60154522 -69.625 106.06640625 C-70.40875 105.42574219 -71.1925 104.78507812 -72 104.125 C-84.18515974 93.16400623 -94.04923068 75.39788581 -95.2734375 58.87109375 C-95.55218579 48.07495812 -94.50117758 40.30024607 -86.96875 32.2890625 C-79.86372929 26.05807211 -72.06696185 25.19419645 -62.921875 25.2890625 C-47.35106286 26.37467689 -34.29125282 33.35116648 -22.53515625 43.25390625 C-20.00891591 44.89967953 -20.00891591 44.89967953 -16.99609375 43.90234375 C-16.00738281 43.46019531 -15.01867187 43.01804688 -14 42.5625 C-12.33522799 41.89111607 -10.66885668 41.22366533 -9 40.5625 C-8.98598145 38.95810059 -8.98598145 38.95810059 -8.97167969 37.32128906 C-8.93176488 33.3475603 -8.86600279 29.37460456 -8.79248047 25.40136719 C-8.76427933 23.68271831 -8.74306046 21.96393995 -8.72900391 20.24511719 C-8.70756167 17.77211253 -8.66090844 15.30066325 -8.609375 12.828125 C-8.60814636 12.06131409 -8.60691772 11.29450317 -8.60565186 10.50445557 C-8.50823107 6.94506413 -8.29079146 4.93964569 -6.08691406 2.08129883 C-3.83549359 0.44277674 -2.75489443 -0.00538065 0 0 Z " fill="#010101" transform="translate(316,-0.5625)"/>
<path d="M0 0 C14.01761605 3.6757448 28.20152312 13.45857328 36.578125 25.21484375 C38.32890945 28.64426494 39.02979387 32.05674641 39.6875 35.8125 C39.81705078 36.50537109 39.94660156 37.19824219 40.08007812 37.91210938 C40.39557559 39.60644764 40.69902647 41.30302158 41 43 C42.2375 43.226875 43.475 43.45375 44.75 43.6875 C45.44609375 43.81511719 46.1421875 43.94273438 46.859375 44.07421875 C49.85601491 43.97032065 50.96161917 43.17787267 53 41 C54.89186637 31.93208878 52.04518245 24.0181295 48 16 C81.69587245 1.50358197 119.57583669 6.92541252 153 20 C179.34881447 30.69762894 179.34881447 30.69762894 183 38 C181.98421875 38.42410156 180.9684375 38.84820312 179.921875 39.28515625 C152.50107277 50.88922484 132.11748707 68.38879182 120.6875 96.4375 C114.15982667 113.76024528 111.80976995 131.41539258 111.375 149.875 C111.33666926 151.25653091 111.29760983 152.63804181 111.2578125 154.01953125 C111.16475798 157.34623042 111.07892541 160.67294084 111 164 C109.65542725 164.18502075 109.65542725 164.18502075 108.28369141 164.3737793 C107.10983887 164.54304932 105.93598633 164.71231934 104.7265625 164.88671875 C103.56205566 165.05131592 102.39754883 165.21591309 101.19775391 165.38549805 C96.13919757 166.35758434 93.41624219 168.01716917 90.37522125 172.27479553 C88.80765565 175.3811588 88.62391823 177.3284012 88.62145996 180.79077148 C88.60915596 182.52725197 88.60915596 182.52725197 88.59660339 184.29881287 C88.60582573 186.1908419 88.60582573 186.1908419 88.61523438 188.12109375 C88.61112667 189.4701839 88.60566462 190.81927051 88.59895325 192.16835022 C88.5872402 195.07013539 88.58473983 197.97173041 88.58930969 200.87353516 C88.59613597 205.47307981 88.58021976 210.07237604 88.56091309 214.671875 C88.52306938 224.44790325 88.51027741 234.22390977 88.5 244 C88.488909 254.52827134 88.47333633 265.05642738 88.42928743 275.58462048 C88.41105529 280.14472308 88.40699465 284.70454025 88.41422272 289.26467037 C88.41575908 292.1202614 88.40486936 294.97571351 88.39084435 297.8312664 C88.38501912 299.75982622 88.39387402 301.68841352 88.40339661 303.61695862 C88.28087027 321.24623379 83.47119336 338.17784255 71.25 351.1875 C67.06625395 355.20196152 62.3614047 358.72402181 57 361 C56.01 360.67 55.02 360.34 54 360 C53.94392578 358.98679687 53.94392578 358.98679687 53.88671875 357.953125 C53.82097656 357.06109375 53.75523437 356.1690625 53.6875 355.25 C53.60048828 353.92742187 53.60048828 353.92742187 53.51171875 352.578125 C52.91958802 349.59487092 52.15665972 348.1369642 50 346 C47.16431142 345.33740346 44.95760774 345.71832307 42 346 C39.76156749 347.82078149 39.76156749 347.82078149 39.734375 350.44140625 C39.76534199 356.62706185 40.15698777 362.62489712 41 368.75 C43.20775933 385.37766989 42.75823832 402.4707032 40 419 C39.81308594 420.13050781 39.62617188 421.26101563 39.43359375 422.42578125 C39.29050781 423.27527344 39.14742187 424.12476563 39 425 C35.08871931 423.74218727 31.32821297 422.32732111 27.5625 420.6875 C18.66132974 416.9425632 9.56491048 413.49939154 0 412 C0.00523682 410.87094238 0.01047363 409.74188477 0.01586914 408.57861328 C0.0341117 404.34798999 0.04550169 400.1173701 0.05493164 395.88671875 C0.05992817 394.06347059 0.06672764 392.24022638 0.07543945 390.41699219 C0.08771187 387.780589 0.09327525 385.14423926 0.09765625 382.5078125 C0.10281754 381.70634796 0.10797882 380.90488342 0.11329651 380.07913208 C0.11398192 373.00050331 -0.1324343 365.86054292 -2 359 C-3.43410368 358.75045995 -4.87260072 358.52607358 -6.3125 358.3125 C-7.11300781 358.18488281 -7.91351563 358.05726563 -8.73828125 357.92578125 C-11.02169898 357.79059765 -11.02169898 357.79059765 -12.59838867 359.14916992 C-14.49786533 361.65743199 -14.50424477 363.57216105 -14.6875 366.6875 C-14.75324219 367.68136719 -14.81898438 368.67523438 -14.88671875 369.69921875 C-14.94279297 370.83810547 -14.94279297 370.83810547 -15 372 C-21.10147815 372.02485094 -27.20292637 372.04293117 -33.30444336 372.05493164 C-35.37703973 372.0599383 -37.44963261 372.06674559 -39.5222168 372.07543945 C-42.51351792 372.08766646 -45.50477206 372.09326513 -48.49609375 372.09765625 C-49.87008583 372.10539818 -49.87008583 372.10539818 -51.27183533 372.11329651 C-56.92771272 372.11378183 -62.38909204 371.7210104 -68 371 C-67.855625 370.33613281 -67.71125 369.67226563 -67.5625 368.98828125 C-67.376875 368.10527344 -67.19125 367.22226562 -67 366.3125 C-66.7215625 365.00732422 -66.7215625 365.00732422 -66.4375 363.67578125 C-65.7923544 359.73002467 -65.73037157 356.8088853 -67 353 C-68.85625 352.6596875 -68.85625 352.6596875 -70.75 352.3125 C-71.44609375 352.18488281 -72.1421875 352.05726563 -72.859375 351.92578125 C-75.05443823 351.87308665 -75.05443823 351.87308665 -77.11328125 352.90234375 C-80.07710353 356.19752504 -80.52825617 359.99070304 -81.4375 364.25 C-81.86294946 366.07781456 -82.29267466 367.9046389 -82.7265625 369.73046875 C-82.93958008 370.63071777 -83.15259766 371.5309668 -83.37207031 372.45849609 C-87.23128111 388.07839672 -93.84711668 403.34604074 -101.3125 417.5625 C-101.63774658 418.18769531 -101.96299316 418.81289063 -102.2980957 419.45703125 C-103.96824436 422.53798063 -105.01959037 424.01306025 -108 426 C-108.55945313 425.46632813 -109.11890625 424.93265625 -109.6953125 424.3828125 C-114.6410775 419.78690869 -119.69606467 415.60742659 -125.1875 411.6875 C-125.75678223 411.27967285 -126.32606445 410.8718457 -126.91259766 410.45166016 C-130.81361647 407.70958261 -134.83138436 405.3147205 -139 403 C-137.67300375 398.70489136 -135.97621519 394.87531586 -133.9375 390.875 C-130.32986807 383.45152868 -127.77107852 375.72329902 -125.25 367.875 C-124.87351318 366.7082373 -124.49702637 365.54147461 -124.10913086 364.33935547 C-118.60493694 349.38292886 -118.60493694 349.38292886 -119 334 C-122.48868651 331.67420899 -123.89718519 331.58134543 -128 332 C-130.34261608 333.37926773 -130.34261608 333.37926773 -132 335 C-138.4101709 325.38474365 -136.13222468 306.21766646 -134.61767578 295.22509766 C-132.67245288 285.57671432 -128.44580038 277.1481245 -123 269 C-122.34 268.01 -121.68 267.02 -121 266 C-120.34 266 -119.68 266 -119 266 C-117.84375 267.50390625 -117.84375 267.50390625 -116.5 269.5625 C-108.90708275 279.84909503 -96.54638523 284.43221313 -85 289 C-84.26402588 289.29205322 -83.52805176 289.58410645 -82.76977539 289.88500977 C-77.30050243 291.89341221 -72.3722152 292.51321974 -66.5625 292.4375 C-65.31472778 292.42396484 -65.31472778 292.42396484 -64.04174805 292.41015625 C-55.47557558 292.16873755 -49.31743422 290.36609725 -42.8125 284.625 C-33.58972355 274.65392525 -29.63370151 261.80637173 -29.8125 248.5 C-29.81314453 247.58863281 -29.81378906 246.67726563 -29.81445312 245.73828125 C-29.84700288 240.72561928 -30.15162646 235.94092751 -31 231 C-30.10861328 230.98598145 -30.10861328 230.98598145 -29.19921875 230.97167969 C-26.46535355 230.91747007 -23.73310801 230.83392722 -21 230.75 C-20.06542969 230.73582031 -19.13085938 230.72164062 -18.16796875 230.70703125 C-11.10405785 230.46004136 -5.05602459 229.25318747 -0.0625 223.9375 C2.37624687 219.49037336 2.21794904 215.11024056 2.31640625 210.17578125 C2.3475779 208.88367989 2.3475779 208.88367989 2.37937927 207.56547546 C2.44474909 204.81456456 2.50370132 202.06355844 2.5625 199.3125 C2.60569717 197.44725579 2.64931185 195.5820212 2.69335938 193.71679688 C2.80041763 189.14462876 2.90172054 184.5723649 3 180 C4.02407959 179.73952881 5.04815918 179.47905762 6.10327148 179.21069336 C7.46345011 178.8581848 8.8235536 178.50538622 10.18359375 178.15234375 C10.85660522 177.98198608 11.5296167 177.81162842 12.22302246 177.6361084 C21.27082602 175.27137292 29.93228746 170.84745417 35.046875 162.765625 C42.09254444 148.22181193 44.68364772 133.66511446 40.03125 117.8125 C36.33311207 107.72666928 31.54931725 101.19406514 22.1015625 95.9453125 C16.0902141 93.28205688 9.47877082 93.28640908 3 93 C2.97292861 90.75006641 2.95357171 88.50003905 2.9375 86.25 C2.92589844 84.99703125 2.91429687 83.7440625 2.90234375 82.453125 C2.98101349 79.67136286 3.27135941 77.6321826 4 75 C4.58491211 75.01571045 5.16982422 75.0314209 5.77246094 75.04760742 C8.43154164 75.11010267 11.09046764 75.14903569 13.75 75.1875 C15.13058594 75.22520508 15.13058594 75.22520508 16.5390625 75.26367188 C17.42851562 75.27333984 18.31796875 75.28300781 19.234375 75.29296875 C20.05131836 75.3086792 20.86826172 75.32438965 21.70996094 75.34057617 C24.58958833 74.91231602 25.93395601 74.03133771 28 72 C28.58671869 67.45643692 28.58671869 67.45643692 26.953125 63.30859375 C23.95357222 61.29889339 20.80478508 61.6003384 17.3125 61.5625 C7.3355618 61.16346693 1.89993745 58.70405926 -4.92578125 51.44921875 C-14.47899388 40.16887163 -23.44982499 26.30090528 -23.21875 10.9921875 C-22.7857312 7.04862343 -21.14063013 4.12179897 -18.34375 1.37109375 C-13.0733886 -1.71206767 -5.89844441 -0.90795401 0 0 Z " fill="#EFD68B" transform="translate(259,41)"/>
<path d="M0 0 C11.79030077 8.67461293 19.84905369 27.08332047 23 41 C25.24396738 56.40948584 26.53375138 73.81364144 17.375 87.1875 C10.34980862 95.61073942 2.76507097 101.05692933 -7.09375 105.58984375 C-10.04342104 106.82509282 -10.04342104 106.82509282 -12 109 C-12.40047444 111.32275177 -12.7397104 113.65739357 -13 116 C-15.58193977 116.67250524 -18.16532071 117.33817901 -20.75 118 C-21.47960937 118.19078125 -22.20921875 118.3815625 -22.9609375 118.578125 C-26.44571646 119.46515964 -29.38123722 120 -33 120 C-34.625 117.5625 -34.625 117.5625 -36 115 C-38.41090728 113.79454636 -39.69017134 113.96197422 -42.3671875 114.12109375 C-43.24802002 114.16951416 -44.12885254 114.21793457 -45.03637695 114.26782227 C-45.97312256 114.32381592 -46.90986816 114.37980957 -47.875 114.4375 C-55.59832573 114.85762472 -63.2638282 115.14415227 -71 115 C-77.8947047 94.31588591 -70.43718516 64.24693314 -61.09326172 45.14648438 C-49.88466954 23.11319575 -32.16467318 8.98371571 -9.15625 0.8125 C-5.8632797 -0.03519533 -3.37730764 -0.42332644 0 0 Z " fill="#DEA997" transform="translate(457,91)"/>
<path d="M0 0 C8.4355997 4.65455427 14.29101553 11.05171037 17.20703125 20.2421875 C18.86952117 28.73436576 18.71702262 37.71864222 14.23828125 45.25390625 C8.44407027 53.24396736 1.34731135 57.95480493 -7.359375 62.45703125 C-8.00261719 62.82054687 -8.64585937 63.1840625 -9.30859375 63.55859375 C-16.97963027 67.24758659 -27.91116353 66.89209726 -35.8828125 64.3203125 C-38.88143791 62.88142549 -41.59903796 61.30868591 -44.359375 59.45703125 C-45.04515625 59.02390625 -45.7309375 58.59078125 -46.4375 58.14453125 C-52.44179563 53.75878488 -56.30339022 46.41669746 -57.8359375 39.21875 C-58.28623668 29.00514586 -52.78687605 21.43689111 -46.35546875 14.203125 C-40.96851658 8.50779632 -35.16858455 4.31070966 -28.359375 0.45703125 C-27.245625 -0.18234375 -26.131875 -0.82171875 -24.984375 -1.48046875 C-16.63193801 -3.92859683 -8.02503721 -3.32030048 0 0 Z " fill="#030302" transform="translate(295.359375,307.54296875)"/>
<path d="M0 0 C14.05444904 3.68540326 28.15585018 13.47843215 36.59765625 25.22265625 C38.61111299 29.21031013 39.07288594 33.35722317 39.640625 37.73632812 C39.95429316 39.95225386 39.95429316 39.95225386 41 43 C43.47445454 44.54757566 43.47445454 44.54757566 46 45 C43.88870979 53.68645116 39.47563028 59.99577932 32 65 C31.34 65 30.68 65 30 65 C30 66.65 30 68.3 30 70 C29.67 70 29.34 70 29 70 C28.71125 68.865625 28.4225 67.73125 28.125 66.5625 C27.75375 65.386875 27.3825 64.21125 27 63 C24.50108212 61.75054106 22.29317928 61.84591898 19.54101562 61.76147461 C8.88354972 61.39749668 2.54404527 59.38866108 -4.92578125 51.44921875 C-14.47899388 40.16887163 -23.44982499 26.30090528 -23.21875 10.9921875 C-22.7857312 7.04862343 -21.14063013 4.12179897 -18.34375 1.37109375 C-13.0733886 -1.71206767 -5.89844441 -0.90795401 0 0 Z " fill="#EBBD75" transform="translate(259,41)"/>
<path d="M0 0 C5.96184785 2.6816806 9.91027574 7.18736213 13.0234375 12.84765625 C13.87239352 16.24348033 14.08455931 18.85868178 13.6484375 22.34765625 C11.17350391 25.76888798 9.76579969 27.14242646 5.5859375 27.91015625 C1.90037493 27.20441023 0.8305708 26.3870562 -1.3515625 23.34765625 C-2.09542318 21.0377731 -2.77346953 18.70449681 -3.3515625 16.34765625 C-4.52266434 14.95856986 -4.52266434 14.95856986 -7.7890625 15.09765625 C-8.9646875 15.18015625 -10.1403125 15.26265625 -11.3515625 15.34765625 C-13.47664494 18.5352799 -13.8535788 20.61277848 -14.3515625 24.34765625 C-13.6503125 24.43015625 -12.9490625 24.51265625 -12.2265625 24.59765625 C-5.62839391 26.31891762 -1.24999701 30.99317993 2.6484375 36.34765625 C5.29803183 40.9103475 5.27970255 45.33480031 4.21875 50.3984375 C1.98272419 57.50679116 -2.91956194 62.26389925 -9.4140625 65.72265625 C-17.23904785 69.21701994 -26.83361066 69.67289842 -35.0390625 67.16015625 C-42.94860026 64.08108619 -48.14578008 60.65658736 -52.27734375 53.02734375 C-54.38513 47.76937513 -54.33002986 43.31713431 -52.56640625 37.96484375 C-49.53436241 31.55299478 -44.6585716 27.46395131 -38.3515625 24.34765625 C-35.21079779 23.57404606 -32.61323296 23.40026384 -29.3515625 23.34765625 C-29.4340625 22.19265625 -29.5165625 21.03765625 -29.6015625 19.84765625 C-29.5711843 14.11630267 -27.62062665 9.72727805 -23.66796875 5.58203125 C-16.57417091 -0.7032262 -9.42295433 -2.61400893 0 0 Z " fill="#EBA0A9" transform="translate(360.3515625,87.65234375)"/>
<path d="M0 0 C3.34182069 8.77935943 4.00259318 20.25571139 0.64453125 29.109375 C-2.59753838 36.29054541 -6.39987813 41.45782739 -13.375 45.3125 C-26.06150294 48.63515553 -39.87959106 41.24261228 -50.7265625 35.05078125 C-55.77825428 31.88593855 -60.08173919 28.8772172 -61.9375 23.0625 C-61.958125 22.381875 -61.97875 21.70125 -62 21 C-48.58093016 9.8174418 -18.03743821 -6.0124794 0 0 Z " fill="#DDA896" transform="translate(213,274)"/>
<path d="M0 0 C0.66 0 1.32 0 2 0 C5.62546658 8.64534339 8.89386905 17.36179909 11.875 26.25 C12.1851001 27.16676514 12.4952002 28.08353027 12.81469727 29.02807617 C13.10014404 29.89021729 13.38559082 30.7523584 13.6796875 31.640625 C13.93476074 32.40922852 14.18983398 33.17783203 14.45263672 33.96972656 C15 36 15 36 15 39 C13.9584375 39.14695312 12.916875 39.29390625 11.84375 39.4453125 C2.57271598 40.85879917 -5.81877481 43.08092396 -14.51171875 46.59765625 C-17.6458202 47.85761417 -20.78492506 48.96781772 -24 50 C-28.17497101 39.45074289 -28.45205756 30.18842453 -28 19 C-27.04480469 18.52691406 -26.08960938 18.05382812 -25.10546875 17.56640625 C-15.67124003 12.78137132 -7.54147935 7.54147935 0 0 Z " fill="#E9BC74" transform="translate(344,399)"/>
<path d="M0 0 C5.07521435 2.26605512 8.28735728 5.22315206 10.8046875 10.2578125 C11.46743654 15.15311793 11.83893299 20.01191444 9.734375 24.58203125 C4.27716104 31.56123202 -4.86417225 36.27126697 -13.48828125 37.8671875 C-20.23556784 38.17504848 -25.17074381 36.83655615 -30.1953125 32.2578125 C-33.21853053 28.86590934 -34.1953125 27.31569848 -34.1953125 22.7578125 C-31.32521954 12.71248713 -22.58590565 5.82225964 -13.96484375 0.5859375 C-9.02197022 -1.78441088 -5.13402665 -1.73570296 0 0 Z " fill="#DDA897" transform="translate(287.1953125,320.7421875)"/>
<path d="M0 0 C3.99611692 2.6950556 7.07097103 6.2323346 8.6875 10.8125 C9.37609505 16.78032381 7.89297423 20.89019551 4.6875 25.8125 C3.965625 26.4725 3.24375 27.1325 2.5 27.8125 C0.35772532 30.17638931 0.54497199 30.75440438 0.5 33.8125 C0.33203125 35.91015625 0.33203125 35.91015625 -0.3125 37.8125 C-5.45129825 41.86579929 -11.99819373 42.41159167 -18.3125 42.8125 C-18.745625 42.02875 -19.17875 41.245 -19.625 40.4375 C-21.20470247 37.59551625 -21.20470247 37.59551625 -24.3125 35.8125 C-26.3617094 35.36110541 -26.3617094 35.36110541 -28.5 35.1875 C-30.3871875 35.001875 -30.3871875 35.001875 -32.3125 34.8125 C-34.3172504 29.49178407 -31.88898778 25.38205913 -29.75 20.5 C-29.41419922 19.68337891 -29.07839844 18.86675781 -28.73242188 18.02539062 C-23.34145313 5.42638546 -14.92539528 -5.3506134 0 0 Z " fill="#D59782" transform="translate(64.3125,327.1875)"/>
<path d="M0 0 C12.69105691 0 12.69105691 0 17.58984375 4.44140625 C24.19947988 11.40657293 25.5945755 19.11153407 25.3515625 28.51171875 C24.45774415 37.38038301 22.82444585 44.96786598 16 51 C10.46885732 55.50209288 7.87141557 55.42571689 0 57 C0 38.19 0 19.38 0 0 Z " fill="#DAA695" transform="translate(262,149)"/>
<path d="M0 0 C2.4863247 5.90502115 3.11458456 12.00724771 1.3828125 18.2109375 C-1.265081 24.32686851 -6.12658447 28.06329223 -12 31 C-18.98729969 31.75247843 -24.60787416 31.67910721 -30.3828125 27.42578125 C-34.08097916 24.16532031 -36.68391383 20.7857679 -38 16 C-37.8515625 13.53125 -37.8515625 13.53125 -37 11 C-30.96726043 6.30912213 -22.94684804 4.19078342 -15.6875 2.125 C-14.9354126 1.90972656 -14.1833252 1.69445312 -13.40844727 1.47265625 C-8.80087748 0.24247738 -4.76635321 -0.21407663 0 0 Z " fill="#D49781" transform="translate(363,452)"/>
<path d="M0 0 C5.96184785 2.6816806 9.91027574 7.18736213 13.0234375 12.84765625 C13.87239352 16.24348033 14.08455931 18.85868178 13.6484375 22.34765625 C11.17350391 25.76888798 9.76579969 27.14242646 5.5859375 27.91015625 C1.90037493 27.20441023 0.8305708 26.3870562 -1.3515625 23.34765625 C-2.09542318 21.0377731 -2.77346953 18.70449681 -3.3515625 16.34765625 C-4.52266434 14.95856986 -4.52266434 14.95856986 -7.7890625 15.09765625 C-8.9646875 15.18015625 -10.1403125 15.26265625 -11.3515625 15.34765625 C-13.53919761 18.27736661 -13.53919761 18.27736661 -14.2890625 21.91015625 C-15.3515625 25.34765625 -15.3515625 25.34765625 -18.3515625 27.34765625 C-21.7890625 27.78515625 -21.7890625 27.78515625 -25.3515625 27.34765625 C-28.46496102 24.71324212 -29.24376745 23.06179842 -29.8515625 19.03515625 C-28.86442837 11.75504201 -25.77747491 7.16692135 -20.1328125 2.57421875 C-14.03946816 -1.62163679 -7.12439888 -1.97636979 0 0 Z " fill="#050403" transform="translate(360.3515625,87.65234375)"/>
<path d="M0 0 C6.36300019 0.55841572 11.8792016 2.08573817 17.875 4.25 C19.19129395 4.71708374 19.19129395 4.71708374 20.53417969 5.19360352 C26.58049694 7.37986472 32.40603213 9.80554993 38 13 C36.57361987 19.50429341 33.56071579 24.33806521 28 28 C23.31693228 30.6760387 18.24195296 30.62423257 13 30 C6.23067993 28.1136639 2.63191525 23.80603753 -1 18 C-2.34832104 15.30335792 -2.16910682 13.13412479 -2.1875 10.125 C-2.20167969 9.07570313 -2.21585938 8.02640625 -2.23046875 6.9453125 C-2.00504937 4.06452929 -1.48964317 2.43759792 0 0 Z " fill="#DBA795" transform="translate(255,467)"/>
<path d="M0 0 C9.43303406 1.73304579 17.83873437 10.05102541 25 16 C25.64582031 16.51046875 26.29164063 17.0209375 26.95703125 17.546875 C28.34350161 18.65085608 29.67920314 19.81823439 31 21 C31 21.66 31 22.32 31 23 C31.66 23 32.32 23 33 23 C31.23459396 27.7665963 27.37254328 30.58625771 23.10546875 33.12890625 C17.97847991 35.25009087 12.34080907 34.41762906 7.1875 32.8125 C1.5804851 29.62419741 -2.75944074 25.13770224 -5 19 C-6.35592427 11.42942285 -4.2142843 6.23112036 0 0 Z " fill="#DBA795" transform="translate(110,456)"/>
<path d="M0 0 C3.35034035 2.8850153 4.82515909 4.91872076 5.203125 9.41796875 C5.30968316 15.71378029 4.60047758 20.25727867 2 26 C-2.87103876 24.51520436 -7.26164032 22.48762498 -11.8125 20.25 C-20.32299402 16.14129067 -29.03531165 12.96204972 -38 10 C-35.94551647 7.77946971 -34.05181884 6.33786247 -31.34765625 4.9921875 C-30.65349609 4.64542969 -29.95933594 4.29867187 -29.24414062 3.94140625 C-28.52419922 3.58949219 -27.80425781 3.23757812 -27.0625 2.875 C-25.98838867 2.33552734 -25.98838867 2.33552734 -24.89257812 1.78515625 C-17.34231982 -1.95148688 -7.82975782 -4.6057399 0 0 Z " fill="#E6B972" transform="translate(436,31)"/>
<path d="M0 0 C0.763125 0.680625 1.52625 1.36125 2.3125 2.0625 C5.81995176 4.59112801 8.26185716 4.6175479 12.5078125 4.47265625 C15.89394087 3.83045949 17.79875987 2.28561244 20.41015625 0.12890625 C22 -1 22 -1 25.1875 -1.5625 C28 -1 28 -1 30.375 0.5625 C32 3 32 3 32.8125 6.25 C31.57662518 11.95403763 27.75687418 14.83602406 23 18 C15.6049629 21.10996766 6.48664275 21.71329014 -1.05859375 18.83203125 C-5.39553607 16.32523992 -9.67711384 13.5351587 -12 9 C-12 5.19715329 -11.7968187 2.98069994 -9.375 0 C-5.86785042 -1.47669456 -3.64319548 -0.95873565 0 0 Z " fill="#040303" transform="translate(421,146)"/>
</svg>
