<?xml version="1.0" encoding="UTF-8"?>
<svg version="1.1" xmlns="http://www.w3.org/2000/svg" width="512" height="512">
<path d="M0 0 C1.41345703 0.76376953 1.41345703 0.76376953 2.85546875 1.54296875 C14.49650346 8.40819435 20.64655256 17.60583075 25.16015625 30.25 C26.19988379 34.89250435 26.21864962 39.20099058 26.125 43.9375 C26.11597656 44.81212891 26.10695312 45.68675781 26.09765625 46.58789062 C26.0742957 48.72538064 26.03843247 50.86272786 26 53 C26.93714844 52.28457031 27.87429687 51.56914063 28.83984375 50.83203125 C61.29434651 26.67765076 100.41111802 12.88018225 140.94140625 12.83203125 C141.94856186 12.82870285 142.95571747 12.82537445 143.99339294 12.82194519 C146.11188303 12.81691767 148.23038091 12.81453556 150.34887695 12.81469727 C153.53024917 12.81252205 156.7112675 12.79435192 159.89257812 12.77539062 C176.36011042 12.72821422 192.26762873 13.63195686 208.3125 17.625 C209.36808105 17.88587402 210.42366211 18.14674805 211.51123047 18.41552734 C235.95299689 24.69027255 258.9915001 35.5946826 279 51 C279.99 51.66 280.98 52.32 282 53 C281.95359375 51.76765625 281.9071875 50.5353125 281.859375 49.265625 C281.44031607 33.52303109 284.08067843 21.24218725 294.73828125 9.00390625 C305.93455232 -1.7608169 319.05651286 -4.50531389 333.93359375 -4.26953125 C346.93157191 -3.78297592 357.09386313 2.50592524 365.875 11.875 C375.57518257 23.69200899 377.16321949 36.92415974 377.11352539 51.6484375 C377.11367142 52.79077347 377.11381744 53.93310944 377.1139679 55.11006165 C377.11327431 58.86506079 377.1055079 62.62000958 377.09765625 66.375 C377.0957901 68.98673475 377.09436713 71.59846985 377.09336853 74.21020508 C377.09026961 80.36878396 377.08207575 86.52734493 377.07201904 92.68591595 C377.06081305 99.70168495 377.05533618 106.71745485 377.05032361 113.73323059 C377.03989183 128.15549627 377.02232044 142.57774788 377 157 C377.94472168 157.30019043 378.88944336 157.60038086 379.86279297 157.90966797 C386.00488708 160.04434441 390.51096595 164.48206743 393.4375 170.25 C395.27527613 174.37057429 396.1306538 177.81370879 396.17700195 182.33837891 C396.18983719 183.4302652 396.20267242 184.52215149 396.21589661 185.64712524 C396.22328354 186.82833954 396.23067047 188.00955383 396.23828125 189.2265625 C396.246353 190.44395111 396.25442474 191.66133972 396.26274109 192.9156189 C396.27658333 195.49630306 396.28730485 198.07700553 396.29516602 200.65771484 C396.31234085 204.58857385 396.35622341 208.5185836 396.40039062 212.44921875 C396.41052101 214.95832716 396.41903603 217.46744271 396.42578125 219.9765625 C396.44328934 221.14563141 396.46079742 222.31470032 396.47883606 223.51919556 C396.45361315 233.09600156 394.23354753 240.34708273 387.71484375 247.49609375 C382.1875788 252.34346734 375.79110163 254.13027648 368.58203125 254.09765625 C366.70161133 254.09282227 366.70161133 254.09282227 364.78320312 254.08789062 C362.81770508 254.07532227 362.81770508 254.07532227 360.8125 254.0625 C359.47721519 254.05748317 358.14192859 254.05292059 356.80664062 254.04882812 C353.53771527 254.03702695 350.26888009 254.02056297 347 254 C346.70504639 254.93336182 346.41009277 255.86672363 346.10620117 256.82836914 C341.38604614 270.36170261 328.34971854 280.63295133 316 287 C306.59776475 291.07460681 297.22266718 293.16423905 286.97509766 293.11352539 C286.19393585 293.11367142 285.41277405 293.11381744 284.60794067 293.1139679 C282.0432857 293.11327498 279.47870468 293.10551184 276.9140625 293.09765625 C275.12901855 293.09578986 273.34397409 293.094367 271.55892944 293.09336853 C266.87362235 293.08956075 262.18834654 293.07974538 257.50305176 293.06866455 C252.71688256 293.05841297 247.93070828 293.05386289 243.14453125 293.04882812 C233.76300492 293.03812149 224.38150996 293.02053884 215 293 C215 299.6 215 306.2 215 313 C225.66692778 313.07280109 236.33212079 313.10723891 246.999259 313.07515812 C251.95314751 313.06177188 256.90586122 313.06483966 261.85961914 313.10620117 C266.64535604 313.14554295 271.42924556 313.14076075 276.21499825 313.10607719 C278.03574166 313.10050147 279.85660519 313.11051495 281.67716789 313.13676643 C291.81213498 313.53186722 291.81213498 313.53186722 301.01321411 310.03952026 C303.40567822 307.72761303 303.40567822 307.72761303 305.24269104 305.25364685 C311.2011365 297.61228603 321.88330918 294.70997994 331 293 C345.26669838 291.53904238 358.31678162 294.63683288 370 303 C370.63421875 303.45117188 371.2684375 303.90234375 371.921875 304.3671875 C380.06200612 310.74242293 384.9250919 320.22768234 389.35546875 329.36328125 C390.05885124 330.79404243 390.05885124 330.79404243 390.77644348 332.25370789 C391.75776373 334.25586471 392.73482807 336.26011274 393.70776367 338.26635742 C395.18183231 341.30083266 396.67489028 344.32541754 398.16992188 347.34960938 C410.8245661 373.14830909 410.8245661 373.14830909 410.5 387.0625 C410.48718994 387.92029053 410.47437988 388.77808105 410.46118164 389.66186523 C410.00655736 403.96296897 403.70882224 416.35616037 393.2890625 426.15234375 C380.56084451 436.42614428 366.98148519 439.48728526 351 438 C347.20459073 437.28673972 343.63159311 436.3027834 340 435 C339.01 434.67 338.02 434.34 337 434 C336.61062256 435.02565063 336.61062256 435.02565063 336.21337891 436.07202148 C334.82764167 439.41591418 333.2336995 442.62801846 331.5859375 445.84765625 C331.25260406 446.50019882 330.91927063 447.15274139 330.57583618 447.82505798 C329.86939989 449.20491886 329.16163909 450.58410235 328.45263672 451.96264648 C327.39254447 454.02831333 326.34266583 456.09895804 325.29296875 458.16992188 C313.91966015 480.41612752 300.32951704 497.68105079 276 506 C269.75429552 507.7249629 263.87930575 508.28959387 257.41862488 508.26069641 C256.49651901 508.26452196 255.57441314 508.26834751 254.62436467 508.27228898 C251.55705303 508.2825475 248.48993109 508.27864046 245.42260742 508.2746582 C243.2141757 508.27900866 241.00574549 508.28419292 238.7973175 508.29014587 C232.81374741 508.30351188 226.83024058 508.30411715 220.84665847 508.30158257 C215.84436707 508.30051113 210.84208837 508.30540072 205.8397997 508.310188 C193.35967323 508.32190845 180.87957737 508.32106287 168.39945076 508.31463119 C157.58312844 508.30946475 146.76689626 508.32071288 135.95059177 508.33972941 C124.82188052 508.35914388 113.69320585 508.36706656 102.56447679 508.36360615 C96.32560313 508.36179649 90.08681202 508.36439779 83.84795189 508.37832069 C77.97836642 508.39092984 72.1089608 508.38892564 66.23937798 508.37590981 C64.0916462 508.37355112 61.94390165 508.37625316 59.79618454 508.38453293 C45.92632934 508.43412572 33.49942954 507.90105965 20.9375 501.375 C20.26267578 501.02872559 19.58785156 500.68245117 18.89257812 500.32568359 C-4.24943349 488.02254469 -13.87833406 464.38749096 -25.375 442.19921875 C-25.85710937 441.26940186 -26.33921875 440.33958496 -26.8359375 439.3815918 C-28 437 -28 437 -29 434 C-29.88751953 434.30744141 -29.88751953 434.30744141 -30.79296875 434.62109375 C-31.58316406 434.89050781 -32.37335938 435.15992188 -33.1875 435.4375 C-33.96480469 435.70433594 -34.74210937 435.97117187 -35.54296875 436.24609375 C-48.88451372 440.33976335 -63.66579134 438.85772387 -75.96484375 432.45703125 C-88.16420832 425.14410626 -97.93060026 414.13294338 -101.5625 400.08203125 C-104.39169507 380.15136239 -99.02801868 365.4327086 -90.0078125 347.92578125 C-87.44901895 342.94168921 -85.06103987 337.89367351 -82.70703125 332.81030273 C-74.90571297 316.03992684 -66.94071191 302.79612349 -48.79296875 295.96484375 C-47.87128906 295.64644531 -46.94960938 295.32804687 -46 295 C-45.33613281 294.75378906 -44.67226563 294.50757813 -43.98828125 294.25390625 C-31.62439026 290.36504683 -17.29102587 292.79054599 -5.9609375 298.54296875 C1.1968585 302.85144926 1.1968585 302.85144926 3.34744263 305.92694092 C6.44832396 309.99151988 8.83510821 311.77885136 13.92648315 312.74542236 C18.92687419 313.12685699 23.92662265 313.05716791 28.9375 313 C30.78696394 313.00752515 32.63641661 313.01856494 34.48583984 313.03295898 C39.33267358 313.06130532 44.17818092 313.04216079 49.02496338 313.01287842 C53.97896845 312.99143339 58.93273784 313.01524059 63.88671875 313.03515625 C73.59157904 313.06754366 83.29519219 313.04553872 93 313 C93 306.4 93 299.8 93 293 C90.66035156 293.02094727 88.32070312 293.04189453 85.91015625 293.06347656 C78.11913941 293.13020479 70.32810886 293.17411656 62.53688049 293.20724869 C57.82000423 293.22798992 53.10342445 293.25605649 48.38671875 293.30175781 C43.82198232 293.34570226 39.25752832 293.36923789 34.69259644 293.37950897 C32.9641374 293.38681426 31.23569116 293.40107528 29.50735474 293.42292023 C9.40804959 293.6665076 -8.47644298 289.63044031 -24 276 C-25.01513672 275.12601562 -25.01513672 275.12601562 -26.05078125 274.234375 C-29.35086648 271.18419913 -31.6515578 268.88237862 -33.328125 264.63671875 C-35.62889379 258.98269958 -35.62889379 258.98269958 -40 255 C-46.75795265 253.54276578 -53.62914784 253.9410457 -60.49609375 254.15234375 C-68.94537053 254.28074292 -75.29131671 251.37256388 -81.49609375 245.71484375 C-85.98802013 240.59288094 -88.11349843 234.37122803 -88.16113281 227.64575195 C-88.17074036 226.55063797 -88.1803479 225.45552399 -88.19024658 224.32722473 C-88.19449646 223.14287338 -88.19874634 221.95852203 -88.203125 220.73828125 C-88.20882507 219.51852097 -88.21452515 218.29876068 -88.22039795 217.04203796 C-88.22985252 214.45715198 -88.23638374 211.87225392 -88.24023438 209.28735352 C-88.24991856 205.34564956 -88.28092986 201.4044717 -88.3125 197.46289062 C-88.31903226 194.95052393 -88.32428186 192.4381535 -88.328125 189.92578125 C-88.3404718 188.75155106 -88.3528186 187.57732086 -88.36553955 186.36750793 C-88.33927371 176.64504797 -86.63482443 170.01855798 -79.91015625 162.765625 C-76.89286988 159.97664046 -73.26839781 157 -69 157 C-69.00184359 156.40715304 -69.00368717 155.81430609 -69.00558662 155.20349407 C-69.04987316 140.73741722 -69.08290866 126.27134645 -69.10362434 111.80521679 C-69.11391013 104.80932865 -69.12791849 97.81348593 -69.15087891 90.81762695 C-69.17304218 84.06139511 -69.18458203 77.3052104 -69.18975449 70.54894447 C-69.19343885 67.97627331 -69.20063342 65.40360462 -69.21146011 62.8309536 C-69.22605917 59.21691774 -69.22797441 55.60307445 -69.22705078 51.98901367 C-69.23424133 50.9345253 -69.24143188 49.88003693 -69.24884033 48.79359436 C-69.20431352 32.60491811 -65.32149016 20.01957533 -54.2265625 8.09375 C-40.66664215 -4.95123667 -16.78056358 -9.0727449 0 0 Z " fill="#020201" transform="translate(102,4)"/>
<path d="M0 0 C4.55354159 2.54462618 7.91159198 5.3750038 10.78125 9.734375 C11.49667969 10.79398438 11.49667969 10.79398438 12.2265625 11.875 C16.85130331 20.31578377 17.48869495 28.13693843 17.59375 37.671875 C17.6022699 38.36957001 17.61078979 39.06726501 17.61956787 39.78610229 C17.65299039 54.10435091 17.65299039 54.10435091 12.86254883 59.58691406 C10.75900686 61.52904483 8.57510113 63.32434056 6.30761719 65.07128906 C3.33160403 67.61788341 1.15898698 70.74132145 -1.09375 73.921875 C-1.73836182 74.77471069 -1.73836182 74.77471069 -2.39599609 75.64477539 C-5.06174701 79.36152145 -5.98354579 81.93542692 -5.34375 86.484375 C-3.58923064 89.83136681 -3.58923064 89.83136681 0.15625 90.421875 C3.61203779 90.3152536 4.62141764 89.51779451 7.16015625 87.08203125 C9.80265449 83.9934627 12.22272179 80.73851156 14.65625 77.484375 C25.33555438 64.32326045 37.58894439 52.90325086 51.65625 43.484375 C52.65398437 42.80246094 53.65171875 42.12054688 54.6796875 41.41796875 C70.06308858 31.42481451 86.89629871 23.95767463 104.65625 19.484375 C106.51057115 18.92238448 108.36475489 18.35994018 110.21875 17.796875 C125.34324753 13.88328253 140.86735703 14.11178846 156.38012695 14.11376953 C160.18682125 14.10941155 163.99233889 14.07302687 167.79882812 14.03515625 C187.88218333 13.94055846 207.15124448 15.71599148 226.09375 22.734375 C227.72437378 23.32025391 227.72437378 23.32025391 229.38793945 23.91796875 C238.17872667 27.14907811 246.50214103 30.8906047 254.65625 35.484375 C255.26936035 35.81872559 255.8824707 36.15307617 256.51416016 36.49755859 C279.62897173 49.15638425 300.30343014 68.40998829 314.65625 90.484375 C315.04570801 91.07750488 315.43516602 91.67063477 315.83642578 92.28173828 C328.37345912 111.61425268 337.15078062 132.89021694 341.65625 155.484375 C341.92888672 156.74193604 341.92888672 156.74193604 342.20703125 158.02490234 C344.23798826 168.87153059 343.95745356 179.81980704 343.91699219 190.81518555 C343.90622184 194.30600135 343.91695897 197.7963087 343.9296875 201.28710938 C343.92836668 203.52604279 343.92580591 205.76497589 343.921875 208.00390625 C343.92592346 209.037397 343.92997192 210.07088776 343.93414307 211.13569641 C343.8394469 225.83349519 338.20055867 238.82427654 327.96875 249.3671875 C316.31578874 260.03594595 301.75047056 263.79767746 286.27243042 263.75180054 C285.14432894 263.75633165 284.01622746 263.76086276 282.85394108 263.76553118 C279.08341227 263.77816567 275.31302808 263.77655539 271.54248047 263.77490234 C268.83498086 263.77980319 266.12749131 263.78763769 263.41999817 263.79525757 C256.83369583 263.81183763 250.24742929 263.81736579 243.66110782 263.81848232 C238.30338521 263.8194344 232.94567436 263.82355265 227.58795547 263.82988358 C212.37763861 263.84748928 197.1673499 263.85672372 181.95702277 263.85522263 C180.72822814 263.85510276 180.72822814 263.85510276 179.47460938 263.85498047 C178.24430347 263.85485783 178.24430347 263.85485783 176.98914291 263.85473271 C163.70711549 263.85392042 150.42520164 263.87304543 137.14320706 263.9012572 C123.48554824 263.9300365 109.82794471 263.94379467 96.17025483 263.94206965 C88.51052752 263.9414074 80.85091921 263.9468269 73.19121933 263.96842575 C66.66747063 263.9867043 60.14389485 263.99093063 53.62013154 263.9774069 C50.29670814 263.97090996 46.97388431 263.97284501 43.65044975 263.9881134 C23.17307485 264.0760612 5.49736206 263.02215785 -10.21875 248.171875 C-23.70346416 233.71177465 -24.98988494 218.06485586 -24.81030273 199.18505859 C-24.78149286 195.88717572 -24.78969607 192.59092233 -24.80273438 189.29296875 C-24.78684032 173.08924597 -23.35518648 157.39740836 -19.03125 141.734375 C-18.82395264 140.96270996 -18.61665527 140.19104492 -18.40307617 139.39599609 C-16.29848447 131.84061294 -13.43624506 124.68508198 -10.34375 117.484375 C-8.68420993 113.56898554 -7.78237558 110.78824558 -8.34375 106.484375 C-9.80416766 104.36767143 -9.80416766 104.36767143 -12.34375 103.484375 C-15.83021702 103.37255254 -15.83021702 103.37255254 -19.34375 104.484375 C-21.61056791 107.29027365 -21.61056791 107.29027365 -23.09375 110.921875 C-23.53122559 111.87151123 -23.53122559 111.87151123 -23.97753906 112.84033203 C-25.93569705 117.20148321 -27.49383377 121.61797017 -28.73046875 126.23828125 C-30.1582384 131.46737391 -32.3336492 136.45912301 -34.34375 141.484375 C-38.63375 141.484375 -42.92375 141.484375 -47.34375 141.484375 C-47.43654241 126.01108234 -47.50782872 110.53783055 -47.55099869 95.06432533 C-47.57158051 87.87888716 -47.59961658 80.69362557 -47.64550781 73.50830078 C-47.68551057 67.24193744 -47.71121462 60.97570206 -47.72010398 54.70921457 C-47.72529622 51.39435659 -47.73953953 48.07994763 -47.76667023 44.76518631 C-47.79582225 41.05499061 -47.79970089 37.34554621 -47.79785156 33.63525391 C-47.81223267 32.54911804 -47.82661377 31.46298218 -47.84143066 30.34393311 C-47.78809219 20.41623628 -45.12422599 12.50396411 -38.26953125 5.23828125 C-27.06607216 -4.96527479 -13.62869685 -6.06551893 0 0 Z " fill="#F5D587" transform="translate(96.34375,18.515625)"/>
<path d="M0 0 C1.92174114 -0.00913666 1.92174114 -0.00913666 3.88230532 -0.01845789 C7.42734398 -0.03482825 10.97215981 -0.03254547 14.517223 -0.02708292 C18.34489381 -0.0244091 22.17250571 -0.03895116 26.00015259 -0.05117798 C33.49499404 -0.07221975 40.98975811 -0.07677354 48.48462562 -0.07499009 C54.57801362 -0.07368177 60.67137751 -0.07749021 66.76476097 -0.08491516 C68.52088044 -0.08701439 70.27699991 -0.08911199 72.03311938 -0.09120798 C72.90723213 -0.09225151 73.78134487 -0.09329504 74.68194588 -0.09437019 C91.20949645 -0.1132677 107.73700263 -0.11222394 124.26455953 -0.10540086 C139.37616745 -0.09982648 154.48760577 -0.12064721 169.59917406 -0.15376133 C185.12356892 -0.18751545 200.64788259 -0.20266447 216.17231482 -0.1980443 C224.88493653 -0.19580126 233.59740152 -0.2010185 242.30999184 -0.22593689 C249.72798822 -0.24697234 257.14574197 -0.25051989 264.5637484 -0.2316373 C268.34637114 -0.22249294 272.12854175 -0.22129583 275.911129 -0.24199295 C280.01735647 -0.26421183 284.122523 -0.24745301 288.22875977 -0.22705078 C289.41661428 -0.23956863 290.60446879 -0.25208648 291.82831889 -0.26498365 C301.18591069 -0.16540591 308.04023362 2.35574269 315.11735535 8.51940918 C322.17236508 16.22840978 324.06164645 25.0483364 323.89860535 35.20300293 C323.89864563 36.29097672 323.89868591 37.3789505 323.89872742 38.49989319 C323.8934017 40.78485945 323.87594692 43.06982709 323.84684753 45.35461426 C323.80500362 48.81963133 323.80578996 52.28269738 323.81266785 55.7479248 C323.80217212 57.98296413 323.78923196 60.21799359 323.77360535 62.45300293 C323.77340393 63.47212265 323.77320251 64.49124237 323.772995 65.54124451 C323.61149845 75.53486518 321.60656829 84.71809603 316.9337616 93.57409668 C316.61531784 94.1859935 316.29687408 94.79789032 315.96878052 95.42832947 C314.94763809 97.38233767 313.90842528 99.32595658 312.86735535 101.26940918 C312.14646678 102.63509752 311.42642462 104.00123296 310.7071991 105.36779785 C309.26637849 108.09874562 307.81709748 110.82492781 306.36003113 113.54724121 C304.50890317 117.00599839 302.68422268 120.47815771 300.8634491 123.95300293 C291.37087221 141.92395448 281.66268439 156.0124895 261.30485535 162.39440918 C254.80433005 163.96975698 248.6288644 164.68748241 241.95162964 164.66183472 C240.62337551 164.66863139 240.62337551 164.66863139 239.26828796 164.67556536 C236.33079686 164.68812416 233.39349319 164.68659455 230.45597839 164.68493652 C228.33768986 164.69092705 226.21940351 164.6977338 224.10112 164.70529175 C218.36753931 164.72290428 212.63401839 164.72764509 206.90041327 164.72892332 C203.31319866 164.73034802 199.72599909 164.73462363 196.13878822 164.73991776 C183.60990566 164.75840141 171.08106555 164.76659034 158.5521698 164.76501465 C146.89601847 164.76381329 135.24005232 164.78491892 123.58394784 164.81650198 C113.55644098 164.84269855 103.52899449 164.85338054 93.5014537 164.85210383 C87.52130571 164.85159525 81.54132245 164.85722112 75.56120872 164.87845993 C69.93451427 164.89789957 64.30814076 164.89792756 58.68143463 164.88342667 C56.62442109 164.88134467 54.56738715 164.88600281 52.5104084 164.89814758 C34.46134958 164.99775435 17.98724327 162.45423773 4.25798035 149.44128418 C-2.68148632 142.16872311 -7.25272282 133.0309379 -11.88264465 124.20690918 C-12.53300114 122.97494841 -13.18372311 121.74318052 -13.83479309 120.51159668 C-14.82590225 118.63524454 -15.81589551 116.7583433 -16.80259705 114.87966919 C-18.91386112 110.86064511 -21.06103042 106.86302188 -23.2303009 102.87487793 C-24.30223478 100.88156002 -25.37386642 98.88807953 -26.44514465 96.89440918 C-27.17833923 95.56373413 -27.17833923 95.56373413 -27.92634583 94.20617676 C-33.33062755 84.03808532 -35.16145823 73.92857969 -35.1990509 62.48815918 C-35.2090361 61.40160034 -35.2190213 60.3150415 -35.22930908 59.19555664 C-35.24437934 56.91666428 -35.25153836 54.63770679 -35.25105286 52.35876465 C-35.25763006 48.9020794 -35.31227786 45.4482466 -35.36897278 41.99206543 C-35.54816532 18.762777 -35.54816532 18.762777 -26.40632629 8.93347168 C-18.21996701 0.92663374 -11.07656107 -0.04940376 0 0 Z " fill="#FEE9B6" transform="translate(111.69514465332031,332.6055908203125)"/>
<path d="M0 0 C1.75612096 -0.00243453 3.51224052 -0.00616022 5.26835632 -0.01106262 C9.99133931 -0.02038271 14.71411183 -0.01112286 19.43707824 0.00226951 C24.40420376 0.01367735 29.37132032 0.00946948 34.3384552 0.00752258 C42.67261143 0.00664278 51.00668582 0.01765606 59.34082031 0.03613281 C68.95041403 0.05731642 78.55988818 0.06080394 88.16950053 0.05457085 C97.45198327 0.04886029 106.73442429 0.05454143 116.01690102 0.0657444 C119.95079642 0.07036588 123.8846661 0.07127496 127.81856346 0.06915855 C132.45541156 0.06726353 137.09213937 0.07547214 141.72896004 0.09121895 C143.42195004 0.09543093 145.11495233 0.09633337 146.80794525 0.09352875 C159.17579418 0.07616021 171.16020149 0.30824221 182.46411133 5.87231445 C183.18405273 6.22197266 183.90399414 6.57163086 184.64575195 6.93188477 C199.79316988 14.61350053 211.17355596 27.35318683 216.96411133 43.37231445 C217.22232666 44.06462158 217.48054199 44.75692871 217.74658203 45.47021484 C220.151073 52.52248484 220.46784924 59.14847064 220.40161133 66.55981445 C220.39331299 67.75364746 220.38501465 68.94748047 220.37646484 70.17749023 C220.02045365 88.80409704 213.96724096 104.37857053 200.78833008 117.7121582 C193.79404282 124.30013832 185.99775244 129.0791519 176.96411133 132.37231445 C176.28328869 132.62076363 175.60246605 132.8692128 174.90101242 133.12519073 C165.8314361 136.02315361 156.92654658 135.81000672 147.51196289 135.79223633 C145.66277558 135.79958738 143.81359285 135.8081766 141.9644165 135.81790161 C136.96831126 135.84001916 131.97237142 135.84305314 126.97622395 135.8411541 C122.79177841 135.84103393 118.60736732 135.84961722 114.42293143 135.85793161 C104.54242869 135.87713123 94.66201042 135.88006234 84.78149414 135.87329102 C74.62093539 135.86665531 64.46074013 135.88950371 54.30025506 135.92660475 C45.54825776 135.95739187 36.79637684 135.96865195 28.04432654 135.96476793 C22.82979603 135.96270946 17.61554841 135.96803935 12.40106964 135.99266052 C7.4924432 136.01507409 2.58440378 136.01292945 -2.32422638 135.992733 C-4.11432866 135.98934846 -5.90447161 135.99430024 -7.69451904 136.00871658 C-27.57450796 136.15763494 -42.90380657 130.65970086 -57.68432617 116.81762695 C-64.63223106 109.59272918 -69.31592951 101.62895702 -73.03588867 92.37231445 C-73.3890918 91.58598633 -73.74229492 90.7996582 -74.10620117 89.98950195 C-76.75097051 82.54414288 -76.28671015 74.48509197 -76.34838867 66.68481445 C-76.37739258 65.48147461 -76.40639648 64.27813477 -76.4362793 63.03833008 C-76.55929544 45.52272409 -68.85280786 30.99624276 -57.03588867 18.37231445 C-40.72542195 2.66900554 -21.57254028 -0.10620954 0 0 Z " fill="#7A839A" transform="translate(184.035888671875,116.627685546875)"/>
<path d="M0 0 C1.15024658 0.40412109 2.30049316 0.80824219 3.4855957 1.22460938 C12.54676549 4.47861007 21.05728772 8.21635015 29.4375 12.9375 C30.05061035 13.27185059 30.6637207 13.60620117 31.29541016 13.95068359 C54.41022173 26.60950925 75.08468014 45.86311329 89.4375 67.9375 C89.82695801 68.53062988 90.21641602 69.12375977 90.61767578 69.73486328 C103.15470912 89.06737768 111.93203062 110.34334194 116.4375 132.9375 C116.71013672 134.19506104 116.71013672 134.19506104 116.98828125 135.47802734 C119.01923826 146.32465559 118.73870356 157.27293204 118.69824219 168.26831055 C118.68747184 171.75912635 118.69820897 175.2494337 118.7109375 178.74023438 C118.70961668 180.97916779 118.70705591 183.21810089 118.703125 185.45703125 C118.70717346 186.490522 118.71122192 187.52401276 118.71539307 188.58882141 C118.6206969 203.28662019 112.98180867 216.27740154 102.75 226.8203125 C96.08159846 232.92550445 89.04581159 236.29400274 80.4375 238.9375 C79.88143413 239.11475868 79.32536825 239.29201736 78.7524519 239.47464752 C75.48143437 240.12865617 72.23983044 240.09614403 68.9178009 240.1048584 C68.157109 240.11065178 67.39641711 240.11644517 66.61267394 240.12241411 C64.0618571 240.14046201 61.51106231 240.15134184 58.96020508 240.16210938 C57.13187459 240.17328638 55.30354614 240.18479976 53.47521973 240.19662476 C47.46918583 240.23316149 41.46313105 240.25839774 35.45703125 240.28125 C34.43475866 240.28519587 33.41248607 240.28914173 32.35923553 240.29320717 C22.71616376 240.32962182 13.07308464 240.36106082 3.42996693 240.38231659 C-8.8981226 240.40989391 -21.22563698 240.46067336 -33.553487 240.54279089 C-42.22539301 240.59859745 -50.89714303 240.62755468 -59.56922227 240.6367898 C-64.74695621 240.64304418 -69.92401539 240.66113914 -75.10155296 240.70817566 C-79.97487331 240.75190116 -84.84715124 240.76231238 -89.72063446 240.74754715 C-91.50522811 240.74787531 -93.28986712 240.76011353 -95.07428169 240.78539658 C-111.36987876 241.00402552 -111.36987876 241.00402552 -117.97458363 234.67218781 C-118.76060223 233.81351734 -118.76060223 233.81351734 -119.5625 232.9375 C-120.42875 232.15375 -121.295 231.37 -122.1875 230.5625 C-127.51651539 224.67253563 -131.48600143 219.3045366 -134.5625 211.9375 C-133.76572436 211.93695523 -132.96894873 211.93641047 -132.14802837 211.93584919 C-112.68023293 211.92082331 -93.21267323 211.87814331 -73.74500561 211.80540943 C-64.33022202 211.77088804 -54.9155829 211.74542088 -45.50073242 211.74194336 C-37.28616516 211.73888547 -29.07185604 211.71815214 -20.85738832 211.67697543 C-16.51559664 211.65580785 -12.1741704 211.64295998 -7.83232689 211.65134621 C19.16369718 211.69469903 44.39608569 211.058035 64.77734375 190.82421875 C80.28325206 173.99768976 82.5349306 153.98079055 81.67578125 132.10009766 C80.56174192 117.31396499 72.05669472 102.3923004 60.921875 92.76171875 C39.43374422 75.66888745 16.25710987 75.47735606 -10.24416018 75.43138909 C-13.92369048 75.4218798 -17.60310516 75.39566861 -21.28256226 75.37138367 C-28.21992734 75.32805479 -35.15726956 75.29930312 -42.09472787 75.27606028 C-50.0055826 75.2488261 -57.91631904 75.20492753 -65.82708859 75.15977156 C-82.07216533 75.06740794 -98.31726343 74.99550871 -114.5625 74.9375 C-101.16285746 40.18365681 -62.85540563 13.46895426 -30.2421875 -1.43359375 C-29.59862305 -1.7157373 -28.95505859 -1.99788086 -28.29199219 -2.28857422 C-26.87993432 -2.92045217 -25.50029061 -3.62434388 -24.1328125 -4.34765625 C-16.10041227 -6.58159127 -7.50334937 -2.65527608 0 0 Z " fill="#FEE9B6" transform="translate(321.5625,41.0625)"/>
<path d="M0 0 C1.60073796 -0.0048627 3.20146982 -0.012308 4.80218506 -0.02212524 C9.12649101 -0.04085037 13.44988433 -0.02217696 17.77411866 0.00453901 C22.30593051 0.02725019 26.83770016 0.01894718 31.36955261 0.01504517 C38.9729191 0.01328269 46.57592775 0.03537555 54.17919922 0.07226562 C62.96983054 0.11467229 71.75993938 0.12160268 80.55065233 0.10914171 C89.01521439 0.09775773 97.4795925 0.10903674 105.94412804 0.1314888 C109.54414967 0.14077754 113.14405876 0.14253005 116.74408913 0.13831711 C120.97882148 0.13455282 125.21302099 0.15074591 129.44763184 0.1824379 C131.00205468 0.1909284 132.55653156 0.19262138 134.11096764 0.1870575 C136.23132845 0.18061862 138.35009439 0.19875721 140.47029114 0.22323608 C141.65693265 0.22734182 142.84357416 0.23144756 144.06617451 0.23567772 C147.69525869 0.84876139 148.916149 1.80792297 151.07885742 4.74462891 C151.07885742 5.73462891 151.07885742 6.72462891 151.07885742 7.74462891 C153.35031089 7.71162232 155.62125868 7.64222886 157.89135742 7.55712891 C159.15592773 7.52232422 160.42049805 7.48751953 161.72338867 7.45166016 C165.24411547 7.09953148 165.24411547 7.09953148 166.90307617 4.25634766 C167.48508789 3.01304687 167.48508789 3.01304687 168.07885742 1.74462891 C170.60805005 0.48003259 172.39646544 0.59701244 175.2277832 0.56762695 C176.30295197 0.55479172 177.37812073 0.54195648 178.48587036 0.5287323 C179.65350922 0.52134537 180.82114807 0.51395844 182.02416992 0.50634766 C183.22314911 0.49827591 184.4221283 0.49020416 185.65744019 0.48188782 C188.20121815 0.46803475 190.7450148 0.45731809 193.28881836 0.44946289 C197.16711088 0.4322916 201.04454199 0.3884194 204.92260742 0.34423828 C207.39395532 0.33410792 209.86531047 0.32559289 212.33666992 0.31884766 C213.49216339 0.30133957 214.64765686 0.28383148 215.83816528 0.26579285 C223.37758866 0.28595322 229.30838606 1.02218903 234.91870117 6.56103516 C235.28092773 7.13724609 235.6431543 7.71345703 236.01635742 8.30712891 C236.39663086 8.88591797 236.7769043 9.46470703 237.16870117 10.06103516 C239.76440412 14.86252859 240.01596492 19.45677957 239.07885742 24.74462891 C237.13234094 30.05790928 234.38902042 35.03686948 231.71801758 40.01318359 C230.45856406 42.36085555 229.22936707 44.72243749 228.00463867 47.08837891 C215.97170769 70.12100825 215.97170769 70.12100825 202.07885742 74.74462891 C199.41041157 74.93648608 196.84705244 75.02756584 194.17988586 75.01878357 C192.99574743 75.02663859 192.99574743 75.02663859 191.787687 75.03465229 C189.14551594 75.04963992 186.50353876 75.05035718 183.86132812 75.05102539 C181.96550673 75.05864782 180.06968843 75.06707547 178.1738739 75.07624817 C173.02489646 75.09819454 167.8759784 75.10699252 162.72695947 75.11207461 C159.50814819 75.11571868 156.28935245 75.12195908 153.0705471 75.129076 C141.83543592 75.1535731 130.6003709 75.16662251 119.36523438 75.17016602 C108.90252343 75.17379922 98.44010621 75.20367864 87.977485 75.2455706 C78.98790781 75.28029903 69.9984278 75.29571492 61.008784 75.29641205 C55.64284672 75.29720413 50.27720851 75.30591099 44.91134071 75.33440971 C39.86083996 75.36063321 34.81088527 75.36277152 29.76034737 75.34675407 C27.91170305 75.34494287 26.06302704 75.35160049 24.21445084 75.36757278 C6.32789106 75.51263498 6.32789106 75.51263498 -1.92114258 69.74462891 C-2.88149414 69.09623047 -3.8418457 68.44783203 -4.83129883 67.77978516 C-8.74892606 63.96467527 -11.0019194 59.06667759 -13.5534668 54.2890625 C-14.57440884 52.38969479 -15.6096223 50.49798538 -16.65209961 48.61035156 C-18.26908718 45.67963959 -19.86778608 42.74091446 -21.45071411 39.79177856 C-22.40405966 38.026265 -23.37619441 36.27093878 -24.34863281 34.51586914 C-28.31267159 27.03460364 -30.61011272 20.95500359 -28.33154297 12.57666016 C-23.30083811 0.22369411 -11.61951646 -0.12399726 0 0 Z " fill="#FEA0AB" transform="translate(150.921142578125,377.25537109375)"/>
<path d="M0 0 C1.20071136 -0.00043808 2.40142273 -0.00087616 3.63851929 -0.00132751 C6.91294956 0.00039801 10.18698963 0.01538963 13.46134257 0.03639436 C16.88994684 0.05521412 20.31855969 0.05691575 23.74720764 0.06047058 C30.23171138 0.06977556 36.71606245 0.09436818 43.20049912 0.12451905 C50.58623089 0.15811144 57.97197015 0.1745612 65.35775936 0.18960536 C80.54336002 0.22091927 95.72881802 0.27364941 110.91430664 0.34057617 C110.29323784 1.16141693 110.29323784 1.16141693 109.65962219 1.99884033 C109.11758652 2.7177948 108.57555084 3.43674927 108.01708984 4.17749023 C107.21039604 5.24583099 107.21039604 5.24583099 106.3874054 6.33575439 C104.78910125 8.51097513 103.39456764 10.72123494 102.10180664 13.09057617 C101.50432617 14.1656543 101.50432617 14.1656543 100.89477539 15.26245117 C96.69180151 24.17074641 98.31858537 35.04216544 97.91430664 44.34057617 C126.62430664 44.34057617 155.33430664 44.34057617 184.91430664 44.34057617 C184.91430664 44.67057617 184.91430664 45.00057617 184.91430664 45.34057617 C183.68074181 45.34139332 183.68074181 45.34139332 182.42225647 45.34222698 C162.39919678 45.3572033 142.37635954 45.39968462 122.35342407 45.47266674 C112.67040495 45.50729943 102.98752794 45.53267001 93.30444336 45.53613281 C84.86328538 45.5391751 76.42238059 45.55970114 67.98132038 45.60110074 C63.51300763 45.62240846 59.04505465 45.63504285 54.57669067 45.62672997 C50.36744013 45.61917564 46.1589177 45.63506813 41.94980049 45.66863632 C40.40835274 45.67685304 38.86683236 45.67663903 37.32539177 45.66717339 C26.75745421 45.53519321 26.75745421 45.53519321 17.35693359 49.90990162 C13.53050914 53.70462352 11.73031099 58.17123759 11.27758789 63.50463867 C11.41790448 72.07419854 16.64836162 79.67902489 20.60180664 87.02807617 C21.42843292 88.60853893 22.25331777 90.18991378 23.07641602 91.7722168 C23.87885672 93.29974885 24.68284238 94.82647051 25.48852539 96.35229492 C25.85644699 97.05037766 26.22436859 97.74846039 26.60343933 98.46769714 C30.07332202 104.90556643 33.46024225 111.07395338 40.03930664 114.71557617 C40.88750977 115.19768555 41.73571289 115.67979492 42.60961914 116.17651367 C46.77896796 118.28238816 50.05374952 118.4877505 54.68066406 118.54589844 C55.70544609 118.56074783 55.70544609 118.56074783 56.75093079 118.57589722 C59.00717717 118.60746296 61.26344461 118.63225008 63.51977539 118.65698242 C65.08491053 118.67755621 66.65004016 118.6985528 68.21516418 118.71995544 C72.3332778 118.77513227 76.4514412 118.82456088 80.56964111 118.87280273 C84.77246528 118.92304982 88.97521722 118.97871914 93.17797852 119.03393555 C101.42336014 119.14146343 109.66880222 119.2429203 117.91430664 119.34057617 C118.23592773 119.98494629 118.55754883 120.62931641 118.88891602 121.29321289 C120.38524674 124.27360058 121.89962722 127.24447424 123.41430664 130.21557617 C123.91961914 131.2287793 124.42493164 132.24198242 124.94555664 133.28588867 C129.49395559 142.15526663 134.98993269 150.23552278 142.60180664 156.77807617 C143.30692383 157.39553711 144.01204102 158.01299805 144.73852539 158.64916992 C146.94523537 160.43472123 146.94523537 160.43472123 149.68383789 162.00073242 C150.41989258 162.44288086 151.15594727 162.8850293 151.91430664 163.34057617 C151.91430664 163.67057617 151.91430664 164.00057617 151.91430664 164.34057617 C136.88398975 164.43434782 121.85369567 164.50471525 106.82314777 164.54782486 C99.84293606 164.56838057 92.86290695 164.59636577 85.8828125 164.64233398 C79.13952609 164.6867212 72.39642899 164.70975199 65.6530056 164.72008514 C63.08754693 164.72744376 60.52209794 164.74181299 57.95672035 164.7634964 C38.06548743 164.92485123 20.15133762 163.87393597 4.86743164 149.38745117 C-2.07203502 142.11489011 -6.64327152 132.97710489 -11.27319336 124.15307617 C-11.92354985 122.92111541 -12.57427181 121.68934751 -13.2253418 120.45776367 C-14.21645096 118.58141153 -15.20644421 116.70451029 -16.19314575 114.82583618 C-18.30440982 110.8068121 -20.45157913 106.80918887 -22.62084961 102.82104492 C-23.69278348 100.82772701 -24.76441512 98.83424652 -25.83569336 96.84057617 C-26.56888794 95.50990112 -26.56888794 95.50990112 -27.31689453 94.15234375 C-32.72117625 83.98425231 -34.55200693 73.87474668 -34.58959961 62.43432617 C-34.59958481 61.34776733 -34.60957001 60.2612085 -34.61985779 59.14172363 C-34.63492804 56.86283127 -34.64208706 54.58387378 -34.64160156 52.30493164 C-34.64817876 48.84824639 -34.70282657 45.39441359 -34.75952148 41.93823242 C-34.93871403 18.708944 -34.93871403 18.708944 -25.796875 8.87963867 C-17.79433258 1.05258662 -10.83466313 -0.10387868 0 0 Z " fill="#F8D788" transform="translate(111.085693359375,332.659423828125)"/>
<path d="M0 0 C1.75612096 -0.00243453 3.51224052 -0.00616022 5.26835632 -0.01106262 C9.99133931 -0.02038271 14.71411183 -0.01112286 19.43707824 0.00226951 C24.40420376 0.01367735 29.37132032 0.00946948 34.3384552 0.00752258 C42.67261143 0.00664278 51.00668582 0.01765606 59.34082031 0.03613281 C68.95041403 0.05731642 78.55988818 0.06080394 88.16950053 0.05457085 C97.45198327 0.04886029 106.73442429 0.05454143 116.01690102 0.0657444 C119.95079642 0.07036588 123.8846661 0.07127496 127.81856346 0.06915855 C132.45541156 0.06726353 137.09213937 0.07547214 141.72896004 0.09121895 C143.42195004 0.09543093 145.11495233 0.09633337 146.80794525 0.09352875 C159.17579418 0.07616021 171.16020149 0.30824221 182.46411133 5.87231445 C183.18405273 6.22197266 183.90399414 6.57163086 184.64575195 6.93188477 C199.79316988 14.61350053 211.17355596 27.35318683 216.96411133 43.37231445 C217.22232666 44.06462158 217.48054199 44.75692871 217.74658203 45.47021484 C220.151073 52.52248484 220.46784924 59.14847064 220.40161133 66.55981445 C220.39331299 67.75364746 220.38501465 68.94748047 220.37646484 70.17749023 C220.02045365 88.80409704 213.96724096 104.37857053 200.78833008 117.7121582 C193.79404282 124.30013832 185.99775244 129.0791519 176.96411133 132.37231445 C176.28328869 132.62076363 175.60246605 132.8692128 174.90101242 133.12519073 C165.8314361 136.02315361 156.92654658 135.81000672 147.51196289 135.79223633 C145.66277558 135.79958738 143.81359285 135.8081766 141.9644165 135.81790161 C136.96831126 135.84001916 131.97237142 135.84305314 126.97622395 135.8411541 C122.79177841 135.84103393 118.60736732 135.84961722 114.42293143 135.85793161 C104.54242869 135.87713123 94.66201042 135.88006234 84.78149414 135.87329102 C74.62093539 135.86665531 64.46074013 135.88950371 54.30025506 135.92660475 C45.54825776 135.95739187 36.79637684 135.96865195 28.04432654 135.96476793 C22.82979603 135.96270946 17.61554841 135.96803935 12.40106964 135.99266052 C7.4924432 136.01507409 2.58440378 136.01292945 -2.32422638 135.992733 C-4.11432866 135.98934846 -5.90447161 135.99430024 -7.69451904 136.00871658 C-27.57450796 136.15763494 -42.90380657 130.65970086 -57.68432617 116.81762695 C-64.63223106 109.59272918 -69.31592951 101.62895702 -73.03588867 92.37231445 C-73.3890918 91.58598633 -73.74229492 90.7996582 -74.10620117 89.98950195 C-76.75097051 82.54414288 -76.28671015 74.48509197 -76.34838867 66.68481445 C-76.37739258 65.48147461 -76.40639648 64.27813477 -76.4362793 63.03833008 C-76.55929544 45.52272409 -68.85280786 30.99624276 -57.03588867 18.37231445 C-40.72542195 2.66900554 -21.57254028 -0.10620954 0 0 Z M-50.44995117 33.31762695 C-51.17956055 34.36692383 -51.90916992 35.4162207 -52.66088867 36.49731445 C-53.3956543 37.53114258 -54.13041992 38.5649707 -54.88745117 39.63012695 C-60.36234805 48.54567574 -61.66042306 57.11172283 -61.47338867 67.43481445 C-61.48047852 68.54147461 -61.48756836 69.64813477 -61.49487305 70.78833008 C-61.38357904 85.28223369 -56.26139046 96.58269183 -46.43432617 107.20043945 C-39.53415461 113.44880328 -31.1203004 118.22541246 -22.03588867 120.37231445 C-20.95773974 120.63009233 -20.95773974 120.63009233 -19.85781002 120.89307785 C-16.49265689 121.46456952 -13.29973065 121.50474413 -9.88514709 121.51275635 C-8.8216233 121.51721303 -8.8216233 121.51721303 -7.73661417 121.52175975 C-5.36638958 121.5304147 -2.99621569 121.53195231 -0.62597656 121.53344727 C1.07616279 121.53807792 2.77830111 121.54310291 4.48043823 121.54849243 C9.10283519 121.56159953 13.72521763 121.56805876 18.34763026 121.57250309 C21.24015862 121.57543814 24.13268305 121.57954389 27.02520943 121.58400726 C36.08825027 121.59768126 45.15128208 121.60734691 54.21433252 121.61120915 C64.65098304 121.61568187 75.08750208 121.63319358 85.52411264 121.66220975 C93.60589675 121.68389278 101.68764406 121.69391705 109.76945692 121.69525027 C114.58883287 121.69629409 119.40808521 121.70211054 124.22743034 121.72006989 C128.76895803 121.73666413 133.31027071 121.73865154 137.85181808 121.72993088 C139.50849423 121.72916638 141.16518248 121.73342454 142.82182884 121.74338913 C160.65167733 121.84424545 177.4803232 119.46920233 190.93676758 106.5480957 C201.76802447 94.9237988 205.37444378 82.68174598 205.52661133 67.12231445 C205.54135498 66.12893066 205.55609863 65.13554687 205.57128906 64.11206055 C205.38850082 50.91847102 199.73254792 39.13382254 190.71411133 29.62231445 C179.99212277 19.42291021 168.05974679 15.27326248 153.37631226 15.22514343 C152.64446421 15.22146674 151.91261617 15.21779006 151.15859091 15.21400195 C148.7231516 15.2030497 146.28775507 15.19913578 143.85229492 15.1953125 C142.09897733 15.18904146 140.34566105 15.1823941 138.59234619 15.17539978 C132.84908968 15.15443346 127.10583314 15.14400447 121.36254883 15.1340332 C119.37950248 15.12998289 117.39645626 15.12586589 115.41341019 15.12168312 C106.09462535 15.10264791 96.77584835 15.08841328 87.45704782 15.08007115 C76.72605872 15.0703042 65.99527619 15.04399174 55.26435983 15.00357026 C46.95240529 14.9733426 38.64050975 14.95859599 30.32850134 14.95529014 C25.37221121 14.95294734 20.41614217 14.94408733 15.45991135 14.91882896 C10.79273962 14.89542641 6.1259327 14.89136363 1.45871735 14.90159035 C-0.2451512 14.90208286 -1.94903848 14.89584727 -3.6528511 14.8820343 C-21.56092608 14.74508474 -38.55434681 18.80421969 -50.44995117 33.31762695 Z " fill="#010101" transform="translate(184.035888671875,116.627685546875)"/>
<path d="M0 0 C1.60073796 -0.0048627 3.20146982 -0.012308 4.80218506 -0.02212524 C9.12649101 -0.04085037 13.44988433 -0.02217696 17.77411866 0.00453901 C22.30593051 0.02725019 26.83770016 0.01894718 31.36955261 0.01504517 C38.9729191 0.01328269 46.57592775 0.03537555 54.17919922 0.07226562 C62.96983054 0.11467229 71.75993938 0.12160268 80.55065233 0.10914171 C89.01521439 0.09775773 97.4795925 0.10903674 105.94412804 0.1314888 C109.54414967 0.14077754 113.14405876 0.14253005 116.74408913 0.13831711 C120.97882148 0.13455282 125.21302099 0.15074591 129.44763184 0.1824379 C131.00205468 0.1909284 132.55653156 0.19262138 134.11096764 0.1870575 C136.23132845 0.18061862 138.35009439 0.19875721 140.47029114 0.22323608 C141.65693265 0.22734182 142.84357416 0.23144756 144.06617451 0.23567772 C147.70586926 0.8505539 148.92472693 1.78443874 151.07885742 4.74462891 C151.14135742 8.24462891 151.14135742 8.24462891 150.07885742 11.74462891 C147.42493746 14.43548107 145.76698669 15.63070029 142.01169109 16.25243759 C140.85852807 16.25612476 139.70536505 16.25981194 138.51725769 16.26361084 C137.54917292 16.27486272 137.54917292 16.27486272 136.56153089 16.28634191 C134.40706427 16.30658129 132.25365386 16.29852468 130.09912109 16.29052734 C128.55159466 16.29926448 127.00407726 16.30975076 125.45657349 16.32185364 C121.26065052 16.34971732 117.06502228 16.35311825 112.86902022 16.35213375 C108.48205573 16.35526254 104.09522403 16.38088005 99.70832825 16.40411377 C91.40345219 16.44467989 83.09865467 16.46501591 74.79369479 16.47808766 C65.33782372 16.49395564 55.88208633 16.53237041 46.42629278 16.57268095 C26.97718992 16.65508827 7.52809969 16.70917517 -11.92114258 16.74462891 C-13.22033137 21.82565943 -11.94256755 24.58713505 -9.51098633 29.05712891 C-9.14646866 29.74846924 -8.78195099 30.43980957 -8.40638733 31.15209961 C-7.63221776 32.61146274 -6.85090266 34.06705461 -6.06298828 35.51904297 C-4.86810274 37.72714688 -3.70292611 39.9491012 -2.5402832 42.17431641 C-1.78225913 43.59451816 -1.02254634 45.01382011 -0.26098633 46.43212891 C0.08303726 47.09059814 0.42706085 47.74906738 0.7815094 48.42749023 C1.12463669 49.05163818 1.46776398 49.67578613 1.82128906 50.31884766 C2.11298477 50.86114014 2.40468048 51.40343262 2.70521545 51.9621582 C5.93018363 56.14695412 8.5856847 58.48993747 13.76768494 59.37383461 C15.16924079 59.40110629 16.57149262 59.40132955 17.97314453 59.37954712 C18.74991263 59.38734707 19.52668074 59.39514703 20.32698727 59.40318334 C22.92054617 59.4230705 25.51263232 59.4073526 28.10620117 59.39160156 C29.96925715 59.39837917 31.83230642 59.40728311 33.69534302 59.41815186 C38.74911569 59.44093471 43.80237767 59.43211296 48.85615921 59.41625643 C54.14647034 59.40359225 59.43673792 59.41533899 64.72705078 59.42318726 C73.61100104 59.43228229 82.49474342 59.42029967 91.37866211 59.39648438 C101.64781446 59.36927345 111.91647045 59.37808771 122.18561077 59.4056164 C131.00447938 59.42831056 139.82319861 59.43150602 148.64208698 59.41842306 C153.90835518 59.41063027 159.17439012 59.40958232 164.44064331 59.4261055 C169.39189753 59.44055538 174.34251219 59.43051888 179.29369736 59.40163422 C181.11013604 59.3950262 182.9266286 59.39691623 184.74304581 59.40794754 C187.22427902 59.42162639 189.7034672 59.40446123 192.18457031 59.37954712 C192.90228072 59.39070073 193.61999113 59.40185434 194.35945034 59.41334593 C199.99276721 59.303732 202.25899217 57.59244157 206.07885742 53.74462891 C208.06343576 50.79591548 208.06343576 50.79591548 209.62182617 47.52587891 C209.91696609 46.9455188 210.21210602 46.36515869 210.51618958 45.76721191 C211.44595078 43.93257607 212.35661907 42.08926189 213.26635742 40.24462891 C214.19090504 38.40229807 215.11929163 36.56194873 216.04866028 34.7220459 C216.88818716 33.05499716 217.71853548 31.38333535 218.54833984 29.71142578 C220.07885742 26.74462891 220.07885742 26.74462891 221.83789062 24.16845703 C223.37158822 21.17287376 222.86132796 19.9263574 222.07885742 16.74462891 C221.45102859 16.74320389 220.82319977 16.74177887 220.17634583 16.74031067 C213.63844176 16.72061563 207.10147159 16.66634585 200.56396484 16.59204102 C198.12457989 16.56885202 195.68509468 16.55446322 193.24560547 16.54907227 C189.73756368 16.53978984 186.2311007 16.49881109 182.72338867 16.45166016 C181.63363235 16.4555928 180.54387604 16.45952545 179.4210968 16.46357727 C171.85690259 16.31800363 171.85690259 16.31800363 167.88623047 13.3918457 C166.07885742 10.74462891 166.07885742 10.74462891 165.51635742 7.68212891 C166.21193993 4.04964247 167.22352083 3.03892674 170.07885742 0.74462891 C172.59405518 0.23669434 172.59405518 0.23669434 175.45483398 0.22705078 C177.06736053 0.20813782 177.06736053 0.20813782 178.71246338 0.18884277 C179.86977966 0.1969397 181.02709595 0.20503662 182.21948242 0.21337891 C183.41563171 0.209552 184.61178101 0.2057251 185.84417725 0.20178223 C188.3760258 0.19905985 190.90790233 0.20644361 193.43969727 0.22314453 C197.30053155 0.24447243 201.15948881 0.22339052 205.02026367 0.19775391 C207.48250734 0.20039859 209.94474985 0.20552648 212.40698242 0.21337891 C214.13081146 0.20123352 214.13081146 0.20123352 215.88946533 0.18884277 C223.38188363 0.27570093 229.34608881 1.05941149 234.91870117 6.56103516 C235.28092773 7.13724609 235.6431543 7.71345703 236.01635742 8.30712891 C236.39663086 8.88591797 236.7769043 9.46470703 237.16870117 10.06103516 C239.76440412 14.86252859 240.01596492 19.45677957 239.07885742 24.74462891 C237.13234094 30.05790928 234.38902042 35.03686948 231.71801758 40.01318359 C230.45856406 42.36085555 229.22936707 44.72243749 228.00463867 47.08837891 C215.97170769 70.12100825 215.97170769 70.12100825 202.07885742 74.74462891 C199.41041157 74.93648608 196.84705244 75.02756584 194.17988586 75.01878357 C192.99574743 75.02663859 192.99574743 75.02663859 191.787687 75.03465229 C189.14551594 75.04963992 186.50353876 75.05035718 183.86132812 75.05102539 C181.96550673 75.05864782 180.06968843 75.06707547 178.1738739 75.07624817 C173.02489646 75.09819454 167.8759784 75.10699252 162.72695947 75.11207461 C159.50814819 75.11571868 156.28935245 75.12195908 153.0705471 75.129076 C141.83543592 75.1535731 130.6003709 75.16662251 119.36523438 75.17016602 C108.90252343 75.17379922 98.44010621 75.20367864 87.977485 75.2455706 C78.98790781 75.28029903 69.9984278 75.29571492 61.008784 75.29641205 C55.64284672 75.29720413 50.27720851 75.30591099 44.91134071 75.33440971 C39.86083996 75.36063321 34.81088527 75.36277152 29.76034737 75.34675407 C27.91170305 75.34494287 26.06302704 75.35160049 24.21445084 75.36757278 C6.32789106 75.51263498 6.32789106 75.51263498 -1.92114258 69.74462891 C-2.88149414 69.09623047 -3.8418457 68.44783203 -4.83129883 67.77978516 C-8.74892606 63.96467527 -11.0019194 59.06667759 -13.5534668 54.2890625 C-14.57440884 52.38969479 -15.6096223 50.49798538 -16.65209961 48.61035156 C-18.26908718 45.67963959 -19.86778608 42.74091446 -21.45071411 39.79177856 C-22.40405966 38.026265 -23.37619441 36.27093878 -24.34863281 34.51586914 C-28.31267159 27.03460364 -30.61011272 20.95500359 -28.33154297 12.57666016 C-23.30083811 0.22369411 -11.61951646 -0.12399726 0 0 Z " fill="#040202" transform="translate(150.921142578125,377.25537109375)"/>
<path d="M0 0 C4.55354159 2.54462618 7.91159198 5.3750038 10.78125 9.734375 C11.49667969 10.79398438 11.49667969 10.79398438 12.2265625 11.875 C16.85130331 20.31578377 17.48869495 28.13693843 17.59375 37.671875 C17.6022699 38.36957001 17.61078979 39.06726501 17.61956787 39.78610229 C17.65299039 54.10435091 17.65299039 54.10435091 12.86254883 59.58691406 C10.75900686 61.52904483 8.57510113 63.32434056 6.30761719 65.07128906 C3.33160403 67.61788341 1.15898698 70.74132145 -1.09375 73.921875 C-1.73836182 74.77471069 -1.73836182 74.77471069 -2.39599609 75.64477539 C-5.07115262 79.37463531 -5.97093245 81.92475857 -5.34375 86.484375 C-4.95574219 87.14179687 -4.56773438 87.79921875 -4.16796875 88.4765625 C-3.34375 90.484375 -3.34375 90.484375 -4.36328125 93.4296875 C-9.26964207 102.13072826 -9.26964207 102.13072826 -12.57421875 103.21875 C-13.32316406 103.26515625 -14.07210937 103.3115625 -14.84375 103.359375 C-17.17580839 103.46052268 -17.17580839 103.46052268 -19.34375 104.484375 C-23.9527933 110.9797449 -26.680776 118.58022673 -28.73046875 126.23828125 C-30.1582384 131.46737391 -32.3336492 136.45912301 -34.34375 141.484375 C-38.63375 141.484375 -42.92375 141.484375 -47.34375 141.484375 C-47.43654241 126.01108234 -47.50782872 110.53783055 -47.55099869 95.06432533 C-47.57158051 87.87888716 -47.59961658 80.69362557 -47.64550781 73.50830078 C-47.68551057 67.24193744 -47.71121462 60.97570206 -47.72010398 54.70921457 C-47.72529622 51.39435659 -47.73953953 48.07994763 -47.76667023 44.76518631 C-47.79582225 41.05499061 -47.79970089 37.34554621 -47.79785156 33.63525391 C-47.81223267 32.54911804 -47.82661377 31.46298218 -47.84143066 30.34393311 C-47.78809219 20.41623628 -45.12422599 12.50396411 -38.26953125 5.23828125 C-27.06607216 -4.96527479 -13.62869685 -6.06551893 0 0 Z " fill="#DDE1E3" transform="translate(96.34375,18.515625)"/>
<path d="M0 0 C0.66644531 0.41378906 1.33289063 0.82757812 2.01953125 1.25390625 C2.71691406 1.67800781 3.41429687 2.10210938 4.1328125 2.5390625 C11.21076214 7.32434295 15.85932935 13.99456719 18.01953125 22.25390625 C18.30421523 26.15349964 18.27211854 30.04231049 18.24658203 33.95068359 C18.24687408 35.12198822 18.24716614 36.29329285 18.24746704 37.50009155 C18.24607608 41.3634182 18.23052556 45.22655088 18.21484375 49.08984375 C18.21111279 51.77170132 18.2081678 54.45354821 18.20626831 57.13540649 C18.20006177 63.46761492 18.18366218 69.79975397 18.16356933 76.1319319 C18.14118458 83.34353227 18.13021043 90.55513601 18.12017846 97.7667625 C18.09929518 112.59584666 18.0637306 127.42487295 18.01953125 142.25390625 C13.39953125 142.25390625 8.77953125 142.25390625 4.01953125 142.25390625 C3.67921875 141.01898438 3.33890625 139.7840625 2.98828125 138.51171875 C-4.25441739 112.92169883 -17.95063242 78.47407331 -40.0078125 61.71337891 C-43.72397201 58.69276169 -45.7149645 56.55943958 -46.68798828 51.77490234 C-46.87496413 48.32883958 -46.92495771 44.97234249 -46.80371094 41.52783203 C-46.73081263 39.38899563 -46.72167214 37.2571358 -46.72265625 35.1171875 C-46.61212279 24.4744169 -44.6535508 14.17952012 -36.98046875 6.25390625 C-34.12381028 3.97288329 -31.14545612 2.07667385 -27.98046875 0.25390625 C-26.92859375 -0.36484375 -25.87671875 -0.98359375 -24.79296875 -1.62109375 C-16.60278527 -4.0378692 -7.64276588 -4.06952469 0 0 Z " fill="#EEEEEE" transform="translate(444.98046875,17.74609375)"/>
<path d="M0 0 C1.08809212 0.00212242 1.08809212 0.00212242 2.19816589 0.00428772 C4.50064325 0.00985694 6.8030211 0.02240364 9.10546875 0.03515625 C10.67252463 0.04017523 12.23958205 0.04473744 13.80664062 0.04882812 C17.63548526 0.05896271 21.46411644 0.07854384 25.29296875 0.09765625 C21.82796875 9.99765625 21.82796875 9.99765625 18.29296875 20.09765625 C20.60296875 21.08765625 22.91296875 22.07765625 25.29296875 23.09765625 C27.82858371 26.90107869 27.69692848 30.06024728 27.73046875 34.47265625 C27.76333984 35.22804687 27.79621094 35.9834375 27.83007812 36.76171875 C27.87093089 41.01040648 27.65638597 42.63031873 24.95703125 46.1015625 C22.29296875 48.09765625 22.29296875 48.09765625 19.23046875 48.66015625 C15.66442135 47.97729611 14.4403337 46.98833983 12.29296875 44.09765625 C12.29296875 43.10765625 12.29296875 42.11765625 12.29296875 41.09765625 C-5.13292409 40.38731635 -5.13292409 40.38731635 -20.08203125 48.47265625 C-24.89014241 53.01258591 -26.83766771 56.77084669 -27.20703125 63.41015625 C-27.0071124 69.29576712 -25.50154742 73.57240959 -21.70703125 78.09765625 C-14.56152378 84.3215936 -7.14619927 86.22478007 2.23046875 86.72265625 C4.56109375 86.84640625 6.89171875 86.97015625 9.29296875 87.09765625 C9.29296875 93.03765625 9.29296875 98.97765625 9.29296875 105.09765625 C62.09296875 105.09765625 114.89296875 105.09765625 169.29296875 105.09765625 C169.29296875 105.42765625 169.29296875 105.75765625 169.29296875 106.09765625 C146.66580301 106.16782361 124.03865528 106.22068227 101.4114027 106.25309277 C90.90452112 106.26854337 80.39770725 106.2895983 69.89086914 106.32397461 C60.73014873 106.35393233 51.56947738 106.37324438 42.40870935 106.37992173 C37.56083972 106.3838232 32.71311041 106.39295443 27.86528587 106.41484642 C23.29594063 106.43531233 18.72679258 106.44146974 14.15740585 106.43697929 C12.48656833 106.43779999 10.81572375 106.44370517 9.14492607 106.45527267 C-8.35679669 106.57042972 -23.3914424 103.04272327 -36.44921875 90.59375 C-49.62019575 76.0327564 -50.57787942 60.94682056 -49.92041016 42.13183594 C-49.07697138 30.13840677 -41.86471141 19.65526263 -33.1015625 11.74609375 C-23.12708697 4.06013425 -12.56358392 -0.09316323 0 0 Z " fill="#5B6782" transform="translate(172.70703125,131.90234375)"/>
<path d="M0 0 C1.9028752 1.2028746 3.33249223 2.51031282 4.84765625 4.16796875 C4.01363281 4.56886719 3.17960937 4.96976562 2.3203125 5.3828125 C-10.15435428 11.6844483 -17.72558236 18.98360747 -23.15234375 32.16796875 C-23.50143799 32.96920166 -23.85053223 33.77043457 -24.21020508 34.59594727 C-25.58350131 39.80265812 -25.43737293 44.85224318 -25.41796875 50.21484375 C-25.4198822 51.38122375 -25.42179565 52.54760376 -25.42376709 53.74932861 C-25.42512589 56.21374731 -25.42145076 58.67817325 -25.41308594 61.14257812 C-25.40242108 64.89079125 -25.41297195 68.63852086 -25.42578125 72.38671875 C-25.42445885 74.78776146 -25.42189479 77.18880388 -25.41796875 79.58984375 C-25.42201721 80.70059265 -25.42606567 81.81134155 -25.43023682 82.95574951 C-25.39069015 89.61133977 -24.66090473 95.69423761 -23.15234375 102.16796875 C-22.80784261 104.16607537 -22.46857152 106.1651929 -22.15234375 108.16796875 C-33.84920853 111.90384951 -42.87368636 112.62974736 -54.15234375 107.16796875 C-63.93556402 101.30479529 -70.05927452 93.16554822 -73.15234375 82.16796875 C-74.69457505 69.83011839 -70.66473927 59.62112775 -65.36328125 48.69921875 C-64.90055817 47.73826294 -64.43783508 46.77730713 -63.96109009 45.78723145 C-62.98509567 43.76846976 -62.00500182 41.75168528 -61.02099609 39.73681641 C-59.53530192 36.68431955 -58.07592064 33.6201412 -56.6171875 30.5546875 C-49.85084898 16.5313218 -43.68069949 5.2747998 -29.15234375 -1.83203125 C-20.3370725 -4.770455 -8.36715539 -3.85154772 0 0 Z " fill="#C1A6E0" transform="translate(88.15234375,315.83203125)"/>
<path d="M0 0 C0.79535156 0.00974854 1.59070313 0.01949707 2.41015625 0.02954102 C12.8099886 0.34285296 19.03038096 3.75415589 26.765625 10.6328125 C34.40534454 19.48010062 38.99480882 30.836529 44.07519531 41.26953125 C45.43967423 44.06695755 46.81711116 46.8577512 48.1953125 49.6484375 C49.07371067 51.44492449 49.95134161 53.24178686 50.828125 55.0390625 C51.23645569 55.86322662 51.64478638 56.68739075 52.06549072 57.53652954 C57.32451362 68.41595761 59.19988826 79.35463027 55.22265625 91.02734375 C51.15253383 100.50381747 43.76084446 108.84097157 34.078125 112.78515625 C24.99529689 114.83492962 14.98997241 114.35609165 6.1875 111.4375 C6.32027344 110.85742188 6.45304687 110.27734375 6.58984375 109.6796875 C6.85474609 108.50792969 6.85474609 108.50792969 7.125 107.3125 C7.38603516 106.16394531 7.38603516 106.16394531 7.65234375 104.9921875 C7.82894531 104.14914062 8.00554687 103.30609375 8.1875 102.4375 C8.35862305 101.64182617 8.52974609 100.84615234 8.70605469 100.02636719 C9.40182155 94.83986981 9.39107037 89.68886453 9.42578125 84.4609375 C9.433853 83.29930084 9.44192474 82.13766418 9.45024109 80.94082642 C9.46404722 78.48481727 9.47478483 76.02878921 9.48266602 73.57275391 C9.49417275 71.07660243 9.51460357 68.58047531 9.54418945 66.08447266 C9.58711772 62.45979245 9.60307109 58.83584121 9.61328125 55.2109375 C9.63078934 54.11051117 9.64829742 53.01008484 9.66633606 51.87631226 C9.63454443 40.34826161 6.38962385 30.47511658 -0.8125 21.4375 C-1.30234375 20.82261719 -1.7921875 20.20773437 -2.296875 19.57421875 C-7.39368772 13.88446 -14.0608012 10.77781414 -20.8125 7.4375 C-14.36274367 1.76953232 -8.38411887 -0.11457112 0 0 Z " fill="#D4C2E8" transform="translate(439.8125,312.5625)"/>
<path d="M0 0 C1.24132187 0.00222061 2.48264374 0.00444122 3.76158142 0.00672913 C4.44447739 0.0065831 5.12737335 0.00643707 5.83096313 0.00628662 C8.09815092 0.00698575 10.36525752 0.01477811 12.63243103 0.02259827 C14.20041865 0.02446245 15.76840685 0.02588635 17.33639526 0.02688599 C21.47103981 0.03071117 25.60564944 0.04054146 29.74028015 0.05158997 C33.95627876 0.06180407 38.172283 0.0663836 42.38829041 0.07142639 C50.66630125 0.08216373 58.94428368 0.09924015 67.22227478 0.12025452 C67.30118958 2.06448303 67.30118958 2.06448303 67.38169861 4.04798889 C67.45970572 5.77001054 67.53809509 7.4920149 67.61680603 9.21400452 C67.65036194 10.06575256 67.68391785 10.91750061 67.7184906 11.7950592 C68.22415076 22.45242459 71.6913643 30.7877589 77.05039978 39.94056702 C78.22227478 42.12025452 78.22227478 42.12025452 78.22227478 44.12025452 C70.6508116 44.25966575 63.07948253 44.36608242 55.50702572 44.43112755 C51.9901774 44.46235716 48.47421118 44.50467046 44.95787048 44.57289124 C40.90920357 44.65094241 36.86145381 44.67974085 32.81211853 44.70619202 C31.55769455 44.73715973 30.30327057 44.76812744 29.01083374 44.80003357 C19.2400433 44.80378389 19.2400433 44.80378389 15.10044861 41.47840881 C12.32906357 38.56227305 10.37398172 35.4100049 8.58164978 31.80384827 C7.98610291 30.62757874 7.39055603 29.4513092 6.77696228 28.23939514 C6.17484953 27.01245148 5.57329146 25.78523546 4.97227478 24.55775452 C4.35658366 23.32588569 3.73940571 22.09475882 3.12071228 20.86439514 C1.98490165 18.60393359 0.85612494 16.33991311 -0.26307678 14.07118225 C-1.72724885 11.11230525 -1.72724885 11.11230525 -3.48768616 8.40565491 C-4.77772522 6.12025452 -4.77772522 6.12025452 -4.52772522 3.37025452 C-3.45415329 0.14953874 -3.45415329 0.14953874 0 0 Z " fill="#FE8997" transform="translate(141.77772521972656,392.87974548339844)"/>
<path d="M0 0 C1.03013277 1.64821244 2.03114628 3.31503702 3 5 C4.53064912 6.53064912 6.06086321 6.03756456 8.1875 6.0625 C11.24524285 6.35023019 12.60826944 6.64057711 14.89453125 8.73828125 C18.49085555 13.52463013 20.44177631 17.53366261 20.33984375 23.68359375 C19.32955028 30.56984693 15.43542469 36.61485215 9.9140625 40.75 C9.28242188 41.1625 8.65078125 41.575 8 42 C7.38898438 42.4125 6.77796875 42.825 6.1484375 43.25 C-1.8014073 47.66999093 -12.0790936 46.99366113 -20.81640625 45.52734375 C-28.01697073 43.43604937 -33.97004593 39.14043349 -38 32.8125 C-40.57836718 27.60314591 -41.03725616 22.70069237 -40 17 C-37.1061091 9.60591753 -30.94021439 4.38784038 -24.125 0.625 C-17.94700364 -1.9643863 -6.08188355 -3.04094178 0 0 Z " fill="#FDA0AB" transform="translate(185,173)"/>
<path d="M0 0 C5.80514937 3.47436008 10.38950626 8.0601287 12.59765625 14.5546875 C13.51735707 21.49778103 12.38320644 27.73745206 8.2265625 33.43359375 C1.92380501 40.43161945 -5.68376247 43.68281702 -14.99169922 44.19750977 C-25.01817752 44.38828181 -32.93092682 42.41816922 -40.6171875 35.5859375 C-45.65125547 30.23273638 -47.93402512 25.13219934 -47.71875 17.640625 C-46.94982368 12.57140701 -44.50859847 8.71916615 -41.02734375 5.0546875 C-37.88745599 3.26046592 -35.95821309 3.5546875 -32.40234375 3.5546875 C-30.09958819 1.6875884 -28.72410504 0.19821009 -27.40234375 -2.4453125 C-18.41769209 -5.44019639 -8.38209421 -3.99362228 0 0 Z " fill="#FDA0AB" transform="translate(354.40234375,175.4453125)"/>
<path d="M0 0 C30.36 0 60.72 0 92 0 C92 6.93 92 13.86 92 21 C61.64 21 31.28 21 0 21 C0 14.07 0 7.14 0 0 Z " fill="#EFEFEF" transform="translate(210,297)"/>
<path d="M0 0 C3.37470504 -0.11689626 6.7488843 -0.18747934 10.125 -0.25 C11.07632812 -0.28351563 12.02765625 -0.31703125 13.0078125 -0.3515625 C18.84778913 -0.43267329 22.49620977 -0.12496676 27 4 C31.05485078 8.83362512 30.45035797 14.2240947 30.43359375 20.21484375 C30.4388356 21.30334122 30.44407745 22.39183868 30.44947815 23.51332092 C30.45589318 25.81217599 30.45456811 28.1110639 30.44604492 30.40991211 C30.43753838 33.92165765 30.46630012 37.43177458 30.49804688 40.94335938 C30.49965912 43.17968701 30.49908091 45.41601753 30.49609375 47.65234375 C30.50732773 48.69937973 30.51856171 49.74641571 30.53013611 50.82518005 C30.47449199 56.6645273 30.20189304 60.55739858 26 65 C20.91530555 68.59851521 16.10482922 68.36311245 10.125 68.1875 C9.24585938 68.17396484 8.36671875 68.16042969 7.4609375 68.14648438 C5.30702448 68.11136623 3.15342996 68.05756694 1 68 C1.00222061 67.36932114 1.00444122 66.73864227 1.00672913 66.08885193 C1.02906152 59.452551 1.04402165 52.81626095 1.05493164 46.17993164 C1.05992291 43.71182826 1.06671828 41.24372778 1.07543945 38.77563477 C1.16361597 19.36513078 1.16361597 19.36513078 0 0 Z " fill="#D2C0E5" transform="translate(453,175)"/>
<path d="M0 0 C0.97904297 0.01353516 1.95808594 0.02707031 2.96679688 0.04101562 C5.37429556 0.07624731 7.78051259 0.1281235 10.1875 0.1875 C10.11644547 0.8244429 10.04539093 1.4613858 9.97218323 2.11763 C9.19928621 9.67357994 9.05692091 17.1394898 9.08984375 24.73046875 C9.09196617 26.60488396 9.09196617 26.60488396 9.09413147 28.51716614 C9.09874398 31.80008181 9.10768962 35.08294602 9.11883545 38.36584473 C9.12916212 41.73152037 9.13365292 45.09720362 9.13867188 48.46289062 C9.1496391 55.03778012 9.16633025 61.61263586 9.1875 68.1875 C5.97947767 68.30448258 2.77200975 68.37500607 -0.4375 68.4375 C-1.34113281 68.47101563 -2.24476562 68.50453125 -3.17578125 68.5390625 C-8.90133446 68.62264722 -12.38085512 68.19643414 -16.8125 64.1875 C-20.97816333 59.56834128 -20.26254919 53.85306245 -20.24609375 47.97265625 C-20.2513356 46.88415878 -20.25657745 45.79566132 -20.26197815 44.67417908 C-20.26839318 42.37532401 -20.26706811 40.0764361 -20.25854492 37.77758789 C-20.25003838 34.26584235 -20.27880012 30.75572542 -20.31054688 27.24414062 C-20.31215912 25.00781299 -20.31158091 22.77148247 -20.30859375 20.53515625 C-20.31982773 19.48812027 -20.33106171 18.44108429 -20.34263611 17.36231995 C-20.28497136 11.31092608 -19.83552924 7.80209612 -15.8125 3.1875 C-11.22935813 -0.92955965 -5.81018865 -0.1521809 0 0 Z " fill="#BEA4DD" transform="translate(48.8125,174.8125)"/>
<path d="M0 0 C13.53 0 27.06 0 41 0 C41 6.6 41 13.2 41 20 C57.83 20 74.66 20 92 20 C92 20.33 92 20.66 92 21 C61.64 21 31.28 21 0 21 C0 14.07 0 7.14 0 0 Z " fill="#D4D7D9" transform="translate(210,297)"/>
<path d="M0 0 C1.44452437 0.95931945 2.85893866 1.96467745 4.25 3 C8.48298657 6.01234457 11.53270202 6.79015073 16.69921875 6.46875 C21.10746103 5.57063612 23.90411459 3.09588541 27 0 C30.89201406 -0.43244601 33.13230302 -0.57846465 36.4375 1.625 C38.54103258 4.82236952 38.73945225 6.22879353 38 10 C34.49618038 16.18643152 28.72531318 20.03772996 22 22 C11.24076082 23.3421769 2.94269714 22.09504387 -5.9375 15.578125 C-8.92168027 13.00841421 -9.95482106 11.26203788 -10.625 7.375 C-10 4 -10 4 -8.375 1.5625 C-5.13359249 -0.57000494 -3.84177075 -0.72486241 0 0 Z " fill="#020202" transform="translate(242,165)"/>
<path d="M0 0 C2.64708201 1.99993089 4.65120717 3.6057135 5.48120117 6.92358398 C5.67318739 9.13642385 5.68251388 11.27996406 5.625 13.5 C5.64433594 14.24636719 5.66367188 14.99273437 5.68359375 15.76171875 C5.6464855 19.95495063 5.32407568 21.58641257 2.65234375 24.99609375 C0 27 0 27 -3.0625 27.5625 C-6.81853027 26.84326016 -7.75944613 26.10266973 -10 23 C-10.59506415 19.82366967 -10.5583324 16.72286527 -10.5 13.5 C-10.51546875 12.64535156 -10.5309375 11.79070312 -10.546875 10.91015625 C-10.50814496 4.70366797 -10.50814496 4.70366797 -8.15234375 1.44140625 C-5.1557063 -0.56541629 -3.53738038 -0.64972293 0 0 Z " fill="#030304" transform="translate(195,153)"/>
<path d="M0 0 C3.89643482 0.7156717 5.3578163 1.65530255 8.0625 4.5625 C8.80701403 7.55604323 8.7614904 10.42939831 8.6875 13.5 C8.70683594 14.29857422 8.72617187 15.09714844 8.74609375 15.91992188 C8.71018951 20.25356334 8.44890084 22.06422937 5.71484375 25.58984375 C3.0625 27.5625 3.0625 27.5625 0 28.1875 C-2.9375 27.5625 -2.9375 27.5625 -5.08984375 25.5546875 C-7.53818077 21.58972734 -7.53210823 18.62734728 -7.4375 14.0625 C-7.45296875 13.31613281 -7.4684375 12.56976563 -7.484375 11.80078125 C-7.45686744 7.91533824 -7.17621202 5.94958694 -5.08984375 2.56640625 C-2.9375 0.5625 -2.9375 0.5625 0 0 Z " fill="#020203" transform="translate(318.9375,152.4375)"/>
</svg>
