<svg width="96" height="96" viewBox="0 0 96 96" fill="none" xmlns="http://www.w3.org/2000/svg">
  <rect width="96" height="96" rx="48" fill="#DBEAFE"/>
  <circle cx="48" cy="50" r="25" fill="#F3D2B3"/>
  <path d="M25 42C27 25 39 17 48 17C61 17 71 25 72 43C66 39 58 37 48 37C39 37 32 39 25 42Z" fill="#7C3AED"/>
  <circle cx="39" cy="50" r="3.5" fill="#1F2937"/>
  <circle cx="57" cy="50" r="3.5" fill="#1F2937"/>
  <path d="M41 60C45 63 51 63 55 60" stroke="#7C3AED" stroke-width="3" stroke-linecap="round"/>
  <path d="M24 92C28 75 38 66 48 66C58 66 68 75 72 92" fill="#3B82F6"/>
</svg>
