<?xml version="1.0" encoding="UTF-8"?>
<svg version="1.1" xmlns="http://www.w3.org/2000/svg" width="512" height="512">
<path d="M0 0 C2.36077169 0.0107865 4.72079331 0.00001529 7.08154297 -0.01269531 C8.60368004 -0.0113746 10.12581665 -0.00881405 11.64794922 -0.00488281 C12.3428949 -0.00893127 13.03784058 -0.01297974 13.75384521 -0.01715088 C18.97883988 0.0324059 24.12741384 0.58503677 28.53857422 3.57324219 C29.98235956 5.86631303 29.81622397 7.60722864 29.60107422 10.26074219 C31.54618448 10.49549687 33.4913707 10.72964654 35.43701172 10.95996094 C37.60107422 11.26074219 37.60107422 11.26074219 40.85107422 12.01074219 C44.3423598 12.32813179 44.89149998 11.31344995 47.60107422 9.26074219 C60.97292239 8.09090857 74.93271855 19.81323446 84.69482422 27.78808594 C106.53115148 46.59440849 125.54515153 79.73143205 127.80419922 108.88183594 C127.96509056 118.54872415 127.96509056 118.54872415 124.60107422 122.26074219 C120.24550446 125.97578699 116.02901173 125.65626632 110.60107422 125.26074219 C109.71806641 125.14859375 108.83505859 125.03644531 107.92529297 124.92089844 C100.20348732 123.94884652 94.02677246 124.43257578 87.33935547 128.70605469 C82.31591956 132.69880411 79.08998707 136.98103326 77.60107422 143.26074219 C77.29427891 146.71389378 77.05405865 150.12350053 77.01538086 153.58862305 C76.8893818 159.42088466 75.3163978 162.1967756 71.67919922 166.57324219 C65.98346797 169.69577505 59.36488846 168.40273579 53.03466797 168.10449219 C45.8800427 167.89885026 40.83215693 168.6791028 34.60107422 172.26074219 C33.59044922 172.83824219 32.57982422 173.41574219 31.53857422 174.01074219 C30.89919922 174.42324219 30.25982422 174.83574219 29.60107422 175.26074219 C31.03648061 179.25595663 32.97984379 182.83984389 35.02856445 186.54052734 C40.48206052 196.46897081 44.68356681 206.31321437 47.60107422 217.26074219 C47.86573486 218.23599854 47.86573486 218.23599854 48.13574219 219.23095703 C53.41665119 239.77364072 52.20334978 262.94957299 46.60107422 283.26074219 C46.42979004 283.91606934 46.25850586 284.57139648 46.08203125 285.24658203 C38.24340951 314.56046719 17.53462492 335.45187322 -3.21923828 356.31933594 C-3.86091824 356.96509142 -4.50259819 357.6108469 -5.16372299 358.27617073 C-8.55854737 361.69166322 -11.95650359 365.10400484 -15.35693359 368.51391602 C-18.81749546 371.98552686 -22.26620073 375.46867211 -25.71238899 378.95454311 C-28.41179572 381.68040796 -31.12035095 384.39705053 -33.83123398 387.11149788 C-35.10454014 388.38959158 -36.37454908 389.67098105 -37.6407814 390.9560833 C-49.22225706 402.69942394 -61.94182697 414.3097327 -76.83642578 421.69824219 C-77.61808105 422.09599854 -78.39973633 422.49375488 -79.20507812 422.90356445 C-93.30454713 429.8655488 -111.40622191 436.55870076 -127.39892578 435.26074219 C-130.27392578 432.88574219 -130.27392578 432.88574219 -132.39892578 430.26074219 C-132.39892578 429.60074219 -132.39892578 428.94074219 -132.39892578 428.26074219 C-134.48046514 428.12538197 -136.56453784 428.02858754 -138.64892578 427.94824219 C-139.80908203 427.89023437 -140.96923828 427.83222656 -142.16455078 427.77246094 C-145.58092044 427.94616625 -145.58092044 427.94616625 -147.69580078 430.71777344 C-148.25783203 431.55695313 -148.81986328 432.39613281 -149.39892578 433.26074219 C-156.63534532 436.87895195 -168.45487598 432.27189508 -175.80517578 429.91699219 C-186.30857438 426.29450289 -196.51117473 421.33391231 -205.76782227 415.19628906 C-207.37468043 414.09489667 -207.37468043 414.09489667 -209.39892578 414.26074219 C-210.1944297 415.65439219 -210.98514417 417.05077649 -211.77392578 418.44824219 C-212.21478516 419.22554688 -212.65564453 420.00285156 -213.10986328 420.80371094 C-215.52415392 425.40549522 -216.64445677 428.73040011 -216.38330078 433.97167969 C-216.34978516 435.05191406 -216.31626953 436.13214844 -216.28173828 437.24511719 C-216.19347603 439.49840057 -216.08940433 441.75112234 -215.96923828 444.00292969 C-215.72706152 453.24967863 -215.72706152 453.24967863 -219.22705078 457.48730469 C-222.76343369 461.05328534 -225.97104829 461.34629727 -230.89526367 461.49926758 C-240.29690273 461.82599044 -247.44190551 462.88398228 -254.27392578 469.88574219 C-259.10961259 475.96971094 -260.80755618 482.11683374 -260.08642578 489.82324219 C-259.8610837 491.63622166 -259.63204801 493.4487467 -259.39892578 495.26074219 C-258.9702854 500.1288722 -258.89463881 503.27017849 -261.14892578 507.69824219 C-263.84011372 510.76320623 -265.72428504 512.04809212 -269.78491211 512.5637207 C-276.99428206 512.60047933 -283.21977423 511.32730651 -290.08642578 509.19824219 C-291.6584375 508.72233643 -291.6584375 508.72233643 -293.26220703 508.23681641 C-312.37625052 502.29890025 -330.36871712 493.63131661 -345.39892578 480.26074219 C-346.23810547 479.56464844 -347.07728516 478.86855469 -347.94189453 478.15136719 C-368.28550606 460.86718251 -381.00193678 433.97731027 -384.12646484 407.64453125 C-384.71794104 400.29877851 -384.76280536 392.93950388 -384.77392578 385.57324219 C-384.77610107 384.79020721 -384.77827637 384.00717224 -384.78051758 383.20040894 C-384.77311881 359.69730072 -384.77311881 359.69730072 -378.39892578 352.26074219 C-374.87152432 348.9097108 -372.01654913 347.96113472 -367.27392578 347.76074219 C-361.70574777 347.92491451 -356.55434002 349.04448413 -351.14892578 350.26074219 C-326.34889373 355.71879274 -299.80410054 352.55572927 -278.08642578 339.01074219 C-276.18022279 337.77661327 -274.28219557 336.52959164 -272.39892578 335.26074219 C-271.40892578 334.60074219 -270.41892578 333.94074219 -269.39892578 333.26074219 C-269.61548828 331.37355469 -269.61548828 331.37355469 -269.83642578 329.44824219 C-269.91763672 328.74054688 -269.99884766 328.03285156 -270.08251953 327.30371094 C-270.37063313 325.06677826 -270.37063313 325.06677826 -271.39892578 322.26074219 C-274.13080783 321.21256694 -276.78719677 320.33497851 -279.58642578 319.51074219 C-309.23843673 310.14262959 -331.76529438 290.19251787 -346.52392578 263.04980469 C-351.23181338 253.84775303 -353.42426829 244.86122106 -350.67236328 234.53417969 C-348.73121343 229.81544957 -346.27020933 226.62707571 -342.39892578 223.26074219 C-341.41859375 222.29587891 -341.41859375 222.29587891 -340.41845703 221.31152344 C-329.19888794 210.5429923 -316.03694327 203.26062356 -301.39892578 198.26074219 C-300.27099609 197.87144531 -299.14306641 197.48214844 -297.98095703 197.08105469 C-291.51292162 195.04165112 -285.1171398 193.79280141 -278.39892578 193.01074219 C-277.63668701 192.92034668 -276.87444824 192.82995117 -276.08911133 192.73681641 C-271.18624023 192.23473725 -266.80913443 192.54865202 -261.89892578 193.13574219 C-258.50518858 193.37688796 -258.50518858 193.37688796 -255.39892578 192.26074219 C-251.4568862 188.42130934 -249.15697219 183.17507205 -246.60107422 178.37207031 C-236.16616683 160.0452874 -215.51652285 141.26217019 -196.46142578 132.51074219 C-194.03099774 131.26800434 -194.03099774 131.26800434 -192.39892578 129.26074219 C-191.64620961 124.90377925 -191.99282491 120.7298602 -192.30615234 116.35351562 C-193.42397576 91.13777261 -181.39066233 66.67668429 -166.39892578 47.26074219 C-165.83044922 46.51824219 -165.26197266 45.77574219 -164.67626953 45.01074219 C-159.21104425 38.24843678 -153.05794285 34.07019653 -144.31298828 32.81933594 C-124.21280806 32.07930555 -107.14053641 45.67169627 -93.01806641 58.70068359 C-84.97184538 66.45330005 -78.86589996 75.56660439 -73.39892578 85.26074219 C-72.58101563 86.70900391 -72.58101563 86.70900391 -71.74658203 88.18652344 C-69.43577436 92.53178265 -67.48128797 96.7539006 -66.16455078 101.49902344 C-65.96112061 102.22565186 -65.75769043 102.95228027 -65.5480957 103.70092773 C-65.16477884 105.12843609 -64.80941363 106.56382411 -64.48608398 108.00610352 C-63.95895085 110.26428251 -63.95895085 110.26428251 -62.39892578 113.26074219 C-58.46832722 114.94464123 -55.67206093 115.26074219 -51.39892578 115.26074219 C-49.70315935 113.23198889 -48.38249421 111.37698303 -47.02392578 109.13574219 C-46.63180908 108.50120117 -46.23969238 107.86666016 -45.83569336 107.21289062 C-31.06932248 82.712281 -29.27460705 56.11314041 -35.49267578 28.60839844 C-37.01343775 21.72455565 -37.79679279 15.27153266 -34.77392578 8.76074219 C-25.45766232 -1.04585093 -12.6183137 -0.06867828 0 0 Z " fill="#010001" transform="translate(384.39892578125,-0.2607421875)"/>
<path d="M0 0 C1.13825226 -0.00101212 1.13825226 -0.00101212 2.29949951 -0.00204468 C42.52022376 0.05477776 78.46726868 15.68840286 107.5625 43.25 C108.0678125 43.71744629 108.573125 44.18489258 109.09375 44.66650391 C126.01684389 60.38443757 137.27532041 79.70991858 142.5625 102.25 C142.89894531 103.50683594 142.89894531 103.50683594 143.2421875 104.7890625 C149.58428235 132.15563617 141.65519399 161.74537208 127.72265625 185.39160156 C118.65251522 199.92062376 104.68977767 212.28584745 92.6328125 224.3828125 C91.74879572 225.27107035 91.74879572 225.27107035 90.84692001 226.1772728 C87.734094 229.30491724 84.61854037 232.42981194 81.50048828 235.55224609 C78.32505434 238.73317281 75.1590287 241.92329459 71.99507332 245.11563301 C69.51713347 247.61239473 67.03231763 250.10223072 64.54571152 252.59035873 C63.37689607 253.76215179 62.21052002 254.93638446 61.04690933 256.1133461 C41.5192822 275.84917908 20.32097867 289.84214109 -7.24609375 295.390625 C-14.98359414 296.52611049 -14.98359414 296.52611049 -21.4375 300.25 C-22.14460678 301.89991582 -22.81693989 303.56562256 -23.4375 305.25 C-25.49532056 305.46692984 -27.55976213 305.62163893 -29.625 305.75 C-30.77355469 305.8428125 -31.92210937 305.935625 -33.10546875 306.03125 C-36.4375 305.25 -36.4375 305.25 -37.65161133 303.52368164 C-38.02439209 302.81590576 -38.39717285 302.10812988 -38.78125 301.37890625 C-40.51430883 298.20841925 -40.51430883 298.20841925 -43.44067383 296.23583984 C-45.86807821 295.58636537 -48.27295114 295.10934523 -50.75 294.6875 C-82.47583379 287.9810385 -109.44973092 265.72765273 -127.25146484 239.07763672 C-150.00523734 204.01490701 -158.59912242 162.73320349 -149.93359375 121.45556641 C-142.06256477 86.46202516 -122.11393207 53.05390627 -93.4375 31.25 C-92.56480469 30.57324219 -91.69210938 29.89648438 -90.79296875 29.19921875 C-73.94906606 16.49847221 -55.04440645 7.60649365 -34.4375 3.25 C-33.55320312 3.03730469 -32.66890625 2.82460937 -31.7578125 2.60546875 C-21.26908205 0.0830924 -10.72319129 0.00855998 0 0 Z " fill="#9869CB" transform="translate(275.4375,122.75)"/>
<path d="M0 0 C5.06082092 0.08162614 9.2517254 1.21939702 14 3 C14.061875 4.0725 14.12375 5.145 14.1875 6.25 C15.17527161 10.80894587 16.25326657 11.40973038 20 14 C21.83054253 14.94316777 23.68679357 15.83769015 25.5625 16.6875 C51.75301894 29.55863523 68.53610148 54.34603587 77.89453125 81.29296875 C82 93.72096192 82 93.72096192 82 99 C80.82824219 98.95359375 79.65648437 98.9071875 78.44921875 98.859375 C63.86184639 98.44894483 53.10012558 100.73327043 42 111 C34.91885853 119.85877243 31.48642891 130.78781352 31 142 C29.92363281 141.95359375 28.84726562 141.9071875 27.73828125 141.859375 C14.11239762 141.44718183 3.66854985 143.59463979 -7.7578125 151.51171875 C-10 153 -10 153 -13 154 C-13.58394531 153.29037109 -13.58394531 153.29037109 -14.1796875 152.56640625 C-27.2790681 137.08257619 -47.48535041 120.5048832 -67 114 C-65.58056177 110.03710138 -63.65427749 106.86236216 -61.3125 103.375 C-45.31879195 78.40571848 -42.81374587 47.3486597 -49 19 C-49.43302972 16.69050815 -49.85131199 14.37816734 -50.25 12.0625 C-50.42015625 11.10472656 -50.5903125 10.14695312 -50.765625 9.16015625 C-50.84296875 8.44730469 -50.9203125 7.73445313 -51 7 C-48.74007398 4.74007398 -43.98203445 5.02382482 -40.89175415 4.94885254 C-38.56862334 4.9667453 -36.24819251 5.01793819 -33.92578125 5.078125 C-32.18947141 5.10535864 -30.45314195 5.13136421 -28.71679688 5.15625 C-26.00393526 5.1996203 -23.29210435 5.25053936 -20.57983398 5.32226562 C-17.94498607 5.38880819 -15.31126972 5.42360594 -12.67578125 5.453125 C-11.86530838 5.48206848 -11.05483551 5.51101196 -10.21980286 5.54083252 C-7.64187701 5.60821077 -7.64187701 5.60821077 -4 5 C-1.68758924 2.56760246 -1.68758924 2.56760246 0 0 Z " fill="#4C495B" transform="translate(414,10)"/>
<path d="M0 0 C0.37584229 0.75337646 0.37584229 0.75337646 0.75927734 1.52197266 C8.05289692 16.03313324 16.13735132 28.66798777 26.6875 41 C27.20997314 41.61133789 27.73244629 42.22267578 28.27075195 42.85253906 C31.8768123 46.9669502 35.75961551 50.5463361 40 54 C38.75028792 57.42778172 37.31517555 60.09489668 35.125 63 C27.76947899 73.96116857 27.45220856 85.29428194 28 98 C27.15179688 98.06316406 26.30359375 98.12632812 25.4296875 98.19140625 C13.91717143 99.39326232 3.75732368 103.0963314 -5 111 C-14.61424486 123.4592765 -15.44174106 133.83355693 -15 149 C-39.19644206 145.39866909 -61.42514093 133.79905884 -79 117 C-79.68707031 116.38769531 -80.37414062 115.77539062 -81.08203125 115.14453125 C-87.38915337 109.31013228 -91.65108861 102.33460632 -96 95 C-96.4846875 94.18917969 -96.969375 93.37835938 -97.46875 92.54296875 C-100.4105581 87.15908277 -102.30335031 81.44267538 -104.1875 75.625 C-104.56297974 74.47511597 -104.56297974 74.47511597 -104.94604492 73.30200195 C-108.4583341 61.98832106 -109.3034897 51.05653093 -109.1875 39.25 C-109.18685547 37.98800781 -109.18621094 36.72601563 -109.18554688 35.42578125 C-109.15613105 29.19616344 -108.96686479 23.15699497 -108 17 C-104.45630999 15.76344307 -102.24769545 16.27349414 -98.6875 17.3125 C-68.10618783 25.36410151 -36.33940259 20.8538409 -9 5 C-1.46851385 0 -1.46851385 0 0 0 Z " fill="#4C495B" transform="translate(124,347)"/>
<path d="M0 0 C8.93970684 1.19196091 15.35403812 4.03756217 21.0703125 11.140625 C25.44928752 18.18373167 24.84765357 27.51253658 23.125 35.33984375 C19.15033469 46.57182207 11.06528766 54.0309226 0.75 59.5 C-0.26900391 60.04140625 -0.26900391 60.04140625 -1.30859375 60.59375 C-7.79366691 63.50596581 -15.2850803 63.75295918 -22.03125 61.62109375 C-28.67835493 58.58785159 -33.63641887 54.53395283 -36.3828125 47.66796875 C-38.86754285 38.59086822 -37.77950942 29.68687728 -33.25 21.5 C-29.49787637 15.39447338 -23.85082489 7.77137299 -16.69140625 5.79296875 C-14.25 5.5 -14.25 5.5 -11.25 5.75 C-8.02033353 5.81091377 -8.02033353 5.81091377 -5.8125 3 C-3.25 0.5 -3.25 0.5 0 0 Z " fill="#FDA0AC" transform="translate(235.25,327.5)"/>
<path d="M0 0 C5.70587801 3.29220838 9.59906496 7.49356679 11.98828125 13.77734375 C14.29614041 23.23780458 12.1311754 31.52758874 7.5 39.875 C1.90741817 48.71937715 -5.29085405 54.23036376 -14.875 58.3125 C-22.88282931 59.5550942 -32.41362034 60.54733824 -39.5 55.875 C-45.48384503 50.50767234 -49.47319632 44.42221098 -50 36.25 C-49.872384 31.51225592 -47.79608428 30.17108428 -44.5 26.875 C-44.32904693 24.80888899 -44.32904693 24.80888899 -44.5625 22.5625 C-44.83708615 17.70071001 -43.36649067 15.36631421 -40.26171875 11.71875 C-29.90379812 0.87853152 -14.82677246 -6.95632031 0 0 Z " fill="#FEA0AC" transform="translate(377.5,200.125)"/>
<path d="M0 0 C-2.31 6.27 -4.62 12.54 -7 19 C-8.670625 19.0825 -10.34125 19.165 -12.0625 19.25 C-23.92150867 20.26967919 -39.09150053 23.10607542 -47.8515625 31.84765625 C-50.69658559 35.84499316 -51.85053277 39.80633223 -51.546875 44.70703125 C-50.477207 49.19199635 -47.89266264 52.49256566 -45 56 C-44.51660156 56.59554687 -44.03320312 57.19109375 -43.53515625 57.8046875 C-39.928988 61.78707177 -35.67134663 64.71109754 -31.1875 67.625 C-30.27919434 68.21982178 -30.27919434 68.21982178 -29.35253906 68.82666016 C-25.71934789 71.13118029 -22.36632957 72.56064223 -18.25 73.875 C-15.8671875 74.94140625 -15.8671875 74.94140625 -14 77 C-12.18950711 83.13620503 -12.13713397 89.64820364 -12 96 C-30.31045161 93.95920663 -47.48888288 78.45283962 -59 65 C-65.83225716 56.26710826 -72.5171523 46.29066784 -74.75 35.3125 C-72.72230511 26.35684755 -62.68888043 19.65725725 -55.34423828 14.93554688 C-37.61950077 4.01429402 -20.71418934 -0.24086267 0 0 Z " fill="#4D4A5C" transform="translate(122,208)"/>
<path d="M0 0 C2.70690056 0.89251692 5.16991416 2.10886836 7.6875 3.4375 C8.38593018 3.79948486 9.08436035 4.16146973 9.80395508 4.53442383 C31.59400156 16.15129378 49.0233888 35.52411989 57 59 C57 59.99 57 60.98 57 62 C43.83958869 62.1840617 43.83958869 62.1840617 38 60 C34.76078101 56.34135016 33.36417683 52.39326893 31.76318359 47.87060547 C27.92224503 38.45625125 18.63562036 28.97625806 9.97265625 23.78515625 C5.65857594 22.06806686 1.23048115 22.27539723 -3.15234375 23.69921875 C-10.96742388 27.73426012 -13.6001008 35.76899475 -16.22265625 43.6953125 C-18.45473813 51.48759834 -19.60059445 58.91203763 -20 67 C-26.27 69.31 -32.54 71.62 -39 74 C-39.64777432 47.44125299 -31.23160288 24.29086296 -12.96484375 4.83203125 C-8.56768281 0.587373 -6.33875457 -0.66968014 0 0 Z " fill="#4D4A5C" transform="translate(247,48)"/>
<path d="M0 0 C2.6875 2.25 2.6875 2.25 5 5 C5.5775 5.680625 6.155 6.36125 6.75 7.0625 C10.12363454 12.29163354 9.424258 19.0289615 9 25 C7.13717932 31.31289229 3.5210501 36.610465 -1.95703125 40.328125 C-6.05973235 42.55597799 -9.24985676 43.47501432 -14 43 C-13.9175 43.825 -13.835 44.65 -13.75 45.5 C-14.22099789 52.09397041 -17.09781766 56.47445708 -21.9375 60.875 C-28.21414875 66.24072358 -34.18170577 66.5437451 -42.24609375 66.45703125 C-47.6119008 65.80375401 -51.17206588 63.75484707 -55 60 C-57.32749345 56.50875983 -57.50299316 55.10777749 -57 51 C-55.4375 48.625 -55.4375 48.625 -53 47 C-46.97309417 46.24663677 -46.97309417 46.24663677 -44.0625 48.5 C-41.30562626 50.50499908 -39.25368988 50.49363537 -35.90625 50.34375 C-33.7902076 50.08390271 -33.7902076 50.08390271 -31.5 48.4375 C-29.43148382 45.0761612 -29.51494989 42.88040089 -30 39 C-30.495 38.360625 -30.99 37.72125 -31.5 37.0625 C-33.92889312 33.72277196 -33.3871273 31.06483661 -33 27 C-32 25 -32 25 -30 24 C-24.44400929 23.47085803 -22.37613883 23.61202155 -18 27 C-14.11959911 27.48505011 -11.9238388 27.56851618 -8.5625 25.5 C-6.37732745 22.00372392 -6.27188227 19.02557044 -7 15 C-7.98028616 13.65210653 -8.97971135 12.31787285 -10 11 C-10.49398209 7.0481433 -10.6085569 4.91283535 -8.375 1.5625 C-5.24316508 -0.49791771 -3.68455227 -0.6767545 0 0 Z " fill="#020103" transform="translate(303,246)"/>
<path d="M0 0 C25.72069738 8.1098488 46.76482159 23.05081114 62.75 44.75 C63.55751709 45.81371826 63.55751709 45.81371826 64.38134766 46.89892578 C66.98459254 50.57202089 68.01249888 52.26697717 67.93359375 56.89453125 C67 60 67 60 65.3125 61.9375 C62.05681857 63.43335363 60.55650047 63.76708834 57 63 C53.09821114 59.59143953 50.18860113 55.27186341 47.125 51.125 C33.31154874 32.56204188 15.91323462 21.43008825 -6.14916992 15.07714844 C-9.29410013 14.13307141 -11.63033779 13.35748342 -14.015625 11.05078125 C-15.59204477 7.7665734 -14.93616537 5.43260634 -14 2 C-9.51274302 -2.25364707 -5.69309023 -1.34926927 0 0 Z " fill="#010101" transform="translate(401,40)"/>
<path d="M0 0 C3.77704687 1.18907031 4.34771709 1.82241965 6.375 5.0625 C7.23120117 7.22216797 7.23120117 7.22216797 7.91796875 9.5546875 C8.18254883 10.41771484 8.44712891 11.28074219 8.71972656 12.16992188 C8.9978418 13.08322266 9.27595703 13.99652344 9.5625 14.9375 C17.00196967 38.08779859 31.40367515 54.56703721 51.125 68.43359375 C53.375 70.0625 53.375 70.0625 55.375 72.0625 C56.00211146 76.09393083 55.68110745 77.62652878 53.3125 81 C50.375 83.0625 50.375 83.0625 47.0546875 82.94140625 C30.68598579 79.0316845 14.13946345 58.13648883 5.49682617 44.39355469 C-0.95275502 33.77275343 -9.85090454 17.90705204 -8.625 5.0625 C-5.92665364 1.21940065 -4.75860157 0.08204485 0 0 Z " fill="#010101" transform="translate(47.625,385.9375)"/>
<path d="M0 0 C4.11116681 3.25885174 5.9787127 7.52821567 8.25 12.125 C11.82247806 19.11285898 15.77568027 25.10874583 21 31 C21.78503906 31.96292969 21.78503906 31.96292969 22.5859375 32.9453125 C25.11930992 36.04165657 27.64317216 38.55214516 30.8125 41 C33.52282878 43.26363762 34.01067291 44.03041778 35.25 47.5625 C35 51 35 51 32.9375 53.9375 C29.42907718 56.4008607 28.20066327 56.58911741 24 56 C21.65488561 54.35631263 19.82703281 52.85718444 17.8125 50.875 C17.25151611 50.3372998 16.69053223 49.79959961 16.11254883 49.24560547 C5.44772718 38.77195282 -8.75736061 22.80507421 -10.375 7.4375 C-10 4 -10 4 -8.375 1.5625 C-5.28314769 -0.47161336 -3.63632575 -0.60605429 0 0 Z " fill="#010101" transform="translate(102,379)"/>
<path d="M0 0 C2.7097756 0.88361481 5.17001854 2.10937743 7.6875 3.4375 C8.38520508 3.79803467 9.08291016 4.15856934 9.80175781 4.5300293 C23.03421089 11.5690518 35.84983146 22.06074265 45 34 C45.625 37.0625 45.625 37.0625 45 40 C42.9375 42.9375 42.9375 42.9375 40 45 C35.86009524 44.92377621 33.71182305 44.6346513 30.5859375 41.84765625 C29.85632813 40.92855469 29.12671875 40.00945312 28.375 39.0625 C19.3270687 28.56527432 8.71234507 21.96385315 -3.46044922 15.578125 C-4.29334473 15.13984375 -5.12624023 14.7015625 -5.984375 14.25 C-6.73428711 13.86328125 -7.48419922 13.4765625 -8.25683594 13.078125 C-10 12 -10 12 -11 10 C-11.38503376 6.45768939 -11.41935959 4.63742658 -9.4375 1.625 C-6.06251481 -0.62499013 -4.0240434 -0.33259951 0 0 Z " fill="#010101" transform="translate(390,92)"/>
<path d="M0 0 C2.4375 1.625 2.4375 1.625 4 4 C4.5625 6.9375 4.5625 6.9375 4 10 C0.30313245 14.18605607 -3.99577893 17.37839313 -8.5 20.625 C-9.15097656 21.10195313 -9.80195313 21.57890625 -10.47265625 22.0703125 C-19.62203664 28.72440733 -19.62203664 28.72440733 -23.5 29.5 C-27.32020651 28.7359587 -28.74652561 27.11509695 -31 24 C-31.4375 20.6875 -31.4375 20.6875 -30 17 C-26.97886707 13.88982315 -23.53649783 11.49151976 -20 9 C-18.89524648 8.16656046 -17.79243223 7.33054518 -16.69140625 6.4921875 C-15.56645968 5.65962366 -14.44017522 4.82886424 -13.3125 4 C-12.27738281 3.236875 -11.24226563 2.47375 -10.17578125 1.6875 C-6.45325718 -0.29052017 -4.15890576 -0.44880278 0 0 Z " fill="#030205" transform="translate(215,288)"/>
<path d="M0 0 C2.875 2.0625 2.875 2.0625 5 5 C4.99178847 11.61027957 1.98367239 15.55148506 -1.8125 20.625 C-2.34681641 21.36234375 -2.88113281 22.0996875 -3.43164062 22.859375 C-11.28828621 33.6441431 -11.28828621 33.6441431 -14 35 C-17.54231061 35.38503376 -19.36257342 35.41935959 -22.375 33.4375 C-24.69051728 29.96422408 -24.52133195 28.14996779 -24 24 C-22.24197545 20.70546052 -20.03265478 17.82241077 -17.75 14.875 C-17.16347656 14.08996094 -16.57695312 13.30492187 -15.97265625 12.49609375 C-14.33535328 10.31424957 -12.67360911 8.15405583 -11 6 C-10.24203125 5.01257813 -9.4840625 4.02515625 -8.703125 3.0078125 C-6.05332043 -0.11603968 -4.01171566 -0.55977428 0 0 Z " fill="#030204" transform="translate(312,184)"/>
<path d="M0 0 C-1 9 -2 18 -3 27 C-12.06745065 22.97002193 -20.18843606 17.13618952 -26 9 C-26 8.34 -26 7.68 -26 7 C-17.13475854 2.73034327 -9.96786302 -0.13115609 0 0 Z " fill="#F66A7B" transform="translate(111,242)"/>
<path d="M0 0 C9.55802996 3.09082164 15.60048639 13.4597677 20 22 C20 22.33 20 22.66 20 23 C16.25055444 23.50421729 12.50036087 24.00264031 8.75 24.5 C7.68652344 24.64308594 6.62304688 24.78617188 5.52734375 24.93359375 C4.50253906 25.06894531 3.47773438 25.20429687 2.421875 25.34375 C1.47924805 25.46943359 0.53662109 25.59511719 -0.43457031 25.72460938 C-3 26 -3 26 -7 26 C-7.85011862 16.86122486 -4.18346686 7.97136235 0 0 Z " fill="#F66A7C" transform="translate(249,85)"/>
<path d="M0 0 C5.0997142 1.6149095 8.04722729 4.4227562 11.75 8.1875 C12.55050781 8.97253906 12.55050781 8.97253906 13.3671875 9.7734375 C15.68724916 12.25079147 16.71078812 13.94242574 17.25 17.3125 C16.67282639 20.63124823 16.38244154 22.04864125 13.75 24.1875 C9.53793321 24.97280059 7.26019777 25.1563585 3.625 22.82421875 C1.53851144 21.04200977 -0.36119722 19.17698523 -2.25 17.1875 C-2.78238281 16.67445313 -3.31476563 16.16140625 -3.86328125 15.6328125 C-6.41821777 12.96992091 -7.24376811 11.22766105 -7.8125 7.5625 C-7.25 4.1875 -7.25 4.1875 -5.6875 1.6875 C-3.25 0.1875 -3.25 0.1875 0 0 Z " fill="#050306" transform="translate(317.25,206.8125)"/>
<path d="M0 0 C3.02884433 1.99432445 5.48478016 4.4005887 8 7 C8.53367188 7.51304687 9.06734375 8.02609375 9.6171875 8.5546875 C12.16730298 11.22006244 12.99392734 12.96086511 13.5625 16.625 C13 20 13 20 11.375 22.4375 C8.27985839 24.47377737 6.66181583 24.41037591 3 24 C-2.50246103 20.32625006 -8.22089125 15.08757154 -11 9 C-10.9375 5.25 -10.9375 5.25 -10 2 C-6.15691236 -0.56205842 -4.5659696 -0.67366765 0 0 Z " fill="#040306" transform="translate(218,310)"/>
<path d="M0 0 C-2.31 6.27 -4.62 12.54 -7 19 C-8.835625 19.144375 -10.67125 19.28875 -12.5625 19.4375 C-17.07630303 19.81142451 -21.52805016 20.28855343 -26 21 C-24.3186083 14.51292846 -22.46937673 8.2322365 -20 2 C-20.66 1.67 -21.32 1.34 -22 1 C-14.6292288 0.08680711 -7.42643712 -0.08635392 0 0 Z " fill="#403D4D" transform="translate(122,208)"/>
<path d="M0 0 C-0.66 6.27 -1.32 12.54 -2 19 C-8.27 21.31 -14.54 23.62 -21 26 C-21.08635392 18.57356288 -20.91319289 11.3707712 -20 4 C-19.67 4.66 -19.34 5.32 -19 6 C-17.79601562 5.566875 -16.59203125 5.13375 -15.3515625 4.6875 C-13.77610058 4.12483503 -12.20057651 3.56234403 -10.625 3 C-9.43390625 2.57074219 -9.43390625 2.57074219 -8.21875 2.1328125 C-7.45820313 1.86210938 -6.69765625 1.59140625 -5.9140625 1.3125 C-5.2123291 1.06113281 -4.5105957 0.80976562 -3.78759766 0.55078125 C-2 0 -2 0 0 0 Z " fill="#403D4D" transform="translate(229,96)"/>
<path d="M0 0 C4 2 8 4 12 6 C13.093125 6.3609375 14.18625 6.721875 15.3125 7.09375 C18 9 18 9 18.65771484 11.01635742 C19.04327377 13.58117363 19.24237136 16.09745208 19.375 18.6875 C19.47748047 20.02651367 19.47748047 20.02651367 19.58203125 21.39257812 C19.74688471 23.59454934 19.88513046 25.79494903 20 28 C14.99395852 27.45318624 11.02533327 25.75614118 6.625 23.4375 C4.43875 22.303125 2.2525 21.16875 0 20 C0 13.4 0 6.8 0 0 Z " fill="#403C4C" transform="translate(90,276)"/>
<path d="M0 0 C6.6 0 13.2 0 20 0 C21.134375 2.18625 22.26875 4.3725 23.4375 6.625 C23.97201782 7.63941162 23.97201782 7.63941162 24.51733398 8.67431641 C26.44060727 12.45266569 27.54010903 15.78973057 28 20 C11.47013189 20.23118697 11.47013189 20.23118697 7.4453125 16.59570312 C4.75238445 12.75432046 3.39468813 8.45682627 2 4 C1.34 2.68 0.68 1.36 0 0 Z " fill="#403C4D" transform="translate(276,90)"/>
<path d="M0 0 C0 2.64 0 5.28 0 8 C-1.32 8 -2.64 8 -4 8 C-7 4.78571429 -7 4.78571429 -7 2 C-4.35261084 0.5393715 -3.10551666 0 0 0 Z " fill="#F196A1" transform="translate(92,247)"/>
<path d="M0 0 C2.375 0.75 2.375 0.75 5 2 C5.66 3.32 6.32 4.64 7 6 C2.545 6.495 2.545 6.495 -2 7 C-1.125 2.25 -1.125 2.25 0 0 Z " fill="#F197A1" transform="translate(249,85)"/>
</svg>
