<?xml version="1.0" encoding="UTF-8"?>
<svg version="1.1" xmlns="http://www.w3.org/2000/svg" width="512" height="512">
<path d="M0 0 C1.36859188 0.12216752 2.73738305 0.24212752 4.10638428 0.35961914 C29.43997513 2.55999029 51.17924821 9.10126231 70.71591187 25.81164551 C71.61503296 26.4942041 71.61503296 26.4942041 72.53231812 27.19055176 C80.70255251 33.54096596 86.59203492 42.76539396 91.84091187 51.56164551 C99.52858192 64.29770568 108.8104902 72.31418965 123.07626343 76.91247559 C131.19407557 78.91796942 139.617487 79.28435086 147.93270874 79.94519043 C171.42001834 81.86276016 191.09270272 88.92932157 207.29403687 106.62805176 C222.42307242 125.5393462 224.77850383 147.13346889 222.67440796 170.47961426 C222.46623419 172.80804034 222.27938994 175.13749262 222.09481812 177.46789551 C220.18247295 200.40830443 214.29354937 222.58876716 196.02841187 238.09289551 C184.35669845 247.21142161 172.95874299 251.68399678 158.71591187 254.81164551 C157.38165023 255.1412434 156.04807844 255.47367937 154.71591187 255.81164551 C155.32064331 256.02780518 155.92537476 256.24396484 156.5484314 256.4666748 C159.31740397 257.46468186 162.07902426 258.48170411 164.84091187 259.49914551 C165.79223999 259.83881348 166.74356812 260.17848145 167.72372437 260.52844238 C174.92088547 263.20238766 179.82221375 266.22934072 184.71591187 272.24914551 C188.17766028 276.32133616 191.91784618 280.05773761 195.71591187 283.81164551 C199.92564649 287.97715908 203.9905535 292.16023189 207.80966187 296.69055176 C209.96168574 299.08511931 212.22863224 301.33047026 214.52426147 303.58654785 C224.90508398 313.79544024 233.61584757 323.8441963 234.27841187 339.31164551 C233.373065 355.95045275 224.78437903 371.73404069 212.59091187 382.87414551 C209.41162663 385.0167073 207.54706236 385.81164551 203.71591187 385.81164551 C200.13164908 384.4268167 199.00272296 383.3852677 197.27841187 379.93664551 C196.60626787 376.20251218 196.70994107 375.02119878 198.71591187 371.81164551 C199.77473009 370.86676835 200.86160129 369.95292943 201.96591187 369.06164551 C208.4875405 363.70362696 211.65267544 357.40467708 214.39559937 349.49914551 C214.62110474 348.85396973 214.84661011 348.20879395 215.07894897 347.54406738 C215.62906325 345.96814321 216.17311606 344.39010533 216.71591187 342.81164551 C215.95329041 342.89934204 215.19066895 342.98703857 214.40493774 343.07739258 C207.16908514 343.90824593 199.93252721 344.73253216 192.69511795 345.54970551 C188.97556034 345.96990697 185.25631182 346.39251959 181.53768921 346.82092285 C177.93974859 347.23532843 174.34110281 347.64303428 170.74190521 348.04637146 C169.37834062 348.20031607 168.01503256 348.35655315 166.65201569 348.51527405 C152.60141888 350.14836247 141.92986594 350.57998657 128.58309937 345.47180176 C127.38403961 345.03025253 126.18497986 344.58870331 124.94958496 344.1337738 C121.79836316 342.96923207 118.65437481 341.78829453 115.51260376 340.59869385 C112.29943145 339.38721002 109.07751948 338.19943494 105.85653687 337.00891113 C87.4864948 330.19693697 87.4864948 330.19693697 84.71591187 328.81164551 C84.45036499 329.54641113 84.18481812 330.28117676 83.91122437 331.03820801 C79.71356795 340.77786832 70.67934016 348.47627152 61.71591187 353.81164551 C61.05591187 353.81164551 60.39591187 353.81164551 59.71591187 353.81164551 C59.73162231 354.42161377 59.74733276 355.03158203 59.76351929 355.66003418 C59.82610999 358.43964261 59.86497809 361.21910242 59.90341187 363.99914551 C59.94111694 365.43870605 59.94111694 365.43870605 59.97958374 366.90734863 C60.07698333 376.29017584 60.07698333 376.29017584 56.71591187 379.81164551 C54.02841187 380.62414551 54.02841187 380.62414551 51.71591187 380.81164551 C51.80317236 383.06236457 51.91135302 385.31227939 52.02841187 387.56164551 C52.08641968 388.81461426 52.14442749 390.06758301 52.20419312 391.35852051 C52.73179195 394.91880576 53.42688117 396.16213754 55.71591187 398.81164551 C56.4404526 402.88718714 55.80880062 404.63825317 53.84091187 408.31164551 C49.02822837 414.44305866 41.62241508 418.33697625 33.99325562 419.62414551 C25.63132446 420.31260639 18.69123003 418.52438148 11.71591187 413.81164551 C5.15106503 408.16311573 1.17813654 400.94049337 0.39804077 392.2845459 C0.32374368 388.41087502 0.36601316 384.55964135 0.46591187 380.68664551 C0.48602594 379.33510975 0.50426796 377.98354477 0.52059937 376.63195801 C0.56736723 373.35820719 0.6390966 370.08482913 0.71591187 366.81164551 C-5.55408813 366.81164551 -11.82408813 366.81164551 -18.28408813 366.81164551 C-18.23768188 368.87285645 -18.19127563 370.93406738 -18.14346313 373.05773926 C-18.11561963 375.08335427 -18.08792957 377.10897429 -18.06436157 379.13464355 C-18.04440818 380.52832365 -18.01723494 381.92192181 -17.98233032 383.31530762 C-17.69876149 394.93745973 -19.11009311 403.34718485 -27.24502563 412.01867676 C-33.83690463 417.81498415 -41.56326874 420.24706445 -50.28408813 419.81164551 C-59.44472248 418.18573205 -65.47981672 413.97677928 -71.67080688 407.20227051 C-75.94803018 400.86410911 -76.73882935 394.71396534 -76.79580688 387.28039551 C-76.81375809 386.40387329 -76.83170929 385.52735107 -76.85020447 384.62426758 C-76.90393322 381.85344098 -76.93808186 379.08278286 -76.97158813 376.31164551 C-77.00479435 374.42099725 -77.03928702 372.53037112 -77.07510376 370.63977051 C-77.15963768 366.03051785 -77.22662604 361.42131191 -77.28408813 356.81164551 C-80.74022876 355.65959863 -84.01259834 355.46334127 -87.61611938 355.23352051 C-89.13726366 355.12737721 -90.65833866 355.02023756 -92.17935181 354.91223145 C-93.38136734 354.82757629 -93.38136734 354.82757629 -94.60766602 354.74121094 C-133.25385645 351.95304825 -193.19016851 346.55850983 -221.75674438 316.24914551 C-225.38386177 311.13429523 -225.18242775 304.79792632 -224.28408813 298.81164551 C-222.22855837 292.9671208 -219.06022545 290.31476463 -213.61877441 287.66165161 C-209.52618106 286.17163158 -205.56123095 286.38107285 -201.25674438 286.52648926 C-199.8359684 286.54565147 -199.8359684 286.54565147 -198.38648987 286.56520081 C-195.37248176 286.60715854 -192.35997353 286.67537694 -189.34658813 286.74914551 C-172.29306034 287.14276335 -156.31056301 286.78051362 -140.03408813 281.06164551 C-139.29738892 280.81140625 -138.5606897 280.56116699 -137.80166626 280.30334473 C-131.74414156 278.16114551 -126.2321407 275.36467617 -120.69033813 272.13195801 C-118.28408813 270.81164551 -118.28408813 270.81164551 -116.28408813 270.81164551 C-116.2235022 269.89641113 -116.16291626 268.98117676 -116.10049438 268.03820801 C-116.01670532 266.84969238 -115.93291626 265.66117676 -115.84658813 264.43664551 C-115.72477173 262.66160645 -115.72477173 262.66160645 -115.60049438 260.85070801 C-115.28408813 257.81164551 -115.28408813 257.81164551 -114.28408813 255.81164551 C-114.81381226 255.66251709 -115.34353638 255.51338867 -115.88931274 255.35974121 C-123.57677235 253.12866783 -131.11386847 250.49591027 -138.64321899 247.78796387 C-140.11202396 247.26212355 -141.58274619 246.74160817 -143.05532837 246.22644043 C-155.3162531 241.93586664 -166.19405903 237.85550702 -172.53408813 225.81164551 C-176.79705552 215.37589231 -173.98182901 205.02995617 -170.15908813 194.93664551 C-169.74674927 193.80694336 -169.3344104 192.67724121 -168.90957642 191.51330566 C-168.08992991 189.28160121 -167.26066837 187.0533994 -166.42080688 184.82922363 C-165.45076699 182.25411773 -164.5152418 179.67098173 -163.59658813 177.07727051 C-159.65435208 166.20665282 -155.15895435 159.67142398 -144.61611938 154.62414551 C-142.28408813 153.81164551 -142.28408813 153.81164551 -138.28408813 153.81164551 C-138.33049438 152.49422363 -138.37690063 151.17680176 -138.42471313 149.81945801 C-138.75215312 135.56448431 -137.85549554 121.5555551 -136.53408813 107.37414551 C-136.45549561 106.490755 -136.37690308 105.6073645 -136.29592896 104.69720459 C-135.45567005 95.37853893 -134.35274048 86.2059437 -132.35440063 77.05773926 C-132.20078064 76.34968643 -132.04716064 75.64163361 -131.8888855 74.91212463 C-125.92216626 49.32030889 -108.08087712 26.77335388 -86.01846313 12.99914551 C-73.77040526 5.66800664 -60.41392535 0.79188547 -46.28408813 -1.18835449 C-45.09879517 -1.37397949 -45.09879517 -1.37397949 -43.88955688 -1.56335449 C-29.44498389 -3.38314322 -14.42224252 -1.28873515 0 0 Z " fill="#5AB08C" transform="translate(224.28408813476563,47.1883544921875)"/>
<path d="M0 0 C1.36859188 0.12216752 2.73738305 0.24212752 4.10638428 0.35961914 C29.43997513 2.55999029 51.17924821 9.10126231 70.71591187 25.81164551 C71.61503296 26.4942041 71.61503296 26.4942041 72.53231812 27.19055176 C80.70255251 33.54096596 86.59203492 42.76539396 91.84091187 51.56164551 C99.52858192 64.29770568 108.8104902 72.31418965 123.07626343 76.91247559 C131.19407557 78.91796942 139.617487 79.28435086 147.93270874 79.94519043 C171.42001834 81.86276016 191.09270272 88.92932157 207.29403687 106.62805176 C222.42307242 125.5393462 224.77850383 147.13346889 222.67440796 170.47961426 C222.46623419 172.80804034 222.27938994 175.13749262 222.09481812 177.46789551 C220.18247295 200.40830443 214.29354937 222.58876716 196.02841187 238.09289551 C184.35669845 247.21142161 172.95874299 251.68399678 158.71591187 254.81164551 C157.38165023 255.1412434 156.04807844 255.47367937 154.71591187 255.81164551 C155.32064331 256.02780518 155.92537476 256.24396484 156.5484314 256.4666748 C159.31740397 257.46468186 162.07902426 258.48170411 164.84091187 259.49914551 C165.79223999 259.83881348 166.74356812 260.17848145 167.72372437 260.52844238 C174.92088547 263.20238766 179.82221375 266.22934072 184.71591187 272.24914551 C188.17766028 276.32133616 191.91784618 280.05773761 195.71591187 283.81164551 C199.92564649 287.97715908 203.9905535 292.16023189 207.80966187 296.69055176 C209.96168574 299.08511931 212.22863224 301.33047026 214.52426147 303.58654785 C224.90508398 313.79544024 233.61584757 323.8441963 234.27841187 339.31164551 C233.373065 355.95045275 224.78437903 371.73404069 212.59091187 382.87414551 C209.41162663 385.0167073 207.54706236 385.81164551 203.71591187 385.81164551 C200.13164908 384.4268167 199.00272296 383.3852677 197.27841187 379.93664551 C196.60626787 376.20251218 196.70994107 375.02119878 198.71591187 371.81164551 C199.77473009 370.86676835 200.86160129 369.95292943 201.96591187 369.06164551 C208.4875405 363.70362696 211.65267544 357.40467708 214.39559937 349.49914551 C214.62110474 348.85396973 214.84661011 348.20879395 215.07894897 347.54406738 C215.62906325 345.96814321 216.17311606 344.39010533 216.71591187 342.81164551 C215.95329041 342.89934204 215.19066895 342.98703857 214.40493774 343.07739258 C207.16908514 343.90824593 199.93252721 344.73253216 192.69511795 345.54970551 C188.97556034 345.96990697 185.25631182 346.39251959 181.53768921 346.82092285 C177.93974859 347.23532843 174.34110281 347.64303428 170.74190521 348.04637146 C169.37834062 348.20031607 168.01503256 348.35655315 166.65201569 348.51527405 C152.60141888 350.14836247 141.92986594 350.57998657 128.58309937 345.47180176 C127.38403961 345.03025253 126.18497986 344.58870331 124.94958496 344.1337738 C121.79836316 342.96923207 118.65437481 341.78829453 115.51260376 340.59869385 C112.29943145 339.38721002 109.07751948 338.19943494 105.85653687 337.00891113 C87.4864948 330.19693697 87.4864948 330.19693697 84.71591187 328.81164551 C84.45036499 329.54641113 84.18481812 330.28117676 83.91122437 331.03820801 C79.71356795 340.77786832 70.67934016 348.47627152 61.71591187 353.81164551 C61.05591187 353.81164551 60.39591187 353.81164551 59.71591187 353.81164551 C59.73162231 354.42161377 59.74733276 355.03158203 59.76351929 355.66003418 C59.82610999 358.43964261 59.86497809 361.21910242 59.90341187 363.99914551 C59.94111694 365.43870605 59.94111694 365.43870605 59.97958374 366.90734863 C60.07698333 376.29017584 60.07698333 376.29017584 56.71591187 379.81164551 C54.02841187 380.62414551 54.02841187 380.62414551 51.71591187 380.81164551 C51.80317236 383.06236457 51.91135302 385.31227939 52.02841187 387.56164551 C52.08641968 388.81461426 52.14442749 390.06758301 52.20419312 391.35852051 C52.73179195 394.91880576 53.42688117 396.16213754 55.71591187 398.81164551 C56.4404526 402.88718714 55.80880062 404.63825317 53.84091187 408.31164551 C49.02822837 414.44305866 41.62241508 418.33697625 33.99325562 419.62414551 C25.63132446 420.31260639 18.69123003 418.52438148 11.71591187 413.81164551 C5.15106503 408.16311573 1.17813654 400.94049337 0.39804077 392.2845459 C0.32374368 388.41087502 0.36601316 384.55964135 0.46591187 380.68664551 C0.48602594 379.33510975 0.50426796 377.98354477 0.52059937 376.63195801 C0.56736723 373.35820719 0.6390966 370.08482913 0.71591187 366.81164551 C-5.55408813 366.81164551 -11.82408813 366.81164551 -18.28408813 366.81164551 C-18.23768188 368.87285645 -18.19127563 370.93406738 -18.14346313 373.05773926 C-18.11561963 375.08335427 -18.08792957 377.10897429 -18.06436157 379.13464355 C-18.04440818 380.52832365 -18.01723494 381.92192181 -17.98233032 383.31530762 C-17.69876149 394.93745973 -19.11009311 403.34718485 -27.24502563 412.01867676 C-33.83690463 417.81498415 -41.56326874 420.24706445 -50.28408813 419.81164551 C-59.44472248 418.18573205 -65.47981672 413.97677928 -71.67080688 407.20227051 C-75.94803018 400.86410911 -76.73882935 394.71396534 -76.79580688 387.28039551 C-76.81375809 386.40387329 -76.83170929 385.52735107 -76.85020447 384.62426758 C-76.90393322 381.85344098 -76.93808186 379.08278286 -76.97158813 376.31164551 C-77.00479435 374.42099725 -77.03928702 372.53037112 -77.07510376 370.63977051 C-77.15963768 366.03051785 -77.22662604 361.42131191 -77.28408813 356.81164551 C-80.74022876 355.65959863 -84.01259834 355.46334127 -87.61611938 355.23352051 C-89.13726366 355.12737721 -90.65833866 355.02023756 -92.17935181 354.91223145 C-93.38136734 354.82757629 -93.38136734 354.82757629 -94.60766602 354.74121094 C-133.25385645 351.95304825 -193.19016851 346.55850983 -221.75674438 316.24914551 C-225.38386177 311.13429523 -225.18242775 304.79792632 -224.28408813 298.81164551 C-222.22855837 292.9671208 -219.06022545 290.31476463 -213.61877441 287.66165161 C-209.52618106 286.17163158 -205.56123095 286.38107285 -201.25674438 286.52648926 C-199.8359684 286.54565147 -199.8359684 286.54565147 -198.38648987 286.56520081 C-195.37248176 286.60715854 -192.35997353 286.67537694 -189.34658813 286.74914551 C-172.29306034 287.14276335 -156.31056301 286.78051362 -140.03408813 281.06164551 C-139.29738892 280.81140625 -138.5606897 280.56116699 -137.80166626 280.30334473 C-131.74414156 278.16114551 -126.2321407 275.36467617 -120.69033813 272.13195801 C-118.28408813 270.81164551 -118.28408813 270.81164551 -116.28408813 270.81164551 C-116.2235022 269.89641113 -116.16291626 268.98117676 -116.10049438 268.03820801 C-116.01670532 266.84969238 -115.93291626 265.66117676 -115.84658813 264.43664551 C-115.72477173 262.66160645 -115.72477173 262.66160645 -115.60049438 260.85070801 C-115.28408813 257.81164551 -115.28408813 257.81164551 -114.28408813 255.81164551 C-114.81381226 255.66251709 -115.34353638 255.51338867 -115.88931274 255.35974121 C-123.57677235 253.12866783 -131.11386847 250.49591027 -138.64321899 247.78796387 C-140.11202396 247.26212355 -141.58274619 246.74160817 -143.05532837 246.22644043 C-155.3162531 241.93586664 -166.19405903 237.85550702 -172.53408813 225.81164551 C-176.79705552 215.37589231 -173.98182901 205.02995617 -170.15908813 194.93664551 C-169.74674927 193.80694336 -169.3344104 192.67724121 -168.90957642 191.51330566 C-168.08992991 189.28160121 -167.26066837 187.0533994 -166.42080688 184.82922363 C-165.45076699 182.25411773 -164.5152418 179.67098173 -163.59658813 177.07727051 C-159.65435208 166.20665282 -155.15895435 159.67142398 -144.61611938 154.62414551 C-142.28408813 153.81164551 -142.28408813 153.81164551 -138.28408813 153.81164551 C-138.33049438 152.49422363 -138.37690063 151.17680176 -138.42471313 149.81945801 C-138.75215312 135.56448431 -137.85549554 121.5555551 -136.53408813 107.37414551 C-136.45549561 106.490755 -136.37690308 105.6073645 -136.29592896 104.69720459 C-135.45567005 95.37853893 -134.35274048 86.2059437 -132.35440063 77.05773926 C-132.20078064 76.34968643 -132.04716064 75.64163361 -131.8888855 74.91212463 C-125.92216626 49.32030889 -108.08087712 26.77335388 -86.01846313 12.99914551 C-73.77040526 5.66800664 -60.41392535 0.79188547 -46.28408813 -1.18835449 C-45.09879517 -1.37397949 -45.09879517 -1.37397949 -43.88955688 -1.56335449 C-29.44498389 -3.38314322 -14.42224252 -1.28873515 0 0 Z M-98.95059204 44.23254395 C-110.57582889 57.99893573 -117.48613786 74.26534712 -119.31924438 92.19445801 C-119.402827 92.97118866 -119.48640961 93.74791931 -119.57252502 94.54818726 C-119.74734962 96.18325052 -119.9194778 97.81860416 -120.08901978 99.45422363 C-120.34382357 101.91000083 -120.60714365 104.3647445 -120.87197876 106.81945801 C-122.22777782 119.52265343 -123.47287192 132.21049578 -123.40908813 144.99914551 C-123.41295532 145.81705566 -123.41682251 146.63496582 -123.42080688 147.47766113 C-123.41528453 150.83801504 -123.35386309 153.60232064 -122.28408813 156.81164551 C-120.08246048 157.98972228 -120.08246048 157.98972228 -117.30093384 158.90197754 C-116.22665634 159.28792587 -115.15237885 159.67387421 -114.04554749 160.07151794 C-112.86227371 160.48333817 -111.67899994 160.89515839 -110.45986938 161.31945801 C-108.57532335 161.99155469 -106.69077875 162.66365538 -104.80629444 163.3359251 C-102.79191181 164.05208615 -100.77559417 164.76253083 -98.75863647 165.47140503 C-94.59479341 166.93526029 -90.43712319 168.41606759 -86.28067017 169.90075684 C-84.88242662 170.40000903 -83.4841722 170.89923075 -82.08590698 171.39842224 C-81.04495754 171.77005651 -81.04495754 171.77005651 -79.98297882 172.14919853 C-77.8658051 172.90438806 -75.74810774 173.65808974 -73.63021851 174.41127014 C-61.61241206 178.68553118 -49.61302583 183.00846662 -37.63989258 187.40655518 C-35.658277 188.13290072 -33.67538821 188.85578238 -31.69122314 189.57513428 C-28.95621923 190.56672361 -26.2252046 191.56858056 -23.49502563 192.57336426 C-22.29934715 193.00317345 -22.29934715 193.00317345 -21.07951355 193.44166565 C-17.49889912 194.77283982 -14.71691882 195.82328723 -12.28408813 198.81164551 C-11.85930228 202.88958976 -11.97126226 204.3424067 -14.28408813 207.81164551 C-21.91648702 208.66732987 -27.79711074 206.57358503 -34.84658813 203.81164551 C-35.85527954 203.43008301 -36.86397095 203.04852051 -37.90322876 202.65539551 C-40.36886814 201.72055593 -42.82851134 200.77253727 -45.28408813 199.81164551 C-47.99681127 202.16840004 -49.06100492 204.3133143 -50.26113892 207.67858887 C-50.61805817 208.66648911 -50.97497742 209.65438934 -51.3427124 210.67222595 C-51.71781952 211.73788284 -52.09292664 212.80353973 -52.47940063 213.90148926 C-52.87231293 214.99755997 -53.26522522 216.09363068 -53.67004395 217.22291565 C-54.92435619 220.72887386 -56.16659163 224.23898483 -57.40908813 227.74914551 C-58.25340365 230.1107371 -59.0984471 232.47206858 -59.94424438 234.83312988 C-60.74827582 237.08485244 -61.55168227 239.33679827 -62.35440063 241.58898926 C-62.73355621 242.65262192 -63.11271179 243.71625458 -63.50335693 244.81211853 C-63.85397186 245.80317093 -64.20458679 246.79422333 -64.56582642 247.81530762 C-64.87432526 248.68562119 -65.1828241 249.55593475 -65.50067139 250.45262146 C-66.2004237 252.55971521 -66.78128926 254.65023568 -67.28408813 256.81164551 C-56.90054808 260.93588683 -46.4631854 264.90780918 -35.97158813 268.74914551 C-34.35329102 269.35133911 -34.35329102 269.35133911 -32.70230103 269.96569824 C-31.68128296 270.33638428 -30.66026489 270.70707031 -29.60830688 271.08898926 C-28.70169312 271.42148682 -27.79507935 271.75398438 -26.86099243 272.09655762 C-24.17974499 272.84060061 -22.05170105 273.04826721 -19.28408813 272.81164551 C-17.46847208 271.45052517 -17.46847208 271.45052517 -15.97158813 269.56164551 C-11.32541108 264.61442027 -6.69354162 261.65907142 0.21591187 261.37414551 C6.24169259 261.68582382 10.91184942 263.288215 15.52841187 267.18664551 C19.69120285 272.18199469 21.09655854 275.55748442 21.40341187 282.12414551 C21.46915405 283.37840332 21.53489624 284.63266113 21.60263062 285.92492676 C21.65870483 287.35385254 21.65870483 287.35385254 21.71591187 288.81164551 C28.93959082 292.18534213 36.33657113 294.95747616 43.82919312 297.67102051 C45.11008704 298.13755355 46.39087672 298.60437288 47.67156982 299.07145691 C51.08476959 300.31537509 54.49937244 301.55539426 57.91436386 302.794384 C61.45600873 304.07977003 64.99668203 305.36782693 68.53744507 306.65563965 C72.81923237 308.21283003 77.10113628 309.76969554 81.38362122 311.32496643 C90.10319811 314.49238457 98.8148453 317.68060399 107.52059937 320.88586426 C110.53866911 321.9942521 113.55696233 323.10202839 116.57537842 324.20947266 C118.45265741 324.89961867 120.32915197 325.5919024 122.20483398 326.28637695 C124.77284604 327.23679623 127.34358763 328.17942414 129.91513062 329.12023926 C130.65693573 329.39720139 131.39874084 329.67416351 132.1630249 329.95951843 C135.59410578 331.20629447 138.01270331 331.81164551 141.71591187 331.81164551 C142.31698537 330.1947266 142.91804655 328.5778031 143.51905823 326.96086121 C144.05661802 325.51464584 144.59422724 324.06844884 145.13188171 322.62226868 C146.61385983 318.63534543 148.09428055 314.64785415 149.5718689 310.65930176 C154.63706794 296.99094989 154.63706794 296.99094989 157.17294312 290.36242676 C157.50608521 289.4843335 157.83922729 288.60624023 158.1824646 287.70153809 C158.77211461 286.15031962 159.36887915 284.60177993 159.97396851 283.05651855 C161.56245129 279.0089792 161.56245129 279.0089792 160.71591187 274.81164551 C158.80626452 273.71932152 158.80626452 273.71932152 156.3855896 272.9083252 C155.4486174 272.56147675 154.5116452 272.2146283 153.54627991 271.85726929 C152.50784439 271.48643219 151.46940887 271.11559509 150.39950562 270.73352051 C149.30946732 270.33408234 148.21942902 269.93464417 147.09635925 269.52310181 C144.08477457 268.4223803 141.06959651 267.33226755 138.05253601 266.24666595 C134.86208689 265.09586026 131.67657124 263.93154681 128.49032593 262.76916504 C120.23942959 259.76320508 111.97867402 256.78480742 103.71591187 253.81164551 C102.66328533 253.43281975 102.66328533 253.43281975 101.58939362 253.04634094 C96.62813743 251.26105114 91.66631922 249.47732835 86.70419312 247.69445801 C85.65172048 247.31627426 85.65172048 247.31627426 84.57798576 246.93045044 C77.74202191 244.47442332 70.90537766 242.02039589 64.0636816 239.58037567 C51.16634061 234.98039544 38.28245634 230.34244147 25.45702362 225.54507828 C24.17334599 225.06598924 22.88865646 224.58960177 21.6029129 224.11608505 C19.8286619 223.46164138 18.05879219 222.79535636 16.28915405 222.12854004 C14.77910797 221.56467087 14.77910797 221.56467087 13.23855591 220.9894104 C10.76522157 219.83466708 9.33555616 218.99363699 7.71591187 216.81164551 C7.40341187 213.24914551 7.40341187 213.24914551 7.71591187 209.81164551 C9.71591187 207.81164551 9.71591187 207.81164551 13.16781616 207.46252441 C18.63518992 207.61194943 23.41073336 209.49698899 28.48544312 211.39758301 C29.51028305 211.77040405 30.53512299 212.1432251 31.59101868 212.52734375 C33.77617468 213.324186 35.95924181 214.12677622 38.14035034 214.93463135 C41.56305118 216.19944602 44.99322816 217.44177245 48.4258728 218.67932129 C66.98281628 225.39619099 66.98281628 225.39619099 75.39950562 229.09289551 C100.95446526 240.16969326 143.24945937 246.10247823 169.71591187 235.81164551 C185.977838 228.35751067 196.39044226 217.77763376 202.71591187 200.81164551 C209.19855019 182.12494943 212.73900426 149.63608441 203.88534546 131.06994629 C196.00561877 115.56044784 185.75208197 105.55664869 169.35653687 98.99133301 C163.23197325 97.00676411 157.10502015 96.33134715 150.71591187 95.81164551 C124.75521082 93.63720978 102.80617821 90.49189436 84.77450562 69.55773926 C82.2041649 66.12899254 79.99935277 62.53538697 77.77841187 58.87414551 C73.70548037 52.16172469 69.33023873 46.34839964 63.71591187 40.81164551 C62.95923218 40.04465332 62.20255249 39.27766113 61.42294312 38.48742676 C44.05085852 21.79548904 22.03616271 17.16048613 -1.23013306 15.37902832 C-3.68587788 15.18940295 -6.14014688 14.98557326 -8.59463501 14.78039551 C-16.8749065 14.11378282 -25.12802337 13.67686694 -33.43643188 13.63195801 C-34.19048813 13.62457611 -34.94454437 13.61719421 -35.72145081 13.60958862 C-60.27593717 13.69020276 -82.81537697 26.20219385 -98.95059204 44.23254395 Z " fill="#010101" transform="translate(224.28408813476563,47.1883544921875)"/>
<path d="M0 0 C0.59014893 0.20681396 1.18029785 0.41362793 1.78833008 0.62670898 C4.46297156 1.56387304 7.13773436 2.50069037 9.8125 3.4375 C11.2056543 3.92573242 11.2056543 3.92573242 12.62695312 4.42382812 C13.51962891 4.73642578 14.41230469 5.04902344 15.33203125 5.37109375 C16.56530151 5.8031311 16.56530151 5.8031311 17.82348633 6.24389648 C21.20970676 7.42024249 23.97849453 8.17914651 27.5625 8.25 C28.34753906 8.27578125 29.13257813 8.3015625 29.94140625 8.328125 C30.62074219 8.21984375 31.30007812 8.1115625 32 8 C32.66 7.01 33.32 6.02 34 5 C40.6887585 5.96277584 47.10711058 7.61117124 53 11 C53.7578125 12.8984375 53.7578125 12.8984375 53.875 14.9375 C53.9761694 17.00144968 53.9761694 17.00144968 55 19 C57.56011475 20.50874447 57.56011475 20.50874447 60.921875 21.65625 C61.57628571 21.90338242 62.23069641 22.15051483 62.90493774 22.40513611 C65.26357618 23.28837566 67.63115624 24.14451998 70 25 C71.91762036 25.70282482 73.83509223 26.40605486 75.75244141 27.10961914 C81.38369464 29.16721252 87.0234807 31.200545 92.66540527 33.22866821 C99.08397963 35.53654795 105.49925606 37.85354609 111.9140625 40.171875 C112.57375031 40.41022379 113.23343811 40.64857258 113.91311646 40.89414406 C131.21791079 47.14830099 148.47993175 53.5177147 165.73974609 59.89477539 C167.41313553 60.51267189 167.41313553 60.51267189 169.12033081 61.14305115 C171.29060617 61.94517136 173.46032202 62.74880736 175.62942505 63.55409241 C180.89991441 65.50692833 186.17947051 67.42294881 191.48632812 69.27490234 C192.51316711 69.63666061 193.5400061 69.99841888 194.59796143 70.37113953 C196.5375059 71.05243496 198.48038137 71.72434447 200.42694092 72.3853302 C201.28023987 72.68638168 202.13353882 72.98743317 203.01269531 73.29760742 C203.7620636 73.55539474 204.51143188 73.81318207 205.2835083 74.07878113 C207 75 207 75 208 78 C207.40567017 80.32142639 207.40567017 80.32142639 206.38525391 83.08227539 C206.00801178 84.11667252 205.63076965 85.15106964 205.24209595 86.21681213 C204.82446991 87.33249069 204.40684387 88.44816925 203.9765625 89.59765625 C203.55579437 90.7428624 203.13502625 91.88806854 202.70150757 93.06797791 C201.35127757 96.73605952 199.98815376 100.39920414 198.625 104.0625 C197.71272334 106.53680781 196.80125463 109.01141368 195.890625 111.48632812 C194.22303806 116.00837216 192.5536714 120.52972092 190.87353516 125.04711914 C190.5352066 125.95740372 190.19687805 126.86768829 189.84829712 127.80555725 C189 130 189 130 188 132 C181.25047178 131.41650014 175.29172267 129.13223875 168.96484375 126.80078125 C167.78937485 126.37367859 166.61390594 125.94657593 165.40281677 125.50653076 C162.23356936 124.35340514 159.0666446 123.19429111 155.90068817 122.0321846 C152.61537444 120.82782236 149.32728513 119.63108423 146.03955078 118.43334961 C138.35601069 115.63227584 130.67770261 112.81702632 123 110 C120.93736469 109.24406571 118.87470397 108.48820076 116.81201172 107.73242188 C106.87192512 104.08892127 96.93517248 100.4364653 87.01208496 96.74688721 C84.83229852 95.93774911 82.65098228 95.13280484 80.46972656 94.32763672 C78.99277651 93.77978959 77.51588666 93.23178016 76.0390625 92.68359375 C75.34718842 92.42908951 74.65531433 92.17458527 73.94247437 91.91236877 C69.11377949 90.11377949 69.11377949 90.11377949 68 89 C67.89319773 86.81352019 67.81497076 84.62562237 67.75 82.4375 C67.32635217 76.12771483 66.51547286 71.584764 62 67 C55.96108287 62.39313033 49.42513049 61.14231166 42 62 C36.23700036 63.76505155 32.67721667 67.00412212 29.03125 71.70703125 C25.81003209 73.75746034 22.57128361 72.72491705 19 72 C15.93261716 71.10740791 12.96167401 70.00992012 9.9765625 68.875 C9.14917572 68.56804199 8.32178894 68.26108398 7.46932983 67.94482422 C4.85146712 66.97126524 2.23830581 65.98571638 -0.375 65 C-2.15205806 64.33777453 -3.92939943 63.67630877 -5.70703125 63.015625 C-18.52451565 58.23774217 -18.52451565 58.23774217 -21 57 C-18.95890073 49.88353125 -16.59967424 42.93525995 -14.0234375 35.99609375 C-13.65272125 34.99159683 -13.282005 33.98709991 -12.90005493 32.9521637 C-12.12334059 30.8499621 -11.34511342 28.74831888 -10.56542969 26.6472168 C-9.36732881 23.41681642 -8.17555486 20.18412985 -6.984375 16.95117188 C-6.22693628 14.90350753 -5.46913694 12.85597654 -4.7109375 10.80859375 C-4.3536557 9.83893173 -3.9963739 8.86926971 -3.62826538 7.870224 C-3.2976712 6.98162186 -2.96707703 6.09301971 -2.62646484 5.17749023 C-2.19036392 4.00028664 -2.19036392 4.00028664 -1.74545288 2.79930115 C-1 1 -1 1 0 0 Z " fill="#E1CA6F" transform="translate(178,247)"/>
<path d="M0 0 C3.23607674 0.7448217 6.30938631 1.77044143 9.43603516 2.88598633 C10.52461823 3.27341507 11.61320129 3.66084381 12.73477173 4.06001282 C13.90768768 4.4797789 15.08060364 4.89954498 16.2890625 5.33203125 C17.50266449 5.76505051 18.71626648 6.19806976 19.96664429 6.64421082 C22.53761395 7.56178278 25.10808842 8.48072543 27.67822266 9.40063477 C30.94504098 10.569781 34.21305253 11.73554843 37.48145485 12.90025806 C40.62632375 14.02148619 43.77014239 15.14564544 46.9140625 16.26953125 C48.07483307 16.68322464 49.23560364 17.09691803 50.43154907 17.52314758 C57.01225124 19.88142551 63.53239426 22.34663061 70 25 C69.9222937 26.1127832 69.9222937 26.1127832 69.84301758 27.24804688 C69.4087198 34.58406583 70.62622875 40.02502011 75 46 C78.38653807 49.62318772 81.51290222 50.82664689 86.41796875 51.3984375 C93.89111726 51.60318129 99.37984798 51.22226144 105.16796875 46.0703125 C106.51545509 44.77234694 107.84891934 43.45966693 109.16796875 42.1328125 C116.27284139 39.29086345 127.16960518 45.38130904 134.06640625 47.94140625 C135.06711655 48.30975082 136.06782684 48.6780954 137.09886169 49.05760193 C139.19119782 49.82928721 141.28266773 50.60332498 143.37329102 51.37963867 C146.58268198 52.56998539 149.79600301 53.74924882 153.00976562 54.92773438 C155.04972297 55.68163231 157.0894453 56.43616651 159.12890625 57.19140625 C160.09026993 57.54352676 161.05163361 57.89564728 162.04212952 58.25843811 C162.92742844 58.58895676 163.81272736 58.9194754 164.72485352 59.26000977 C165.89420189 59.69277977 165.89420189 59.69277977 167.08717346 60.1342926 C169 61 169 61 171 63 C159.8848594 79.98899539 143.3844579 84.26420441 124.64550781 88.50683594 C114.14734657 90.4638575 103.62295194 90.29368609 92.98022461 90.35009766 C90.73207112 90.36647823 88.48396566 90.39352309 86.23608398 90.43212891 C61.42697976 90.8542085 32.89748353 89.15152936 13.96484375 71.0546875 C3.19867628 59.39705394 -0.20651654 42.25208316 -0.09765625 26.7578125 C-0.0962413 25.98944061 -0.09482635 25.22106873 -0.09336853 24.42941284 C-0.08780683 21.99456761 -0.0752616 19.55981706 -0.0625 17.125 C-0.05748004 15.46614717 -0.05291801 13.80729288 -0.04882812 12.1484375 C-0.03784998 8.0989223 -0.02061206 4.04947716 0 0 Z " fill="#58AC88" transform="translate(124,308)"/>
<path d="M0 0 C0.59014893 0.20681396 1.18029785 0.41362793 1.78833008 0.62670898 C4.46297156 1.56387304 7.13773436 2.50069037 9.8125 3.4375 C11.2056543 3.92573242 11.2056543 3.92573242 12.62695312 4.42382812 C13.51962891 4.73642578 14.41230469 5.04902344 15.33203125 5.37109375 C16.15421143 5.65911865 16.9763916 5.94714355 17.82348633 6.24389648 C21.20970676 7.42024249 23.97849453 8.17914651 27.5625 8.25 C28.34753906 8.27578125 29.13257813 8.3015625 29.94140625 8.328125 C30.62074219 8.21984375 31.30007812 8.1115625 32 8 C32.66 7.01 33.32 6.02 34 5 C40.6887585 5.96277584 47.10711058 7.61117124 53 11 C53.7578125 12.8984375 53.7578125 12.8984375 53.875 14.9375 C53.9761694 17.00144968 53.9761694 17.00144968 55 19 C57.56011475 20.50874447 57.56011475 20.50874447 60.921875 21.65625 C61.57628571 21.90338242 62.23069641 22.15051483 62.90493774 22.40513611 C65.26357618 23.28837566 67.63115624 24.14451998 70 25 C71.91762036 25.70282482 73.83509223 26.40605486 75.75244141 27.10961914 C81.38369464 29.16721252 87.0234807 31.200545 92.66540527 33.22866821 C99.08397963 35.53654795 105.49925606 37.85354609 111.9140625 40.171875 C112.90359421 40.52939818 112.90359421 40.52939818 113.91311646 40.89414406 C131.21791079 47.14830099 148.47993175 53.5177147 165.73974609 59.89477539 C167.41313553 60.51267189 167.41313553 60.51267189 169.12033081 61.14305115 C171.29060617 61.94517136 173.46032202 62.74880736 175.62942505 63.55409241 C180.89991441 65.50692833 186.17947051 67.42294881 191.48632812 69.27490234 C192.51316711 69.63666061 193.5400061 69.99841888 194.59796143 70.37113953 C196.5375059 71.05243496 198.48038137 71.72434447 200.42694092 72.3853302 C201.28023987 72.68638168 202.13353882 72.98743317 203.01269531 73.29760742 C203.7620636 73.55539474 204.51143188 73.81318207 205.2835083 74.07878113 C207 75 207 75 208 78 C207.47094727 80.0847168 207.47094727 80.0847168 206.56640625 82.44921875 C206.24736328 83.29677734 205.92832031 84.14433594 205.59960938 85.01757812 C205.25736328 85.89865234 204.91511719 86.77972656 204.5625 87.6875 C204.22412109 88.58017578 203.88574219 89.47285156 203.53710938 90.39257812 C202.69962693 92.59834174 201.85367026 94.80046176 201 97 C194.30832804 95.4779668 187.97655303 93.30286029 181.53515625 90.94921875 C180.41522781 90.54344101 179.29529938 90.13766327 178.14143372 89.71958923 C175.08648358 88.61153986 172.03289831 87.49982851 168.97994232 86.38629913 C166.38930423 85.44215827 163.79752987 84.50115767 161.20578003 83.56007385 C141.91309293 76.55378847 122.65304125 69.45981562 103.40176392 62.34057617 C89.2660973 57.11499302 75.11327228 51.94151975 60.9296875 46.84765625 C60.21146191 46.58971031 59.49323631 46.33176437 58.75324631 46.06600189 C51.72937508 43.54424283 44.70376105 41.02739347 37.67558861 38.51764679 C22.7191128 33.17579938 7.81028698 27.73679503 -7 22 C-6.38760664 16.59437026 -5.54715903 12.16254445 -3.5 7.0625 C-3.0565625 5.93972656 -2.613125 4.81695312 -2.15625 3.66015625 C-1 1 -1 1 0 0 Z " fill="#F8DF7B" transform="translate(178,247)"/>
<path d="M0 0 C1.0007103 0.36834457 2.00142059 0.73668915 3.03245544 1.11619568 C5.12479157 1.88788096 7.21626148 2.66191873 9.30688477 3.43823242 C12.51627573 4.62857914 15.72959676 5.80784257 18.94335938 6.98632812 C20.98331672 7.74022606 23.02303905 8.49476026 25.0625 9.25 C26.02386368 9.60212051 26.98522736 9.95424103 27.97572327 10.31703186 C28.86102219 10.64755051 29.74632111 10.97806915 30.65844727 11.31860352 C31.43801285 11.60711685 32.21757843 11.89563019 33.02076721 12.19288635 C34.93359375 13.05859375 34.93359375 13.05859375 36.93359375 15.05859375 C25.81845315 32.04758914 9.31805165 36.32279816 -9.42089844 40.56542969 C-15.97819095 41.78781164 -22.290965 42.20094148 -28.94140625 42.15625 C-29.75134033 42.15483505 -30.56127441 42.1534201 -31.39575195 42.15196228 C-33.95267619 42.14641758 -36.50950901 42.13387582 -39.06640625 42.12109375 C-40.81249872 42.11607159 -42.55859259 42.11150994 -44.3046875 42.10742188 C-48.55862834 42.09646635 -52.81250186 42.07924069 -57.06640625 42.05859375 C-57.50584692 24.79108277 -57.50584692 24.79108277 -54.75390625 17.37109375 C-54.43389648 16.3975293 -54.43389648 16.3975293 -54.10742188 15.40429688 C-52.83593263 11.67332994 -51.54073773 8.14295626 -49.06640625 5.05859375 C-46.359375 4.23828125 -46.359375 4.23828125 -43.25390625 3.93359375 C-37.5361834 3.17260186 -33.41612619 2.27311155 -29.09765625 -1.796875 C-28.36546875 -2.46332031 -27.63328125 -3.12976563 -26.87890625 -3.81640625 C-26.22535156 -4.47382813 -25.57179687 -5.13125 -24.8984375 -5.80859375 C-17.79356486 -8.6505428 -6.89680107 -2.56009721 0 0 Z " fill="#9ADDBF" transform="translate(258.06640625,355.94140625)"/>
<path d="M0 0 C7.61126998 1.94286023 14.94254433 4.31593119 22.29296875 7.078125 C23.90850143 7.67789406 23.90850143 7.67789406 25.55667114 8.28977966 C27.88554171 9.15453718 30.21368564 10.02125365 32.54116821 10.88973999 C38.84368238 13.24088588 45.15187703 15.57664799 51.4609375 17.91015625 C52.12024828 18.15414972 52.77955906 18.3981432 53.45884895 18.64953041 C64.23567011 22.63569881 75.03607647 26.55363534 85.8515625 30.43359375 C86.58543749 30.69689861 87.31931248 30.96020348 88.0754261 31.23148727 C95.28323378 33.81668744 102.49323958 36.39570311 109.70522308 38.9692297 C112.37918717 39.92386764 115.05249861 40.88032424 117.72570419 41.83708382 C119.56474071 42.49436998 121.40480898 43.14876711 123.24490356 43.80308533 C124.34398041 44.19637527 125.44305725 44.58966522 126.57543945 44.99487305 C127.53158646 45.33568405 128.48773346 45.67649506 129.47285461 46.02763367 C131.73486319 46.89798366 133.85726185 47.8716142 136 49 C135.26951699 53.68803656 133.63363115 57.90885555 131.9375 62.3125 C131.65583984 63.05306641 131.37417969 63.79363281 131.08398438 64.55664062 C130.39281425 66.37242655 129.69688311 68.18639899 129 70 C122.25047178 69.41650014 116.29172267 67.13223875 109.96484375 64.80078125 C108.78937485 64.37367859 107.61390594 63.94657593 106.40281677 63.50653076 C103.23356936 62.35340514 100.0666446 61.19429111 96.90068817 60.0321846 C93.61537444 58.82782236 90.32728513 57.63108423 87.03955078 56.43334961 C79.35601069 53.63227584 71.67770261 50.81702632 64 48 C61.93736469 47.24406571 59.87470397 46.48820076 57.81201172 45.73242188 C47.87192512 42.08892127 37.93517248 38.4364653 28.01208496 34.74688721 C25.83229852 33.93774911 23.65098228 33.13280484 21.46972656 32.32763672 C19.99277651 31.77978959 18.51588666 31.23178016 17.0390625 30.68359375 C16.00125137 30.30183739 16.00125137 30.30183739 14.94247437 29.91236877 C10.11377949 28.11377949 10.11377949 28.11377949 9 27 C8.89319773 24.81352019 8.81497076 22.62562237 8.75 20.4375 C8.35289539 14.15428028 7.34093351 9.66713083 3 5 C2.01 4.34 1.02 3.68 0 3 C0 2.01 0 1.02 0 0 Z " fill="#F7DE7A" transform="translate(237,309)"/>
<path d="M0 0 C13.18129867 4.49862938 22.29276456 12.12814498 29.0234375 24.2734375 C36.21257451 42.45233809 33.02945123 63.7470049 25.9375 81.3125 C24.47511323 84.6837343 22.9506248 88.02340917 21.41015625 91.359375 C16.57245305 101.443846 16.57245305 101.443846 15.25 112.375 C16.57783652 115.85101184 18.56178203 118.61558706 21.0625 121.375 C22.94946153 124.55304047 22.13254916 126.90784259 21.25 130.375 C20.1875 132.3125 20.1875 132.3125 18.25 133.375 C13.97760276 134.17154864 11.73830681 134.36810165 8.08984375 131.93359375 C1.53016679 125.86435993 -1.83850259 118.93720947 -2.25 110 C-1.83616296 100.98336876 1.83473882 93.19693113 5.54931641 85.11303711 C11.21992792 72.77213531 15.53470711 61.81133492 15.6875 48.0625 C15.7030896 46.8259668 15.7030896 46.8259668 15.71899414 45.56445312 C15.60163062 37.51574358 13.82015459 29.97712371 8.15625 24.0078125 C-2.34776529 15.01052072 -14.8668266 13.84731492 -28.2265625 14.59765625 C-31.31648857 14.32501571 -32.55975212 13.54047132 -34.75 11.375 C-35.75 8 -35.75 8 -35.75 4.375 C-29.21373927 -5.99286185 -10.51056763 -2.80204292 0 0 Z " fill="#000000" transform="translate(479.75,306.625)"/>
<path d="M0 0 C2.07547014 3.82165896 2.5620493 7.41165294 3 11.6875 C4.50195562 24.65075563 7.1516833 37.24489934 15 48 C15 48.66 15 49.32 15 50 C6.7584614 50.23060934 -1.00564952 49.64545338 -9.125 48.25 C-10.21828613 48.06590576 -11.31157227 47.88181152 -12.43798828 47.69213867 C-15.62852365 47.14462127 -18.81469949 46.57711495 -22 46 C-22.81275391 45.85578613 -23.62550781 45.71157227 -24.46289062 45.56298828 C-48.52544252 41.17492345 -72.58510337 32.60993108 -93 19 C-92.67 17.35 -92.34 15.7 -92 14 C-90.93120605 14.10284302 -90.93120605 14.10284302 -89.84082031 14.20776367 C-58.53794953 17.04125692 -28.23007471 14.62831144 0 0 Z " fill="#5AB08C" transform="translate(108,335)"/>
<path d="M0 0 C4.76569379 1.41682788 9.37098812 3.19141035 14 5 C15.26386025 5.48298327 16.52818042 5.96476485 17.79296875 6.4453125 C20.86670084 7.61849269 23.93523892 8.80362316 27 10 C25.63069678 16.90564812 23.59574517 23.28756483 21.12109375 29.87109375 C20.74896255 30.87463394 20.37683136 31.87817413 19.99342346 32.91212463 C18.81359178 36.0893183 17.62553991 39.26336782 16.4375 42.4375 C15.63555451 44.59551248 14.83411718 46.75371388 14.03320312 48.91210938 C12.57250414 52.84020555 11.1115935 56.76821212 9.64233398 60.69311523 C9.34858383 61.47871323 9.05483368 62.26431122 8.75218201 63.07371521 C8 65 8 65 7 67 C1.14609569 66.34631402 -4.04268582 64.28441779 -9.5 62.1875 C-10.88638672 61.67219727 -10.88638672 61.67219727 -12.30078125 61.14648438 C-24.08762936 56.65264314 -24.08762936 56.65264314 -27.9375 51.3125 C-30.79416617 42.40642311 -26.2322664 33.24239819 -23.07226562 24.92382812 C-22.24891427 22.74712965 -21.45186651 20.56196557 -20.65625 18.375 C-20.13176633 16.97337435 -19.60577591 15.5723114 -19.078125 14.171875 C-18.84458313 13.52595398 -18.61104126 12.88003296 -18.37042236 12.21453857 C-15.10160077 3.77135797 -9.18797314 -1.37679108 0 0 Z " fill="#B55151" transform="translate(94,216)"/>
<path d="M0 0 C4.00426555 0.57827968 7.60695699 1.44257818 11.3984375 2.84765625 C12.37167969 3.20537109 13.34492188 3.56308594 14.34765625 3.93164062 C15.34667969 4.30482422 16.34570312 4.67800781 17.375 5.0625 C18.39722656 5.43955078 19.41945312 5.81660156 20.47265625 6.20507812 C22.98356127 7.13200101 25.49255574 8.06376447 28 9 C27.39731887 15.49644776 25.34872575 21.25271762 23.140625 27.3671875 C22.75436951 28.4425174 22.36811401 29.51784729 21.97015381 30.62576294 C21.1535732 32.88797858 20.33303748 35.14877001 19.50878906 37.40820312 C18.24914069 40.8773666 17.01901197 44.35615229 15.7890625 47.8359375 C14.99138345 50.03450811 14.19196446 52.23244839 13.390625 54.4296875 C13.02584045 55.47438202 12.66105591 56.51907654 12.28521729 57.59542847 C11.9284491 58.55377594 11.57168091 59.51212341 11.20410156 60.49951172 C10.89845276 61.34665741 10.59280396 62.1938031 10.27789307 63.06661987 C9 65 9 65 6.53541565 65.82582092 C3.32244209 66.04654717 1.25717307 65.29825473 -1.73828125 64.12890625 C-2.80498047 63.71962891 -3.87167969 63.31035156 -4.97070312 62.88867188 C-6.07349609 62.45103516 -7.17628906 62.01339844 -8.3125 61.5625 C-9.99569336 60.9118457 -9.99569336 60.9118457 -11.71289062 60.24804688 C-14.47985768 59.17658304 -17.24172638 58.09360682 -20 57 C-17.9318702 49.80782059 -15.55353818 42.77099076 -12.98828125 35.7421875 C-12.61519333 34.71312286 -12.24210541 33.68405823 -11.85771179 32.62380981 C-10.67855859 29.37326146 -9.4955964 26.12411496 -8.3125 22.875 C-7.50690812 20.65634197 -6.70156716 18.43759282 -5.89648438 16.21875 C-3.93388799 10.81144356 -1.9681719 5.40527937 0 0 Z " fill="#DBDFE2" transform="translate(135,232)"/>
<path d="M0 0 C7.09124642 0.55737648 13.39030191 3.14571165 20.01171875 5.62109375 C21.26988528 6.08624079 22.52825582 6.55083633 23.78681946 7.01490784 C26.4132628 7.98495711 29.0379717 8.959509 31.66137695 9.93774414 C35.01808305 11.18934541 38.37772065 12.43282916 41.73852825 13.67336941 C44.95567726 14.8613516 48.17121336 16.05367174 51.38671875 17.24609375 C52.59091965 17.69198349 53.79512054 18.13787323 55.03581238 18.59727478 C56.71324272 19.22286034 56.71324272 19.22286034 58.42456055 19.86108398 C59.89846504 20.40949196 59.89846504 20.40949196 61.40214539 20.96897888 C63.67746341 21.87199359 65.83376506 22.86369484 68 24 C68 24.33 68 24.66 68 25 C67.2265625 25.02578125 66.453125 25.0515625 65.65625 25.078125 C58.09791255 25.48971763 51.65218893 26.15345956 46.23828125 31.85546875 C45.12882744 33.10453922 44.05485422 34.38669069 43.03125 35.70703125 C39.81003209 37.75746034 36.57128361 36.72491705 33 36 C29.93261716 35.10740791 26.96167401 34.00992012 23.9765625 32.875 C23.14917572 32.56804199 22.32178894 32.26108398 21.46932983 31.94482422 C18.85146712 30.97126524 16.23830581 29.98571638 13.625 29 C11.84794194 28.33777453 10.07060057 27.67630877 8.29296875 27.015625 C-4.52451565 22.23774217 -4.52451565 22.23774217 -7 21 C-4.96192707 13.8821847 -2.59655258 6.93292719 0 0 Z " fill="#F8DF7B" transform="translate(164,283)"/>
<path d="M0 0 C0.03738281 0.95261719 0.07476562 1.90523438 0.11328125 2.88671875 C0.17902344 4.14097656 0.24476563 5.39523437 0.3125 6.6875 C0.37050781 7.92886719 0.42851562 9.17023438 0.48828125 10.44921875 C1.02006625 14.13923835 1.70815018 16.08929829 4 19 C5.32 19.66 6.64 20.32 8 21 C8 25.62 8 30.24 8 35 C6.7625 35.061875 5.525 35.12375 4.25 35.1875 C0.86335746 35.59746199 0.25621679 35.71364006 -2.125 38.375 C-2.74375 39.24125 -3.3625 40.1075 -4 41 C-8.54214686 43.9936877 -12.67678632 44.95626593 -18 44 C-22.47610554 41.71971982 -24.82894435 39.49558857 -27 35 C-27.34057617 31.6784668 -27.34057617 31.6784668 -27.29296875 27.94921875 C-27.28872391 27.29041214 -27.28447906 26.63160553 -27.28010559 25.95283508 C-27.26341196 23.86396115 -27.22578058 21.77607861 -27.1875 19.6875 C-27.17244097 18.26498797 -27.15875469 16.8424607 -27.14648438 15.41992188 C-27.11354003 11.94629649 -27.06182408 8.47324513 -27 5 C-25.7934375 4.80664062 -24.586875 4.61328125 -23.34375 4.4140625 C-21.72913784 4.15121866 -20.11455612 3.88818783 -18.5 3.625 C-17.70851562 3.49867188 -16.91703125 3.37234375 -16.1015625 3.2421875 C-11.00679188 2.4069792 -5.06823445 0 0 0 Z " fill="#488866" transform="translate(268,407)"/>
<path d="M0 0 C7.25 1.375 7.25 1.375 9.45019531 1.79443359 C15.61784281 2.95708165 21.8068002 3.9834592 28 5 C28.11647041 9.54144994 28.18734502 14.08251394 28.25 18.625 C28.28351563 19.91019531 28.31703125 21.19539063 28.3515625 22.51953125 C28.47321736 34.25922571 28.47321736 34.25922571 24 39 C23.443125 39.598125 22.88625 40.19625 22.3125 40.8125 C17.90580474 43.07539756 13.07011398 43.42343241 8.25 42.4375 C4.23882301 39.87480359 1.51988181 36.55964542 0 32 C-0.0845387 29.5589224 -0.11605786 27.14740787 -0.09765625 24.70703125 C-0.0962413 24.00100266 -0.09482635 23.29497406 -0.09336853 22.56755066 C-0.08777764 20.31582374 -0.07522688 18.06419679 -0.0625 15.8125 C-0.05748382 14.28450665 -0.05292112 12.75651173 -0.04882812 11.22851562 C-0.0378112 7.48563865 -0.02055287 3.74283627 0 0 Z " fill="#488867" transform="translate(163,408)"/>
<path d="M0 0 C3.9035877 1.80325669 6.58856766 4.32481299 9.5625 7.375 C10.04396484 7.85710937 10.52542969 8.33921875 11.02148438 8.8359375 C12.37055682 10.20171098 13.68635599 11.60011676 15 13 C15.62777344 13.63164062 16.25554687 14.26328125 16.90234375 14.9140625 C18.58057135 18.10329218 17.91972212 20.67651128 17 24 C15.76710671 27.6958276 14.3709842 31.31541471 12.9375 34.9375 C12.56044922 35.90751953 12.18339844 36.87753906 11.79492188 37.87695312 C10.86987534 40.25397143 9.93810818 42.62811317 9 45 C6.14633646 45.33821197 3.29219404 45.6706978 0.4375 46 C-0.76229492 46.14308594 -0.76229492 46.14308594 -1.98632812 46.2890625 C-6.69452167 46.82714176 -11.26147265 47.10176703 -16 47 C-14.7638964 40.70168833 -13.00492416 34.80935473 -10.7421875 28.80859375 C-10.2803154 27.56252098 -10.2803154 27.56252098 -9.80911255 26.29127502 C-8.83655711 23.67127148 -7.85593634 21.05437566 -6.875 18.4375 C-6.20909692 16.64798675 -5.54372734 14.85827488 -4.87890625 13.06835938 C-3.25875697 8.70992126 -1.63137359 4.3542486 0 0 Z " fill="#D9DDE0" transform="translate(398,333)"/>
<path d="M0 0 C3.63192706 1.29162178 7.22598875 2.65579071 10.81640625 4.05859375 C12.0802665 4.54157702 13.34458667 5.0233586 14.609375 5.50390625 C17.68310709 6.67708644 20.75164517 7.86221691 23.81640625 9.05859375 C22.4485925 16.07763801 20.30901674 22.47532295 17.69140625 29.12109375 C17.31886719 30.08208984 16.94632813 31.04308594 16.5625 32.03320312 C15.6528514 34.37729758 14.73741671 36.71894556 13.81640625 39.05859375 C1.25826062 33.05920873 -8.01369241 17.59145058 -13.5390625 5.265625 C-14.18359375 3.05859375 -14.18359375 3.05859375 -13.18359375 0.05859375 C-8.82389228 -2.12125698 -4.49780893 -1.33002693 0 0 Z " fill="#CB5A5A" transform="translate(97.18359375,216.94140625)"/>
<path d="M0 0 C2.27065923 3.68036017 2.56912484 7.4807336 3 11.6875 C4.50195562 24.65075563 7.1516833 37.24489934 15 48 C15 48.66 15 49.32 15 50 C8.56688704 50.09507063 2.34241995 50.15316726 -4 49 C-3.67 48.34 -3.34 47.68 -3 47 C-3.85398231 44.56133924 -4.76959088 42.19976544 -5.75 39.8125 C-9.91312143 29.19762386 -12.60490679 18.49322905 -12 7 C-12.66 6.67 -13.32 6.34 -14 6 C-13.15695313 5.65066406 -12.31390625 5.30132812 -11.4453125 4.94140625 C-10.34960938 4.48636719 -9.25390625 4.03132813 -8.125 3.5625 C-7.03445312 3.11003906 -5.94390625 2.65757812 -4.8203125 2.19140625 C-3.19441376 1.50456537 -1.57868226 0.78934113 0 0 Z " fill="#519D7D" transform="translate(108,335)"/>
<path d="M0 0 C3 1 3 1 5.3125 3 C9.011796 5.75296446 12.42748192 6.25123726 17 6 C19.62387135 4.60907108 19.62387135 4.60907108 22 3 C25.96308207 2.51330571 28.08780932 2.42988083 31.5 4.5625 C33 7 33 7 33.125 10.4375 C31.32928157 16.12394171 27.72812306 18.01734179 22.8125 20.8125 C15.69461309 23.02954674 8.58745421 22.92170798 1.71484375 19.9140625 C-2.81147738 17.5013993 -5.87749571 14.69185159 -8 10 C-8.5 6.9375 -8.5 6.9375 -8 4 C-5.37477179 0.98870882 -4.02897529 0 0 0 Z " fill="#010302" transform="translate(347,231)"/>
<path d="M0 0 C5.15131824 1.65907267 9.21038993 4.75941219 13.5625 7.875 C14.69461914 8.66970703 14.69461914 8.66970703 15.84960938 9.48046875 C19.61875354 12.15705923 22.68974989 14.68974989 26 18 C24.35 21.96 22.7 25.92 21 30 C16.72706144 29.28784357 13.54731541 28.61459336 9.6015625 27.15234375 C8.62832031 26.79462891 7.65507812 26.43691406 6.65234375 26.06835938 C5.65332031 25.69517578 4.65429688 25.32199219 3.625 24.9375 C2.60277344 24.56044922 1.58054687 24.18339844 0.52734375 23.79492188 C-1.98356127 22.86799899 -4.49255574 21.93623553 -7 21 C-5.40519669 15.57108255 -3.78534813 10.18128119 -1.8125 4.875 C-1.46832031 3.94429688 -1.12414062 3.01359375 -0.76953125 2.0546875 C-0.51558594 1.37664062 -0.26164062 0.69859375 0 0 Z " fill="#C3C7CA" transform="translate(122,268)"/>
<path d="M0 0 C2.21258569 1.87674679 2.90115404 2.57166752 3.5625 5.4375 C3 8 3 8 0.25 10.25 C-6.1732561 13.70867636 -13.56976632 14.27807937 -20.61328125 12.24609375 C-28.28406557 9.04470259 -28.28406557 9.04470259 -30 5 C-29.92266167 1.82912865 -29.50073984 0.50073984 -27.25 -1.75 C-18.77109518 -6.46050268 -8.13102863 -4.46087626 0 0 Z " fill="#FAA8C9" transform="translate(305,136)"/>
<path d="M0 0 C2.26554364 1.43456869 4.30048044 3.01532419 6.203125 4.91796875 C6.203125 8.29296875 6.203125 8.29296875 5.203125 11.91796875 C-0.69028109 16.07014122 -7.83773493 15.56153904 -14.796875 14.91796875 C-19.19065664 13.91348057 -22.85964314 12.44787647 -25.796875 8.91796875 C-26.234375 5.91796875 -26.234375 5.91796875 -25.796875 2.91796875 C-19.96927979 -2.90962646 -7.43013987 -2.87450942 0 0 Z " fill="#FCA8C9" transform="translate(190.796875,124.08203125)"/>
<path d="M0 0 C7.25 1.375 7.25 1.375 9.45019531 1.79443359 C15.62230294 2.95792242 21.79919099 3.96653183 28 5 C28 14.24 28 23.48 28 33 C27.67 33 27.34 33 27 33 C27 28.05 27 23.1 27 18 C25.02 18.0928125 25.02 18.0928125 23 18.1875 C15.51800474 18.21984292 8.29144686 16.5198053 1 15 C1 17.31 1 19.62 1 22 C0.67 22 0.34 22 0 22 C0 14.74 0 7.48 0 0 Z " fill="#3F7759" transform="translate(163,408)"/>
<path d="M0 0 C0.495 7.92 0.495 7.92 1 16 C-0.4025 16.12375 -1.805 16.2475 -3.25 16.375 C-8.26612169 16.86663693 -13.18626513 17.68043017 -18.140625 18.59765625 C-21 19 -21 19 -27 19 C-27 14.38 -27 9.76 -27 5 C-25.7934375 4.80664062 -24.586875 4.61328125 -23.34375 4.4140625 C-21.72913784 4.15121866 -20.11455612 3.88818783 -18.5 3.625 C-17.70851562 3.49867188 -16.91703125 3.37234375 -16.1015625 3.2421875 C-11.00679188 2.4069792 -5.06823445 0 0 0 Z " fill="#417B5C" transform="translate(268,407)"/>
<path d="M0 0 C0.33 0.66 0.66 1.32 1 2 C2.65582162 2.69316448 4.32498208 3.35460307 6 4 C7.92380472 5.04513734 9.82890487 6.12510815 11.71875 7.23046875 C13.36617187 8.18856445 13.36617187 8.18856445 15.046875 9.16601562 C16.19808124 9.83956254 17.34912256 10.51339142 18.5 11.1875 C27.24865983 16.29936228 36.04952518 21.25266963 45 26 C44.67 26.66 44.34 27.32 44 28 C37.8766377 27.45701605 32.70761119 26.05390769 26.9765625 23.875 C26.14917572 23.56804199 25.32178894 23.26108398 24.46932983 22.94482422 C21.85146712 21.97126524 19.23830581 20.98571638 16.625 20 C14.84794194 19.33777453 13.07060057 18.67630877 11.29296875 18.015625 C-1.52451565 13.23774217 -1.52451565 13.23774217 -4 12 C-3.52309796 10.37433394 -3.04340334 8.74948689 -2.5625 7.125 C-2.29566406 6.22007812 -2.02882812 5.31515625 -1.75390625 4.3828125 C-1 2 -1 2 0 0 Z " fill="#DAC36B" transform="translate(161,292)"/>
<path d="M0 0 C2.62488902 1.91545956 3.82409769 3.06977789 4.43359375 6.29296875 C3.81344032 10.16473749 1.51114343 12.06760506 -1.25 14.625 C-1.74113281 15.10195313 -2.23226562 15.57890625 -2.73828125 16.0703125 C-9.7241242 22.77672174 -9.7241242 22.77672174 -13.5 23.4375 C-16 23 -16 23 -18.375 21.4375 C-20 19 -20 19 -20.375 15.8125 C-19.21412131 10.03307169 -13.36045807 6.45621561 -9 3 C-8.28457031 2.42636719 -7.56914062 1.85273438 -6.83203125 1.26171875 C-4.34363096 -0.45204094 -2.96021965 -0.51803844 0 0 Z " fill="#468464" transform="translate(228,323)"/>
<path d="M0 0 C4.47350107 1.40832441 4.47350107 1.40832441 6.375 4.0625 C6.7734375 7.0234375 6.7734375 7.0234375 6.75 10.4375 C6.75773438 11.55898437 6.76546875 12.68046875 6.7734375 13.8359375 C6.30461009 17.63252023 5.10223361 20.33526639 2.375 23.0625 C-3.83201471 23.64806743 -3.83201471 23.64806743 -6.8203125 21.44140625 C-9.76380707 17.56134523 -9.22945267 13.92929901 -9.0703125 9.21875 C-8.65425637 6.26986093 -8.27012883 4.58496564 -6.5625 2.1875 C-3.625 0.0625 -3.625 0.0625 0 0 Z " fill="#020504" transform="translate(204.625,99.9375)"/>
<path d="M0 0 C3.73510439 1.2450348 4.47744207 1.79862613 6.375 5.125 C6.7734375 7.96484375 6.7734375 7.96484375 6.75 11.0625 C6.75773437 12.08214844 6.76546875 13.10179688 6.7734375 14.15234375 C6.32319543 17.51150274 5.36820474 19.40743549 3.375 22.125 C0.2917365 23.66663175 -2.23378099 23.42247535 -5.625 23.125 C-8.00588782 20.84308673 -8.58619874 19.37526813 -9.09375 16.1015625 C-9.18863768 5.92485932 -9.18863768 5.92485932 -6.5625 2.25 C-3.625 0.125 -3.625 0.125 0 0 Z " fill="#020403" transform="translate(273.625,105.875)"/>
<path d="M0 0 C1.875 1.125 1.875 1.125 3 3 C3.54624158 6.66762206 3.47898298 8.3258758 1.3125 11.375 C-1 13 -1 13 -3.5 13.5 C-6 13 -6 13 -8.375 11.4375 C-10 9 -10 9 -9.9375 5.375 C-8.3868786 -0.20723702 -5.30716391 -0.55282957 0 0 Z " fill="#4F9979" transform="translate(147,203)"/>
<path d="M0 0 C1.875 1.25 1.875 1.25 3 3 C3.4375 5.4375 3.4375 5.4375 3 8 C1.375 10.3125 1.375 10.3125 -1 12 C-4.0625 12.5 -4.0625 12.5 -7 12 C-9.58525068 9.75944941 -9.95386189 8.3229668 -10.4375 4.9375 C-10 2 -10 2 -8.375 0.0625 C-5.1502836 -1.38013628 -3.35123214 -0.99823936 0 0 Z " fill="#040806" transform="translate(390,165)"/>
<path d="M0 0 C1.9375 1.125 1.9375 1.125 3 3 C3.38976435 6.11811483 3.50422245 8.11019567 1.9375 10.875 C-1.14071911 12.66235303 -3.52906068 12.43386742 -7 12 C-9.42061048 9.89172636 -9.9127007 8.59654522 -10.375 5.4375 C-10 3 -10 3 -8.9375 1.1875 C-5.90624457 -0.67036623 -3.46577141 -0.37133265 0 0 Z " fill="#030605" transform="translate(348,161)"/>
<path d="M0 0 C2.375 2.1875 2.375 2.1875 4 5 C4 8.22337198 3.46243134 9.4861874 1.3125 11.875 C-1.86249229 13.41959084 -3.66802549 13.0140792 -7 12 C-9 9 -9 9 -8.8125 5.4375 C-7.6183395 0.38528249 -4.93742301 -0.84297466 0 0 Z " fill="#53A180" transform="translate(192,217)"/>
<path d="M0 0 C4.32239956 3.34003602 7.17477391 6.32751069 10 11 C8.12175109 12.87824891 4.96064724 12.39102397 2.4375 12.5625 C1.23996094 12.64628906 0.04242188 12.73007812 -1.19140625 12.81640625 C-2.11824219 12.87699219 -3.04507812 12.93757813 -4 13 C-3.29120484 8.14165647 -2.03597876 4.42604077 0 0 Z " fill="#434951" transform="translate(428,363)"/>
</svg>
