<?xml version="1.0" encoding="UTF-8"?>
<svg version="1.1" xmlns="http://www.w3.org/2000/svg" width="512" height="512">
<path d="M0 0 C1.15919202 -0.00233999 1.15919202 -0.00233999 2.34180206 -0.00472724 C4.9451672 -0.00873295 7.54847458 -0.00554926 10.15184021 -0.00241089 C12.01255833 -0.00376511 13.87327619 -0.00554516 15.73399353 -0.00772095 C20.79783699 -0.0122925 25.86166014 -0.01050694 30.92550397 -0.00734186 C36.21416102 -0.00481721 41.50281628 -0.00715606 46.79147339 -0.00872803 C55.67315484 -0.01054925 64.55482799 -0.00814447 73.43650818 -0.00338745 C83.72028282 0.00205675 94.00403765 0.00029117 104.28781182 -0.00521386 C113.10223389 -0.00974432 121.91664998 -0.01039591 130.73107284 -0.00777519 C136.00219195 -0.00621226 141.27330173 -0.0060191 146.54442024 -0.00931168 C151.49784147 -0.01218948 156.45123702 -0.01021637 161.40465546 -0.00441742 C163.22803899 -0.00308941 165.05142466 -0.00348463 166.87480736 -0.00568008 C169.35292861 -0.00838994 171.83096619 -0.00501253 174.30908203 0 C175.04019418 -0.00223072 175.77130633 -0.00446144 176.52457339 -0.00675976 C181.47689923 0.01283367 181.47689923 0.01283367 182.59104919 1.12698364 C182.68839218 2.85763129 182.71476397 4.59229395 182.71409702 6.32567692 C182.71608807 7.45977153 182.71807912 8.59386614 182.7201305 9.76232725 C182.71721766 11.02397261 182.71430482 12.28561796 182.71130371 13.585495 C182.7117393 14.92691838 182.71261397 16.26834167 182.71389288 17.60976452 C182.71614035 21.31302742 182.71211313 25.01626168 182.70711482 28.71952093 C182.7028141 32.70658901 182.70425647 36.69365535 182.70501709 40.6807251 C182.70554257 47.59428353 182.7023933 54.50783256 182.69677925 61.42138863 C182.68866745 71.41734738 182.68604936 81.41330156 182.68479126 91.40926325 C182.68260024 107.6253126 182.67593879 123.84135694 182.66648865 140.05740356 C182.65731583 155.81391372 182.65023436 171.57042252 182.64598083 187.32693481 C182.64558675 188.78270107 182.64558675 188.78270107 182.6451847 190.26787675 C182.64387971 195.13642927 182.64261599 200.00498179 182.6413728 204.87353432 C182.63099862 245.29135425 182.61337894 285.70916866 182.59104919 326.12698364 C179.45503606 327.69499021 176.09799144 327.30683001 172.65306091 327.33230591 C171.83346893 327.34220551 171.01387695 327.3521051 170.16944885 327.36230469 C167.45324112 327.39395898 164.73701587 327.41869261 162.02073669 327.44338989 C160.1402897 327.46395603 158.25984736 327.48495241 156.37940979 327.50636292 C151.42448189 327.56161874 146.46951202 327.61101252 141.51451111 327.65921021 C136.46055863 327.70939962 131.40666726 327.76509903 126.35276794 327.82034302 C116.4322472 327.92796752 106.51167346 328.02940295 96.59104919 328.12698364 C97.55784607 328.74444458 98.52464294 329.36190552 99.52073669 329.99807739 C107.49323334 335.15563896 114.77003263 340.47781179 121.59104919 347.12698364 C122.0549556 347.57518841 122.518862 348.02339317 122.99682617 348.4851799 C126.75203246 352.11456225 130.46521881 355.7852443 134.16917419 359.46682739 C135.0378223 360.32936221 135.0378223 360.32936221 135.92401886 361.20932198 C138.98130461 364.24593877 142.03544044 367.28568416 145.08714294 370.32791138 C148.2142679 373.4439299 151.35291576 376.54807336 154.49420547 379.64980221 C156.93403731 382.06336475 159.3648224 384.48589053 161.79334259 386.91082954 C162.94606244 388.05872097 164.10211917 389.20327276 165.26174164 390.3441906 C174.592992 399.53403613 182.77120403 408.01802132 182.90354919 421.75198364 C182.9301753 428.34712247 182.2230818 433.45746933 178.59104919 439.12698364 C178.03417419 440.01385864 177.47729919 440.90073364 176.90354919 441.81448364 C170.2494141 448.46861873 162.78675071 452.40465507 153.27854919 452.43948364 C135.6086317 452.03880524 125.7474801 438.45672433 113.98948669 426.76370239 C113.35772144 426.13601267 112.72595619 425.50832294 112.07504654 424.86161232 C108.73663675 421.54389659 105.40139515 418.22303233 102.06858826 414.89968872 C98.65694391 411.49912675 95.23376813 408.11042109 91.80791283 404.72418499 C89.14494058 402.08752658 86.49105394 399.44185885 83.83942032 396.79380226 C82.58229704 395.54149977 81.32184427 394.2925291 80.05779648 393.04721642 C72.47140365 385.56641282 66.15400683 378.27019065 60.59104919 369.12698364 C59.75428555 367.85672882 58.9116501 366.59029543 58.05979919 365.33010864 C56.23688253 362.59573364 54.41396586 359.86135864 52.59104919 357.12698364 C51.63327576 357.63487427 50.67550232 358.14276489 49.68870544 358.66604614 C42.43487256 362.44205177 35.18792356 365.84994191 27.46604919 368.56448364 C26.76874695 368.81085571 26.0714447 369.05722778 25.35301208 369.31106567 C21.37825291 370.66305072 17.78161479 371.42855604 13.59104919 372.12698364 C13.59104919 392.91698364 13.59104919 413.70698364 13.59104919 435.12698364 C17.55104919 435.12698364 21.51104919 435.12698364 25.59104919 435.12698364 C30.59104919 438.12698364 30.59104919 438.12698364 31.59104919 440.12698364 C32.04699563 444.15451049 32.07947955 446.36134289 29.87422943 449.81819057 C25.51632527 453.83024121 19.22599527 452.80778033 13.68516541 452.75517273 C12.34384382 452.76021832 11.00252897 452.76744725 9.66122961 452.77667087 C5.97644154 452.79561904 2.29231613 452.78334559 -1.39245534 452.76594794 C-5.36663284 452.75259038 -9.34071233 452.7680052 -13.31488037 452.7797699 C-21.09982251 452.79816297 -28.8845139 452.78962313 -36.66944826 452.77168167 C-42.99558241 452.75766426 -49.32164843 452.75376102 -55.64779663 452.75712395 C-56.54766797 452.75760139 -57.44753931 452.75807883 -58.37467948 452.75857074 C-60.20266817 452.75959706 -62.03065684 452.76065241 -63.8586455 452.7617365 C-80.02797066 452.77030694 -96.19717466 452.75361745 -112.36647034 452.72390747 C-128.06150909 452.69506924 -143.75637329 452.68798608 -159.45143127 452.70339966 C-176.5363643 452.72015518 -193.6212144 452.72420266 -210.70614958 452.7066893 C-212.52746804 452.70484488 -214.3487865 452.70301016 -216.17010498 452.70118523 C-217.06626232 452.70027314 -217.96241966 452.69936105 -218.88573328 452.69842132 C-225.20532036 452.69281188 -231.52486701 452.6961269 -237.8444519 452.70273018 C-245.54443416 452.7104563 -253.24424448 452.7037369 -260.94419205 452.67855514 C-264.87394919 452.66604323 -268.80343842 452.65993388 -272.7332058 452.6710968 C-276.32945647 452.68111956 -279.92517227 452.67272231 -283.52135772 452.64951562 C-285.44109596 452.64189339 -287.36088101 452.65392876 -289.28059244 452.66661936 C-290.98905541 452.65004783 -290.98905541 452.65004783 -292.73203278 452.63314152 C-293.71469667 452.63195004 -294.69736056 452.63075855 -295.70980215 452.62953097 C-299.1850859 451.98247711 -300.88821984 450.55588649 -303.40895081 448.12698364 C-304.07301331 445.90823364 -304.07301331 445.90823364 -304.03395081 443.62698364 C-304.04684143 442.87417114 -304.05973206 442.12135864 -304.07301331 441.34573364 C-303.07543667 438.01265405 -301.28871281 437.00099839 -298.40895081 435.12698364 C-295.07691956 434.73635864 -295.07691956 434.73635864 -291.59645081 434.87698364 C-290.43500549 434.91307739 -289.27356018 434.94917114 -288.07691956 434.98635864 C-287.19648987 435.03276489 -286.31606018 435.07917114 -285.40895081 435.12698364 C-285.4098726 434.35484559 -285.41079439 433.58270754 -285.41174412 432.78717136 C-285.43379801 414.02681064 -285.4503617 395.26645249 -285.46076298 376.50608158 C-285.46592624 367.43382871 -285.4729695 358.36158448 -285.48439026 349.28933716 C-285.49433619 341.38489652 -285.50080401 333.48046213 -285.5030393 325.57601541 C-285.50434656 321.38803645 -285.50743339 317.20007537 -285.51468086 313.01210213 C-285.52143964 309.07483066 -285.52356806 305.13758456 -285.52205849 301.20030785 C-285.52233488 299.75103747 -285.52434085 298.3017663 -285.52815628 296.85250092 C-285.53309124 294.88227951 -285.5313489 292.91204466 -285.52920532 290.94181824 C-285.53012712 289.83658845 -285.53104891 288.73135866 -285.53199863 287.59263706 C-285.40895081 285.12698364 -285.40895081 285.12698364 -284.40895081 284.12698364 C-282.73203732 284.01779226 -281.05055383 283.97791529 -279.37013245 283.96585083 C-278.29554276 283.95624329 -277.22095306 283.94663574 -276.11380005 283.93673706 C-274.94405136 283.93248718 -273.77430267 283.9282373 -272.56910706 283.92385864 C-270.78046486 283.91530853 -270.78046486 283.91530853 -268.95568848 283.90658569 C-266.42782992 283.8971191 -263.89995893 283.89059516 -261.37208557 283.88674927 C-257.4915787 283.87703403 -253.61159904 283.84602145 -249.73121643 283.81448364 C-247.2813498 283.80795507 -244.83147937 283.80270403 -242.38160706 283.79885864 C-241.2138826 283.78651184 -240.04615814 283.77416504 -238.8430481 283.76144409 C-237.76530624 283.76444519 -236.68756439 283.76744629 -235.5771637 283.77053833 C-234.62531693 283.7668927 -233.67347015 283.76324707 -232.69277954 283.75949097 C-231.93911606 283.88076355 -231.18545258 284.00203613 -230.40895081 284.12698364 C-228.07872697 287.6223194 -228.16144972 288.97759097 -228.16844177 293.10639954 C-228.16569244 294.35581833 -228.16294312 295.60523712 -228.16011047 296.89251709 C-228.16718876 298.27951145 -228.17445838 299.66650485 -228.18190002 301.05349731 C-228.18246409 302.51204928 -228.18214768 303.97060181 -228.18101501 305.42915344 C-228.18044031 309.39170892 -228.19221368 313.35414374 -228.20616293 317.31667113 C-228.21865063 321.45666759 -228.21983924 325.59666669 -228.22221375 329.73667908 C-228.22843429 337.57770106 -228.24485286 345.41866738 -228.26491272 353.25966483 C-228.28725387 362.18579617 -228.29826066 371.11193015 -228.30830359 380.03808248 C-228.3292186 398.40108198 -228.36480776 416.7640263 -228.40895081 435.12698364 C-220.48895081 435.12698364 -212.56895081 435.12698364 -204.40895081 435.12698364 C-204.40895081 364.17698364 -204.40895081 293.22698364 -204.40895081 220.12698364 C-201.91741767 218.88121707 -200.2276828 218.99335395 -197.44020081 218.98171997 C-195.88849182 218.97215019 -195.88849182 218.97215019 -194.30543518 218.96238708 C-193.18459534 218.96127426 -192.06375549 218.96016144 -190.90895081 218.95901489 C-189.18901917 218.95402229 -189.18901917 218.95402229 -187.43434143 218.94892883 C-185.00661115 218.94385936 -182.57887388 218.94152051 -180.15113831 218.94168091 C-176.42445999 218.93949275 -172.69807676 218.92133239 -168.97145081 218.90237427 C-166.61728516 218.89944077 -164.26311809 218.89745568 -161.90895081 218.89651489 C-160.22769104 218.88573662 -160.22769104 218.88573662 -158.51246643 218.8747406 C-157.47799377 218.87781723 -156.44352112 218.88089386 -155.37770081 218.88406372 C-154.46440002 218.8826387 -153.55109924 218.88121368 -152.61012268 218.87974548 C-150.40895081 219.12698364 -150.40895081 219.12698364 -148.40895081 221.12698364 C-148.21548726 223.94779088 -148.14856087 226.67006974 -148.16844177 229.49176025 C-148.16673292 230.36734931 -148.16502407 231.24293836 -148.16326344 232.14506042 C-148.15995373 235.09631056 -148.17099652 238.04733628 -148.18190002 240.99856567 C-148.18246382 243.1072082 -148.1821482 245.21585111 -148.18101501 247.32449341 C-148.18043926 253.06389547 -148.19222952 258.80321458 -148.20616293 264.54259729 C-148.21863328 270.53506714 -148.21983786 276.52753871 -148.22221375 282.52001953 C-148.22843941 293.87433046 -148.24486489 305.22860305 -148.26491272 316.58289707 C-148.28723798 329.50651326 -148.29825665 342.43013125 -148.30830359 355.35376191 C-148.3292302 381.94485783 -148.36482829 408.53591698 -148.40895081 435.12698364 C-140.48895081 435.12698364 -132.56895081 435.12698364 -124.40895081 435.12698364 C-124.43440475 431.8895208 -124.43440475 431.8895208 -124.46037292 428.58665466 C-124.61976949 408.18197501 -124.76716272 387.7772333 -124.90372658 367.37238789 C-124.97420812 356.88371513 -125.04862204 346.39509888 -125.13258362 335.90652466 C-125.20582954 326.75527611 -125.27140163 317.60400873 -125.32809484 308.45264214 C-125.35831947 303.61563148 -125.392158 298.77871212 -125.435215 293.94179726 C-125.83111716 248.81308892 -122.67908394 210.15498461 -89.75660706 176.40823364 C-82.93349477 169.91575676 -75.4326255 164.97090577 -67.40895081 160.12698364 C-66.48856018 159.54819458 -65.56816956 158.96940552 -64.61988831 158.37307739 C-62.40895081 157.12698364 -62.40895081 157.12698364 -60.40895081 157.12698364 C-60.42449509 155.84182861 -60.44003937 154.55667358 -60.45605469 153.23257446 C-60.59808225 141.10911866 -60.70295049 128.98583209 -60.77163601 116.86173248 C-60.80813571 110.62883272 -60.85762866 104.39660565 -60.93702698 98.16409302 C-61.01319984 92.14697173 -61.05496564 86.13049661 -61.07309151 80.1129303 C-61.08600511 77.81958343 -61.11122312 75.52627113 -61.1490612 73.23320007 C-61.20003694 70.01538257 -61.20686776 66.80021942 -61.20362854 63.58206177 C-61.24137894 62.16648987 -61.24137894 62.16648987 -61.27989197 60.72232056 C-61.21150846 54.42545515 -59.6703149 51.30924996 -55.23725414 46.84689903 C-54.63391404 46.27932695 -54.03057394 45.71175488 -53.40895081 45.12698364 C-52.58436874 44.26049698 -51.75978668 43.39401031 -50.91021729 42.50126648 C-50.1501387 41.7403923 -49.39006012 40.97951813 -48.60694885 40.19558716 C-47.29605537 38.87996544 -47.29605537 38.87996544 -45.9586792 37.5377655 C-45.03863602 36.61974655 -44.11859283 35.7017276 -43.17066956 34.75588989 C-42.19882896 33.78337408 -41.22713672 32.81071 -40.25558472 31.83790588 C-38.23597693 29.8168356 -36.21460113 27.79755564 -34.19190979 25.77957153 C-31.5981947 23.19159906 -29.00905748 20.5991 -26.42119122 18.00528049 C-24.42333102 16.00381446 -22.42310498 14.00472655 -20.42214394 12.00636101 C-19.00157536 10.58678286 -17.58301885 9.16519217 -16.16448975 7.74357605 C-14.87723747 6.46105202 -14.87723747 6.46105202 -13.5639801 5.15261841 C-12.80787949 4.39731339 -12.05177887 3.64200836 -11.27276611 2.86381531 C-7.76291031 -0.40691044 -4.56078313 -0.01395815 0 0 Z M-67.40895081 360.12698364 C-67.40895081 384.87698364 -67.40895081 409.62698364 -67.40895081 435.12698364 C-59.48895081 435.12698364 -51.56895081 435.12698364 -43.40895081 435.12698364 C-43.40895081 413.34698364 -43.40895081 391.56698364 -43.40895081 369.12698364 C-48.02895081 367.47698364 -52.64895081 365.82698364 -57.40895081 364.12698364 C-60.08957674 362.82194207 -62.76294873 361.50086934 -65.40895081 360.12698364 C-66.06895081 360.12698364 -66.72895081 360.12698364 -67.40895081 360.12698364 Z " fill="#678D98" transform="translate(316.40895080566406,29.873016357421875)"/>
<path d="M0 0 C1.15919202 -0.00233999 1.15919202 -0.00233999 2.34180206 -0.00472724 C4.9451672 -0.00873295 7.54847458 -0.00554926 10.15184021 -0.00241089 C12.01255833 -0.00376511 13.87327619 -0.00554516 15.73399353 -0.00772095 C20.79783699 -0.0122925 25.86166014 -0.01050694 30.92550397 -0.00734186 C36.21416102 -0.00481721 41.50281628 -0.00715606 46.79147339 -0.00872803 C55.67315484 -0.01054925 64.55482799 -0.00814447 73.43650818 -0.00338745 C83.72028282 0.00205675 94.00403765 0.00029117 104.28781182 -0.00521386 C113.10223389 -0.00974432 121.91664998 -0.01039591 130.73107284 -0.00777519 C136.00219195 -0.00621226 141.27330173 -0.0060191 146.54442024 -0.00931168 C151.49784147 -0.01218948 156.45123702 -0.01021637 161.40465546 -0.00441742 C163.22803899 -0.00308941 165.05142466 -0.00348463 166.87480736 -0.00568008 C169.35292861 -0.00838994 171.83096619 -0.00501253 174.30908203 0 C175.04019418 -0.00223072 175.77130633 -0.00446144 176.52457339 -0.00675976 C181.47689923 0.01283367 181.47689923 0.01283367 182.59104919 1.12698364 C182.68839218 2.85763129 182.71476397 4.59229395 182.71409702 6.32567692 C182.71608807 7.45977153 182.71807912 8.59386614 182.7201305 9.76232725 C182.71721766 11.02397261 182.71430482 12.28561796 182.71130371 13.585495 C182.7117393 14.92691838 182.71261397 16.26834167 182.71389288 17.60976452 C182.71614035 21.31302742 182.71211313 25.01626168 182.70711482 28.71952093 C182.7028141 32.70658901 182.70425647 36.69365535 182.70501709 40.6807251 C182.70554257 47.59428353 182.7023933 54.50783256 182.69677925 61.42138863 C182.68866745 71.41734738 182.68604936 81.41330156 182.68479126 91.40926325 C182.68260024 107.6253126 182.67593879 123.84135694 182.66648865 140.05740356 C182.65731583 155.81391372 182.65023436 171.57042252 182.64598083 187.32693481 C182.64571811 188.29744565 182.64545539 189.26795649 182.6451847 190.26787675 C182.64387971 195.13642927 182.64261599 200.00498179 182.6413728 204.87353432 C182.63099862 245.29135425 182.61337894 285.70916866 182.59104919 326.12698364 C179.45503606 327.69499021 176.09799144 327.30683001 172.65306091 327.33230591 C171.83346893 327.34220551 171.01387695 327.3521051 170.16944885 327.36230469 C167.45324112 327.39395898 164.73701587 327.41869261 162.02073669 327.44338989 C160.1402897 327.46395603 158.25984736 327.48495241 156.37940979 327.50636292 C151.42448189 327.56161874 146.46951202 327.61101252 141.51451111 327.65921021 C136.46055863 327.70939962 131.40666726 327.76509903 126.35276794 327.82034302 C116.4322472 327.92796752 106.51167346 328.02940295 96.59104919 328.12698364 C97.55784607 328.74444458 98.52464294 329.36190552 99.52073669 329.99807739 C107.49323334 335.15563896 114.77003263 340.47781179 121.59104919 347.12698364 C122.0549556 347.57518841 122.518862 348.02339317 122.99682617 348.4851799 C126.75203246 352.11456225 130.46521881 355.7852443 134.16917419 359.46682739 C134.74827293 360.04185061 135.32737167 360.61687382 135.92401886 361.20932198 C138.98130461 364.24593877 142.03544044 367.28568416 145.08714294 370.32791138 C148.2142679 373.4439299 151.35291576 376.54807336 154.49420547 379.64980221 C156.93403731 382.06336475 159.3648224 384.48589053 161.79334259 386.91082954 C162.94606244 388.05872097 164.10211917 389.20327276 165.26174164 390.3441906 C174.592992 399.53403613 182.77120403 408.01802132 182.90354919 421.75198364 C182.9301753 428.34712247 182.2230818 433.45746933 178.59104919 439.12698364 C178.03417419 440.01385864 177.47729919 440.90073364 176.90354919 441.81448364 C170.2494141 448.46861873 162.78675071 452.40465507 153.27854919 452.43948364 C135.6086317 452.03880524 125.7474801 438.45672433 113.98948669 426.76370239 C113.35772144 426.13601267 112.72595619 425.50832294 112.07504654 424.86161232 C108.73663675 421.54389659 105.40139515 418.22303233 102.06858826 414.89968872 C98.65694391 411.49912675 95.23376813 408.11042109 91.80791283 404.72418499 C89.14494058 402.08752658 86.49105394 399.44185885 83.83942032 396.79380226 C82.58229704 395.54149977 81.32184427 394.2925291 80.05779648 393.04721642 C72.46640047 385.56147928 66.17802345 378.2600984 60.59104919 369.12698364 C59.68478939 367.78137422 58.76941991 366.44180946 57.84104919 365.11135864 C56.6935704 363.46185788 55.54613031 361.8123299 54.39964294 360.16213989 C53.46445677 358.81638417 52.52792018 357.471567 51.59104919 356.12698364 C54.17583033 353.45507505 56.80678814 351.1071577 59.77854919 348.87698364 C60.57261169 348.25823364 61.36667419 347.63948364 62.18479919 347.00198364 C63.67371778 345.84178734 65.17203522 344.69341198 66.68479919 343.56448364 C86.05503783 327.95264952 98.81544158 301.09300531 102.31370544 276.70510864 C104.89792048 243.36509494 97.88122867 211.93608351 75.99729919 186.00979614 C57.08167392 164.29681384 31.37510474 150.21202903 2.59104919 147.12698364 C-17.03822623 146.17128226 -33.96353233 147.64172813 -52.42848206 154.27542114 C-53.20179871 154.55087769 -53.97511536 154.82633423 -54.77186584 155.11013794 C-56.65171814 155.78011236 -58.53045518 156.45321471 -60.40895081 157.12698364 C-60.57128812 143.705416 -60.69559563 130.2840827 -60.77163601 116.86173248 C-60.80813571 110.62883272 -60.85762866 104.39660565 -60.93702698 98.16409302 C-61.01319984 92.14697173 -61.05496564 86.13049661 -61.07309151 80.1129303 C-61.08600511 77.81958343 -61.11122312 75.52627113 -61.1490612 73.23320007 C-61.20003694 70.01538257 -61.20686776 66.80021942 -61.20362854 63.58206177 C-61.22879547 62.63834717 -61.2539624 61.69463257 -61.27989197 60.72232056 C-61.21150846 54.42545515 -59.6703149 51.30924996 -55.23725414 46.84689903 C-54.63391404 46.27932695 -54.03057394 45.71175488 -53.40895081 45.12698364 C-52.58436874 44.26049698 -51.75978668 43.39401031 -50.91021729 42.50126648 C-49.77009941 41.35995522 -49.77009941 41.35995522 -48.60694885 40.19558716 C-47.73301987 39.31850601 -46.85909088 38.44142487 -45.9586792 37.5377655 C-45.03863602 36.61974655 -44.11859283 35.7017276 -43.17066956 34.75588989 C-42.19882896 33.78337408 -41.22713672 32.81071 -40.25558472 31.83790588 C-38.23597693 29.8168356 -36.21460113 27.79755564 -34.19190979 25.77957153 C-31.5981947 23.19159906 -29.00905748 20.5991 -26.42119122 18.00528049 C-24.42333102 16.00381446 -22.42310498 14.00472655 -20.42214394 12.00636101 C-19.00157536 10.58678286 -17.58301885 9.16519217 -16.16448975 7.74357605 C-15.30632156 6.88856003 -14.44815338 6.03354401 -13.5639801 5.15261841 C-12.80787949 4.39731339 -12.05177887 3.64200836 -11.27276611 2.86381531 C-7.76291031 -0.40691044 -4.56078313 -0.01395815 0 0 Z " fill="#E5E7E7" transform="translate(316.40895080566406,29.873016357421875)"/>
<path d="M0 0 C4.2578407 3.40278802 8.14351466 7.15448617 12 11 C12.73089844 11.70769531 13.46179688 12.41539062 14.21484375 13.14453125 C30.72704551 30.24528674 35.6964411 52.99661274 35.3125 75.99609375 C34.50257396 97.48275673 23.85805943 116.88968149 9 132 C8.31292969 132.69996094 7.62585938 133.39992188 6.91796875 134.12109375 C-10.57790672 150.77301233 -33.12278098 155.68594425 -56.52734375 155.3046875 C-79.05432574 154.51678034 -98.89786094 143.00213486 -114.359375 127.0546875 C-121.59052582 118.98184343 -127.22104134 109.11427171 -131 99 C-131.391875 97.9996875 -131.78375 96.999375 -132.1875 95.96875 C-139.38428391 74.1784876 -135.91920046 50.26460456 -126.19848633 29.99487305 C-123.1655908 23.99484896 -119.60365911 18.9177328 -115 14 C-114.18917969 13.09894531 -113.37835938 12.19789063 -112.54296875 11.26953125 C-103.1519293 1.30100474 -91.87774043 -6.20828263 -79 -11 C-77.96488281 -11.391875 -76.92976563 -11.78375 -75.86328125 -12.1875 C-50.77800165 -20.27771335 -21.4001954 -15.02322442 0 0 Z " fill="#C7EEFD" transform="translate(356,220)"/>
<path d="M0 0 C0 27.39 0 54.78 0 83 C27.39 83 54.78 83 83 83 C83 107.5039798 76.17525825 127.4584214 60 146 C59.47019531 146.61359375 58.94039062 147.2271875 58.39453125 147.859375 C45.1703226 162.09580703 24.12173231 172.03134803 4.8034668 173.12426758 C-19.61866357 173.90847556 -41.53157838 169.07917343 -60.25 152.5 C-61.8390427 151.00604962 -63.42288588 149.50653759 -65 148 C-65.61488281 147.45988281 -66.22976562 146.91976562 -66.86328125 146.36328125 C-80.24615907 134.14948241 -88.68286729 114.48739415 -90.30175781 96.6809082 C-90.43532578 93.3434404 -90.46835835 90.02743434 -90.4375 86.6875 C-90.42847656 85.50687988 -90.41945313 84.32625977 -90.41015625 83.10986328 C-89.94898321 59.76618086 -80.50752628 40.14870632 -64.53125 23.4140625 C-46.2207677 5.99532447 -24.79007372 0 0 0 Z " fill="#03D0F9" transform="translate(103,51)"/>
<path d="M0 0 C1.03447266 -0.00637985 2.06894531 -0.0127597 3.13476562 -0.01933289 C4.25560547 -0.02044571 5.37644531 -0.02155853 6.53125 -0.02270508 C8.25118164 -0.02769768 8.25118164 -0.02769768 10.00585938 -0.03279114 C12.43358966 -0.03786061 14.86132693 -0.04019946 17.2890625 -0.04003906 C21.01574082 -0.04222722 24.74212404 -0.06038758 28.46875 -0.0793457 C30.82291565 -0.0822792 33.17708271 -0.08426429 35.53125 -0.08520508 C36.65208984 -0.09239059 37.77292969 -0.09957611 38.92773438 -0.10697937 C39.96220703 -0.10390274 40.99667969 -0.10082611 42.0625 -0.09765625 C42.97580078 -0.09908127 43.88910156 -0.10050629 44.83007812 -0.10197449 C47.03125 0.14526367 47.03125 0.14526367 49.03125 2.14526367 C49.22472926 4.97857838 49.29163456 7.7138031 49.27175903 10.54800415 C49.27346788 11.42767676 49.27517673 12.30734936 49.27693737 13.21367872 C49.28024712 16.17874801 49.26920421 19.14359393 49.25830078 22.10864258 C49.25773699 24.22713719 49.2580526 26.3456322 49.25918579 28.46412659 C49.25976155 34.23038714 49.24797122 39.99656512 49.23403788 45.76280642 C49.2215676 51.7833035 49.22036295 57.8038023 49.21798706 63.8243103 C49.21176137 75.2317451 49.19533587 86.63914173 49.17528808 98.04655969 C49.15296289 111.03063425 49.14194417 124.0147106 49.13189721 136.99879956 C49.11097056 163.71431365 49.07428077 190.42977541 49.03125 217.14526367 C30.55125 216.81526367 12.07125 216.48526367 -6.96875 216.14526367 C-6.96875 145.19526367 -6.96875 74.24526367 -6.96875 1.14526367 C-4.47721686 -0.1005029 -2.787482 0.01163398 0 0 Z " fill="#30E4A3" transform="translate(118.96875,248.854736328125)"/>
<path d="M0 0 C1.86896156 0.02054755 3.73798286 0.03619091 5.60702515 0.04716492 C10.49781384 0.088925 15.38493908 0.1967499 20.27429199 0.31890869 C25.27480514 0.43196926 30.27591757 0.481787 35.27734375 0.53710938 C45.06930744 0.65465398 54.85856646 0.84208364 64.6484375 1.07421875 C64.66145955 3.15558229 64.67075164 5.2369694 64.6784668 7.31835938 C64.68404099 8.47742798 64.68961517 9.63649658 64.69535828 10.83068848 C64.40686994 30.77325413 54.48065143 49.36474707 41.6484375 64.07421875 C41.11863281 64.6878125 40.58882813 65.30140625 40.04296875 65.93359375 C26.8187601 80.17002578 5.77016981 90.10556678 -13.5480957 91.19848633 C-38.94561779 92.01401467 -61.16955556 86.5511584 -80.3515625 69.07421875 C-77.56318063 64.42691564 -74.28545993 60.9007546 -70.41015625 57.125 C-68.54938183 55.27128735 -66.81458093 53.37616558 -65.1015625 51.38671875 C-62.00861826 47.79468577 -58.82210936 44.30136866 -55.6015625 40.82421875 C-54.82993774 39.99083984 -54.82993774 39.99083984 -54.04272461 39.140625 C-52.9945682 38.0088573 -51.94630945 36.87718437 -50.89794922 35.74560547 C-45.15455223 29.53794905 -39.44325408 23.30076693 -33.7890625 17.01171875 C-33.09485199 16.26436966 -32.40064148 15.51702057 -31.68539429 14.74702454 C-29.3063249 12.13015876 -29.3063249 12.13015876 -27.41104126 9.22355652 C-19.79050989 -1.13175836 -11.99500503 -0.38910701 0 0 Z " fill="#F8D541" transform="translate(121.3515625,132.92578125)"/>
<path d="M0 0 C1.61188454 -0.01441132 1.61188454 -0.01441132 3.2563324 -0.02911377 C4.42608109 -0.03336365 5.59582977 -0.03761353 6.80102539 -0.04199219 C7.99345352 -0.04769226 9.18588165 -0.05339233 10.41444397 -0.05926514 C12.94230253 -0.06873173 15.47017352 -0.07525567 17.99804688 -0.07910156 C21.87855374 -0.0888168 25.7585334 -0.11982938 29.63891602 -0.15136719 C32.08878264 -0.15789576 34.53865308 -0.1631468 36.98852539 -0.16699219 C38.15624985 -0.17933899 39.3239743 -0.19168579 40.52708435 -0.20440674 C41.6048262 -0.20140564 42.68256805 -0.19840454 43.79296875 -0.1953125 C44.74481552 -0.19895813 45.69666229 -0.20260376 46.67735291 -0.20635986 C47.80784813 -0.02445099 47.80784813 -0.02445099 48.96118164 0.16113281 C51.28930403 3.6533164 51.2104864 5.00894667 51.2084198 9.13381958 C51.21261429 10.38179321 51.21680878 11.62976685 51.22113037 12.91555786 C51.21564687 14.30096513 51.20996389 15.68637162 51.20410156 17.07177734 C51.20517432 18.52870774 51.20711291 19.98563771 51.20985413 21.44256592 C51.21470574 25.40104891 51.2070435 29.35941936 51.19690108 33.31788874 C51.1881285 37.45475293 51.18987785 41.59161351 51.19026184 45.72848511 C51.18932502 52.67398975 51.18063754 59.61945072 51.16699219 66.56494141 C51.15125412 74.60556229 51.1459945 82.64613538 51.14672774 90.68677056 C51.14733712 98.41123186 51.14224073 106.13567752 51.13393593 113.86013412 C51.13039705 117.15279131 51.12857182 120.44544296 51.12804222 123.73810196 C51.12704099 127.61058311 51.12096248 131.48302382 51.11087608 135.35549164 C51.10794441 136.78057228 51.10672706 138.20565758 51.10730362 139.63074112 C51.10779098 141.56796954 51.10154496 143.50519626 51.09489441 145.44241333 C51.09321856 146.52899797 51.09154272 147.61558262 51.08981609 148.73509407 C50.96118164 151.16113281 50.96118164 151.16113281 49.96118164 152.16113281 C48.21189444 152.25478288 46.4588191 152.27857719 44.70703125 152.2746582 C43.58594467 152.27458267 42.46485809 152.27450714 41.30979919 152.27442932 C39.48014366 152.26668739 39.48014366 152.26668739 37.61352539 152.25878906 C36.37196182 152.25737411 35.13039825 152.25595917 33.85121155 152.25450134 C30.54512673 152.24983872 27.23911018 152.24084778 23.93304443 152.22979736 C20.56157014 152.21958108 17.19008881 152.21500326 13.81860352 152.20996094 C7.1994439 152.19890677 0.58031671 152.18215018 -6.03881836 152.16113281 C-6.06214589 132.49045103 -6.07979681 112.81977205 -6.09063053 93.14907932 C-6.0957938 84.01629233 -6.10283708 74.88351391 -6.11425781 65.75073242 C-6.12420371 57.79355407 -6.13067156 49.83638193 -6.13290685 41.87919754 C-6.13421412 37.66327295 -6.13730098 33.44736613 -6.14454842 29.23144722 C-6.15130715 25.26791098 -6.15343562 21.30439992 -6.15192604 17.34085846 C-6.15220244 15.88191275 -6.15420843 14.42296625 -6.15802383 12.9640255 C-6.16295872 10.98066686 -6.16121647 8.99729489 -6.15907288 7.01393127 C-6.15999467 5.90132714 -6.16091646 4.78872301 -6.16186619 3.6424036 C-5.94278542 -0.77538028 -3.92635954 0.02818901 0 0 Z " fill="#F8D641" transform="translate(37.038818359375,313.8388671875)"/>
<path d="M0 0 C4.03230411 1.61685567 6.76086936 4.46516697 9.77490234 7.484375 C10.34130936 8.04406479 10.90771637 8.60375458 11.49128723 9.18040466 C13.36151143 11.03164069 15.22410999 12.89032185 17.0859375 14.75 C18.38849501 16.04612691 19.69120114 17.34210448 20.99404907 18.63793945 C23.72617634 21.35808956 26.45413512 24.08234481 29.1796875 26.80908203 C32.65502666 30.28462365 36.14387356 33.74624533 39.63652611 37.20437622 C42.33391976 39.87940649 45.02204639 42.56360638 47.70775223 45.25036621 C48.98901065 46.52927992 50.27347784 47.80498802 51.56132126 49.07727051 C70.17627454 67.48836558 70.17627454 67.48836558 70.3125 81.625 C70.33912611 88.22013883 69.6320326 93.33048569 66 99 C65.443125 99.886875 64.88625 100.77375 64.3125 101.6875 C57.65836491 108.34163509 50.19570152 112.27767142 40.6875 112.3125 C23.11877571 111.91411623 13.4538724 98.63060842 1.73828125 87.01171875 C1.12838034 86.40714151 0.51847942 85.80256428 -0.10990334 85.17966652 C-3.32144564 81.99458852 -6.52948678 78.80602731 -9.73510742 75.61499023 C-12.38287285 72.98068315 -15.03777425 70.35388751 -17.69897461 67.7331543 C-20.93105623 64.55018228 -24.15088406 61.3553022 -27.36207008 58.15125465 C-28.58391751 56.93613301 -29.81002604 55.72528066 -31.040411 54.51880455 C-32.74933662 52.84128224 -34.44203917 51.14890519 -36.1315918 49.4519043 C-36.64311798 48.95678345 -37.15464417 48.4616626 -37.68167114 47.95153809 C-40.98853757 44.58426292 -40.98853757 44.58426292 -41.04086304 41.91712952 C-39.72305201 39.48989911 -38.17980981 37.82075203 -36.21459961 35.87402344 C-35.01346779 34.67323151 -35.01346779 34.67323151 -33.78807068 33.44818115 C-32.91828079 32.59387512 -32.04849091 31.73956909 -31.15234375 30.859375 C-30.2659169 29.97719299 -29.37949005 29.09501099 -28.46620178 28.18609619 C-26.11236944 25.84621423 -23.75226246 23.51304602 -21.38885498 21.18286133 C-18.97711583 18.80185337 -16.57388521 16.41229147 -14.16992188 14.0234375 C-9.45441941 9.3410322 -4.73045844 4.66729272 0 0 Z " fill="#678D98" transform="translate(429,370)"/>
<path d="M0 0 C26.88865733 0 47.92343109 7.65488215 67.37109375 26.26953125 C84.10985321 43.76255024 91 66.1627071 91 90 C60.97 90 30.94 90 0 90 C0 60.3 0 30.6 0 0 Z " fill="#F3613F" transform="translate(116,30)"/>
<path d="M0 0 C1.92278927 3.64119537 2.84601612 7.2572439 3.75 11.25 C8.18341431 29.65500283 15.59631816 45.56708596 28 60 C28.51691406 60.66128906 29.03382813 61.32257813 29.56640625 62.00390625 C34.1234557 67.65738865 39.67869975 71.98037005 45.40234375 76.38671875 C46.21702873 77.02620201 46.21702873 77.02620201 47.048172 77.67860413 C48.93307557 79.07474398 48.93307557 79.07474398 51.0738678 79.73193359 C53.78064552 80.80641631 55.14957126 81.72250727 57 84 C58.18098568 89.8365005 57.92988394 95.62100053 57.78125 101.55078125 C57.7663223 103.29238791 57.75493777 105.03402824 57.74694824 106.77568054 C57.71645471 111.3517898 57.63791895 115.9258558 57.54931641 120.50115967 C57.46736288 125.17301795 57.43091667 129.84520766 57.390625 134.51757812 C57.30491941 143.67928142 57.16844843 152.83947058 57 162 C49.71578452 162.02312916 42.4315769 162.04091801 35.14733219 162.05181217 C31.76528187 162.05703975 28.3832566 162.06413511 25.0012207 162.07543945 C21.11670223 162.08834267 17.23219403 162.09322924 13.34765625 162.09765625 C12.12788589 162.10281754 10.90811554 162.10797882 9.65138245 162.11329651 C7.96975258 162.11340981 7.96975258 162.11340981 6.25415039 162.11352539 C5.26153702 162.115746 4.26892365 162.11796661 3.24623108 162.12025452 C1 162 1 162 0 161 C-0.09683581 158.92439194 -0.12186902 156.84542796 -0.12025452 154.76756287 C-0.12110894 154.10925651 -0.12196337 153.45095016 -0.12284368 152.77269512 C-0.1245003 150.55082894 -0.11897418 148.32903705 -0.11352539 146.10717773 C-0.11324353 144.52084352 -0.11340123 142.93450918 -0.1139679 141.34817505 C-0.11425592 137.02811278 -0.10835837 132.70807803 -0.10139394 128.38802218 C-0.09516125 123.87831685 -0.09455667 119.36861095 -0.09336853 114.85890198 C-0.09025496 106.31305626 -0.08204124 97.76722326 -0.07201904 89.22138315 C-0.06085869 79.49482367 -0.05534765 69.76826358 -0.05032361 60.04169929 C-0.03985864 40.02779241 -0.02225871 20.01389701 0 0 Z " fill="#05CFFA" transform="translate(192,304)"/>
<path d="M0 0 C1.70323787 -0.01472144 1.70323787 -0.01472144 3.44088459 -0.02974027 C4.68357703 -0.02013527 5.92626947 -0.01053026 7.20661926 -0.00063419 C8.54381241 -0.00452743 9.88100142 -0.01016806 11.21818066 -0.01740509 C14.89148798 -0.0321748 18.56436728 -0.02196982 22.23766088 -0.00766838 C26.19955407 0.00342904 30.1613866 -0.00849709 34.12327576 -0.01751041 C41.88412501 -0.03145331 49.64481171 -0.02387899 57.40565324 -0.00883483 C66.44074236 0.00801365 75.47579086 0.00481647 84.51089084 0.00107109 C100.63028437 -0.00480942 116.74959982 0.00937153 132.86897278 0.03401852 C148.51548693 0.05793984 164.16189675 0.06502302 179.8084259 0.05452633 C196.84061058 0.04312055 213.87274698 0.04118285 230.90493107 0.05562443 C232.72063255 0.05715029 234.53633403 0.05867064 236.35203552 0.06018543 C237.69212536 0.06132215 237.69212536 0.06132215 239.05928773 0.06248184 C245.35933122 0.0672273 251.65935319 0.06537137 257.95939636 0.06112003 C265.63556161 0.05619657 273.31162817 0.06216342 280.9877708 0.08201433 C284.90533788 0.09189528 288.82275459 0.09698285 292.74032974 0.08912182 C296.32539245 0.08207512 299.91015145 0.08884562 303.49517405 0.10672545 C305.40894896 0.11269823 307.32275225 0.10393448 309.23651409 0.09467894 C310.37200601 0.10311888 311.50749792 0.11155882 312.67739868 0.12025452 C314.14683788 0.12179821 314.14683788 0.12179821 315.64596272 0.12337309 C318.84483105 0.57147011 320.73751705 1.6147784 323.33869934 3.50057125 C324.90805528 6.63928313 324.69071037 9.03912947 324.33869934 12.50057125 C322.68237241 15.09695243 321.96429832 16.07547198 319.33869934 17.50057125 C315.04348174 18.2585672 310.78453552 18.17007789 306.43281555 18.12876034 C305.09149397 18.13380593 303.75017912 18.14103486 302.40887976 18.15025848 C298.72409168 18.16920664 295.03996628 18.15693319 291.35519481 18.13953555 C287.38101731 18.12617799 283.40693781 18.14159281 279.43276978 18.15335751 C271.64782764 18.17175058 263.86313625 18.16321074 256.07820189 18.14526928 C249.75206773 18.13125187 243.42600171 18.12734863 237.09985352 18.13071156 C236.19998218 18.131189 235.30011084 18.13166644 234.37297067 18.13215835 C232.54498198 18.13318467 230.71699331 18.13424002 228.88900465 18.13532411 C212.71967948 18.14389455 196.55047549 18.12720505 180.38117981 18.09749508 C164.68614105 18.06865685 148.99127686 18.06157368 133.29621887 18.07698727 C116.21128585 18.09374278 99.12643574 18.09779027 82.04150057 18.08027691 C80.22018211 18.07843249 78.39886364 18.07659776 76.57754517 18.07477283 C75.68138783 18.07386075 74.78523049 18.07294866 73.86191687 18.07200893 C67.54232979 18.06639949 61.22278314 18.0697145 54.90319824 18.07631779 C47.20321598 18.08404391 39.50340566 18.07732451 31.80345809 18.05214275 C27.87370096 18.03963084 23.94421173 18.03352149 20.01444435 18.04468441 C16.41819367 18.05470717 12.82247787 18.04630992 9.22629243 18.02310323 C7.30655419 18.015481 5.38676913 18.02751637 3.4670577 18.04020697 C1.75859474 18.02363544 1.75859474 18.02363544 0.01561737 18.00672913 C-0.96704652 18.00553764 -1.94971042 18.00434616 -2.962152 18.00311857 C-6.43743575 17.35606472 -8.1405697 15.9294741 -10.66130066 13.50057125 C-11.32536316 11.28182125 -11.32536316 11.28182125 -11.28630066 9.00057125 C-11.29919128 8.24775875 -11.31208191 7.49494625 -11.32536316 6.71932125 C-9.72517802 1.37282031 -5.08885526 0.00055758 0 0 Z " fill="#6A909A" transform="translate(23.661300659179688,464.4994287490845)"/>
<path d="M0 0 C10 2 10 2 14.88671875 3.11328125 C20.53640909 4.24101025 26.06920371 4.25849716 31.8125 4.1875 C33.3274707 4.1865332 33.3274707 4.1865332 34.87304688 4.18554688 C40.10410662 4.21723237 40.10410662 4.21723237 45.26049805 3.48950195 C49.11600088 2.80058981 53.08343237 3 57 3 C57 24.12 57 45.24 57 67 C38.19 67 19.38 67 0 67 C0 44.89 0 22.78 0 0 Z " fill="#F36443" transform="translate(273,399)"/>
<path d="M0 0 C21.66706501 18.90459742 36.68065542 45.23459201 39.18774414 74.17651367 C40.07228945 87.91336073 40.11430434 101.46220615 36.35546875 114.78125 C36.05745361 115.83771729 36.05745361 115.83771729 35.75341797 116.91552734 C31.21865845 132.58507465 23.57426943 153.30204955 9.35546875 162.78125 C10.6372748 159.34697719 12.1383531 156.36941006 14.10546875 153.28125 C29.73924342 127.3771124 33.69599165 95.67691937 26.6171875 66.30078125 C22.2109076 49.7973237 14.07036086 35.01514571 3.35546875 21.78125 C2.69160156 20.93949219 2.02773438 20.09773438 1.34375 19.23046875 C-11.30126316 4.12871017 -29.4349367 -6.33749491 -47.89453125 -12.65625 C-48.92006104 -13.00888916 -48.92006104 -13.00888916 -49.96630859 -13.36865234 C-70.63442349 -19.94908354 -96.01952029 -19.91239465 -116.64453125 -13.21875 C-117.35416016 -12.98849121 -118.06378906 -12.75823242 -118.79492188 -12.52099609 C-126.24021677 -10.03199729 -133.37582802 -7.21269972 -140.04296875 -3.00390625 C-140.83574219 -2.61525391 -140.83574219 -2.61525391 -141.64453125 -2.21875 C-142.30453125 -2.54875 -142.96453125 -2.87875 -143.64453125 -3.21875 C-134.24608726 -16.98075727 -112.88777303 -22.4258894 -97.51953125 -26.21875 C-62.12331444 -32.28217312 -27.31255302 -22.91511096 0 0 Z " fill="#5E818A" transform="translate(380.64453125,203.21875)"/>
<path d="M0 0 C4.29 0 8.58 0 13 0 C14.81870818 1.81870818 14.12266277 4.33555997 14.12908131 6.75630099 C14.12471205 8.00676255 14.12471205 8.00676255 14.12025452 9.28248596 C14.12110894 10.16130414 14.12196337 11.04012233 14.12284368 11.94557136 C14.12450119 14.91368564 14.11897271 17.88174438 14.11352539 20.84985352 C14.11324355 22.96820067 14.11340119 25.08654792 14.1139679 27.20489502 C14.114256 32.97532141 14.10835725 38.74572722 14.10139394 44.51614881 C14.09516248 50.53932419 14.09455677 56.56249999 14.09336853 62.5856781 C14.0902546 74.00021564 14.08204038 85.41474365 14.07201904 96.82927698 C14.06085982 109.8205874 14.05534794 122.81189827 14.05032361 135.80321229 C14.03985782 162.53548015 14.02225718 189.26773954 14 216 C9.71 216 5.42 216 1 216 C0.67 144.72 0.34 73.44 0 0 Z " fill="#24D18F" transform="translate(154,250)"/>
<path d="M0 0 C1.26881012 -0.01272446 2.53762024 -0.02544891 3.84487915 -0.03855896 C5.24864383 -0.03237667 6.6524067 -0.02577064 8.0561676 -0.01878357 C9.53631959 -0.02584181 11.01646435 -0.03458643 12.49659729 -0.04489136 C16.51528114 -0.06740678 20.53357156 -0.06444065 24.55229449 -0.05556989 C27.90724428 -0.05046205 31.26211999 -0.05775093 34.61706215 -0.06504196 C42.53188833 -0.08204798 50.44652174 -0.07846833 58.36134338 -0.06175232 C66.52649219 -0.04483059 74.69110641 -0.06066436 82.85619682 -0.0929752 C89.86695355 -0.11966701 96.87754382 -0.12694823 103.88834625 -0.11846012 C108.07538818 -0.1135296 112.26210844 -0.11575294 116.44911003 -0.13624763 C120.38671044 -0.15459854 124.32354174 -0.14865423 128.26110077 -0.12404823 C129.70546395 -0.1190383 131.14988567 -0.12253503 132.59420204 -0.13519669 C134.56714484 -0.1511231 136.5402742 -0.13315777 138.51318359 -0.11352539 C139.61690528 -0.11293908 140.72062696 -0.11235277 141.85779476 -0.1117487 C145.80442088 0.72281391 147.32296793 2.41569391 149.82008362 5.5146637 C150.39218585 9.01878989 150.2604906 10.73870854 148.50758362 13.8271637 C145.36079184 16.97395547 142.00619007 16.64543435 137.79165649 16.66183472 C135.9009568 16.67256767 135.9009568 16.67256767 133.97206116 16.68351746 C132.57252527 16.68635764 131.17298912 16.68906938 129.77345276 16.69166565 C128.30168497 16.69793104 126.82991877 16.70457791 125.3581543 16.71157837 C120.52386067 16.73260559 115.68956676 16.74297693 110.85523987 16.75294495 C109.19146139 16.75699248 107.52768309 16.7611094 105.86390495 16.76529503 C98.05029101 16.7843408 90.23668649 16.79857523 82.4230538 16.806907 C73.39836254 16.81668887 64.37391594 16.84303556 55.34931093 16.88340789 C48.37599509 16.91353555 41.40274955 16.92837253 34.42936987 16.93168801 C30.26303499 16.93404163 26.09696167 16.94304268 21.93069649 16.96814919 C18.01295328 16.99137768 14.09564486 16.99568452 10.17785072 16.9853878 C8.73949998 16.98489111 7.30112821 16.99125086 5.86284256 17.00494385 C3.90047226 17.02258235 1.93791431 17.01319758 -0.02450562 17.00241089 C-1.67235754 17.00599342 -1.67235754 17.00599342 -3.35349941 17.00964832 C-6.84416536 16.39833513 -8.01642245 15.26352621 -10.17991638 12.5146637 C-10.71116638 10.5146637 -10.71116638 10.5146637 -10.67991638 8.5146637 C-10.69538513 7.5246637 -10.69538513 7.5246637 -10.71116638 6.5146637 C-9.22974003 0.93752918 -5.20565006 0.01324323 0 0 Z " fill="#8EBAC5" transform="translate(308.17991638183594,128.48533630371094)"/>
<path d="M0 0 C2.29109597 -0.08075665 4.58299267 -0.13907731 6.875 -0.1875 C8.78925781 -0.23970703 8.78925781 -0.23970703 10.7421875 -0.29296875 C11.81726563 -0.19628906 12.89234375 -0.09960938 14 0 C16.32812239 3.49218359 16.24930476 4.84781386 16.24723816 8.97268677 C16.25143265 10.2206604 16.25562714 11.46863403 16.25994873 12.75442505 C16.25446523 14.13983232 16.24878225 15.52523881 16.24291992 16.91064453 C16.24399268 18.36757492 16.24593127 19.8245049 16.24867249 21.28143311 C16.2535241 25.2399161 16.24586186 29.19828654 16.23571944 33.15675592 C16.22694686 37.29362012 16.22869621 41.4304807 16.2290802 45.56735229 C16.22814338 52.51285693 16.21945589 59.45831791 16.20581055 66.40380859 C16.19007248 74.44442948 16.18481285 82.48500257 16.1855461 90.52563775 C16.18615548 98.25009904 16.18105909 105.97454471 16.17275429 113.69900131 C16.16921541 116.9916585 16.16739018 120.28431015 16.16686058 123.57696915 C16.16585935 127.4494503 16.15978084 131.321891 16.14969444 135.19435883 C16.14676276 136.61943947 16.14554542 138.04452477 16.14612198 139.46960831 C16.14660934 141.40683673 16.14036332 143.34406345 16.13371277 145.28128052 C16.13203692 146.36786516 16.13036108 147.45444981 16.12863445 148.57396126 C16 151 16 151 15 152 C13.2507128 152.09365006 11.49763746 152.11744438 9.74584961 152.11352539 C8.62476303 152.11344986 7.50367645 152.11337433 6.34861755 152.11329651 C4.51896202 152.10555458 4.51896202 152.10555458 2.65234375 152.09765625 C1.41078018 152.0962413 0.16921661 152.09482635 -1.10997009 152.09336853 C-4.41605491 152.08870591 -7.72207146 152.07971497 -11.02813721 152.06866455 C-14.3996115 152.05844827 -17.77109283 152.05387045 -21.14257812 152.04882812 C-27.76173775 152.03777395 -34.38086493 152.02101736 -41 152 C-41 151.67 -41 151.34 -41 151 C-26.81 151 -12.62 151 2 151 C1.89209711 131.60731862 1.78012783 112.21467482 1.66066074 92.82206154 C1.60532479 83.81823665 1.55184219 74.8144078 1.50268555 65.81054688 C1.45984826 57.96503557 1.41357144 50.11955349 1.36312145 42.27408731 C1.33651683 38.11795173 1.31166367 33.96182196 1.29092598 29.80565262 C1.27136943 25.8970768 1.24722862 21.98855663 1.21950912 18.08003044 C1.21013348 16.64247966 1.20246005 15.20491667 1.19658089 13.76734734 C1.18832854 11.81058226 1.17346283 9.85384834 1.15821838 7.89712524 C1.15176583 6.80019159 1.14531328 5.70325794 1.1386652 4.57308388 C1.17200988 2.01199127 1.17200988 2.01199127 0 0 Z " fill="#DFC94D" transform="translate(72,314)"/>
<path d="M0 0 C3.08143528 1.93470573 6.14926041 3.88959836 9.20996094 5.85693359 C10.46737649 6.65988226 11.7288209 7.4565397 12.99316406 8.24853516 C15.06656617 9.54843253 17.12748333 10.86651707 19.1875 12.1875 C19.85918213 12.60306152 20.53086426 13.01862305 21.22290039 13.44677734 C23.10546875 14.66796875 23.10546875 14.66796875 26 17 C26 21 26 21 24.53286743 22.94815063 C23.84606903 23.62606659 23.15927063 24.30398254 22.45166016 25.00244141 C21.29012924 26.16351913 21.29012924 26.16351913 20.10513306 27.34805298 C19.25832977 28.17421112 18.41152649 29.00036926 17.5390625 29.8515625 C16.6781601 30.70680511 15.81725769 31.56204773 14.93026733 32.44320679 C12.17107025 35.17997772 9.39831577 37.90254435 6.625 40.625 C4.76211069 42.46783041 2.9001198 44.31156948 1.0390625 46.15625 C-3.0586519 50.21456553 -7.16494744 54.2639657 -11.27890015 58.30581665 C-12.52449042 59.53192697 -13.76411132 60.76411132 -15 62 C-21.54793342 53.1443422 -27.79182467 44.09543334 -34 35 C-31.41521887 32.32809141 -28.78426106 29.98017405 -25.8125 27.75 C-24.20650694 26.50234741 -22.60235282 25.25232429 -21 24 C-20.28585937 23.44957031 -19.57171875 22.89914062 -18.8359375 22.33203125 C-11.19248974 16.03660973 -5.73129838 7.9908458 0 0 Z " fill="#A7D1D6" transform="translate(402,351)"/>
<path d="M0 0 C0.05057965 7.51136408 0.08568257 15.02268449 0.10986328 22.53417969 C0.11994038 25.09116253 0.13360226 27.64813379 0.15087891 30.20507812 C0.17505217 33.87372692 0.18646585 37.54222379 0.1953125 41.2109375 C0.20563507 42.35992523 0.21595764 43.50891296 0.22659302 44.69271851 C0.22681961 46.28414169 0.22681961 46.28414169 0.22705078 47.90771484 C0.231492 48.84481293 0.23593323 49.78191101 0.24050903 50.74740601 C0 53 0 53 -2 55 C-4.25259399 55.24050903 -4.25259399 55.24050903 -7.09228516 55.22705078 C-8.15323395 55.22689972 -9.21418274 55.22674866 -10.30728149 55.22659302 C-11.45626923 55.21627045 -12.60525696 55.20594788 -13.7890625 55.1953125 C-14.96262299 55.1924826 -16.13618347 55.18965271 -17.3453064 55.18673706 C-21.10530662 55.17551355 -24.86507139 55.15040492 -28.625 55.125 C-31.1692674 55.11497301 -33.71353852 55.10584668 -36.2578125 55.09765625 C-42.5052891 55.07556714 -48.75262773 55.04206824 -55 55 C-53.59114143 50.64504757 -51.53301924 48.16289706 -48.30664062 44.95019531 C-47.8316362 44.47314651 -47.35663177 43.99609772 -46.86723328 43.5045929 C-45.30405592 41.93842092 -43.73043771 40.38322351 -42.15625 38.828125 C-41.06472464 37.73965901 -39.9737906 36.65059974 -38.88342285 35.56097412 C-36.60145479 33.28360046 -34.31467466 31.01121635 -32.02392578 28.74267578 C-29.08472978 25.83182855 -26.15434252 22.91231181 -23.22705841 19.98949051 C-20.97653398 17.74311735 -18.72319231 15.49958964 -16.46879578 13.25710297 C-15.38703438 12.181045 -14.30574412 11.1045132 -13.22492981 10.02750397 C-11.71700229 8.52643338 -10.20574471 7.02880394 -8.69335938 5.53222656 C-7.83335327 4.67904846 -6.97334717 3.82587036 -6.08728027 2.94683838 C-2.92786155 0 -2.92786155 0 0 0 Z " fill="#C3D1D0" transform="translate(311,30)"/>
<path d="M0 0 C2.875 1.5 2.875 1.5 5 4 C5.60645454 7.2784219 5.83402597 8.8688514 5 12 C2.57023343 15.4504351 -0.40882803 18.20631524 -3.5 21.0625 C-4.29148437 21.82626953 -5.08296875 22.59003906 -5.8984375 23.37695312 C-9.53209536 26.85871218 -13.24169781 30.23182522 -17.0546875 33.515625 C-22.2689087 38.03093251 -27.01728691 43.00322594 -31.8203125 47.94726562 C-39.53304057 55.77875853 -39.53304057 55.77875853 -44 58 C-49.50361938 57.8451103 -52.31415852 55.43553163 -56.01953125 51.6796875 C-56.56357101 51.14280304 -57.10761078 50.60591858 -57.6681366 50.05276489 C-58.81127172 48.9173897 -59.94808489 47.7756179 -61.07885742 46.62792969 C-62.80568821 44.88188758 -64.5598116 43.16714946 -66.31835938 41.453125 C-67.42885733 40.34291746 -68.5376412 39.23099219 -69.64453125 38.1171875 C-70.16739212 37.60960907 -70.69025299 37.10203064 -71.22895813 36.57907104 C-74.78277923 32.90937943 -75.94377045 30.10292568 -76 25 C-73.67244292 21.68499446 -72.11047362 20.2961263 -68.1875 19.25 C-63.25188572 20.41132101 -60.53211686 23.48640823 -57 27 C-56.09765625 27.88816406 -55.1953125 28.77632813 -54.265625 29.69140625 C-51.82757376 32.11223962 -49.40713318 34.54847297 -47 37 C-43.993182 35.66000502 -42.00237391 34.20154709 -39.75 31.8125 C-37.38779053 29.31580831 -34.91246729 27.04304876 -32.30859375 24.8046875 C-27.75550306 20.85240294 -23.53594777 16.61143388 -19.3125 12.3125 C-6.19773487 -1.03295581 -6.19773487 -1.03295581 0 0 Z " fill="#8EBAC5" transform="translate(341,261)"/>
<path d="M0 0 C0.86076645 -0.00554901 1.7215329 -0.01109802 2.60838318 -0.01681519 C5.44717481 -0.02860391 8.28436743 -0.00434457 11.12304688 0.02148438 C13.0993238 0.02319576 15.075603 0.02312952 17.05187988 0.0213623 C21.19122065 0.02301511 25.33001956 0.04170606 29.46923828 0.07324219 C34.77226321 0.1129195 40.0745785 0.11728714 45.37772369 0.10977936 C49.45785002 0.10670825 53.53781713 0.11883522 57.61790466 0.13591003 C59.57310487 0.14293602 61.52832312 0.14606505 63.48353577 0.1452179 C66.2172195 0.14701777 68.95005662 0.16841576 71.68359375 0.1953125 C72.48997787 0.1923819 73.296362 0.18945129 74.12718201 0.18643188 C78.69182684 0.25564668 81.72300738 0.75302736 85.34179688 3.61523438 C86.74637424 6.42438911 86.59074845 8.50333972 86.34179688 11.61523438 C84.56195283 14.75115008 83.81871481 15.45626173 80.34179688 16.61523438 C77.52375014 16.73226332 74.72952037 16.79334559 71.91064453 16.80810547 C71.05017014 16.81628296 70.18969574 16.82446045 69.30314636 16.83288574 C66.45405777 16.85771019 63.60501882 16.8742463 60.75585938 16.88867188 C59.7829533 16.89399555 58.81004723 16.89931923 57.80765915 16.90480423 C52.66019224 16.93152024 47.51274948 16.95090197 42.36523438 16.96533203 C37.04637053 16.98199571 31.72812439 17.02679235 26.4094944 17.07770348 C22.32084429 17.11133525 18.23234175 17.12290484 14.14356613 17.12855911 C12.18272544 17.13528051 10.22189476 17.15052559 8.26118851 17.17444992 C5.51752315 17.20602357 2.77553716 17.20615042 0.03173828 17.19873047 C-0.77778793 17.2151358 -1.58731415 17.23154114 -2.42137146 17.2484436 C-6.65009633 17.20162875 -8.21054076 16.96527572 -11.66226196 14.26626587 C-13.65820312 11.61523438 -13.65820312 11.61523438 -14.28320312 8.61523438 C-12.668416 0.86425618 -6.96847524 -0.11461609 0 0 Z " fill="#8EBAC5" transform="translate(371.658203125,88.384765625)"/>
<path d="M0 0 C0.86076645 -0.00554901 1.7215329 -0.01109802 2.60838318 -0.01681519 C5.44717481 -0.02860391 8.28436743 -0.00434457 11.12304688 0.02148438 C13.0993238 0.02319576 15.075603 0.02312952 17.05187988 0.0213623 C21.19122065 0.02301511 25.33001956 0.04170606 29.46923828 0.07324219 C34.77226321 0.1129195 40.0745785 0.11728714 45.37772369 0.10977936 C49.45785002 0.10670825 53.53781713 0.11883522 57.61790466 0.13591003 C59.57310487 0.14293602 61.52832312 0.14606505 63.48353577 0.1452179 C66.2172195 0.14701777 68.95005662 0.16841576 71.68359375 0.1953125 C72.48997787 0.1923819 73.296362 0.18945129 74.12718201 0.18643188 C78.66711852 0.25527202 81.80603891 0.65582614 85.34179688 3.61523438 C86.28464441 7.07234201 86.68242003 9.46950196 85.65429688 12.92773438 C83.96742239 15.09657299 82.94359206 15.64574003 80.34179688 16.61523438 C77.46190334 16.82158668 74.67761823 16.91926711 71.79711914 16.92163086 C70.50618851 16.93411613 70.50618851 16.93411613 69.18917847 16.94685364 C66.34547397 16.97094089 63.5019988 16.97972347 60.65820312 16.98632812 C58.68049551 16.99529425 56.7027886 17.00441609 54.7250824 17.01368713 C50.5799698 17.03017539 46.43493797 17.03787716 42.28979492 17.04077148 C36.97876626 17.04616019 31.66849641 17.08386121 26.35768223 17.12951565 C22.27330246 17.15925659 18.18910626 17.16649437 14.10462761 17.16749763 C12.14659074 17.17170454 10.18855354 17.18415765 8.23062325 17.20501518 C5.49180333 17.2318729 2.75475351 17.22712163 0.01586914 17.21459961 C-1.19606361 17.23685104 -1.19606361 17.23685104 -2.43247986 17.259552 C-6.65548395 17.20457265 -8.21504692 16.96201301 -11.66127014 14.26527405 C-13.65820312 11.61523438 -13.65820312 11.61523438 -14.28320312 8.61523438 C-12.668416 0.86425618 -6.96847524 -0.11461609 0 0 Z " fill="#8EBAC5" transform="translate(371.658203125,168.384765625)"/>
<path d="M0 0 C4.03230411 1.61685567 6.76086936 4.46516697 9.77490234 7.484375 C10.34130936 8.04406479 10.90771637 8.60375458 11.49128723 9.18040466 C13.36151143 11.03164069 15.22410999 12.89032185 17.0859375 14.75 C18.38849501 16.04612691 19.69120114 17.34210448 20.99404907 18.63793945 C23.72617634 21.35808956 26.45413512 24.08234481 29.1796875 26.80908203 C32.65502666 30.28462365 36.14387356 33.74624533 39.63652611 37.20437622 C42.33391976 39.87940649 45.02204639 42.56360638 47.70775223 45.25036621 C48.98901065 46.52927992 50.27347784 47.80498802 51.56132126 49.07727051 C70.17627454 67.48836558 70.17627454 67.48836558 70.3125 81.625 C70.34580723 89.87501695 68.5495172 95.21435325 63.9375 102.0625 C63.298125 102.701875 62.65875 103.34125 62 104 C61.01 104 60.02 104 59 104 C59.15984375 103.15179688 59.3196875 102.30359375 59.484375 101.4296875 C60.74707411 93.03082522 61.55189306 83.49798457 57 76 C50.23578692 67.73095716 42.4328677 60.301413 34.87109375 52.7734375 C33.62820288 51.53241651 32.38553616 50.291171 31.14308167 49.04971313 C27.90512502 45.81553685 24.6641747 42.58437742 21.42254639 39.35388184 C18.10211509 36.04376212 14.7845863 32.73073608 11.46679688 29.41796875 C4.98066853 22.94249848 -1.50863283 16.47021828 -8 10 C-5.95933017 5.73384496 -3.41446998 3.26601476 0 0 Z " fill="#5F838B" transform="translate(429,370)"/>
<path d="M0 0 C3.63 0 7.26 0 11 0 C12.09038688 23.94812674 3.64337293 45.06811761 -12 63 C-12.52980469 63.61359375 -13.05960937 64.2271875 -13.60546875 64.859375 C-26.66167362 78.9149437 -46.20340894 87.57002245 -65 90 C-67.63589958 90.06656312 -70.24148596 90.09567411 -72.875 90.0625 C-73.56335938 90.05798828 -74.25171875 90.05347656 -74.9609375 90.04882812 C-76.64066335 90.03716336 -78.32034375 90.01923271 -80 90 C-80 89.67 -80 89.34 -80 89 C-78.9584375 88.85304688 -77.916875 88.70609375 -76.84375 88.5546875 C-57.55303537 85.62126471 -41.89813749 78.79873951 -27 66 C-26.39542969 65.49210937 -25.79085937 64.98421875 -25.16796875 64.4609375 C-8.69031201 49.41108708 -1.31139791 26.69577779 -0.2019043 5.02758789 C-0.12708299 3.35204415 -0.06239477 1.67605248 0 0 Z " fill="#E1C949" transform="translate(175,134)"/>
<path d="M0 0 C23.96277547 -1.07474242 45.40428009 7.94357384 63 24 C78.93420243 39.25168305 88.03776011 60.48734132 89.1796875 82.45703125 C89.18614457 84.97205919 89.10470233 87.48714412 89 90 C85.37 90 81.74 90 78 90 C77.97421875 89.030625 77.9484375 88.06125 77.921875 87.0625 C77.41845661 73.77794097 75.22468301 60.9033412 69 49 C68.58105469 48.14277344 68.16210938 47.28554687 67.73046875 46.40234375 C58.17188631 27.68016162 41.93961006 13.83566034 22.4765625 6.09765625 C15.13755179 3.78050792 7.55594716 2.41476417 0 1 C0 0.67 0 0.34 0 0 Z " fill="#EA5334" transform="translate(118,30)"/>
<path d="M0 0 C11 7 11 7 13 9 C13.18773265 11.46949072 13.25196303 13.82579983 13.22705078 16.29541016 C13.22734283 17.04672714 13.22763489 17.79804413 13.22793579 18.5721283 C13.22653987 21.06122292 13.21096658 23.55002003 13.1953125 26.0390625 C13.1915833 27.76256141 13.18873589 29.48606243 13.18673706 31.20956421 C13.1790933 35.75030347 13.15943848 40.2909152 13.1373291 44.831604 C13.11688664 49.46323928 13.10773877 54.09489513 13.09765625 58.7265625 C13.07619325 67.81776443 13.04204839 76.90887162 13 86 C9.04 86 5.08 86 1 86 C0.67 57.62 0.34 29.24 0 0 Z " fill="#01C0F9" transform="translate(235,379)"/>
<path d="M0 0 C0 20.79 0 41.58 0 63 C-4.29 63 -8.58 63 -13 63 C-13 42.54 -13 22.08 -13 1 C-8 0 -8 0 0 0 Z " fill="#EA5334" transform="translate(329,402)"/>
<path d="M0 0 C0.33 0.66 0.66 1.32 1 2 C-0.0197946 4.48649918 -1.10096468 6.8868211 -2.25 9.3125 C-11.03818738 28.9396693 -12.25231179 51.68420033 -4.8984375 72.05078125 C4.12997295 94.97129422 19.00397287 111.18441144 41.31640625 121.5390625 C60.58458951 129.78652017 84.06754391 131.25878069 104 124 C107.90347565 122.30790764 111.62357419 120.36230369 115.33984375 118.29296875 C116.21769531 117.86628906 117.09554687 117.43960938 118 117 C118.66 117.33 119.32 117.66 120 118 C99.53504199 131.17544863 76.36774954 135.80823855 52.2890625 130.9699707 C30.5131136 125.62319754 10.76723852 111.15676086 -0.99731445 92.19067383 C-4.13083871 86.94905126 -6.86248517 81.72099559 -9 76 C-9.391875 74.9996875 -9.78375 73.999375 -10.1875 72.96875 C-17.87290753 49.69904387 -13.21554468 25.61943959 -2.70703125 4.2890625 C-1 1 -1 1 0 0 Z " fill="#AEE0ED" transform="translate(234,243)"/>
<path d="M0 0 C0.75792847 -0.00478363 1.51585693 -0.00956726 2.29675293 -0.01449585 C3.89365727 -0.01788696 5.49063178 -0.0087395 7.08740234 0.01220703 C9.52469402 0.03899046 11.95738192 0.01243943 14.39453125 -0.01953125 C15.95053095 -0.016227 17.50652779 -0.00982045 19.0625 0 C19.78659058 -0.01012115 20.51068115 -0.02024231 21.25671387 -0.03067017 C25.14822111 0.05897082 26.91533457 0.57455842 30.02929688 2.97900391 C32.03125 5.6640625 32.03125 5.6640625 32.03125 9.2890625 C31.08581241 12.47991437 30.66753553 13.76593692 28.03125 15.6640625 C23.44132122 17.95902689 16.72504917 17.01744451 11.62866211 17.0690918 C10.02720574 17.09066952 8.42586724 17.1247708 6.82495117 17.17163086 C4.51167367 17.2387066 2.20083201 17.26609746 -0.11328125 17.28515625 C-0.82490921 17.31298691 -1.53653717 17.34081757 -2.26972961 17.36949158 C-5.09579241 17.35785595 -7.31055719 17.20172445 -9.54525757 15.37625122 C-11.54507946 13.06315984 -12.8661984 11.08452407 -13.59375 8.1015625 C-11.80468809 1.12422104 -6.3989335 -0.08944267 0 0 Z " fill="#8FBAC5" transform="translate(425.96875,208.3359375)"/>
<path d="M0 0 C0.84175781 -0.01933594 1.68351562 -0.03867188 2.55078125 -0.05859375 C6.9917965 -0.02362513 8.93969658 0.19493314 12.55859375 2.97265625 C14.5 5.625 14.5 5.625 15.0625 8.6875 C14.38178485 12.24234581 13.29927541 13.402046 10.5 15.625 C7.12148271 17.31425865 3.33713354 16.85176286 -0.375 16.875 C-1.59896484 16.9059375 -1.59896484 16.9059375 -2.84765625 16.9375 C-6.36938047 16.96048026 -8.83007276 16.96571183 -12.00390625 15.3515625 C-13.68575029 13.41063544 -14.21278001 12.28177573 -14.5625 9.75 C-14.67722656 9.09257812 -14.79195313 8.43515625 -14.91015625 7.7578125 C-13.40402358 -0.07407736 -6.43890586 -0.14790749 0 0 Z " fill="#8FBAC5" transform="translate(443.5,248.375)"/>
<path d="M0 0 C0.84175781 -0.01933594 1.68351562 -0.03867187 2.55078125 -0.05859375 C6.9917965 -0.02362513 8.93969658 0.19493314 12.55859375 2.97265625 C14.5 5.625 14.5 5.625 15.0625 8.6875 C14.38178485 12.24234581 13.29927541 13.402046 10.5 15.625 C7.12148271 17.31425865 3.33713354 16.85176286 -0.375 16.875 C-1.59896484 16.9059375 -1.59896484 16.9059375 -2.84765625 16.9375 C-6.36938047 16.96048026 -8.83007276 16.96571183 -12.00390625 15.3515625 C-13.68575029 13.41063544 -14.21278001 12.28177573 -14.5625 9.75 C-14.67722656 9.09257812 -14.79195313 8.43515625 -14.91015625 7.7578125 C-13.40402358 -0.07407736 -6.43890586 -0.14790749 0 0 Z " fill="#8FBAC5" transform="translate(443.5,288.375)"/>
<path d="M0 0 C3.08143528 1.93470573 6.14926041 3.88959836 9.20996094 5.85693359 C10.46737649 6.65988226 11.7288209 7.4565397 12.99316406 8.24853516 C15.06656617 9.54843253 17.12748333 10.86651707 19.1875 12.1875 C19.85918213 12.60306152 20.53086426 13.01862305 21.22290039 13.44677734 C23.10546875 14.66796875 23.10546875 14.66796875 26 17 C26 21 26 21 24.46875 22.921875 C23.49421875 23.82679688 23.49421875 23.82679688 22.5 24.75 C21.8503125 25.36359375 21.200625 25.9771875 20.53125 26.609375 C19.77328125 27.29773438 19.77328125 27.29773438 19 28 C10.22588111 22.49109375 1.6034116 16.77043936 -7 11 C-5.67855892 8.20891884 -4.19617639 5.74213611 -2.375 3.25 C-1.92898438 2.63640625 -1.48296875 2.0228125 -1.0234375 1.390625 C-0.68570312 0.93171875 -0.34796875 0.4728125 0 0 Z " fill="#9DCBCD" transform="translate(402,351)"/>
<path d="M0 0 C0.66 0.33 1.32 0.66 2 1 C-3.61 6.61 -9.22 12.22 -15 18 C-15 12.50089132 -9.68936771 8.76735434 -6 5 C-4.05347234 3.22256464 -2.09090037 1.6083849 0 0 Z " fill="#40D2CC" transform="translate(46,68)"/>
<path d="M0 0 C0.66 0.33 1.32 0.66 2 1 C-0.0140476 4.0210714 -1.63279613 5.60667426 -5 7 C-4.60196439 4.11424181 -4.20990931 3.17810487 -1.9375 1.25 C-1.298125 0.8375 -0.65875 0.425 0 0 Z " fill="#70939D" transform="translate(239,196)"/>
</svg>
