<?xml version="1.0" encoding="UTF-8"?>
<svg version="1.1" xmlns="http://www.w3.org/2000/svg" width="512" height="512">
<path d="M0 0 C11.72348048 8.5096298 20.21072334 22.241014 27.265625 34.64453125 C27.81283203 35.60335205 27.81283203 35.60335205 28.37109375 36.58154297 C43.265625 62.97104309 43.265625 62.97104309 43.265625 72.64453125 C51.515625 72.64453125 59.765625 72.64453125 68.265625 72.64453125 C69.255625 69.01453125 70.245625 65.38453125 71.265625 61.64453125 C72.39143822 58.70649674 73.53185316 55.87533905 74.828125 53.01953125 C75.17037109 52.25954834 75.51261719 51.49956543 75.86523438 50.71655273 C81.62204417 38.24646855 88.76505526 26.43492236 97.265625 15.64453125 C97.67393555 15.1134375 98.08224609 14.58234375 98.50292969 14.03515625 C106.99713327 3.05376926 116.01148979 -5.13507495 130.265625 -7.35546875 C147.96003798 -9.26065454 162.78459962 -0.50671246 176.140625 10.14453125 C177.86565014 11.62530505 179.57501574 13.12458286 181.265625 14.64453125 C182.02101563 15.31742188 182.77640625 15.9903125 183.5546875 16.68359375 C202.98198175 35.01252507 215.76435452 61.89047146 216.6015625 88.6484375 C216.63100393 91.16783038 216.64350853 93.687468 216.640625 96.20703125 C216.64046387 97.52445312 216.64030273 98.841875 216.64013672 100.19921875 C216.50736171 111.59271176 215.11671201 122.11617079 211.0703125 132.80078125 C209.95467266 136.74343079 210.30402007 138.90777836 212.29052734 142.49560547 C213.6422859 144.71557091 215.04242999 146.89907648 216.453125 149.08203125 C222.00795336 157.93844923 226.3746015 166.71290828 229.59375 176.703125 C229.81240723 177.38157471 230.03106445 178.06002441 230.25634766 178.7590332 C230.85446891 180.65492562 231.42426555 182.55968713 231.9921875 184.46484375 C233.36909709 187.90289407 234.27589837 189.47972919 237.265625 191.64453125 C239.88650604 192.43590117 242.34676898 193.05337409 245.015625 193.58203125 C255.19506189 195.88956828 262.23121459 199.81443196 268.265625 208.64453125 C272.81872798 217.75073721 272.85451143 227.07389586 269.82421875 236.65234375 C267.90038508 242.09834378 265.64137225 247.38229917 263.265625 252.64453125 C262.88051758 253.50159668 262.49541016 254.35866211 262.09863281 255.24169922 C253.43183425 274.18629274 241.89646612 290.93483125 228.265625 306.64453125 C227.58113281 307.4540625 226.89664062 308.26359375 226.19140625 309.09765625 C224.265625 310.64453125 224.265625 310.64453125 221.93359375 310.82421875 C221.11503906 310.72367187 220.29648437 310.623125 219.453125 310.51953125 C215.49789117 310.3671815 213.31807917 310.72423011 210.140625 313.14453125 C208.25911916 314.99119439 207.34997341 315.98028753 207.015625 318.61328125 C207.09499908 320.62950648 207.09499908 320.62950648 207.5078125 322.51953125 C207.02895371 326.72113098 203.64436593 329.52786189 200.50341797 332.07177734 C198.46015704 333.55434633 196.38052093 334.95357851 194.265625 336.33203125 C193.49323486 336.84096924 192.72084473 337.34990723 191.92504883 337.87426758 C185.76996234 341.84673405 179.43169404 345.41650154 172.953125 348.83203125 C172.06431641 349.3014917 171.17550781 349.77095215 170.25976562 350.25463867 C166.22296071 352.32919392 162.77471461 353.89392464 158.265625 354.64453125 C158.76191406 355.61390625 159.25820313 356.58328125 159.76953125 357.58203125 C174.23826764 386.03900573 187.02689917 416.71411197 177.5859375 449.03125 C173.71560946 459.62312408 168.13708242 467.65961138 160.265625 475.64453125 C159.72550781 476.25683594 159.18539063 476.86914062 158.62890625 477.5 C142.69132079 495.04338752 115.14863723 503.40998532 92.22838974 504.76496696 C87.04943779 504.95498674 81.86926904 504.95046531 76.6875 504.9453125 C75.02427059 504.94921482 73.36104216 504.95355254 71.69781494 504.95829773 C68.23194126 504.96570291 64.76616954 504.96551103 61.30029297 504.96020508 C56.91245713 504.95442507 52.52504543 504.97133402 48.13727951 504.99454975 C44.70692608 505.00945912 41.2766707 505.01013564 37.84629059 505.00704002 C36.23116468 505.00754488 34.616032 505.01262049 33.00093842 505.02285194 C2.14427425 505.19436598 -26.5169795 496.78227878 -49.421875 475.45703125 C-59.92841014 464.51113191 -66.33092237 451.74609434 -67.734375 436.64453125 C-68.93449219 436.67933594 -70.13460937 436.71414063 -71.37109375 436.75 C-103.89888442 437.40352639 -136.88047226 430.29694251 -161.296875 407.58203125 C-172.93336129 395.42605896 -179.63024664 380.29202659 -186.13671875 365.015625 C-196.83485234 339.93292297 -209.62615248 318.93277417 -230.3190918 300.82836914 C-236.68030785 295.16856112 -240.30958967 289.41101779 -241.0703125 280.875 C-241.32248525 269.6415997 -239.59661454 261.84932716 -231.76171875 253.484375 C-215.76550449 238.9675794 -191.0709375 234.42175658 -170.296875 234.58203125 C-169.18376953 234.58654297 -168.07066406 234.59105469 -166.92382812 234.59570312 C-164.19395399 234.60741932 -161.46419326 234.62382426 -158.734375 234.64453125 C-158.89301025 234.04705078 -159.05164551 233.44957031 -159.21508789 232.83398438 C-161.37427199 223.73028764 -160.14467515 215.34285504 -155.57421875 207.27734375 C-148.72040175 197.46954618 -140.14079922 194.70030754 -128.8203125 192.68359375 C-124.8520414 191.34744171 -123.28797941 189.97418861 -120.734375 186.64453125 C-119.39773574 183.51215263 -118.48251454 180.29054853 -117.546875 177.01953125 C-115.20087751 169.43004687 -112.41546097 162.40500498 -108.671875 155.39453125 C-108.24874023 154.5960376 -107.82560547 153.79754395 -107.38964844 152.97485352 C-105.17327242 148.91365015 -102.8344671 145.46551645 -99.796875 141.95703125 C-98.26633319 140.05181613 -98.26633319 140.05181613 -97.734375 137.64453125 C-98.50137185 133.53342813 -99.70440408 129.87569742 -101.234375 126 C-104.72958919 116.65802429 -105.09857215 106.76647184 -105.046875 96.89453125 C-105.04123535 95.75636963 -105.0355957 94.61820801 -105.02978516 93.44555664 C-104.59809631 63.35342466 -91.90084292 36.87916815 -70.734375 15.64453125 C-51.16076582 -2.6298196 -25.24804085 -16.31595093 0 0 Z " fill="#020101" transform="translate(240.734375,7.35546875)"/>
<path d="M0 0 C0.84433594 0.13390137 1.68867188 0.26780273 2.55859375 0.40576172 C32.79521829 5.27027327 62.72795155 17.87067263 86 38 C87.20849609 39.00933594 87.20849609 39.00933594 88.44140625 40.0390625 C99.25880214 49.34981013 108.32615626 60.3598547 115 73 C115 73.66 115 74.32 115 75 C111.65080041 73.93793043 108.38337219 72.77097144 105.14453125 71.4140625 C79.0877785 60.55783798 51.55341102 57.75988198 24.8125 68.25 C22.86112385 69.13674413 20.92411938 70.05556968 19 71 C18.42185547 71.27827637 17.84371094 71.55655273 17.24804688 71.84326172 C3.55527581 78.49886995 -7.64374199 87.00467267 -17.98071289 98.17822266 C-22.6560146 103.10452382 -27.4005115 106.40155203 -34.1953125 107.53125 C-44.95096236 107.41652307 -49.00297625 103.07381922 -56.30859375 95.6484375 C-69.85106404 82.32217501 -89.10123966 68.83798354 -108 65 C-112.5217594 65.33972912 -112.5217594 65.33972912 -116 68 C-116.54043227 72.49066132 -116.54043227 72.49066132 -114.94921875 76.546875 C-112.08076692 78.68527997 -108.84954432 79.66506078 -105.5 80.8125 C-89.13484874 86.73145891 -76.65874049 96.03192697 -64.68212891 108.43896484 C-60.28902694 112.90713965 -55.69094112 116.30481838 -50 119 C-49.24589844 119.36609375 -48.49179687 119.7321875 -47.71484375 120.109375 C-39.22816391 122.89349443 -29.02002092 122.05816725 -20.9375 118.5 C-14.26154817 114.74620766 -9.35645389 109.64029468 -4.10351562 104.12915039 C11.31811837 88.09710764 32.42016376 76.98286011 54.83984375 75.796875 C78.53896909 75.34411731 107.20599076 82.33403633 125 99 C126.29346952 101.00353439 127.23949032 102.94909761 128.15234375 105.1484375 C130.45538285 110.17903904 135.39548446 113.26640588 140 116 C143.29332126 117.07392762 146.67990153 117.68563911 150.078125 118.33398438 C155.90806738 119.59676769 159.69335399 121.95942117 163.375 126.8125 C165.38857763 133.86002169 163.41750807 139.70705339 160.6875 146.1875 C160.33212158 147.04827148 159.97674316 147.90904297 159.6105957 148.79589844 C151.21088431 168.65923134 140.73237591 187.52806964 125.79516602 203.22241211 C122.29089642 207.0503151 121.15417524 209.82326997 121 215 C121.33 216.65 121.66 218.3 122 220 C119.36 222.31 116.72 224.62 114 227 C112.68 226.34 111.36 225.68 110 225 C105.97581808 224.34529439 103.75168 224.9147399 100.50390625 227.203125 C99.18400886 228.21081589 97.87061248 229.22705729 96.5625 230.25 C79.0772425 243.16138884 59.60594231 251.40415521 39 258 C38.2790918 258.23154785 37.55818359 258.4630957 36.81542969 258.70166016 C2.75404702 269.34692672 -35.83314408 270.79952035 -71 266 C-71.80373047 265.89816406 -72.60746094 265.79632813 -73.43554688 265.69140625 C-118.89583364 259.90620086 -158.73887432 242.6350262 -192 211 C-192.63292969 210.41992188 -193.26585937 209.83984375 -193.91796875 209.2421875 C-211.86945783 192.2714211 -224.65196341 168.57373586 -233.6875 145.875 C-234.0388501 145.02284912 -234.3902002 144.17069824 -234.75219727 143.29272461 C-236.88654065 137.68532749 -237.68088156 132.86406764 -236 127 C-233.81469204 123.19235956 -231.06425912 120.65816127 -227 119 C-224.77809305 118.54621079 -222.54759747 118.13358108 -220.3125 117.75 C-212.17483755 116.05817829 -206.13013681 113.21436666 -201.125 106.4375 C-199.8660895 104.49318268 -198.73498313 102.51862755 -197.6171875 100.48828125 C-188.95044871 87.15322664 -164.81110503 80.2947152 -150 77 C-147.05487679 76.63358796 -144.1406458 76.39874746 -141.1796875 76.21875 C-138.03936052 75.90359174 -136.24057927 75.24057927 -134 73 C-132.83974601 69.54578685 -132.83974601 69.54578685 -133 66 C-134.05038576 64.18253401 -134.05038576 64.18253401 -136 63 C-150.54574639 60.71306254 -165.54700219 66.02220821 -178.73046875 71.6328125 C-181.78595639 72.9104955 -184.84582917 73.99487728 -188 75 C-174.23057977 43.72473396 -143.22284717 22.70925149 -112.32373047 10.69555664 C-75.99091472 -3.02006367 -38.37848567 -6.49297281 0 0 Z " fill="#FDECC9" transform="translate(333,98)"/>
<path d="M0 0 C2.18060768 0.48249078 4.34421913 1.04151386 6.5 1.625 C56.85576602 14.64107661 105.9133777 15.08356642 156.57714844 3.76171875 C162.37684918 2.47105781 168.18903529 1.23885243 174 0 C189.7313948 29.23000811 189.7313948 29.23000811 193 42 C193.35835937 43.18851562 193.71671875 44.37703125 194.0859375 45.6015625 C198.05042397 61.71881347 196.21103551 80.41967562 187.875 94.6875 C175.67205969 112.47483672 157.36081664 121.05450084 137.171875 126.65234375 C135 127 135 127 132 126 C132.4125 125.48695313 132.825 124.97390625 133.25 124.4453125 C144.39095845 109.67359527 154.27437241 85.93415033 152 67 C149.67471679 64.01178508 148.72913396 63.10416199 144.9375 62.5625 C141.63594841 63.05422045 141.00983498 63.45549053 139 66 C138.31007155 68.05562082 138.31007155 68.05562082 138.0078125 70.359375 C137.8629541 71.22062988 137.7180957 72.08188477 137.56884766 72.96923828 C137.42237793 73.88688965 137.2759082 74.80454102 137.125 75.75 C133.74427897 94.95998628 127.23927789 115.5279482 110.79370117 127.64160156 C107.24069108 129.36920343 104.62183722 129.29143395 100.69140625 129.18359375 C99.43658447 129.1570874 98.1817627 129.13058105 96.88891602 129.10327148 C95.93557373 129.06919189 94.98223145 129.0351123 94 129 C93.99413376 128.21739304 93.98826752 127.43478607 93.98222351 126.62846375 C93.92434159 119.25639377 93.85229148 111.88466353 93.76428509 104.51289654 C93.71953976 100.72289337 93.6802932 96.93299872 93.65356445 93.14282227 C93.62757242 89.48568947 93.58720013 85.82897338 93.53681374 82.17209816 C93.52011705 80.7762959 93.50862021 79.38042151 93.50238609 77.98453331 C93.49277637 76.03083288 93.46303529 74.07726273 93.43237305 72.1237793 C93.42126999 71.0112529 93.41016693 69.8987265 93.39872742 68.75248718 C93.21287499 66.004363 93.21287499 66.004363 91.69172668 64.14460754 C88.80753949 62.1931916 86.35153506 62.58105812 83 63 C80.71755705 65.2247792 80.05292561 66.62876119 79.60127258 69.79681396 C79.59016953 70.87158997 79.57906647 71.94636597 79.56762695 73.05371094 C79.54783279 74.27467468 79.52803864 75.49563843 79.50764465 76.75360107 C79.50125473 78.06725647 79.49486481 79.38091187 79.48828125 80.734375 C79.47143029 82.09630959 79.45327948 83.45822867 79.43388367 84.82012939 C79.38642211 88.39735059 79.3565883 91.97450888 79.33044434 95.55194092 C79.30061912 99.20532656 79.25409561 102.85849554 79.20898438 106.51171875 C79.12299519 113.67437158 79.05563084 120.83704023 79 128 C76.61341954 128.10529031 74.23154517 128.18174052 71.84375 128.2421875 C70.83973145 128.29088989 70.83973145 128.29088989 69.81542969 128.34057617 C64.81654476 128.43529832 62.25256369 127.36687101 58.5 124.125 C56.94469241 122.46686216 55.44161879 120.75787885 54 119 C53.36707031 118.25363281 52.73414063 117.50726563 52.08203125 116.73828125 C42.65198196 104.47713548 38.02266016 89.29267292 36.3203125 74.16796875 C35.64314497 68.93999141 35.64314497 68.93999141 33.08984375 64.41015625 C30.21209751 62.46834991 28.3977931 62.49394571 25 63 C23.01827548 64.5154364 22.12272739 65.42005295 21.6015625 67.8828125 C21.80221119 87.07820347 27.58794502 106.25163015 38.65234375 122.00390625 C40 124 40 124 41 127 C21.58729106 125.8114668 3.00557252 115.02641809 -10 101 C-21.76431923 86.8585606 -23.07156564 70.60867897 -22 53 C-20.15167257 36.57378952 -11.88424844 11.88424844 0 0 Z " fill="#FB856F" transform="translate(210,368)"/>
<path d="M0 0 C0.84433594 0.13390137 1.68867188 0.26780273 2.55859375 0.40576172 C32.79521829 5.27027327 62.72795155 17.87067263 86 38 C87.20849609 39.00933594 87.20849609 39.00933594 88.44140625 40.0390625 C99.25880214 49.34981013 108.32615626 60.3598547 115 73 C115 73.66 115 74.32 115 75 C111.65080041 73.93793043 108.38337219 72.77097144 105.14453125 71.4140625 C79.0877785 60.55783798 51.55341102 57.75988198 24.8125 68.25 C22.86112385 69.13674413 20.92411938 70.05556968 19 71 C18.42185547 71.27827637 17.84371094 71.55655273 17.24804688 71.84326172 C3.55527581 78.49886995 -7.64374199 87.00467267 -17.98071289 98.17822266 C-22.6560146 103.10452382 -27.4005115 106.40155203 -34.1953125 107.53125 C-44.95096236 107.41652307 -49.00297625 103.07381922 -56.30859375 95.6484375 C-69.85106404 82.32217501 -89.10123966 68.83798354 -108 65 C-112.5217594 65.33972912 -112.5217594 65.33972912 -116 68 C-116.64767793 70.57061311 -116.64767793 70.57061311 -117 73 C-117.66 72.01 -118.32 71.02 -119 70 C-122.32641389 69.6190791 -125.5868511 69.62399876 -128.93359375 69.6015625 C-132 69 -132 69 -133.84765625 66.5234375 C-134.22792969 65.69070312 -134.60820312 64.85796875 -135 64 C-136.82615084 62.17384916 -139.538007 62.74065667 -142 62.6875 C-154.98682609 62.80616136 -166.86877236 66.58472561 -178.73046875 71.6328125 C-181.78595639 72.9104955 -184.84582917 73.99487728 -188 75 C-174.23057977 43.72473396 -143.22284717 22.70925149 -112.32373047 10.69555664 C-75.99091472 -3.02006367 -38.37848567 -6.49297281 0 0 Z " fill="#FB856F" transform="translate(333,98)"/>
<path d="M0 0 C2.71029892 2.07420836 5.29289688 4.27179933 7.8515625 6.52734375 C23.42693337 19.93068391 41.1499322 30.2162741 59.9140625 38.46484375 C59.18760529 42.61301971 57.14061351 46.14269614 55.2265625 49.83984375 C46.2804452 67.50546744 39.84065596 84.710072 37.9140625 104.46484375 C8.85776835 105.66934574 -19.5546291 101.61066431 -42.3359375 82.15234375 C-51.57979863 73.46253108 -56.69643918 62.74779348 -62.0859375 51.46484375 C-58.53613345 47.1495833 -54.30666252 45.68069629 -49.2734375 43.65234375 C-37.06668615 38.44351694 -32.08757527 32.41130142 -27.13671875 20.10546875 C-23.75728447 11.83512326 -19.73276612 6.33867326 -11.43286133 2.6784668 C-10.76150146 2.40172119 -10.0901416 2.12497559 -9.3984375 1.83984375 C-8.74447998 1.56760986 -8.09052246 1.29537598 -7.41674805 1.01489258 C-4.77754427 0.02557167 -2.7824091 -0.71383904 0 0 Z " fill="#FB6B52" transform="translate(135.0859375,323.53515625)"/>
<path d="M0 0 C1.41870117 1.89501953 1.41870117 1.89501953 2.54296875 4.3828125 C3.18600952 5.75191772 3.18600952 5.75191772 3.84204102 7.14868164 C4.28604248 8.1308667 4.73004395 9.11305176 5.1875 10.125 C11.67454571 23.75955465 19.59619359 35.50312326 28.96875 47.29296875 C30.62634024 49.50202651 31.89566707 51.48524186 33 54 C32.31035156 54.20753906 31.62070313 54.41507812 30.91015625 54.62890625 C20.69892901 57.97661998 13.68163726 62.62143783 8.390625 72.11328125 C6.78964371 75.43666657 5.43364992 78.82573349 4.0625 82.25 C0.04881262 91.71083454 -4.54066694 94.61546259 -13.75 98.375 C-20.34699725 101 -20.34699725 101 -24 101 C-24.22550537 100.49774902 -24.45101074 99.99549805 -24.68334961 99.47802734 C-31.30687385 84.83585005 -38.61794237 71.36284494 -49 59 C-49.6290625 58.24847656 -50.258125 57.49695313 -50.90625 56.72265625 C-56.18770565 50.64307018 -61.96048816 45.19377872 -67.94726562 39.8215332 C-68.8840918 38.97014771 -68.8840918 38.97014771 -69.83984375 38.1015625 C-70.40050537 37.59963379 -70.96116699 37.09770508 -71.53881836 36.58056641 C-75.22903174 32.58884686 -75.43178608 28.69930252 -75.31640625 23.46875 C-74.71429646 18.77080698 -72.15822537 16.12415992 -68.875 12.9375 C-51.09270904 0.95378218 -20.97729792 -6.88310709 0 0 Z " fill="#FBDCB8" transform="translate(90,258)"/>
<path d="M0 0 C1.29744141 0.34611328 1.29744141 0.34611328 2.62109375 0.69921875 C54.46737727 14.12512431 104.31296538 15.44121103 156.57714844 3.76171875 C162.37690804 2.47104471 168.18927888 1.24040807 174 0 C177.3 6.27 180.6 12.54 184 19 C180.55145377 22.44854623 175.61754361 23.03498306 171 24.3125 C169.88584717 24.62082764 168.77169434 24.92915527 167.6237793 25.24682617 C122.76885476 37.34694689 71.62445494 39.97465911 26 30 C25.13149414 29.8153418 24.26298828 29.63068359 23.36816406 29.44042969 C-7.0614437 22.9385563 -7.0614437 22.9385563 -11 19 C-9.73336157 16.58105155 -8.46188664 14.16486225 -7.1875 11.75 C-6.83107422 11.06808594 -6.47464844 10.38617188 -6.10742188 9.68359375 C-4.28746373 6.24403982 -2.47369319 3.02773804 0 0 Z " fill="#FB6B52" transform="translate(210,368)"/>
<path d="M0 0 C19.38512129 10.93055126 34.5578894 40.37673996 41.0703125 60.9765625 C41.0703125 62.2965625 41.0703125 63.6165625 41.0703125 64.9765625 C40.36648438 65.10184326 39.66265625 65.22712402 38.9375 65.35620117 C26.37275346 67.61674834 14.03615169 69.89289576 1.94921875 74.05859375 C-0.9296875 74.9765625 -0.9296875 74.9765625 -3.9296875 74.9765625 C-4.1978125 74.18894531 -4.4659375 73.40132813 -4.7421875 72.58984375 C-12.94983301 49.77582909 -27.74279071 33.47590788 -48.9296875 21.9765625 C-44.76508685 11.73762721 -30.21439309 5.07404792 -20.9296875 -0.0234375 C-14.51448396 -2.16183868 -6.40396309 -2.23711777 0 0 Z " fill="#FA846F" transform="translate(226.9296875,17.0234375)"/>
<path d="M0 0 C4.58789423 3.42891048 9.0604481 7.04610423 12.984375 11.23046875 C12.984375 11.89046875 12.984375 12.55046875 12.984375 13.23046875 C11.31344061 14.25261543 9.59381141 15.19522928 7.859375 16.10546875 C-11.61808212 27.24528798 -25.30218644 44.79910718 -32.015625 66.23046875 C-37.17261916 65.16350444 -42.16652931 63.89493362 -47.203125 62.35546875 C-56.9665242 59.49841244 -66.99685601 57.92339847 -77.015625 56.23046875 C-76.42091989 50.64384495 -74.43787244 46.04018559 -72.140625 40.98046875 C-71.74423828 40.10656494 -71.34785156 39.23266113 -70.93945312 38.33227539 C-64.62662377 24.76580937 -56.84779344 12.50339058 -47.015625 1.23046875 C-46.35433594 0.36550781 -45.69304687 -0.49945313 -45.01171875 -1.390625 C-43.113532 -3.65284757 -41.52567633 -5.0095785 -39.015625 -6.51953125 C-38.355625 -6.926875 -37.695625 -7.33421875 -37.015625 -7.75390625 C-24.02480703 -14.350806 -10.74331359 -7.41733956 0 0 Z " fill="#FB846F" transform="translate(402.015625,25.76953125)"/>
<path d="M0 0 C7.34954366 0.75351934 12.15849304 4.76312892 18 9 C18.65355469 9.4640625 19.30710938 9.928125 19.98046875 10.40625 C30.36919683 18.5000809 37.52559309 30.80650037 42 43 C42 44.32 42 45.64 42 47 C41.37134033 47.31638428 40.74268066 47.63276855 40.0949707 47.95874023 C22.84545706 56.68210628 5.94547709 65.73634043 -7.6875 79.765625 C-10 82 -10 82 -12 82 C-18.93763218 54.62113013 -17.20297808 29.04804533 -2.59106445 4.26538086 C-1.73528729 2.83881163 -0.86886181 1.41863789 0 0 Z " fill="#FCECC9" transform="translate(167,51)"/>
<path d="M0 0 C6.13648087 2.79495586 8.81425001 12.57530571 11.1171875 18.56640625 C18.67764037 39.36251055 19.29890907 60.69555773 12.9296875 81.87890625 C8.90782238 78.95877546 5.01749214 76.00644088 1.3671875 72.62890625 C-11.17765764 61.60391735 -26.26262035 54.33196334 -41.0703125 46.87890625 C-37.95824611 30.77147079 -27.55143233 16.34510423 -14.19140625 6.828125 C-11.51686592 5.10801451 -8.83454131 3.45038121 -6.0703125 1.87890625 C-5.38582031 1.46511719 -4.70132813 1.05132812 -3.99609375 0.625 C-2.0703125 -0.12109375 -2.0703125 -0.12109375 0 0 Z " fill="#FCECC9" transform="translate(425.0703125,51.12109375)"/>
<path d="M0 0 C4.13478013 0.94755378 5.44864029 2.29716028 8 5.6875 C8.51317287 9.0253581 8.29007649 12.26518802 8.0625 15.625 C7.62181796 22.54927988 7.75816997 25.91502881 12 31.6875 C13.10344353 38.22702561 12.87521432 45.13967217 9.37890625 50.9140625 C3.99825042 57.83422609 -2.41686812 61.85901326 -11 63.6875 C-22.63355719 65.01920309 -32.57684008 63.08472723 -42 55.9375 C-47.10607385 51.03117476 -49.18546386 45.17124096 -49.625 38.1875 C-49.35077058 30.94581207 -45.6636041 26.28100925 -40.625 21.375 C-33.48683863 16.78618197 -27.5463195 14.51687908 -19 14.5625 C-18.27554688 14.55863281 -17.55109375 14.55476562 -16.8046875 14.55078125 C-13.60717121 14.55668073 -11.05417393 14.66944202 -8 15.6875 C-8.05800781 15.10742188 -8.11601562 14.52734375 -8.17578125 13.9296875 C-8.4190464 9.71772524 -8.47770258 6.59249833 -5.875 3.125 C-3 0.6875 -3 0.6875 0 0 Z " fill="#FC9EA8" transform="translate(231,231.3125)"/>
<path d="M0 0 C2.30275556 1.8670991 3.67823871 3.35647741 5 6 C5.06950541 7.54023996 5.08452357 9.08334988 5.0625 10.625 C5.05347656 11.44226563 5.04445313 12.25953125 5.03515625 13.1015625 C5.02355469 13.72804687 5.01195312 14.35453125 5 15 C5.99 14.67 6.98 14.34 8 14 C19.34114722 12.93008045 29.93535211 14.65095954 39.0625 21.875 C44.12010082 26.85711424 46.22402496 30.86007569 46.5 37.9375 C46.19100614 45.68165867 43.9466476 50.41520382 38.375 55.75 C29.07521501 63.1932345 19.50933103 63.98583537 8 63 C-0.90338817 61.28353543 -7.86059975 56.44593832 -13 49 C-14.80349987 45.30098497 -15.32170979 42.2283461 -15.375 38.125 C-15.40335937 37.13757813 -15.43171875 36.15015625 -15.4609375 35.1328125 C-14.96466009 31.75980844 -13.67737214 29.86489925 -11.90869141 27.01269531 C-10.10487594 23.01735553 -10.48197109 18.62441463 -10.5 14.3125 C-10.53942711 4.76456935 -10.53942711 4.76456935 -8.15625 1.38671875 C-5.19186676 -0.51972337 -3.45809149 -0.57634858 0 0 Z " fill="#FB9EA8" transform="translate(365,232)"/>
<path d="M0 0 C2.76578104 2.02641383 5.34075373 4.24280316 7.91015625 6.5078125 C23.48552712 19.91115266 41.20852595 30.19674285 59.97265625 38.4453125 C59.34614198 41.3077866 58.45095108 43.72612903 57.125 46.3359375 C56.58842773 47.39941406 56.58842773 47.39941406 56.04101562 48.484375 C55.66783203 49.21398437 55.29464844 49.94359375 54.91015625 50.6953125 C54.53310547 51.44039063 54.15605469 52.18546875 53.76757812 52.953125 C52.83954952 54.78568781 51.90658446 56.61574926 50.97265625 58.4453125 C46.38938764 57.82072119 42.6027081 55.97135621 38.53515625 53.8828125 C37.8299585 53.52348633 37.12476074 53.16416016 36.39819336 52.79394531 C34.24982528 51.68974536 32.10956725 50.57150878 29.97265625 49.4453125 C29.36679688 49.12643066 28.7609375 48.80754883 28.13671875 48.47900391 C13.85364073 40.86486305 0.73912118 31.54978031 -11.02734375 20.4453125 C-13.15187997 18.63352527 -15.28499277 16.83394395 -17.43359375 15.05078125 C-19.15945998 13.31222482 -20.05738445 11.68106869 -21.02734375 9.4453125 C-16.29476228 4.71273103 -6.92481125 -1.89464971 0 0 Z " fill="#FB573E" transform="translate(135.02734375,323.5546875)"/>
<path d="M0 0 C3.89581756 -0.02911003 7.791607 -0.04683587 11.6875 -0.0625 C12.79029297 -0.07087891 13.89308594 -0.07925781 15.02929688 -0.08789062 C16.6293457 -0.09272461 16.6293457 -0.09272461 18.26171875 -0.09765625 C19.24100342 -0.10289307 20.22028809 -0.10812988 21.22924805 -0.11352539 C24.01776859 0.00072803 26.34729412 0.11454468 29 1 C30.41870117 2.89501953 30.41870117 2.89501953 31.54296875 5.3828125 C32.18600952 6.75191772 32.18600952 6.75191772 32.84204102 8.14868164 C33.28604248 9.1308667 33.73004395 10.11305176 34.1875 11.125 C40.67454571 24.75955465 48.59619359 36.50312326 57.96875 48.29296875 C59.62634024 50.50202651 60.89566707 52.48524186 62 55 C61.29875 55.21914063 60.5975 55.43828125 59.875 55.6640625 C53.31203841 57.85766107 48.24960373 60.48744665 43 65 C38.23308382 61.63408137 35.16141076 57.56677843 31.8125 52.875 C31.24442627 52.0823877 30.67635254 51.28977539 30.09106445 50.47314453 C24.37230423 42.3424721 19.55563609 33.82385652 15 25 C14.6194043 24.26378418 14.23880859 23.52756836 13.84667969 22.76904297 C7.66403514 10.73601122 7.66403514 10.73601122 5.52734375 5.16796875 C3.87924411 1.7495319 3.3078033 1.3929155 0 0 Z " fill="#F7CDA1" transform="translate(61,257)"/>
<path d="M0 0 C3.30676348 2.9646845 3.84160419 6.82977508 5 11 C6.93731528 13.36410488 6.93731528 13.36410488 10.4375 13.3125 C13.82182001 13.25778028 13.82182001 13.25778028 15.8125 12 C17.04492148 9.92434277 17.42916061 8.34353075 17.9375 6 C18.55237044 3.30746251 18.90352382 2.11791533 20.6875 -0.0625 C24.10958821 -1.44983306 26.47165331 -0.89812461 30 0 C32.26445287 1.32743789 32.83033241 2.40858726 33.546875 4.90625 C33.88437595 6.31761763 34.19418327 7.73596586 34.47265625 9.16015625 C34.9043275 11.2275992 34.9043275 11.2275992 37 13 C41.59319929 13.4771467 41.59319929 13.4771467 45.8125 11.9375 C47.21066512 9.85908755 47.21066512 9.85908755 47.9375 6.5625 C49.06399572 2.78542611 49.78421012 1.23318742 53 -1 C56.53343747 -1.58890625 58.27095134 -1.42208081 61.375 0.375 C63.92352354 4.49184572 63.68776371 8.29200926 63 13 C61.1461266 19.23076975 57.34511495 23.42875836 52 27 C46.42155384 29.72724034 39.6934709 30.03720758 33.71875 28.359375 C31.79150391 27.62587089 29.89368709 26.81624444 28 26 C26.00346663 25.22323499 26.00346663 25.22323499 24 25 C23.030625 25.639375 22.06125 26.27875 21.0625 26.9375 C15.75394398 30.18414907 9.99508102 29.92450834 4 29 C-2.54370589 26.57378158 -6.79263772 22.90794546 -10.16015625 16.83203125 C-12.25430976 12.26385453 -12.7763451 7.9525463 -12 3 C-8.43524977 -1.53695483 -5.36705517 -1.59023857 0 0 Z " fill="#040403" transform="translate(271,253)"/>
<path d="M0 0 C1.36894551 2.43009814 2.5516529 4.77759279 3.6875 7.3125 C4.00783203 7.98990234 4.32816406 8.66730469 4.65820312 9.36523438 C6.26333267 12.8664018 7 15.08951738 7 19 C6.37134033 19.31638428 5.74268066 19.63276855 5.0949707 19.95874023 C-12.15454294 28.68210628 -29.05452291 37.73634043 -42.6875 51.765625 C-45 54 -45 54 -47 54 C-50.34809213 40.78699355 -51.51656513 28.61723071 -51 15 C-50.67 15 -50.34 15 -50 15 C-49.67 18.96 -49.34 22.92 -49 27 C-48.09121094 26.31035156 -47.18242187 25.62070313 -46.24609375 24.91015625 C-34.79462777 16.30962655 -22.98671431 8.9218012 -10.25 2.375 C-9.5701001 2.01962158 -8.8902002 1.66424316 -8.18969727 1.2980957 C-3.35647148 -1.11882383 -3.35647148 -1.11882383 0 0 Z " fill="#F8DAB6" transform="translate(202,79)"/>
<path d="M0 0 C0.33 0.66 0.66 1.32 1 2 C2.82251122 2.74721216 2.82251122 2.74721216 5.01953125 3.33984375 C9.92548891 4.88985882 14.22157905 7.03080662 18.6875 9.5625 C19.46134033 9.99651123 20.23518066 10.43052246 21.0324707 10.87768555 C28.40824186 15.09317051 35.19722386 19.92139046 42 25 C42.63478271 25.41975098 43.26956543 25.83950195 43.92358398 26.27197266 C45.66986488 27.43733929 47.34093345 28.71350299 49 30 C50.56360933 38.52877816 47.12719078 47.72864656 45 56 C40.97813488 53.07986921 37.08780464 50.12753463 33.4375 46.75 C20.89265486 35.7250111 5.80769215 28.45305709 -9 21 C-7.97255888 15.52437003 -6.75575701 10.87482294 -3.9375 6 C-3.41027344 5.071875 -2.88304687 4.14375 -2.33984375 3.1875 C-1 1 -1 1 0 0 Z " fill="#F9DBB7" transform="translate(393,77)"/>
<path d="M0 0 C0.33 0.66 0.66 1.32 1 2 C3.11422198 2.35996868 3.11422198 2.35996868 5.6875 2.4375 C18.28824004 3.39431295 33.54598141 6.2729907 45 12 C42.33333333 18.66666667 39.66666667 25.33333333 37 32 C31.84300584 30.93303569 26.84909569 29.66446487 21.8125 28.125 C12.0491008 25.26794369 2.01876899 23.69292972 -8 22 C-7.40644629 16.69981613 -5.62627368 12.41863107 -3.4375 7.625 C-3.10814453 6.88894531 -2.77878906 6.15289062 -2.43945312 5.39453125 C-1.63252195 3.59355443 -0.8171174 1.79637819 0 0 Z " fill="#F96A52" transform="translate(333,60)"/>
<path d="M0 0 C2.79351083 3.35556856 4.49822409 7.01247464 6.1875 11 C6.46013672 11.61617187 6.73277344 12.23234375 7.01367188 12.8671875 C8.44449049 16.20935029 9 18.29378002 9 22 C8.29617188 22.12528076 7.59234375 22.25056152 6.8671875 22.37963867 C-5.69755904 24.64018584 -18.03416081 26.91633326 -30.12109375 31.08203125 C-33 32 -33 32 -36 32 C-36.48919922 30.67935547 -36.48919922 30.67935547 -36.98828125 29.33203125 C-37.42527344 28.17058594 -37.86226562 27.00914063 -38.3125 25.8125 C-38.74175781 24.66394531 -39.17101562 23.51539062 -39.61328125 22.33203125 C-40.85821463 19.34068429 -42.32736856 16.76155865 -44 14 C-44 13.34 -44 12.68 -44 12 C-36.04458014 8.88109106 -28.07827225 6.63492074 -19.75 4.75 C-18.61820313 4.481875 -17.48640625 4.21375 -16.3203125 3.9375 C-10.76994601 2.6636454 -5.69853545 1.63766538 0 2 C0 1.34 0 0.68 0 0 Z " fill="#FA6B52" transform="translate(259,60)"/>
<path d="M0 0 C0.66 0.33 1.32 0.66 2 1 C1.46632812 1.54785156 0.93265625 2.09570312 0.3828125 2.66015625 C-10.5103293 14.25060989 -21.93345351 29.80036054 -27 45 C-28.63891602 45.82788086 -28.63891602 45.82788086 -30.75390625 46.46484375 C-31.9130957 46.82932617 -31.9130957 46.82932617 -33.09570312 47.20117188 C-33.90974609 47.44416016 -34.72378906 47.68714844 -35.5625 47.9375 C-40.40214931 49.40802407 -44.9764553 50.8935718 -49.46484375 53.25390625 C-50.63144531 53.83011719 -51.79804688 54.40632813 -53 55 C-53.66 54.67 -54.32 54.34 -55 54 C-50.62689517 46.04641559 -45.88829799 38.90473038 -40 32 C-39.4121875 31.28972656 -38.824375 30.57945312 -38.21875 29.84765625 C-28.44202812 18.27112875 -13.92385403 6.2144359 0 0 Z " fill="#F86A51" transform="translate(200,118)"/>
<path d="M0 0 C2.64870655 1.99821538 4.66040953 3.59546807 5.46508789 6.92358398 C5.63707001 9.13628393 5.63336601 11.28208554 5.5625 13.5 C5.57345703 14.24636719 5.58441406 14.99273437 5.59570312 15.76171875 C5.54434659 19.63057779 5.24300495 21.61088448 3.1484375 24.96484375 C0.37559175 27.5914849 -1.18981845 28.07775881 -5 28 C-7.65625 26.62109375 -7.65625 26.62109375 -10 24 C-10.72696626 20.65442876 -10.652628 17.41024883 -10.5625 14 C-10.57345703 13.09765625 -10.58441406 12.1953125 -10.59570312 11.265625 C-10.52321286 4.73183571 -10.52321286 4.73183571 -8.1484375 1.41015625 C-5.14955625 -0.55820035 -3.51984471 -0.64650209 0 0 Z " fill="#090807" transform="translate(234,232)"/>
<path d="M0 0 C2.15234375 1.40625 2.15234375 1.40625 4 4 C4.62320874 7.34107009 4.603668 10.60969388 4.5625 14 C4.58634766 14.90234375 4.61019531 15.8046875 4.63476562 16.734375 C4.62018985 23.30319238 4.62018985 23.30319238 1.66015625 26.62890625 C-1 28 -1 28 -4.125 27.9375 C-7.10298668 26.96641739 -8.11260109 26.41541919 -10 24 C-10.62758159 20.71799479 -10.46346507 17.39783075 -10.4375 14.0625 C-10.4674707 12.7022168 -10.4674707 12.7022168 -10.49804688 11.31445312 C-10.49317701 4.69631149 -10.49317701 4.69631149 -8.16015625 1.40234375 C-5.19508424 -0.52254025 -3.46793874 -0.57798979 0 0 Z " fill="#040303" transform="translate(365,232)"/>
</svg>
