<?xml version="1.0" encoding="UTF-8"?>
<svg version="1.1" xmlns="http://www.w3.org/2000/svg" width="512" height="512">
<path d="M0 0 C0.99610291 0.00131424 0.99610291 0.00131424 2.0123291 0.00265503 C30.0632254 0.12442858 57.0439118 8.80756517 78.3125 27.64453125 C80.52623266 29.537194 80.52623266 29.537194 82.7578125 29.50390625 C83.45648438 29.31699219 84.15515625 29.13007813 84.875 28.9375 C86.17824219 28.61265625 86.17824219 28.61265625 87.5078125 28.28125 C88.57773438 27.9821875 89.64765625 27.683125 90.75 27.375 C93.74783051 26.55438905 96.74832646 25.7439333 99.75 24.9375 C100.56202881 24.71811768 101.37405762 24.49873535 102.21069336 24.27270508 C110.62471113 22.05008777 119.13199094 20.55598298 127.75 19.375 C128.96768066 19.20226562 130.18536133 19.02953125 131.43994141 18.8515625 C135.88563856 18.30296844 140.28609776 18.19681368 144.76171875 18.171875 C145.60392471 18.16486069 146.44613068 18.15784637 147.31385803 18.15061951 C150.0217935 18.13318454 152.72951044 18.1267659 155.4375 18.125 C156.36139526 18.12432526 157.28529053 18.12365051 158.23718262 18.12295532 C171.62691917 18.13852208 184.62570622 18.48302166 197.75 21.375 C198.6457373 21.56787598 199.54147461 21.76075195 200.46435547 21.95947266 C209.28093302 23.88928148 217.96043928 26.01884545 226.5168457 28.90429688 C229.01441503 29.43073327 230.37183891 29.25024929 232.75 28.375 C234.84430659 26.82241322 234.84430659 26.82241322 237 24.875 C257.34503961 8.20461512 283.5898622 0.21054483 309.60107422 0.13476562 C311.61337584 0.12505609 313.62465556 0.09396153 315.63671875 0.0625 C327.73420159 0.0142548 336.46748627 1.97020162 345.3125 10.625 C350.29627177 16.54598549 351.96201687 24.00880504 353.75 31.375 C353.9975 32.38046875 354.245 33.3859375 354.5 34.421875 C360.2888688 64.17022856 353.8538277 95.76695347 337.91015625 121.32421875 C336.3262533 125.48929689 337.28032973 127.3956847 338.875 131.5 C339.36642342 132.83739126 339.85467768 134.17595106 340.33984375 135.515625 C340.58331543 136.17240234 340.82678711 136.82917969 341.07763672 137.50585938 C350.93730429 164.91530561 349.11596212 199.38352543 336.8125 225.58203125 C322.61669398 254.47031795 298.89712002 271.45746615 270.75 285.375 C271.16967041 285.89674805 271.58934082 286.41849609 272.02172852 286.95605469 C278.6084628 295.2278181 282.4410919 303.66307558 281.75 314.375 C280.76071688 320.36515466 279.42155672 324.95005736 275.3125 329.5 C270.83152417 334.75129033 270.06065261 340.45307023 268.69921875 347.02734375 C266.53085479 357.40761506 262.39758813 366.58971615 257.0078125 375.6328125 C255.58850816 378.1851597 255.58850816 378.1851597 255.82421875 380.4375 C257.05085438 383.00463616 258.66286281 385.02578806 260.4375 387.25 C267.98537665 397.38082046 271.69385858 409.61246997 275.53515625 421.5234375 C275.96247382 422.83290747 276.39033828 424.14219907 276.81871033 425.45132446 C277.93216289 428.85935237 279.03779276 432.26986696 280.14178467 435.68096924 C281.2539981 439.11193867 282.37463423 442.54015494 283.49414062 445.96875 C295.75 483.53754665 295.75 483.53754665 295.75 486.375 C296.51563766 486.36611755 297.28127533 486.35723511 298.07011414 486.3480835 C305.29414769 486.26785403 312.51796449 486.20699366 319.74232769 486.16775131 C323.45626049 486.14689788 327.16982441 486.11862245 330.88354492 486.07324219 C334.46917648 486.02970254 338.0544538 486.005846 341.64032936 485.99549103 C343.00667712 485.98811406 344.37300602 485.97370819 345.7392025 485.95207977 C347.65626405 485.92294428 349.57368391 485.92136524 351.4909668 485.92089844 C352.58128708 485.91201599 353.67160736 485.90313354 354.79496765 485.89398193 C358.4643979 486.49128918 360.11942059 487.79714588 362.75 490.375 C363.92399661 493.42739119 363.87895719 494.91290342 363 498.0625 C361.75 500.375 361.75 500.375 358.75 502.375 C355.99319458 502.61309814 355.99319458 502.61309814 352.61376953 502.59863281 C351.34880646 502.59913635 350.08384338 502.59963989 348.7805481 502.60015869 C348.10488926 502.5962336 347.42923042 502.5923085 346.73309708 502.58826447 C344.61417437 502.57803502 342.49583956 502.5834244 340.37692261 502.59368896 C334.3532274 502.62165698 328.32986295 502.63416386 322.30615234 502.60498047 C318.61945597 502.58823865 314.93381083 502.60058429 311.24721909 502.63143158 C309.8446484 502.63752994 308.44198478 502.63268128 307.03949356 502.61655426 C299.63920911 502.19464276 299.63920911 502.19464276 292.96185303 504.6541748 C291.52281684 506.43764325 291.52281684 506.43764325 289.75 509.375 C278.92893814 516.087146 262.73418233 511.84105891 250.75 510.109375 C249.0586831 509.87169812 247.36727469 509.63467164 245.67578125 509.39825439 C242.15526819 508.90383213 238.63589002 508.40216211 235.1171875 507.89501953 C230.65148675 507.25190575 226.18353821 506.62635539 221.71459961 506.00619125 C218.22850113 505.52053169 214.74372993 505.02582951 211.25927734 504.52851105 C209.61414711 504.29469363 207.96864767 504.06345618 206.32275391 503.83507538 C178.01988812 499.88985231 159.50319453 489.7758044 138.19140625 471.17114258 C135.17087353 468.48697216 135.17087353 468.48697216 131.75 466.375 C131.4096875 468.293125 131.4096875 468.293125 131.0625 470.25 C128.76479669 480.27491102 124.24785961 487.47408629 115.75 493.375 C107.75847566 498.0821541 99.00870033 498.80556007 90.015625 496.75 C81.49203231 493.78527211 74.91096641 488.18752424 70.75 480.1875 C65.30460239 468.48367667 68.36589315 458.15323123 72.125 446.5 C74.87803025 437.86685622 77.43135871 429.36658778 78.75 420.375 C75.95242288 417.23246117 73.67226011 415.06571336 69.75 413.375 C65.97025447 413.3346602 62.37003756 414.22026531 58.69116211 415.00732422 C42.45589924 418.4613509 28.25379973 413.4460792 13.83666992 406.19311523 C6.53811704 402.57391884 -0.17439785 401.02303297 -8.3125 401.0625 C-8.98087891 401.04638672 -9.64925781 401.03027344 -10.33789062 401.01367188 C-15.44365131 401.00871001 -18.85152021 401.94168259 -23.25 404.375 C-24.82450105 406.32956665 -24.82450105 406.32956665 -25.6875 408.625 C-28.56899064 414.45455037 -32.77072564 418.67237638 -38.63671875 421.54296875 C-44.68798651 423.46960557 -51.79005954 423.43203975 -57.625 420.8125 C-63.31675883 417.46859169 -67.19550136 412.6221633 -69.25 406.375 C-70.63796684 396.30858784 -68.01095456 387.94561888 -62.3828125 379.609375 C-52.02201043 366.14436375 -39.14290555 360.22222895 -23.25 355.375 C-23.78109375 354.95089844 -24.3121875 354.52679688 -24.859375 354.08984375 C-31.38499086 348.6716773 -34.93261857 343.65711972 -37.25 335.375 C-37.29258727 333.10456604 -37.29077158 330.83296729 -37.25 328.5625 C-37.59187121 322.95109676 -38.4153795 320.33389502 -42.625 316.5625 C-44.47659976 315.13577157 -46.35243818 313.7400036 -48.25 312.375 C-50.00815376 310.94748411 -51.75808592 309.50978766 -53.5 308.0625 C-54.41265625 307.32386719 -55.3253125 306.58523438 -56.265625 305.82421875 C-59.63761363 303.056893 -62.94665446 300.2235306 -66.25 297.375 C-70.37455611 293.82032786 -74.52208312 290.3070737 -78.75 286.875 C-83.59311233 282.94353235 -88.32624181 278.89620602 -93.04980469 274.82299805 C-96.65565003 271.72060475 -100.30203792 268.6803422 -104 265.6875 C-125.02612771 248.53787076 -125.02612771 248.53787076 -127.25 236.375 C-128.34394266 223.58120718 -126.8667948 212.99981393 -118.4296875 202.87890625 C-117.35074219 201.63947266 -117.35074219 201.63947266 -116.25 200.375 C-115.31418784 199.28073089 -114.37936299 198.18561698 -113.4453125 197.08984375 C-111.37935513 194.67100753 -109.30499411 192.25968306 -107.2265625 189.8515625 C-104.6857348 186.89774948 -102.20472852 183.90101079 -99.75 180.875 C-95.82020486 176.03394801 -91.77583205 171.30168187 -87.70239258 166.58178711 C-84.5478561 162.91772211 -81.47020383 159.20383917 -78.4375 155.4375 C-71.54432197 147.024858 -64.52976808 139.35249065 -53.25 137.375 C-44.85360152 136.90247541 -36.94341994 136.52829003 -29.25 140.375 C-28.95996094 139.28832031 -28.95996094 139.28832031 -28.6640625 138.1796875 C-28.40367188 137.21289062 -28.14328125 136.24609375 -27.875 135.25 C-27.61976562 134.29867187 -27.36453125 133.34734375 -27.1015625 132.3671875 C-26.25 129.375 -26.25 129.375 -24.9296875 126.41015625 C-23.92124493 123.2984769 -23.92124493 123.2984769 -25.59375 120.25390625 C-26.3053125 119.15949219 -27.016875 118.06507812 -27.75 116.9375 C-43.4068915 91.55435771 -47.85884981 58.59293175 -41.16015625 29.6171875 C-38.05683849 18.56245042 -34.67792014 9.63990294 -24.5703125 3.3828125 C-16.56701909 -0.09336545 -8.60374769 -0.01240199 0 0 Z " fill="#020101" transform="translate(138.25,-0.375)"/>
<path d="M0 0 C1.19351074 0.16943115 1.19351074 0.16943115 2.41113281 0.34228516 C30.76051438 4.63433786 58.83312653 16.15136475 82 33 C83.04800781 33.7321875 84.09601563 34.464375 85.17578125 35.21875 C100.6854969 46.4985432 114.19237465 60.50443894 124 77 C124.40009277 77.66290039 124.80018555 78.32580078 125.21240234 79.00878906 C136.52864034 98.06626885 142.43839133 118.50879091 142.375 140.625 C142.37418427 141.69281204 142.37418427 141.69281204 142.37335205 142.78219604 C142.33604206 153.38793483 141.72519678 162.96973413 138 173 C137.559819 174.28512994 137.11971732 175.57028704 136.6796875 176.85546875 C127.13604304 203.53769985 105.42328044 221.24302361 80.609375 233.12890625 C55.47315509 244.84372797 28.8342319 250.86243282 1.2409668 252.9753418 C0.08894775 253.06984619 -1.06307129 253.16435059 -2.25 253.26171875 C-3.26578125 253.33350342 -4.2815625 253.40528809 -5.328125 253.47924805 C-8.34926241 254.0680717 -9.83264186 254.82661437 -12 257 C-12.63696749 261.623176 -12.63696749 261.623176 -10.75073242 265.70043945 C-8.52561754 267.3521319 -7.30068947 267.34833603 -4.55078125 267.29296875 C-3.70322266 267.28330078 -2.85566406 267.27363281 -1.98242188 267.26367188 C-0.66081055 267.2259668 -0.66081055 267.2259668 0.6875 267.1875 C2.02651367 267.16719727 2.02651367 267.16719727 3.39257812 267.14648438 C5.59566166 267.11114079 7.79752582 267.06180493 10 267 C7.3279251 268.45072517 5.03292613 269.31923015 2.03125 269.78125 C1.29519531 269.90113281 0.55914062 270.02101563 -0.19921875 270.14453125 C-1.73307292 270.38151042 -3.26692708 270.61848958 -4.80078125 270.85546875 C-9.15700327 271.53355639 -9.15700327 271.53355639 -13.21875 273.15625 C-15.87054244 274.41236221 -17.26294559 273.96504046 -20 273 C-22.5078125 271.03125 -22.5078125 271.03125 -25.125 268.5 C-26.09940724 267.57714609 -27.07602525 266.65662161 -28.0546875 265.73828125 C-28.54678711 265.27502441 -29.03888672 264.81176758 -29.54589844 264.33447266 C-31.70338915 262.35447866 -33.96885109 260.52263323 -36.25 258.6875 C-40.68268586 255.10604116 -45.01412219 251.42768264 -49.3125 247.6875 C-50.26286133 246.86076782 -50.26286133 246.86076782 -51.23242188 246.01733398 C-52.51848455 244.89821841 -53.80445448 243.77899624 -55.09033203 242.65966797 C-62.13272391 236.5392154 -69.19002801 230.43969663 -76.4375 224.5625 C-82.76905376 219.41927305 -88.89873831 214.04978452 -95.05078125 208.69482422 C-98.29766144 205.87169768 -101.55237401 203.05781486 -104.8125 200.25 C-105.40522705 199.73655029 -105.9979541 199.22310059 -106.60864258 198.6940918 C-109.61308044 196.07108533 -109.61308044 196.07108533 -113 194 C-112.67 193.01 -112.34 192.02 -112 191 C-109.12890625 189.61328125 -109.12890625 189.61328125 -105.5625 188.3125 C-104.38816406 187.87550781 -103.21382813 187.43851563 -102.00390625 186.98828125 C-99 186 -99 186 -97 186 C-96.83197949 184.54182203 -96.66562857 183.0834516 -96.5 181.625 C-96.4071875 180.81289062 -96.314375 180.00078125 -96.21875 179.1640625 C-95.96647649 177.03087175 -95.96647649 177.03087175 -96 175 C-103.26268468 172.57910511 -108.66313616 174.23798724 -115.25 177.4375 C-124.06263807 181.57354296 -124.06263807 181.57354296 -127 182 C-129.55078125 180.12109375 -129.55078125 180.12109375 -132.3125 177.4375 C-133.28313391 176.51096362 -134.25448832 175.58518145 -135.2265625 174.66015625 C-136.14179688 173.78230469 -137.05703125 172.90445313 -138 172 C-140.30719502 169.96633841 -142.65009271 167.98436616 -145 166 C-141.24696596 162.24696596 -136.85888436 162.85839372 -131.75 162.7890625 C-130.32290496 162.76100606 -128.89582176 162.73234168 -127.46875 162.703125 C-125.23047061 162.66182107 -122.99241546 162.62491096 -120.75390625 162.59863281 C-118.58548082 162.57100349 -116.41804354 162.52515376 -114.25 162.4765625 C-112.95578125 162.45674316 -111.6615625 162.43692383 -110.328125 162.41650391 C-106.84962282 161.98118079 -105.37664241 161.54356625 -103 159 C-102.33333333 155.5 -102.33333333 155.5 -103 152 C-105.23011369 149.71731254 -106.60928646 149.05220697 -109.78637695 148.62768555 C-110.84300537 148.6306665 -111.89963379 148.63364746 -112.98828125 148.63671875 C-114.16326172 148.63583252 -115.33824219 148.63494629 -116.54882812 148.6340332 C-117.79083984 148.65167725 -119.03285156 148.66932129 -120.3125 148.6875 C-121.57384766 148.6980542 -122.83519531 148.7086084 -124.13476562 148.71948242 C-140.06974645 148.09293054 -140.06974645 148.09293054 -154 154 C-154.66 154.99 -155.32 155.98 -156 157 C-157.32048761 155.88266433 -158.64096924 154.7653216 -159.96142578 153.64794922 C-161.12766849 152.66117922 -162.29401223 151.67452862 -163.46044922 150.68798828 C-166.43298668 148.1736209 -169.40415862 145.65769546 -172.37109375 143.13671875 C-178.27159923 138.12648971 -184.20784505 133.1687235 -190.2109375 128.28125 C-195.17108335 124.22421194 -200.0836079 120.10986355 -205 116 C-201.39982795 94.77398562 -190.04182204 75.08850828 -176 59 C-174.73542969 57.53626953 -174.73542969 57.53626953 -173.4453125 56.04296875 C-167.49662057 49.28454633 -161.15980857 43.48985322 -154 38 C-153.07703125 37.26136719 -152.1540625 36.52273437 -151.203125 35.76171875 C-143.27789345 29.56076055 -134.8619946 24.72035432 -126 20 C-125.00355469 19.45472656 -124.00710937 18.90945312 -122.98046875 18.34765625 C-105.33241672 9.04231973 -85.56963216 3.40253893 -66 0 C-64.27523437 -0.31130859 -64.27523437 -0.31130859 -62.515625 -0.62890625 C-42.08403124 -3.76379671 -20.42104291 -2.91318298 0 0 Z " fill="#FEDB9B" transform="translate(327,35)"/>
<path d="M0 0 C10.45171278 4.68525055 19.48784016 14.8520511 28.09033203 22.34033203 C35.13272391 28.4607846 42.19002801 34.56030337 49.4375 40.4375 C54.48933717 44.53979949 59.4030598 48.78701978 64.31005859 53.06005859 C68.89096638 57.04703759 73.50741507 60.98811681 78.15136719 64.90136719 C82.16384184 68.28481948 86.14710388 71.70100184 90.125 75.125 C94.18620876 78.61823856 98.27518971 82.06448707 102.4375 85.4375 C107.05445339 89.18619052 111.56898737 93.04262352 116.0625 96.9375 C116.71855225 97.505896 117.37460449 98.07429199 118.05053711 98.65991211 C120.42736379 100.72719276 122.77177798 102.77177798 125 105 C124.6730244 107.61580479 124.17960932 109.64078137 123 112 C122.20031392 122.48768626 122.78383834 131.63249994 129.25 140.3125 C136.70730351 147.60031934 144.09947174 150.34543834 154.375 150.25 C155.2 150.25773438 156.025 150.26546875 156.875 150.2734375 C161.9539261 150.25731393 166.11155645 149.49864693 171 148 C173.53515625 147.546875 173.53515625 147.546875 176 148 C178.32978471 149.6781591 180.33911255 151.31887961 182.4375 153.25 C183.67529863 154.35340623 184.91359473 155.45625459 186.15234375 156.55859375 C186.7851123 157.12819824 187.41788086 157.69780273 188.06982422 158.28466797 C189.95951138 159.96401808 191.87824147 161.599624 193.81640625 163.22265625 C194.74271851 164.00044434 194.74271851 164.00044434 195.68774414 164.79394531 C196.85757507 165.77418893 198.02977543 166.75161502 199.20483398 167.72558594 C203.24471805 171.1462177 206.65962232 174.89750462 210 179 C209.23816406 179.88300781 208.47632813 180.76601563 207.69140625 181.67578125 C202.90280707 187.23753968 198.12556687 192.80109717 193.5 198.5 C190.06791694 202.72792841 186.55441203 206.87520938 183 211 C177.9006703 216.92049735 172.87557271 222.8925947 168 229 C167.4328125 229.69867188 166.865625 230.39734375 166.28125 231.1171875 C164.40063547 233.88077348 164.52426312 235.73780426 165 239 C166.47993156 241.56338689 166.47993156 241.56338689 169 243 C172.19757388 243.21317159 174.07071972 242.71706483 176.625 240.74609375 C181.00459969 236.53883942 184.74967123 231.73642484 188.5546875 227.015625 C192.4800712 222.17473647 196.53044702 217.44106337 200.56640625 212.69238281 C202.03956376 210.95329428 203.50503734 209.20798037 204.96875 207.4609375 C205.45553223 206.88134277 205.94231445 206.30174805 206.44384766 205.70458984 C207.3671787 204.60484618 208.28885368 203.50370897 209.20849609 202.40087891 C211.99417624 199.08963872 214.90548459 196.01687524 218 193 C221.48781956 200.32693893 224.12870335 207.86924812 226.6875 215.5625 C227.09033203 216.74263672 227.49316406 217.92277344 227.90820312 219.13867188 C232.00627195 231.4054206 232.00627195 231.4054206 232 237 C230.515625 239.73046875 230.515625 239.73046875 228.25 242.1875 C227.41726563 243.12207031 226.58453125 244.05664062 225.7265625 245.01953125 C225.27958008 245.50502441 224.83259766 245.99051758 224.37207031 246.49072266 C222.04396705 249.05163624 219.84610574 251.72145955 217.625 254.375 C216.70416017 255.46311646 215.78227283 256.55034726 214.859375 257.63671875 C214.39466797 258.18376465 213.92996094 258.73081055 213.45117188 259.29443359 C211.93261868 261.07919346 210.41167668 262.86190045 208.890625 264.64453125 C208.13338135 265.53422607 208.13338135 265.53422607 207.36083984 266.44189453 C206.38895863 267.58368728 205.41539203 268.72404812 204.43994141 269.86279297 C201.96098553 272.75345812 201.96098553 272.75345812 200 276 C184.55191424 274.67488203 169.30240176 272.48059226 154 270 C154.32379639 269.21971436 154.64759277 268.43942871 154.98120117 267.63549805 C156.4613857 263.80645611 156.33523685 261.08988954 156 257 C152.37337007 254.58224671 151.27415095 254.19355643 147 255 C144.78917934 256.98931261 142.85718504 259.08342722 140.9296875 261.34765625 C139 263 139 263 137.140625 263.02734375 C134.08921007 261.56288731 131.51441144 259.59001938 128.875 257.5 C128.30023926 257.05148682 127.72547852 256.60297363 127.13330078 256.14086914 C122.73493207 252.67139779 118.56469414 248.99158466 114.44140625 245.19921875 C111.95939064 242.96341909 109.40998749 240.85017766 106.8125 238.75 C102.29059061 235.09153866 97.88221101 231.32307284 93.5 227.5 C89.21793708 223.76584832 84.91668165 220.07540896 80.5 216.5 C74.17126255 211.37137869 68.05294166 206.00725329 61.90966797 200.65966797 C54.86727609 194.5392154 47.80997199 188.43969663 40.5625 182.5625 C34.21723119 177.40813208 28.07490552 172.02637235 21.90966797 166.65966797 C13.97266952 159.76172429 5.98432186 152.9411882 -2.1796875 146.3125 C-7.50950132 141.94234795 -12.7499838 137.46543508 -18 133 C-13.7823238 125.26557945 -9.31352145 117.91976842 -4.1875 110.75 C2.20940682 101.65584963 5.46202285 93.33067706 4 82 C1.92599066 74.37060851 -2.79810477 67.60918918 -9.53515625 63.42578125 C-17.35579328 59.40604292 -24.85013956 57.37917835 -33.59375 59.68359375 C-43.87023736 63.50555896 -49.9213272 69.49575345 -55.75 78.625 C-62.39315719 88.83088083 -62.39315719 88.83088083 -66 92 C-67.98 90.35 -69.96 88.7 -72 87 C-66.90745829 79.9270254 -61.25645275 73.3996218 -55.5625 66.8125 C-53.13087632 63.99181653 -50.7188181 61.15478231 -48.3125 58.3125 C-47.85713867 57.77463867 -47.40177734 57.23677734 -46.93261719 56.68261719 C-44.10805015 53.33671694 -41.32452937 49.96039225 -38.5625 46.5625 C-34.60491812 41.69870975 -30.53457554 36.94118769 -26.44165039 32.19165039 C-22.67685855 27.81386017 -19.01132731 23.36415557 -15.375 18.87890625 C-11.94918724 14.72623518 -8.42917972 10.65570421 -4.89648438 6.59375 C-2.16020822 3.49768353 -2.16020822 3.49768353 0 0 Z " fill="#F4D040" transform="translate(174,215)"/>
<path d="M0 0 C5.81414933 4.18618752 11.23793634 8.72257471 16.65283203 13.40332031 C20.22699307 16.48970678 23.83164709 19.52522046 27.5 22.5 C32.34596789 26.4337857 37.08098528 30.48447759 41.80859375 34.55859375 C45.33317903 37.58958284 48.89048832 40.56992581 52.5 43.5 C57.34596789 47.4337857 62.08098528 51.48447759 66.80859375 55.55859375 C70.33317903 58.58958284 73.89048832 61.56992581 77.5 64.5 C82.34596789 68.4337857 87.08098528 72.48447759 91.80859375 76.55859375 C95.33317903 79.58958284 98.89048832 82.56992581 102.5 85.5 C107.34596789 89.4337857 112.08098528 93.48447759 116.80859375 97.55859375 C120.33317903 100.58958284 123.89048832 103.56992581 127.5 106.5 C132.3407223 110.42952752 137.07081372 114.47559576 141.79321289 118.54541016 C146.32905458 122.44612159 150.93409953 126.24797802 155.578125 130.01953125 C158.7662865 132.62662461 161.8878767 135.30282648 165 138 C163.93542643 140.23097591 163.0033899 141.99608857 161.375 143.875 C159.48519415 146.79560904 159.50199607 148.58511593 160 152 C161.47993156 154.56338689 161.47993156 154.56338689 164 156 C167.19757388 156.21317159 169.07071972 155.71706483 171.625 153.74609375 C176.00459969 149.53883942 179.74967123 144.73642484 183.5546875 140.015625 C187.4800712 135.17473647 191.53044702 130.44106337 195.56640625 125.69238281 C197.03956376 123.95329428 198.50503734 122.20798037 199.96875 120.4609375 C200.45553223 119.88134277 200.94231445 119.30174805 201.44384766 118.70458984 C202.3671787 117.60484618 203.28885368 116.50370897 204.20849609 115.40087891 C206.99417624 112.08963872 209.90548459 109.01687524 213 106 C216.48781956 113.32693893 219.12870335 120.86924812 221.6875 128.5625 C222.09033203 129.74263672 222.49316406 130.92277344 222.90820312 132.13867188 C227.00627195 144.4054206 227.00627195 144.4054206 227 150 C225.515625 152.73046875 225.515625 152.73046875 223.25 155.1875 C222.00089844 156.58935547 222.00089844 156.58935547 220.7265625 158.01953125 C220.05608887 158.747771 220.05608887 158.747771 219.37207031 159.49072266 C217.04396705 162.05163624 214.84610574 164.72145955 212.625 167.375 C211.70416017 168.46311646 210.78227283 169.55034726 209.859375 170.63671875 C209.39466797 171.18376465 208.92996094 171.73081055 208.45117188 172.29443359 C206.93261868 174.07919346 205.41167668 175.86190045 203.890625 177.64453125 C203.3857959 178.23766113 202.8809668 178.83079102 202.36083984 179.44189453 C201.38895863 180.58368728 200.41539203 181.72404812 199.43994141 182.86279297 C196.96098553 185.75345812 196.96098553 185.75345812 195 189 C179.55191424 187.67488203 164.30240176 185.48059226 149 183 C149.32379639 182.21971436 149.64759277 181.43942871 149.98120117 180.63549805 C151.4613857 176.80645611 151.33523685 174.08988954 151 170 C147.37337007 167.58224671 146.27415095 167.19355643 142 168 C139.78917934 169.98931261 137.85718504 172.08342722 135.9296875 174.34765625 C134 176 134 176 132.140625 176.02734375 C129.08921007 174.56288731 126.51441144 172.59001938 123.875 170.5 C123.01285889 169.82723022 123.01285889 169.82723022 122.13330078 169.14086914 C117.73493207 165.67139779 113.56469414 161.99158466 109.44140625 158.19921875 C106.95939064 155.96341909 104.40998749 153.85017766 101.8125 151.75 C97.29059061 148.09153866 92.88221101 144.32307284 88.5 140.5 C84.21793708 136.76584832 79.91668165 133.07540896 75.5 129.5 C69.17126255 124.37137869 63.05294166 119.00725329 56.90966797 113.65966797 C49.86727609 107.5392154 42.80997199 101.43969663 35.5625 95.5625 C29.21723119 90.40813208 23.07490552 85.02637235 16.90966797 79.65966797 C8.97266952 72.76172429 0.98432186 65.9411882 -7.1796875 59.3125 C-12.50950132 54.94234795 -17.7499838 50.46543508 -23 46 C-18.78251713 38.26593399 -14.31600076 30.91776968 -9.1875 23.75 C-5.16234888 18.06687482 -2.17610855 12.97736307 -1 6 C-0.773125 4.80375 -0.54625 3.6075 -0.3125 2.375 C-0.209375 1.59125 -0.10625 0.8075 0 0 Z " fill="#F4D040" transform="translate(179,302)"/>
<path d="M0 0 C5.67747181 3.51414177 10.62721852 8.09415089 15.61328125 12.5078125 C17.91382782 14.54314861 20.24994908 16.45984008 22.75 18.25 C21.04957897 22.39413986 18.10850595 25.49383235 15.1875 28.8125 C14.09144897 30.07335107 12.99640511 31.33507833 11.90234375 32.59765625 C11.09385986 33.52989014 11.09385986 33.52989014 10.26904297 34.48095703 C8.21864567 36.86880319 6.23066779 39.30414785 4.25 41.75 C0.81791987 45.9779248 -2.69551171 50.1252789 -6.25 54.25 C-10.57172863 59.26591689 -14.80479196 64.34175299 -18.98046875 69.48046875 C-22.86862132 74.22521948 -26.84879537 78.89184121 -30.82080078 83.56640625 C-32.76258713 85.85382658 -34.69919915 88.14560265 -36.63598633 90.43725586 C-40.82254799 95.39048207 -45.01985984 100.33389117 -49.25 105.25 C-53.63648368 103.8247887 -56.29164598 101.65188202 -59.625 98.5 C-62.73617029 95.5772586 -65.82562395 92.75350784 -69.1875 90.125 C-73.33384577 86.56671769 -75.75725531 82.44724109 -76.59375 77.01953125 C-76.95963747 68.16200532 -73.47712638 61.81226912 -67.625 55.4375 C-66.53801423 54.21316946 -65.45208546 52.98789972 -64.3671875 51.76171875 C-63.83448242 51.16536621 -63.30177734 50.56901367 -62.75292969 49.95458984 C-60.68341843 47.60739563 -58.71428223 45.18556606 -56.75 42.75 C-52.81853235 37.90688767 -48.77120602 33.17375819 -44.69799805 28.45019531 C-41.59560475 24.84434997 -38.5553422 21.19796208 -35.5625 17.5 C-34.12825979 15.74732739 -32.69079343 13.99728949 -31.25 12.25 C-30.49976563 11.33863281 -29.74953125 10.42726562 -28.9765625 9.48828125 C-21.24260965 0.4477391 -11.98507577 -5.93694848 0 0 Z " fill="#FD8FA9" transform="translate(102.25,153.75)"/>
<path d="M0 0 C1.05380859 1.06541016 1.05380859 1.06541016 2.12890625 2.15234375 C14.95318573 14.96762058 28.93079003 26.59202949 43 38 C44.21398067 38.99555867 45.42749224 39.99168954 46.640625 40.98828125 C80.46357769 68.71712205 116.26970296 93.55682175 153.50341797 116.45996094 C157.45001004 118.89445172 161.38199244 121.35215173 165.3125 123.8125 C165.99473633 124.23942139 166.67697266 124.66634277 167.37988281 125.10620117 C168.9201728 126.07040004 170.4601298 127.03513084 172 128 C171.38511719 128.92039062 170.77023437 129.84078125 170.13671875 130.7890625 C169.01303283 132.47767278 167.89486926 134.1708814 166.83203125 135.8984375 C165.8125 137.375 165.8125 137.375 163 140 C160.9609375 140.09375 160.9609375 140.09375 158.6875 139.875 C155.40835566 139.59627273 154.39232461 139.68296304 151.78125 141.79296875 C150.41753556 143.27117415 149.09515468 144.78896124 147.82421875 146.34765625 C146 148 146 148 144.15234375 148.02734375 C141.09344609 146.56728915 138.51793163 144.59280685 135.875 142.5 C135.01285889 141.82723022 135.01285889 141.82723022 134.13330078 141.14086914 C129.73493207 137.67139779 125.56469414 133.99158466 121.44140625 130.19921875 C118.95939064 127.96341909 116.40998749 125.85017766 113.8125 123.75 C109.29059061 120.09153866 104.88221101 116.32307284 100.5 112.5 C96.21793708 108.76584832 91.91668165 105.07540896 87.5 101.5 C81.17126255 96.37137869 75.05294166 91.00725329 68.90966797 85.65966797 C61.86727609 79.5392154 54.80997199 73.43969663 47.5625 67.5625 C41.21723119 62.40813208 35.07490552 57.02637235 28.90966797 51.65966797 C20.97266952 44.76172429 12.98432186 37.9411882 4.8203125 31.3125 C-0.50950132 26.94234795 -5.7499838 22.46543508 -11 18 C-9.73252511 15.74804937 -8.46117132 13.49844253 -7.1875 11.25 C-6.83107422 10.61578125 -6.47464844 9.9815625 -6.10742188 9.328125 C-4.24751265 6.05195463 -2.36160916 2.95014899 0 0 Z " fill="#DABA39" transform="translate(167,330)"/>
<path d="M0 0 C5.4569393 3.88692604 10.43006325 8.13707376 15.375 12.65234375 C18.85290347 15.76279015 22.46502224 18.68843574 26.08984375 21.625 C29.21429789 24.17489009 32.29972804 26.76623544 35.375 29.375 C35.91729248 29.83487305 36.45958496 30.29474609 37.01831055 30.76855469 C39.23516617 32.64991983 41.45055708 34.53300572 43.66601562 36.41601562 C49.22068034 41.1351961 54.78059925 45.84075049 60.4375 50.4375 C65.30129025 54.39508188 70.05881231 58.46542446 74.80834961 62.55834961 C78.33298919 65.58945289 81.89039882 68.56985316 85.5 71.5 C90.34596789 75.4337857 95.08098528 79.48447759 99.80859375 83.55859375 C103.33317903 86.58958284 106.89048832 89.56992581 110.5 92.5 C114.7279248 95.93208013 118.8752789 99.44551171 123 103 C128.01591689 107.32172863 133.09175299 111.55479196 138.23046875 115.73046875 C144.10799411 120.54688939 149.87611914 125.494943 155.66601562 130.41601562 C161.22068034 135.1351961 166.78059925 139.84075049 172.4375 144.4375 C177.2968454 148.39146518 182.05045329 152.45760546 186.79516602 156.54736328 C191.30566585 160.42697626 195.89271018 164.20317434 200.51171875 167.953125 C204.07952273 170.88802184 207.55120297 173.92671669 211 177 C210.06558465 178.27310312 209.12732889 179.543388 208.1875 180.8125 C207.40439453 181.87404297 207.40439453 181.87404297 206.60546875 182.95703125 C205.16871123 184.78531393 203.68184237 186.39896688 202 188 C198.08274934 186.34814731 195.10908227 183.69578561 191.9375 180.9375 C190.76889043 179.93412516 189.59960978 178.93153143 188.4296875 177.9296875 C187.84928711 177.43178711 187.26888672 176.93388672 186.67089844 176.42089844 C184.33109877 174.43117984 181.94902047 172.49579403 179.5625 170.5625 C174.69870975 166.60491812 169.94118769 162.53457554 165.19165039 158.44165039 C161.66701081 155.41054711 158.10960118 152.43014684 154.5 149.5 C149.65403211 145.5662143 144.91901472 141.51552241 140.19140625 137.44140625 C136.66682097 134.41041716 133.10951168 131.43007419 129.5 128.5 C124.65403211 124.5662143 119.91901472 120.51552241 115.19140625 116.44140625 C111.66682097 113.41041716 108.10951168 110.43007419 104.5 107.5 C100.2720752 104.06791987 96.1247211 100.55448829 92 97 C86.98408311 92.67827137 81.90824701 88.44520804 76.76953125 84.26953125 C70.89200589 79.45311061 65.12388086 74.505057 59.33398438 69.58398438 C58.22868031 68.64493051 57.1228882 67.70645079 56.01660156 66.76855469 C54.9280233 65.84446118 53.84140826 64.91804968 52.75683594 63.98925781 C50.1678201 61.78251277 47.56457646 59.67235456 44.84375 57.625 C38.50875361 52.82373958 35.81639355 49.66162993 34 42 C30.96400402 34.04717152 26.12539809 28.19734485 18.3125 24.625 C9.46438333 21.01031646 1.50754649 20.93985142 -7.3828125 24.5390625 C-15.23933331 28.92464277 -19.92922018 34.07438101 -24.75 41.625 C-31.39315719 51.83088083 -31.39315719 51.83088083 -35 55 C-36.98 53.35 -38.96 51.7 -41 50 C-35.90745829 42.9270254 -30.25645275 36.3996218 -24.5625 29.8125 C-11.90559649 15.20816397 -11.90559649 15.20816397 0 0 Z " fill="#DCBC3A" transform="translate(143,252)"/>
<path d="M0 0 C3.45595924 1.53598188 6.10076012 3.58396677 9 6 C9.95519531 6.79277344 10.91039062 7.58554688 11.89453125 8.40234375 C12.92973684 9.26817018 13.96489117 10.13405789 15 11 C16.12861772 11.93914893 17.25752806 12.87794631 18.38671875 13.81640625 C21.26126702 16.20682007 24.13162708 18.6021804 27 21 C25.63733356 25.03805866 23.8590849 27.54368118 20.9375 30.625 C16.90089364 34.98350479 13.11356395 39.47505387 9.375 44.08984375 C6.82510991 47.21429789 4.23376456 50.29972804 1.625 53.375 C0.93519043 54.18843872 0.93519043 54.18843872 0.23144531 55.01831055 C-1.64991983 57.23516617 -3.53300572 59.45055708 -5.41601562 61.66601562 C-10.1351961 67.22068034 -14.84075049 72.78059925 -19.4375 78.4375 C-23.38655333 83.29080883 -27.44765895 88.03847089 -31.53198242 92.77758789 C-36.11679794 98.1086828 -40.58019183 103.53104545 -45 109 C-50.9304639 104.73006599 -56.46917917 100.09788107 -61.98681641 95.31542969 C-65.27069863 92.47019541 -68.5847483 89.68846556 -72 87 C-70.71076019 84.21176763 -69.31380469 82.01003398 -67.27734375 79.71484375 C-66.74359131 79.10761475 -66.20983887 78.50038574 -65.65991211 77.87475586 C-64.80731812 76.91581421 -64.80731812 76.91581421 -63.9375 75.9375 C-62.74880878 74.58437887 -61.56131318 73.2302065 -60.375 71.875 C-59.79492188 71.21242188 -59.21484375 70.54984375 -58.6171875 69.8671875 C-56.50686101 67.43062696 -54.46557686 64.94277142 -52.4375 62.4375 C-49.02863012 58.22801481 -45.53600932 54.10239029 -42 50 C-38.44542508 45.875357 -34.93207702 41.72792096 -31.5 37.5 C-27.57047248 32.6592777 -23.52440424 27.92918628 -19.45458984 23.20678711 C-15.55387841 18.67094542 -11.75202198 14.06590047 -7.98046875 9.421875 C-5.37337539 6.2337135 -2.69717352 3.1121233 0 0 Z " fill="#464D55" transform="translate(136,183)"/>
<path d="M0 0 C2.0078125 0.42578125 2.0078125 0.42578125 3.75390625 1.9296875 C5.53205438 5.46936555 5.32835252 8.81420932 5.1953125 12.67578125 C5.17500977 13.79339844 5.17500977 13.79339844 5.15429688 14.93359375 C5.11908454 16.76463541 5.06528101 18.59530294 5.0078125 20.42578125 C5.51183594 20.26722656 6.01585937 20.10867187 6.53515625 19.9453125 C17.42645083 17.65693623 28.98184145 18.90331713 38.38671875 24.95703125 C41.12808624 26.95788623 43.60814495 29.0261137 46.0078125 31.42578125 C48.05038076 31.89791729 48.05038076 31.89791729 50.40234375 32.1015625 C51.27568359 32.20791016 52.14902344 32.31425781 53.04882812 32.42382812 C54.88363052 32.63200514 56.71961064 32.83007257 58.55664062 33.01757812 C63.02694246 33.57923985 65.48115397 34.02636028 69.14453125 36.8046875 C71.0078125 39.42578125 71.0078125 39.42578125 71.0078125 43.05078125 C70.02689897 46.36136441 69.64781772 47.4027317 67.0078125 49.42578125 C65.10668945 49.67456055 65.10668945 49.67456055 62.99609375 49.5 C62.23876953 49.44521484 61.48144531 49.39042969 60.70117188 49.33398438 C59.91548828 49.26115234 59.12980469 49.18832031 58.3203125 49.11328125 C57.52302734 49.05205078 56.72574219 48.99082031 55.90429688 48.92773438 C53.93764297 48.77464156 51.97252261 48.60207416 50.0078125 48.42578125 C49.86085938 49.00585938 49.71390625 49.5859375 49.5625 50.18359375 C47.82420912 56.2376413 45.63727681 59.20782488 41.0078125 63.42578125 C41.0078125 64.08578125 41.0078125 64.74578125 41.0078125 65.42578125 C41.87664062 65.87308594 42.74546875 66.32039063 43.640625 66.78125 C56.82583711 73.69832436 56.82583711 73.69832436 60.0078125 77.42578125 C60.82331486 80.99008898 60.69732503 84.1278753 58.9453125 87.42578125 C55.82731568 89.03506993 53.48989094 88.73885524 50.0078125 88.42578125 C47.00111795 87.1658608 44.28564985 85.49819767 41.5078125 83.80078125 C30.77589311 77.57132748 20.26169591 73.00375915 8.0703125 70.42578125 C1.52568505 69.02731303 -3.29853428 67.31742976 -7.9921875 62.42578125 C-8.56324219 61.843125 -9.13429688 61.26046875 -9.72265625 60.66015625 C-13.44910116 56.58850623 -15.82719467 53.07941598 -16.1796875 47.41015625 C-15.71619948 39.41498796 -14.03712404 34.60817032 -8.9921875 28.42578125 C-8.3321875 27.43578125 -7.6721875 26.44578125 -6.9921875 25.42578125 C-7.47945313 24.74515625 -7.96671875 24.06453125 -8.46875 23.36328125 C-10.30842408 19.81601225 -10.39290869 17.4039912 -10.3671875 13.42578125 C-10.37492187 12.22953125 -10.38265625 11.03328125 -10.390625 9.80078125 C-9.51847707 2.41317528 -6.98735909 0.37386239 0 0 Z " fill="#FC90A9" transform="translate(387.9921875,150.57421875)"/>
<path d="M0 0 C-1.51442711 4.8621081 -3.15991462 9.47470878 -5.33203125 14.08203125 C-12.9272336 30.63283279 -18.6068146 48.1085044 -22 66 C-22.2781958 67.43460571 -22.2781958 67.43460571 -22.56201172 68.89819336 C-24.02630151 77.25138948 -24.30939828 85.39577638 -24.26074219 93.84790039 C-24.24999471 96.06359089 -24.26071925 98.27847405 -24.2734375 100.49414062 C-24.28039654 108.82584766 -23.7277752 116.82061777 -22 125 C-27.81251125 120.8149919 -33.23423146 116.27946662 -38.6484375 111.60107422 C-43.12109423 107.73995078 -47.65941949 103.97148492 -52.24609375 100.24609375 C-57.19911594 96.2063948 -62.09626851 92.0992799 -67 88 C-63.39982795 66.77398562 -52.04182204 47.08850828 -38 31 C-37.15695313 30.02417969 -36.31390625 29.04835938 -35.4453125 28.04296875 C-29.49956442 21.2878909 -23.17018174 15.47094689 -16 10 C-15.46600586 9.59056152 -14.93201172 9.18112305 -14.38183594 8.75927734 C-2.93691533 0 -2.93691533 0 0 0 Z " fill="#F4CB83" transform="translate(189,63)"/>
<path d="M0 0 C3.40664163 2.677538 4.37081822 6.26170546 5.6640625 10.23046875 C6.02037247 11.29434563 6.02037247 11.29434563 6.38388062 12.37971497 C6.88399415 13.88035418 7.37963156 15.38249156 7.87109375 16.88598633 C8.61792733 19.16590867 9.38200695 21.4394919 10.1484375 23.71289062 C10.63386359 25.1767352 11.11827099 26.64091805 11.6015625 28.10546875 C11.82760162 28.77660202 12.05364075 29.44773529 12.28652954 30.13920593 C13.78255172 34.76224304 14.66007368 39.14234325 15 44 C13.515625 46.73046875 13.515625 46.73046875 11.25 49.1875 C10.00089844 50.58935547 10.00089844 50.58935547 8.7265625 52.01953125 C8.27958008 52.50502441 7.83259766 52.99051758 7.37207031 53.49072266 C5.04396705 56.05163624 2.84610574 58.72145955 0.625 61.375 C-0.29583983 62.46311646 -1.21772717 63.55034726 -2.140625 64.63671875 C-2.60533203 65.18376465 -3.07003906 65.73081055 -3.54882812 66.29443359 C-5.06738132 68.07919346 -6.58832332 69.86190045 -8.109375 71.64453125 C-8.6142041 72.23766113 -9.1190332 72.83079102 -9.63916016 73.44189453 C-10.61104137 74.58368728 -11.58460797 75.72404812 -12.56005859 76.86279297 C-15.03901447 79.75345812 -15.03901447 79.75345812 -17 83 C-32.44808576 81.67488203 -47.69759824 79.48059226 -63 77 C-62.67402832 76.21898926 -62.34805664 75.43797852 -62.01220703 74.63330078 C-61.0394967 72.10275238 -60.78084463 70.54273556 -60.875 67.875 C-61.07227864 61.75936228 -60.22040088 59.43619848 -56.4375 54.75 C-56.01919922 54.1828125 -55.60089844 53.615625 -55.16992188 53.03125 C-53.87109375 51.421875 -53.87109375 51.421875 -51 49 C-47.39453125 49.3046875 -47.39453125 49.3046875 -44 50 C-36.29741344 46.32510183 -30.35669545 36.56353208 -25 30 C-24.2471875 29.07832031 -23.494375 28.15664063 -22.71875 27.20703125 C-21.27765901 25.43960625 -19.8375593 23.67137253 -18.3984375 21.90234375 C-15.04112305 17.83966519 -11.60613021 13.84545789 -8.16040039 9.85766602 C-5.37028156 6.62373881 -2.64511403 3.35508526 0 0 Z " fill="#FCD99A" transform="translate(391,408)"/>
<path d="M0 0 C3.9586565 1.37001305 6.58094819 3.54871343 9.4375 6.625 C12.15191605 12.48813867 11.86687868 17.60576366 9.6875 23.625 C-2.58811929 41.88872627 -35.36720763 51.57209265 -55.77441406 55.62060547 C-62.26918604 56.72776603 -68.97622922 57.37834512 -75.0625 54.4375 C-79.27327228 50.94345492 -81.55413144 47.90044396 -82.37890625 42.53515625 C-82.64279911 36.87422886 -81.91970369 33.33230408 -78 29 C-73.54811645 25.52726973 -69.74520973 24.31574581 -64.25 23.625 C-46.30000281 20.85169405 -29.00925257 14.07119075 -14.5625 2.9375 C-9.7819693 -0.55846633 -5.78715716 -1.21578932 0 0 Z " fill="#EAA550" transform="translate(393,295)"/>
<path d="M0 0 C3.28796763 0.95925351 4.29908026 2.70795482 6.03515625 5.59375 C6.49609375 9.22265625 6.49609375 9.22265625 6.41015625 13.15625 C6.39726562 14.45691406 6.384375 15.75757813 6.37109375 17.09765625 C6.07068942 20.2239571 5.6938926 21.98621645 4.03515625 24.59375 C3.37515625 24.59375 2.71515625 24.59375 2.03515625 24.59375 C2.58945313 25.34140625 3.14375 26.0890625 3.71484375 26.859375 C4.80152344 28.33664063 4.80152344 28.33664063 5.91015625 29.84375 C6.98910156 31.30554688 6.98910156 31.30554688 8.08984375 32.796875 C12.24393769 38.76942773 12.96139348 43.34150959 12.03515625 50.59375 C9.63554531 57.86247441 4.32588274 63.4156513 -1.96484375 67.59375 C-7.54394248 70.11037014 -12.80400176 71.8635679 -18.96484375 71.59375 C-18.30484375 71.26375 -17.64484375 70.93375 -16.96484375 70.59375 C-16.49707337 68.536256 -16.49707337 68.536256 -16.33984375 66.15625 C-16.26507813 65.35316406 -16.1903125 64.55007812 -16.11328125 63.72265625 C-16.01748947 62.34880053 -15.96484375 60.9709412 -15.96484375 59.59375 C-23.22752843 57.17285511 -28.62797991 58.83173724 -35.21484375 62.03125 C-44.02748182 66.16729296 -44.02748182 66.16729296 -46.96484375 66.59375 C-49.515625 64.71484375 -49.515625 64.71484375 -52.27734375 62.03125 C-53.24797766 61.10471362 -54.21933207 60.17893145 -55.19140625 59.25390625 C-56.10664063 58.37605469 -57.021875 57.49820313 -57.96484375 56.59375 C-60.27203877 54.56008841 -62.61493646 52.57811616 -64.96484375 50.59375 C-61.21180971 46.84071596 -56.82372811 47.45214372 -51.71484375 47.3828125 C-50.28774871 47.35475606 -48.86066551 47.32609168 -47.43359375 47.296875 C-45.19531436 47.25557107 -42.95725921 47.21866096 -40.71875 47.19238281 C-38.55032457 47.16475349 -36.38288729 47.11890376 -34.21484375 47.0703125 C-32.920625 47.05049316 -31.62640625 47.03067383 -30.29296875 47.01025391 C-26.81446657 46.57493079 -25.34148616 46.13731625 -22.96484375 43.59375 C-22.29817708 40.09375 -22.29817708 40.09375 -22.96484375 36.59375 C-25.93641906 33.63203422 -28.27280153 33.19630673 -32.38671875 33.08203125 C-33.41152344 33.04658203 -34.43632812 33.01113281 -35.4921875 32.97460938 C-36.55566406 32.95205078 -37.61914062 32.92949219 -38.71484375 32.90625 C-39.79378906 32.87208984 -40.87273437 32.83792969 -41.984375 32.80273438 C-44.64442752 32.72034337 -47.3041541 32.65116355 -49.96484375 32.59375 C-47.08176733 28.93173715 -44.76638595 26.04510437 -40.58984375 23.84375 C-39.88085938 23.45703125 -39.171875 23.0703125 -38.44140625 22.671875 C-32.49060406 20.08130496 -27.16626907 19.29226917 -20.77734375 19.40625 C-20.07931641 19.40689453 -19.38128906 19.40753906 -18.66210938 19.40820312 C-15.26454266 19.43729742 -12.23231856 19.69124456 -8.96484375 20.59375 C-8.99964844 19.40136719 -9.03445312 18.20898438 -9.0703125 16.98046875 C-9.09845128 15.41407658 -9.12575135 13.84766919 -9.15234375 12.28125 C-9.17748047 11.49556641 -9.20261719 10.70988281 -9.22851562 9.90039062 C-9.23818359 9.14306641 -9.24785156 8.38574219 -9.2578125 7.60546875 C-9.27352295 6.90897217 -9.2892334 6.21247559 -9.30541992 5.49487305 C-8.38861526 0.3771971 -4.59325604 0.2124049 0 0 Z " fill="#FC90A9" transform="translate(246.96484375,150.40625)"/>
<path d="M0 0 C4.91062141 24.33388286 -0.45868944 45.70208793 -10 68 C-10.99 68 -11.98 68 -13 68 C-14.7265625 65.76171875 -14.7265625 65.76171875 -16.625 62.6875 C-25.60852721 48.72041025 -37.06638249 34.28907834 -51 25 C-49.50044036 20.76875847 -46.46490138 18.95647618 -42.8125 16.6875 C-42.19391113 16.29796143 -41.57532227 15.90842285 -40.93798828 15.50708008 C-29.16131523 8.26251618 -14.06919419 0 0 0 Z " fill="#FB8EA8" transform="translate(477,38)"/>
<path d="M0 0 C6.34307493 0.49945472 11.6165669 1.61394837 17.5 4 C18.26683105 4.30542725 19.03366211 4.61085449 19.82373047 4.92553711 C31.08381399 9.5329818 42.7746586 14.95236175 52 23 C52 23.66 52 24.32 52 25 C50.42366615 26.39053024 48.78595085 27.71172788 47.125 29 C33.15483913 40.25820116 22.56310318 53.90036339 13 69 C3.52642841 61.16774628 0.19146502 42.5911941 -1 31 C-1.55771502 20.8333849 -2.12037889 10.01577347 0 0 Z " fill="#FB8FA8" transform="translate(111,38)"/>
<path d="M0 0 C3.30724057 3.93395511 5.96864376 8.05930392 8.625 12.4375 C12.41468772 18.60385618 16.4105917 24.55608338 20.68798828 30.39428711 C22.96713834 33.51012886 25.07036779 36.65571781 27 40 C26.23816406 40.88300781 25.47632813 41.76601562 24.69140625 42.67578125 C23.64823196 43.88784396 22.60527905 45.10009723 21.5625 46.3125 C21.01916016 46.94317383 20.47582031 47.57384766 19.91601562 48.22363281 C15.79911922 53.02022833 11.82881994 57.90855628 7.9375 62.890625 C6.03902512 64.95751298 4.58040253 65.96323113 2 67 C-1.20212665 64.30064629 -4.40043206 61.59717771 -7.58984375 58.8828125 C-9.54206497 57.22361264 -11.50464903 55.59533603 -13.50390625 53.9921875 C-18.68631805 49.76365415 -22.30407714 45.55949461 -23.33984375 38.7734375 C-23.67745436 30.91386243 -21.04077141 24.66397925 -15.87402344 18.82470703 C-15.3587207 18.26380371 -14.84341797 17.70290039 -14.3125 17.125 C-13.23955133 15.91785112 -12.16794361 14.70950909 -11.09765625 13.5 C-10.57316895 12.9121875 -10.04868164 12.324375 -9.50830078 11.71875 C-6.18861944 7.9358823 -3.10309134 3.96100483 0 0 Z " fill="#E38198" transform="translate(49,192)"/>
<path d="M0 0 C5.53251788 2.04825612 9.37461677 5.74923354 12 11 C13.10370412 15.14779129 13.06898971 18.95656823 11.04492188 22.82568359 C8.39579596 27.0406853 5.39998519 31.00381636 2.43212891 34.99707031 C0.31700117 37.95522032 -1.47875159 41.04698331 -3.3125 44.1875 C-6.51137925 49.48831223 -9.38364813 53.19182407 -15 56 C-20.04222938 56.55319423 -23.89827941 56.58090722 -28.4375 54.1875 C-29.283125 53.465625 -30.12875 52.74375 -31 52 C-31.5775 51.54625 -32.155 51.0925 -32.75 50.625 C-36.17081756 46.17793717 -36.22727454 41.7525233 -35.56201172 36.44335938 C-34.57240343 32.14101371 -32.32751328 28.72633993 -29.9375 25.0625 C-29.44161377 24.27979736 -28.94572754 23.49709473 -28.43481445 22.69067383 C-12.78623146 -1.66475346 -12.78623146 -1.66475346 0 0 Z " fill="#E9A44F" transform="translate(152,288)"/>
<path d="M0 0 C5.6039957 4.44996034 11.0905655 9.05296945 16.37109375 13.8828125 C16.37109375 14.2128125 16.37109375 14.5428125 16.37109375 14.8828125 C5.24949206 15.42313323 -2.47260307 14.31972126 -12.59765625 9.45703125 C-28.24130824 1.9643415 -45.39521727 -4.14625204 -62.69140625 1.5078125 C-70.65205774 4.97474266 -75.74311139 8.93019437 -79.5234375 16.83203125 C-80.68553506 18.98786594 -81.69311623 20.38197777 -83.62890625 21.8828125 C-87.34570361 21.81644112 -89.70340266 21.63478417 -92.62890625 19.2578125 C-94.13229572 15.6872625 -93.62385243 13.61386069 -92.62890625 9.8828125 C-91.17945595 7.0485714 -89.46947784 4.47609545 -87.62890625 1.8828125 C-87.05140625 1.0165625 -86.47390625 0.1503125 -85.87890625 -0.7421875 C-82.58127059 -4.22302514 -78.69251168 -6.60912749 -74.62890625 -9.1171875 C-73.42621094 -9.89642578 -73.42621094 -9.89642578 -72.19921875 -10.69140625 C-50.7855655 -22.56980053 -18.65563234 -13.30986635 0 0 Z " fill="#E9A44F" transform="translate(177.62890625,385.1171875)"/>
<path d="M0 0 C5.71582355 3.00522681 11.26924845 6.1477531 16.28515625 10.23046875 C16.28515625 10.89046875 16.28515625 11.55046875 16.28515625 12.23046875 C15.46893799 12.65344238 15.46893799 12.65344238 14.63623047 13.08496094 C12.14233597 14.37989829 9.65124186 15.68013667 7.16015625 16.98046875 C6.30421875 17.42390625 5.44828125 17.86734375 4.56640625 18.32421875 C0.87436508 20.25544029 -2.67338291 22.13023893 -6.01953125 24.62109375 C-8.71484375 26.23046875 -8.71484375 26.23046875 -11.34375 26.171875 C-13.92850439 25.14563809 -15.55665471 23.98976575 -17.65234375 22.16796875 C-32.53960335 10.1897139 -51.30126825 2.79631455 -69.71484375 -1.76953125 C-69.71484375 -2.75953125 -69.71484375 -3.74953125 -69.71484375 -4.76953125 C-53.28409558 -20.10489621 -18.00577471 -8.84078215 0 0 Z " fill="#E8A34F" transform="translate(186.71484375,25.76953125)"/>
<path d="M0 0 C0.86367188 -0.00386719 1.72734375 -0.00773438 2.6171875 -0.01171875 C16.58171687 0.00950394 16.58171687 0.00950394 20.9375 4.1875 C21.52402344 4.73535156 22.11054688 5.28320312 22.71484375 5.84765625 C23.13894531 6.26917969 23.56304687 6.69070312 24 7.125 C23.67 7.785 23.34 8.445 23 9.125 C20.89442894 9.73786074 18.76301341 10.26222295 16.625 10.75 C-1.31073797 15.21428726 -19.28280724 23.54922341 -33.0703125 36.0078125 C-35 37.125 -35 37.125 -37.28515625 37.07421875 C-40.93210594 35.79909821 -44.06373877 33.86230878 -47.3125 31.8125 C-52.44048416 28.64975377 -57.53910246 25.68827844 -63 23.125 C-60.92028403 16.88585209 -51.5642321 13.52072127 -45.9140625 10.4453125 C-31.66743288 3.37693328 -15.84220782 -0.07093526 0 0 Z " fill="#E9A44F" transform="translate(449,14.875)"/>
<path d="M0 0 C3.94560193 1.65829646 6.93425953 4.34702955 10.125 7.125 C11.27640559 8.1143741 12.42876071 9.10264417 13.58203125 10.08984375 C14.1538916 10.57952637 14.72575195 11.06920898 15.31494141 11.57373047 C19.13534571 14.80740215 23.06872387 17.90289984 27 21 C26.26241914 25.54989638 24.78670589 29.69841393 23.1875 34 C22.93935547 34.69867188 22.69121094 35.39734375 22.43554688 36.1171875 C20.60642788 41.05068911 18.60952989 45.22789688 14.11328125 48.28125 C9.50878185 49.84729046 4.76576829 49.71642268 0 49 C-3.84308204 47.02223489 -6.13749836 44.35000257 -8.4375 40.75 C-10.38808238 31.21381945 -7.87679882 24.02723955 -4.53515625 15.1640625 C-2.6667367 10.20203026 -1.26701474 5.14585812 0 0 Z " fill="#EAA44F" transform="translate(231,432)"/>
<path d="M0 0 C3 2 3 2 5.33276367 3.93383789 C8.02154042 6.01668619 10.64578843 7.52258892 13.67578125 9.05859375 C14.75150391 9.60966797 15.82722656 10.16074219 16.93554688 10.72851562 C18.04994141 11.29248047 19.16433594 11.85644531 20.3125 12.4375 C27.40102815 16.03769343 34.33527392 19.656969 41 24 C39.6772113 26.00698975 38.34216975 28.00591923 37 30 C36.63648438 30.73734375 36.27296875 31.4746875 35.8984375 32.234375 C34 34 34 34 30.24609375 34.09375 C28.6405196 33.91917189 27.0375832 33.71927066 25.4375 33.5 C24.57866211 33.3983252 23.71982422 33.29665039 22.83496094 33.19189453 C11.18522852 31.75576728 -0.41473186 29.87802719 -12 28 C-11.67402832 27.21898926 -11.34805664 26.43797852 -11.01220703 25.63330078 C-10.0394967 23.10275238 -9.78084463 21.54273556 -9.875 18.875 C-10.07899685 12.55109762 -9.07421619 10.48683723 -5 5.8125 C-4.52304687 5.25369141 -4.04609375 4.69488281 -3.5546875 4.11914062 C-2.37633794 2.74047164 -1.18901048 1.36948528 0 0 Z " fill="#E2C38A" transform="translate(340,457)"/>
<path d="M0 0 C2.19346769 1.39849173 4.17103801 2.92376544 6.16796875 4.58984375 C9.68138938 7.29420377 13.31149722 7.38726146 17.578125 7.359375 C22.58319294 6.6166875 26.49644051 3.50355949 30 0 C33.56024543 -0.32965235 36.1367147 -0.37630385 39.4375 1.0625 C41 3 41 3 41.625 6.25 C40.79052399 11.25685606 38.81935318 13.74707632 35 17 C32.43331905 18.63982394 29.82205659 19.86547624 27 21 C26.030625 21.4125 25.06125 21.825 24.0625 22.25 C16.33823535 24.14165665 7.60598949 23.52179779 0.57421875 19.671875 C-1.69709435 18.19979646 -3.85400065 16.6481275 -6 15 C-7.2684375 14.071875 -7.2684375 14.071875 -8.5625 13.125 C-10.91619689 9.64562199 -10.52611885 7.14318591 -10 3 C-7.19348555 -0.45417163 -4.25861039 -0.73706718 0 0 Z " fill="#040302" transform="translate(300,163)"/>
<path d="M0 0 C0.67615356 0.00091644 1.35230713 0.00183289 2.0489502 0.0027771 C3.48127248 0.00880997 4.91358232 0.02454702 6.34570312 0.04931641 C8.4965886 0.08535671 10.64572182 0.0903385 12.796875 0.08984375 C33.59945906 0.19466047 33.59945906 0.19466047 40.34375 4.6484375 C42.03125 7.4609375 42.03125 7.4609375 42.03125 11.0859375 C40.55193474 16.07862652 40.55193474 16.07862652 38.03125 17.4609375 C31.42036974 17.88067593 31.42036974 17.88067593 28.37084961 16.95922852 C25.11025321 16.26478239 21.88076227 16.30522208 18.5625 16.28515625 C17.08982929 16.26196874 15.61717297 16.23785184 14.14453125 16.21289062 C11.83372177 16.17772934 9.52344736 16.14839232 7.21240234 16.13500977 C4.97428709 16.11953014 2.73770856 16.07934305 0.5 16.03515625 C-0.53296204 16.03801888 -0.53296204 16.03801888 -1.58679199 16.04093933 C-4.91112371 15.95626949 -6.71034691 15.65372962 -9.40429688 13.64379883 C-11.69531506 10.44717061 -11.51627112 8.29358534 -10.96875 4.4609375 C-7.80534066 0.11947762 -5.20806918 -0.03442347 0 0 Z " fill="#050303" transform="translate(416.96875,182.5390625)"/>
<path d="M0 0 C8.39313242 2.4828872 16.32097254 6.52605169 24.0625 10.5625 C24.7642334 10.92593506 25.4659668 11.28937012 26.18896484 11.66381836 C37.21321773 17.57297672 37.21321773 17.57297672 38.69140625 22.1328125 C38.50640465 24.99192812 38.29347699 27.44757272 36.9375 30 C33.82749024 31.60516633 31.47092357 31.30636036 28 31 C25.07612539 29.78260294 22.44454888 28.15565059 19.75 26.5 C12.40743622 22.16949298 4.99478832 18.69662818 -2.98144531 15.68945312 C-3.74038086 15.39232422 -4.49931641 15.09519531 -5.28125 14.7890625 C-5.95220703 14.53850098 -6.62316406 14.28793945 -7.31445312 14.02978516 C-9.54298966 12.66826037 -10.12837032 11.43864868 -11 9 C-10.8125 5.375 -10.8125 5.375 -10 2 C-6.25084299 -0.499438 -4.45165419 -0.32992427 0 0 Z " fill="#040302" transform="translate(410,208)"/>
<path d="M0 0 C3.88387302 3.42654765 4.75844924 7.5528019 6.25 12.375 C6.53101563 13.22578125 6.81203125 14.0765625 7.1015625 14.953125 C9.57160879 22.80347014 9.57160879 22.80347014 8 27 C7 28 7 28 3.5625 28.15625 C-1.37425362 28.09454058 -6.14223199 27.32828302 -11 26.5 C-12.30517578 26.28537109 -12.30517578 26.28537109 -13.63671875 26.06640625 C-15.75875695 25.71661973 -17.87952028 25.3591135 -20 25 C-18.68230669 22.13735733 -17.21923962 19.89914149 -15.13671875 17.5390625 C-14.57919922 16.90226562 -14.02167969 16.26546875 -13.44726562 15.609375 C-12.57618164 14.62710937 -12.57618164 14.62710937 -11.6875 13.625 C-10.54504192 12.32598764 -9.40310783 11.02651424 -8.26171875 9.7265625 C-7.71306152 9.10297852 -7.1644043 8.47939453 -6.59912109 7.83691406 C-4.35563573 5.25981728 -2.174475 2.63548002 0 0 Z " fill="#454B54" transform="translate(411,469)"/>
<path d="M0 0 C3.28796763 0.95925351 4.29908026 2.70795482 6.03515625 5.59375 C6.49609375 9.22265625 6.49609375 9.22265625 6.41015625 13.15625 C6.39726562 14.45691406 6.384375 15.75757813 6.37109375 17.09765625 C6.06682906 20.26413183 5.83522898 22.02653218 4.03515625 24.59375 C0.54391608 26.92124345 -0.85706626 27.09674316 -4.96484375 26.59375 C-7.12890625 25.16796875 -7.12890625 25.16796875 -8.96484375 22.59375 C-9.53336801 19.3954696 -9.47768383 16.27087347 -9.40234375 13.03125 C-9.40943359 12.16822266 -9.41652344 11.30519531 -9.42382812 10.41601562 C-9.3603365 4.1303448 -9.3603365 4.1303448 -7.68383789 1.85571289 C-5.28047423 0.09133471 -2.90980024 0.13455724 0 0 Z " fill="#070604" transform="translate(246.96484375,150.40625)"/>
<path d="M0 0 C2.0078125 0.42578125 2.0078125 0.42578125 3.73828125 1.8828125 C5.63892937 5.68995689 5.48219499 9.22788331 5.4453125 13.42578125 C5.46529297 14.23273438 5.48527344 15.0396875 5.50585938 15.87109375 C5.5026776 19.7274082 5.48221311 21.77310271 3.16796875 24.95703125 C0.21132196 26.96733721 -1.48835512 27.00975331 -4.9921875 26.42578125 C-7.29494306 24.55868215 -8.67042621 23.06930384 -9.9921875 20.42578125 C-10.14162606 18.15833851 -10.21363652 15.88546375 -10.2421875 13.61328125 C-10.26796875 12.38996094 -10.29375 11.16664063 -10.3203125 9.90625 C-9.61705228 2.44666843 -7.01266216 0.37521624 0 0 Z " fill="#060504" transform="translate(387.9921875,150.57421875)"/>
<path d="M0 0 C3.94560193 1.65829646 6.93425953 4.34702955 10.125 7.125 C11.27640559 8.1143741 12.42876071 9.10264417 13.58203125 10.08984375 C14.1538916 10.57952637 14.72575195 11.06920898 15.31494141 11.57373047 C19.13534571 14.80740215 23.06872387 17.90289984 27 21 C26.47731534 23.76276177 25.89130413 26.3260876 25 29 C20.77504711 27.2787229 17.68907196 24.28984893 14.3125 21.3125 C9.00583673 16.69258139 3.62768838 12.22821032 -2 8 C-1.34 5.36 -0.68 2.72 0 0 Z " fill="#D8953F" transform="translate(231,432)"/>
<path d="M0 0 C16.64839214 5.98177524 27.50872502 13.50872502 40 26 C35.05 26 30.1 26 25 26 C25 25.01 25 24.02 25 23 C22.94355124 21.00059142 20.89907396 19.18799957 18.6875 17.375 C18.05827637 16.84664551 17.42905273 16.31829102 16.78076172 15.77392578 C13.7550453 13.24192313 10.69863945 10.74989901 7.62109375 8.28125 C6.63238281 7.4871875 5.64367187 6.693125 4.625 5.875 C3.73039063 5.17117188 2.83578125 4.46734375 1.9140625 3.7421875 C1.28242188 3.16726563 0.65078125 2.59234375 0 2 C0 1.34 0 0.68 0 0 Z " fill="#D6943F" transform="translate(154,374)"/>
<path d="M0 0 C4.9861988 0.29330581 8.20837227 3.03881523 12 6 C10.11062056 11.49637656 7.12275205 16.87724795 3 21 C-0.66254638 20.8668165 -3.10984607 20.72325007 -6 18.375 C-7.50338947 14.80445 -6.99494618 12.73104819 -6 9 C-4.33498348 5.83871863 -2.54428318 2.54428318 0 0 Z " fill="#F2CE96" transform="translate(91,386)"/>
<path d="M0 0 C-0.64973121 3.92726423 -1.832218 7.33472397 -3.375 11 C-3.79523438 12.010625 -4.21546875 13.02125 -4.6484375 14.0625 C-5.92969467 16.84719766 -7.36990471 19.40709988 -9 22 C-12.4777493 20.43988817 -15.27224027 18.36827674 -18.25 16 C-19.14203125 15.29875 -20.0340625 14.5975 -20.953125 13.875 C-21.62859375 13.25625 -22.3040625 12.6375 -23 12 C-23 11.34 -23 10.68 -23 10 C-19.54466686 8.32705993 -16.08526007 6.66272237 -12.625 5 C-11.14773438 4.28457031 -11.14773438 4.28457031 -9.640625 3.5546875 C-8.22910156 2.87792969 -8.22910156 2.87792969 -6.7890625 2.1875 C-5.91975098 1.76855469 -5.05043945 1.34960938 -4.15478516 0.91796875 C-2 0 -2 0 0 0 Z " fill="#F2CE8A" transform="translate(390,347)"/>
<path d="M0 0 C0.33 0 0.66 0 1 0 C1.28875 1.134375 1.5775 2.26875 1.875 3.4375 C2.24625 4.613125 2.6175 5.78875 3 7 C5.34852528 8.17426264 6.73774065 8.11508173 9.3515625 8.09765625 C10.62773437 8.09282227 10.62773437 8.09282227 11.9296875 8.08789062 C13.26386719 8.07532227 13.26386719 8.07532227 14.625 8.0625 C15.5221875 8.05798828 16.419375 8.05347656 17.34375 8.04882812 C19.56256648 8.03702591 21.78125018 8.02056155 24 8 C21.3279251 9.45072517 19.03292613 10.31923015 16.03125 10.78125 C15.29519531 10.90113281 14.55914062 11.02101563 13.80078125 11.14453125 C12.26692708 11.38151042 10.73307292 11.61848958 9.19921875 11.85546875 C4.84299673 12.53355639 4.84299673 12.53355639 0.78125 14.15625 C-1 15 -1 15 -3.38671875 14.9375 C-6.87445491 13.6862942 -9.18919647 11.5217337 -11.8125 9 C-12.56563477 8.30390625 -12.56563477 8.30390625 -13.33398438 7.59375 C-14.58328956 6.42433236 -15.79526529 5.21528406 -17 4 C-17 3.67 -17 3.34 -17 3 C-13.16275828 2.09586327 -9.62497726 1.89423102 -5.6875 1.9375 C-4.08455078 1.95103516 -4.08455078 1.95103516 -2.44921875 1.96484375 C-1.64097656 1.97644531 -0.83273437 1.98804688 0 2 C0 1.34 0 0.68 0 0 Z " fill="#F4CF8B" transform="translate(313,294)"/>
<path d="M0 0 C0.99 0.66 1.98 1.32 3 2 C3 2.66 3 3.32 3 4 C3.66 4.33 4.32 4.66 5 5 C3.25713707 7.5882144 1.50446624 10.16963999 -0.25 12.75 C-0.74113281 13.47960937 -1.23226562 14.20921875 -1.73828125 14.9609375 C-4.2460581 18.63901021 -6.67700041 21.99347656 -10 25 C-11.98 23.35 -13.96 21.7 -16 20 C-10.98338808 13.06647133 -5.51369211 6.53797484 0 0 Z " fill="#D2B337" transform="translate(118,282)"/>
<path d="M0 0 C1.22589844 0.01353516 1.22589844 0.01353516 2.4765625 0.02734375 C3.41628906 0.04474609 3.41628906 0.04474609 4.375 0.0625 C5.18998562 1.6654053 6.00189927 3.26987278 6.8125 4.875 C7.49119141 6.21498047 7.49119141 6.21498047 8.18359375 7.58203125 C9.375 10.0625 9.375 10.0625 10.375 13.0625 C12.37516466 14.27132096 12.37516466 14.27132096 14.375 15.0625 C14.045 16.0525 13.715 17.0425 13.375 18.0625 C10.45406494 16.72050312 8.1636049 15.19758255 5.73828125 13.09375 C5.07892578 12.52269531 4.41957031 11.95164063 3.74023438 11.36328125 C3.06283203 10.76902344 2.38542969 10.17476562 1.6875 9.5625 C0.65399414 8.67111328 0.65399414 8.67111328 -0.40039062 7.76171875 C-5.49424951 3.32400098 -5.49424951 3.32400098 -6.625 1.0625 C-4.21954362 -0.14022819 -2.67503047 -0.03821472 0 0 Z " fill="#F5D296" transform="translate(188.625,198.9375)"/>
<path d="M0 0 C-5.16813287 2.63221674 -9.10956728 3.32724626 -15 3 C-15.66 2.34 -16.32 1.68 -17 1 C-11.27959989 0.1679418 -5.77759884 -0.12036664 0 0 Z " fill="#BC9F6B" transform="translate(337,302)"/>
</svg>
