<?xml version="1.0" encoding="UTF-8"?>
<svg version="1.1" xmlns="http://www.w3.org/2000/svg" width="512" height="512">
<path d="M0 0 C2.90717073 2.21863029 3.83981643 3.51944929 5 7 C5.09421084 9.4129981 5.13217062 11.79665166 5.12304783 14.20955181 C5.12420167 14.95252102 5.12535552 15.69549022 5.12654433 16.46097365 C5.12920789 18.97031701 5.12469094 21.47959723 5.12025452 23.98893738 C5.12069027 25.79818926 5.12156526 27.60744108 5.12284368 29.41669255 C5.1250878 34.40381184 5.12106847 39.3909098 5.11606562 44.37802637 C5.11176013 49.75021196 5.11320762 55.12239629 5.1139679 60.49458313 C5.11449307 69.80739313 5.11134696 79.12019614 5.10573006 88.43300438 C5.09761415 101.89787815 5.09499974 115.36274853 5.09374207 128.82762448 C5.09155169 150.67178738 5.08489199 172.51594655 5.07543945 194.36010742 C5.06626497 215.58374004 5.05918431 236.80737166 5.05493164 258.03100586 C5.05453756 259.9922797 5.05453756 259.9922797 5.05413551 261.99317523 C5.0528305 268.55238653 5.05156679 275.11159784 5.05032361 281.67080915 C5.03995144 336.11387537 5.02225934 390.55693744 5 445 C12.26 445 19.52 445 27 445 C26.9685791 440.13181519 26.9685791 440.13181519 26.93652344 435.1652832 C26.8702773 424.44847748 26.82607404 413.73166277 26.79275131 403.01470661 C26.77186687 396.51628613 26.7435329 390.01807524 26.69824219 383.51977539 C26.65481603 377.24984359 26.63086935 370.98011353 26.62049103 364.71004295 C26.61309393 362.31659964 26.59864937 359.9231675 26.57707977 357.52980995 C26.54808969 354.18019275 26.54404229 350.8314117 26.54589844 347.48168945 C26.53151733 346.48978607 26.51713623 345.49788269 26.50231934 344.47592163 C26.52848383 340.11917334 26.57885224 337.68427901 28.90338135 333.90739441 C32.05932453 331.03628174 33.83661726 330.86538079 38.01293945 330.80712891 C39.58015495 330.78303452 39.58015495 330.78303452 41.17903137 330.75845337 C45.95943606 330.71406194 50.73970116 330.6729412 55.52026367 330.64990234 C58.04314392 330.63333544 60.56597709 330.60603616 63.08862305 330.56787109 C66.7220907 330.51316811 70.35445753 330.49123751 73.98828125 330.4765625 C75.11551102 330.45389313 76.24274078 330.43122375 77.40412903 330.40786743 C85.22375556 330.4290065 85.22375556 330.4290065 89.18823242 333.34521484 C91.54979888 336.80562094 92.12509462 339.29504738 92.12025452 343.38493347 C92.12231651 344.72896996 92.12231651 344.72896996 92.12442017 346.10015869 C92.11902725 347.57074738 92.11902725 347.57074738 92.11352539 349.07104492 C92.11367142 350.10536148 92.11381744 351.13967804 92.1139679 352.20533752 C92.1132702 355.63040246 92.10548446 359.05541329 92.09765625 362.48046875 C92.09579156 364.85272695 92.0943679 367.22498554 92.09336853 369.59724426 C92.08954736 375.84602926 92.07972045 382.09479107 92.06866455 388.34356689 C92.05664503 395.83839183 92.05204629 403.33322452 92.04621124 410.82805634 C92.03650852 422.21872035 92.01734913 433.60933349 92 445 C109.49 445 126.98 445 145 445 C144.97643433 437.37571899 144.97643433 437.37571899 144.95239258 429.59741211 C144.90271896 412.8176584 144.86940711 396.03790182 144.84456348 379.25809383 C144.82909787 369.08291309 144.80801415 358.90780203 144.77368164 348.73266602 C144.74376998 339.8635065 144.72442277 330.99439745 144.71773452 322.12518889 C144.71382526 317.42946949 144.70464427 312.73389447 144.68280983 308.03822136 C144.6624168 303.61662647 144.6561719 299.19523517 144.66067696 294.77359772 C144.65985302 293.15268153 144.65390412 291.5317584 144.64238358 289.91088295 C144.62739499 287.69289908 144.63106903 285.47567773 144.63923645 283.25767517 C144.63647107 282.01786361 144.63370569 280.77805204 144.63085651 279.50067043 C145.07199871 275.31722011 146.0475218 272.71907368 148 269 C151.28915225 266.80723183 152.30371324 266.74115696 156.12646484 266.70947266 C157.17119965 266.69671295 158.21593445 266.68395325 159.29232788 266.67080688 C160.98453964 266.66746841 160.98453964 266.66746841 162.7109375 266.6640625 C163.87122467 266.6574057 165.03151184 266.6507489 166.22695923 266.64389038 C168.68319105 266.63375814 171.13945043 266.62907354 173.59570312 266.62939453 C177.35332659 266.6250252 181.10977224 266.58872001 184.8671875 266.55078125 C187.25260015 266.54491251 189.63801838 266.5409435 192.0234375 266.5390625 C193.14753021 266.52469147 194.27162292 266.51032043 195.42977905 266.49551392 C203.23218326 266.54119273 203.23218326 266.54119273 207.18603516 268.90380859 C210.36345223 272.57558558 210.12375266 274.96384843 210.12025452 279.77029419 C210.12153615 280.82641397 210.12153615 280.82641397 210.12284368 281.90386951 C210.12449721 284.27464292 210.11897919 286.64534634 210.11352539 289.01611328 C210.11324347 290.710968 210.11340136 292.40582284 210.1139679 294.10067749 C210.11425566 298.71199287 210.10836228 303.32328241 210.10139394 307.93459177 C210.09515695 312.74992143 210.09455633 317.56525164 210.09336853 322.38058472 C210.09025624 331.50367702 210.08204421 340.62675739 210.07201904 349.74984443 C210.06085475 360.13421398 210.05534666 370.5185841 210.05032361 380.90295815 C210.03986152 402.26864692 210.02151729 423.63431931 210 445 C227.82 445 245.64 445 264 445 C263.97905273 437.78616455 263.95810547 430.5723291 263.93652344 423.13989258 C263.87233838 400.06453862 263.82783655 376.98918186 263.79573868 353.91376405 C263.79073579 350.33012307 263.78555851 346.74648237 263.78027344 343.1628418 C263.7792242 342.44939642 263.77817495 341.73595104 263.77709392 341.00088611 C263.7596835 329.44530566 263.72814234 317.88980473 263.69138882 306.33427147 C263.65399704 294.47929219 263.63176789 282.62435459 263.62364602 270.76931876 C263.61864761 264.10963053 263.60611971 257.45010061 263.57707977 250.79047585 C263.54998105 244.52541099 263.54154389 238.26060129 263.54756927 231.9954834 C263.54646656 229.69322512 263.53848 227.39095853 263.5231781 225.08875084 C263.50333746 221.95039698 263.5080397 218.81301215 263.51898193 215.67463684 C263.50733057 214.75926441 263.4956792 213.84389197 263.48367476 212.90078098 C263.52309678 208.73055032 263.64521951 206.56654313 265.90506363 202.9578352 C269.04559287 200.02283499 270.81137046 199.86573293 275.01293945 199.80712891 C276.05774979 199.79106598 277.10256012 199.77500305 278.17903137 199.75845337 C282.95943606 199.71406194 287.73970116 199.6729412 292.52026367 199.64990234 C295.04314392 199.63333544 297.56597709 199.60603616 300.08862305 199.56787109 C303.7220907 199.51316811 307.35445753 199.49123751 310.98828125 199.4765625 C312.11551102 199.45389313 313.24274078 199.43122375 314.40412903 199.40786743 C322.22375556 199.4290065 322.22375556 199.4290065 326.18823242 202.34521484 C328.46792981 205.68565809 329.12513584 208.11784888 329.12304783 212.07046032 C329.12503888 212.90199822 329.12702993 213.73353611 329.12908131 214.59027213 C329.12616847 215.50368835 329.12325563 216.41710457 329.12025452 217.35820007 C329.12153615 218.81374785 329.12153615 218.81374785 329.12284368 220.29870063 C329.12449661 223.56463079 329.11898013 226.83051009 329.11352539 230.09643555 C329.11324345 232.43182372 329.11340138 234.76721198 329.1139679 237.1026001 C329.11425561 243.45553335 329.10836302 249.80844784 329.10139394 256.16137671 C329.0957877 262.12407823 329.0947716 268.086779 329.09374207 274.0494828 C329.09155269 285.86087294 329.08489568 297.67225618 329.07543945 309.48364258 C329.06626239 320.9582516 329.05918299 332.43285875 329.05493164 343.9074707 C329.05453756 344.96816538 329.05453756 344.96816538 329.05413551 346.05028822 C329.05283048 349.59770119 329.05156677 353.14511418 329.05032361 356.69252717 C329.03995454 386.12835665 329.02151814 415.56417625 329 445 C346.49 445 363.98 445 382 445 C381.99333817 441.29248505 381.98667633 437.58497009 381.97981262 433.7651062 C381.92013114 399.77616816 381.87533662 365.78723665 381.84680401 331.7982577 C381.84305184 327.3446717 381.83916887 322.89108582 381.83520508 318.4375 C381.83441815 317.55086128 381.83363122 316.66422255 381.83282044 315.75071599 C381.81976212 301.38936175 381.79610592 287.02804349 381.76854161 272.6667106 C381.74049928 257.9335822 381.72382622 243.20047265 381.71773452 228.46731865 C381.71361564 219.37421906 381.7006007 210.28122116 381.6762506 201.18815286 C381.66040788 194.95495067 381.65559632 188.72180115 381.65949587 182.48858027 C381.6614197 178.89089379 381.65844492 175.29338517 381.64238358 171.69573021 C381.62510077 167.79601928 381.63102906 163.89654075 381.63923645 159.99679565 C381.63049793 158.85866106 381.6217594 157.72052646 381.61275607 156.54790294 C381.64463256 150.96303796 381.76060688 146.78294539 385 142 C389.51041016 137.82357183 395.23970526 138.56742733 401.03125 138.6015625 C402.0999231 138.59869232 403.16859619 138.59582214 404.26965332 138.59286499 C406.52564017 138.59082652 408.78164477 138.59634114 411.03759766 138.60888672 C414.48770731 138.62494279 417.93664547 138.60902996 421.38671875 138.58984375 C423.58073175 138.59182622 425.77474402 138.59566997 427.96875 138.6015625 C428.99907349 138.59548981 430.02939697 138.58941711 431.09094238 138.5831604 C440.14536005 138.67193476 440.14536005 138.67193476 444 142 C446.77433433 145.09198475 447.37433235 147.03145252 447.36914349 151.16178513 C447.37511663 152.2112846 447.38108978 153.26078407 447.38724393 154.34208655 C447.3785054 155.49382873 447.36976688 156.6455709 447.36076355 157.83221436 C447.36332682 159.05661421 447.3658901 160.28101407 447.36853105 161.54251695 C447.37262286 164.94274299 447.36322965 168.34245273 447.34819686 171.74261642 C447.33525555 175.40856532 447.33962461 179.07449794 447.34190369 182.74046326 C447.34347763 189.09251442 447.33405581 195.44447323 447.31719017 201.79650116 C447.2928211 210.98048033 447.28499705 220.16441479 447.2812262 229.3484228 C447.27465842 244.24842047 447.25468842 259.14836891 447.22631836 274.04833984 C447.19878622 288.52327223 447.17754851 302.99819125 447.16479492 317.47314453 C447.16400675 318.36520532 447.16321858 319.2572661 447.16240653 320.17635903 C447.15849145 324.65151371 447.15470032 329.12666849 447.15097082 333.60182333 C447.11986476 370.73458366 447.06702009 407.867288 447 445 C448.00377686 444.97905273 449.00755371 444.95810547 450.04174805 444.93652344 C453.77825566 444.86393306 457.51470137 444.81813189 461.25170898 444.78027344 C462.86672458 444.76020108 464.48166789 444.7329367 466.09643555 444.69824219 C468.42254501 444.64952785 470.74769093 444.62698846 473.07421875 444.609375 C473.79212082 444.58872986 474.51002289 444.56808472 475.24967957 444.54681396 C478.88869407 444.54519793 480.85703722 444.90873258 483.95385742 446.88574219 C486 449 486 449 486.6640625 451.21875 C486.64472656 452.34796875 486.64472656 452.34796875 486.625 453.5 C486.63789063 454.2528125 486.65078125 455.005625 486.6640625 455.78125 C485.65420899 459.15534877 483.94483357 460.12476899 481 462 C478.12828274 462.38454873 475.64464884 462.53830975 472.77745056 462.50336456 C471.94925296 462.50917833 471.12105537 462.51499209 470.26776087 462.52098203 C467.48021605 462.53563164 464.69354491 462.52167375 461.90600586 462.50793457 C459.89234687 462.51254152 457.87869125 462.51889304 455.86504269 462.52684355 C450.32193343 462.54358822 444.77909857 462.53526712 439.23598814 462.52289867 C433.26180858 462.51387152 427.28767716 462.5278063 421.31350708 462.53881836 C410.28335705 462.55560283 399.25328885 462.55411201 388.22313562 462.54317249 C378.03391002 462.5331164 367.8447166 462.53048058 357.65548706 462.53526306 C356.98001915 462.5355686 356.30455125 462.53587414 355.60861462 462.53618894 C352.86677709 462.53743426 350.12493958 462.53870786 347.38310209 462.540028 C321.6544063 462.55226827 295.92576644 462.54116339 270.19707929 462.51964041 C247.3309005 462.5006575 224.46481082 462.50235599 201.59863281 462.52148438 C175.9174656 462.54289571 150.23634782 462.55140025 124.55517292 462.53903532 C121.81828627 462.53775242 119.08139961 462.53650106 116.34451294 462.53526306 C115.67060512 462.53494675 114.9966973 462.53463044 114.30236804 462.53430455 C104.11870992 462.52975168 93.9350875 462.53508129 83.75143433 462.54518127 C72.17394645 462.55660628 60.59655871 462.55339882 49.01908278 462.5320583 C43.10864013 462.52152387 37.1983786 462.51746682 31.28793716 462.53065491 C25.8820457 462.54253502 20.47650403 462.53608869 15.0706445 462.5147447 C13.11042539 462.51026001 11.150177 462.51258644 9.18997657 462.52224785 C6.53374214 462.53434008 3.87871965 462.52201029 1.22254944 462.50336456 C0.07001503 462.51741156 0.07001503 462.51741156 -1.10580289 462.53174233 C-4.56553671 462.48290817 -6.89581337 462.0545788 -9.97458398 460.44174623 C-12.67983232 457.18042615 -12.69549233 454.48727525 -12.6292057 450.42869568 C-12.63647291 449.65875703 -12.64374011 448.88881839 -12.65122753 448.09554827 C-12.66956298 445.49997601 -12.6520835 442.90586568 -12.63491821 440.31030273 C-12.64067605 438.4370342 -12.64861488 436.5637713 -12.65855443 434.69052029 C-12.67949741 429.53081291 -12.66907878 424.37156576 -12.65362334 419.21185637 C-12.64234418 413.65212038 -12.65975544 408.09246542 -12.67352295 402.53274536 C-12.69579665 391.63649279 -12.69093576 380.74041209 -12.67645974 369.84415269 C-12.66518375 360.99129207 -12.6636295 352.13847974 -12.66907883 343.28561401 C-12.66984499 342.02729686 -12.67061116 340.76897971 -12.67140054 339.47253174 C-12.67299911 336.91656278 -12.67462017 334.36059384 -12.6762635 331.80462492 C-12.69012605 308.50194753 -12.67573181 285.19937095 -12.64955051 261.89671491 C-12.62582167 240.61501225 -12.62794478 219.33345917 -12.65185547 198.05175781 C-12.67861696 174.15269581 -12.6891597 150.25371635 -12.67379415 126.35463428 C-12.67220135 123.80788487 -12.67062949 121.26113543 -12.66907883 118.71438599 C-12.66830745 117.46122272 -12.66753607 116.20805946 -12.66674132 114.91692156 C-12.66241789 106.07113004 -12.6697247 97.22539147 -12.68147659 88.37960815 C-12.69547634 77.60462688 -12.69175485 66.82982781 -12.66507287 56.05486751 C-12.65190072 50.55361826 -12.64684015 45.05267317 -12.66331863 39.55142593 C-12.67816085 34.52047943 -12.67012501 29.49012048 -12.64343087 24.45922768 C-12.6378215 22.63426044 -12.64074093 20.80924408 -12.65280981 18.98430812 C-12.66790873 16.51259062 -12.65253443 14.04291333 -12.6292057 11.57130432 C-12.64091153 10.85458294 -12.65261737 10.13786155 -12.66467792 9.39942133 C-12.5949488 5.7299412 -12.24631848 4.25963959 -9.68333089 1.55804348 C-6.16145167 -0.4868929 -4.01005874 -0.58328127 0 0 Z " fill="#A69AA6" transform="translate(19,25)"/>
<path d="M0 0 C4.7718656 -0.20772329 7.50602148 -0.30928587 11.66796875 2.171875 C15.48482391 8.85137152 13.07194203 18.09687336 12.02734375 25.4375 C11.88145813 26.47831726 11.73557251 27.51913452 11.58526611 28.5914917 C11.275971 30.77698306 10.96315118 32.96197823 10.64697266 35.14648438 C10.16770357 38.48622286 9.71249443 41.82871205 9.2578125 45.171875 C8.95329532 47.30229431 8.64735487 49.43251078 8.33984375 51.5625 C8.14113678 53.05635223 8.14113678 53.05635223 7.93841553 54.5803833 C7.15580226 59.79378471 6.50046717 63.54014216 2.41796875 67.234375 C-1.59006722 68.4003491 -3.63485836 68.66678001 -7.45703125 66.921875 C-9.58203125 65.234375 -9.58203125 65.234375 -10.58203125 63.234375 C-11.12034625 56.10519675 -10.17788775 49.13865274 -9.08203125 42.109375 C-8.93894531 41.15289062 -8.79585938 40.19640625 -8.6484375 39.2109375 C-8.2994498 36.88435284 -7.94390792 34.55898344 -7.58203125 32.234375 C-8.39285156 32.99621094 -9.20367187 33.75804687 -10.0390625 34.54296875 C-16.10917291 40.21517534 -22.24309915 45.70451029 -28.7265625 50.90625 C-31.3539661 53.04842858 -33.91582662 55.24563095 -36.47070312 57.47265625 C-42.86031063 63.0357116 -49.43556991 68.27288002 -56.19604492 73.37792969 C-60.87544998 76.91397217 -65.46739887 80.53645337 -70.01953125 84.234375 C-77.5775302 90.34293604 -85.43627655 95.99664971 -93.34960938 101.6328125 C-95.43501983 103.12890749 -97.50361983 104.64479729 -99.56640625 106.171875 C-127.70843813 126.93149385 -157.47350471 145.48842547 -187.48730469 163.38720703 C-192.37836809 166.30656532 -197.26125404 169.23951816 -202.14453125 172.171875 C-203.79162568 173.16022455 -205.43875667 174.14851319 -207.0859375 175.13671875 C-207.76470947 175.54398193 -208.44348145 175.95124512 -209.14282227 176.37084961 C-209.61776123 176.65581299 -210.0927002 176.94077637 -210.58203125 177.234375 C-210.25203125 178.224375 -209.92203125 179.214375 -209.58203125 180.234375 C-209.08961746 185.82851856 -208.837831 190.66328558 -211.26953125 195.796875 C-214.82466185 199.54417482 -217.14610207 201.14954754 -222.40893555 201.46044922 C-223.90845139 201.41538051 -225.40761753 201.35747078 -226.90625 201.2890625 C-228.57770217 201.25134823 -230.24926752 201.21841664 -231.92089844 201.18969727 C-232.79339233 201.17367462 -233.66588623 201.15765198 -234.56481934 201.1411438 C-252.87777797 200.92604485 -265.23140975 203.72794141 -281.07958984 213.26513672 C-287.94568734 217.24625671 -295.37595542 220.20245246 -302.64453125 223.359375 C-304.21293935 224.04724302 -305.78097555 224.73595964 -307.34863281 225.42553711 C-310.37842434 226.75802767 -313.40965178 228.08716071 -316.44189453 229.4140625 C-320.02925841 230.98705542 -323.60303329 232.58847642 -327.171875 234.203125 C-353.83239942 246.22360261 -381.33345301 256.30077152 -408.83178711 266.21972656 C-410.67053642 266.89809693 -412.49857266 267.60621584 -414.31469727 268.34301758 C-417.79391422 269.71080277 -420.91172817 269.95215605 -424.58203125 269.234375 C-428.02855451 266.79308769 -429.36259414 265.40470626 -430.14453125 261.234375 C-429.42455065 257.39447845 -428.33879866 256.01767556 -425.58203125 253.234375 C-422.77621032 251.73173759 -419.84254974 250.70954803 -416.83984375 249.66796875 C-415.9724205 249.35253616 -415.10499725 249.03710358 -414.21128845 248.71211243 C-412.34940866 248.0366424 -410.48502379 247.36804512 -408.61843872 246.70568848 C-403.70023388 244.95928008 -398.80109553 243.16057342 -393.8984375 241.37109375 C-392.43309822 240.83882675 -392.43309822 240.83882675 -390.93815613 240.29580688 C-373.13738899 233.81910848 -355.63099017 226.59764773 -338.20703125 219.171875 C-337.18746338 218.7377832 -336.16789551 218.30369141 -335.11743164 217.85644531 C-323.51270155 212.85692608 -312.05742179 207.52209297 -300.58203125 202.234375 C-301.85909943 202.23072937 -303.1361676 202.22708374 -304.45193481 202.22332764 C-316.48802529 202.18638393 -328.52385976 202.12861777 -340.55975533 202.05047226 C-346.74752996 202.01096589 -352.9351616 201.97879273 -359.12304688 201.96337891 C-365.09489424 201.94823342 -371.06634859 201.91382462 -377.03802109 201.86606598 C-379.31613626 201.85123055 -381.59430754 201.84333275 -383.87247086 201.84249115 C-387.06400693 201.84012634 -390.25445258 201.8130843 -393.44580078 201.78027344 C-394.38735519 201.7853038 -395.32890961 201.79033417 -396.29899597 201.79551697 C-401.88421278 201.70670048 -405.17127405 200.99933662 -409.58203125 197.234375 C-412.88629935 192.8521687 -413.32695245 189.3241929 -413.1875 183.9453125 C-411.14124725 171.40376341 -404.25136549 159.16746622 -396.58203125 149.234375 C-396.1761377 148.70650391 -395.77024414 148.17863281 -395.35205078 147.63476562 C-378.3027572 125.74082897 -353.69541124 110.93113979 -326.00512695 107.25 C-319.54106408 106.48196457 -313.08864327 105.75853374 -306.58203125 106.234375 C-305.38964844 106.31429687 -304.19726562 106.39421875 -302.96875 106.4765625 C-280.07424944 108.39308282 -260.28932684 116.72388312 -242.58203125 131.234375 C-241.71964844 131.93175781 -240.85726562 132.62914062 -239.96875 133.34765625 C-231.85942812 140.24625511 -224.6834061 148.85178203 -219.58203125 158.234375 C-219.58203125 158.894375 -219.58203125 159.554375 -219.58203125 160.234375 C-210.38153103 155.82550664 -201.57385588 151.00550391 -192.88867188 145.6484375 C-190.34296045 144.08781508 -187.78328487 142.55164329 -185.22265625 141.015625 C-171.42014632 132.68490902 -157.9316302 123.92817481 -144.51953125 114.984375 C-143.70403809 114.44128693 -142.88854492 113.89819885 -142.04833984 113.33865356 C-127.5283642 103.65751174 -113.17973253 93.73371572 -99.14453125 83.359375 C-98.36795166 82.78622559 -97.59137207 82.21307617 -96.79125977 81.62255859 C-81.99873009 70.65462829 -67.58305822 59.18766567 -53.3515625 47.50390625 C-51.56189261 46.03733614 -49.7679032 44.57601435 -47.96875 43.12109375 C-42.44658745 38.64609684 -37.0210253 34.0700583 -31.64453125 29.421875 C-30.68595215 28.59478027 -30.68595215 28.59478027 -29.70800781 27.75097656 C-29.10053711 27.22342773 -28.49306641 26.69587891 -27.8671875 26.15234375 C-27.329729 25.68594482 -26.79227051 25.2195459 -26.23852539 24.73901367 C-24.28722951 22.96659856 -22.4338988 21.10992308 -20.58203125 19.234375 C-21.40405029 19.28561523 -22.22606934 19.33685547 -23.07299805 19.38964844 C-26.80425517 19.60986241 -30.53646478 19.79744678 -34.26953125 19.984375 C-35.56310547 20.06558594 -36.85667969 20.14679687 -38.18945312 20.23046875 C-39.43662109 20.28847656 -40.68378906 20.34648438 -41.96875 20.40625 C-43.11561279 20.4690918 -44.26247559 20.53193359 -45.4440918 20.59667969 C-49.29614717 20.15192359 -50.85004708 18.92197955 -53.58203125 16.234375 C-55.0263398 13.34575791 -54.95891631 11.43789799 -54.58203125 8.234375 C-52.93160765 5.68854917 -52.15732754 4.68625729 -49.58203125 3.234375 C-45.21195259 2.32484849 -40.84695279 2.16451383 -36.39453125 1.984375 C-35.13962891 1.91557129 -33.88472656 1.84676758 -32.59179688 1.77587891 C-30.07814444 1.63999708 -27.5639543 1.51368784 -25.04931641 1.39746094 C-22.0823164 1.25790623 -19.12021578 1.0903939 -16.15625 0.8984375 C-10.77286458 0.55036899 -5.38276585 0.35219842 0 0 Z " fill="#89C9FD" transform="translate(460.58203125,34.765625)"/>
<path d="M0 0 C1.0686731 -0.00287018 2.13734619 -0.00574036 3.23840332 -0.00869751 C5.49439017 -0.01073598 7.75039477 -0.00522136 10.00634766 0.00732422 C13.45645731 0.02338029 16.90539547 0.00746746 20.35546875 -0.01171875 C22.54948175 -0.00973628 24.74349402 -0.00589253 26.9375 0 C27.96782349 -0.00607269 28.99814697 -0.01214539 30.05969238 -0.0184021 C39.11411005 0.07037226 39.11411005 0.07037226 42.96875 3.3984375 C45.74846885 6.49472942 46.34307299 8.43914547 46.33789349 12.57584 C46.34386663 13.62882286 46.34983978 14.68180573 46.35599393 15.76669717 C46.3472554 16.92233029 46.33851688 18.07796341 46.32951355 19.26861572 C46.33207682 20.49709913 46.3346401 21.72558254 46.33728105 22.99129272 C46.34137292 26.40291968 46.33197948 29.81403208 46.31694686 33.2255969 C46.30400572 36.90381586 46.3083746 40.58201859 46.31065369 44.26025391 C46.31222764 50.63358587 46.30280571 57.00682578 46.28594017 63.38013458 C46.26157125 72.59488283 46.25374706 81.80958651 46.2499762 91.02436349 C46.2434084 105.97427538 46.22343834 120.9241382 46.19506836 135.87402344 C46.16753628 150.39745844 46.14629854 164.92088011 46.13354492 179.44433594 C46.13275675 180.33938372 46.13196858 181.2344315 46.13115653 182.15660194 C46.12724145 186.64674069 46.12345032 191.13687954 46.11972082 195.62701845 C46.08861469 232.88419279 46.03576996 270.14131132 45.96875 307.3984375 C37.64146053 307.42156434 29.31418437 307.43935433 20.98687077 307.45024967 C17.12054882 307.45547776 13.25424879 307.46257404 9.38793945 307.47387695 C5.65971599 307.4847085 1.93151366 307.4907149 -1.79672432 307.49331474 C-3.22214656 307.49516851 -4.64756759 307.49878821 -6.07298088 307.50416756 C-8.06288408 307.51138143 -10.05280834 307.51184558 -12.04272461 307.51196289 C-13.17745712 307.5141835 -14.31218964 307.51640411 -15.48130798 307.51869202 C-18.03125 307.3984375 -18.03125 307.3984375 -19.03125 306.3984375 C-19.13095067 304.81942632 -19.16048303 303.23594461 -19.16267776 301.65379047 C-19.16651891 300.62093113 -19.17036005 299.58807179 -19.1743176 298.52391368 C-19.17345112 297.3753076 -19.17258463 296.22670151 -19.17169189 295.04328918 C-19.17466302 293.8338531 -19.17763414 292.62441702 -19.1806953 291.37833136 C-19.18789906 288.00589137 -19.19055643 284.63350228 -19.19129276 281.26105821 C-19.19313849 277.62970108 -19.20068349 273.99835511 -19.20742798 270.36700439 C-19.22103298 262.41856866 -19.2270397 254.47013796 -19.23143864 246.52169251 C-19.23419804 241.56083904 -19.23843489 236.59998752 -19.24294281 231.63913536 C-19.25513951 217.9111598 -19.26543725 204.18318582 -19.2688179 190.45520496 C-19.26903747 189.57586892 -19.26925703 188.69653287 -19.26948325 187.79055027 C-19.26981067 186.46833223 -19.26981067 186.46833223 -19.2701447 185.11940271 C-19.27058817 183.33310115 -19.27103474 181.5467996 -19.27148438 179.76049805 C-19.2717058 178.87442482 -19.27192723 177.9883516 -19.27215537 177.07542767 C-19.27610263 162.72059918 -19.29355264 148.36582147 -19.3168439 134.01101259 C-19.34054924 119.2823683 -19.35301942 104.5537495 -19.35418582 89.82508582 C-19.35510317 81.551843 -19.36087033 73.2786663 -19.37900543 65.00544167 C-19.39439558 57.95943833 -19.39953342 50.91352152 -19.39126733 43.86750457 C-19.38735661 40.27184097 -19.38831068 36.67635169 -19.40232468 33.08070946 C-19.41737616 29.18323208 -19.40920925 25.28600094 -19.39874268 21.38850403 C-19.40679908 20.25105155 -19.41485548 19.11359908 -19.42315602 17.94167835 C-19.38798155 12.35900938 -19.268129 8.17977538 -16.03125 3.3984375 C-11.52083984 -0.77799067 -5.79154474 -0.03413517 0 0 Z " fill="#8AC8FD" transform="translate(420.03125,163.6015625)"/>
<path d="M0 0 C1.5672155 -0.02409439 1.5672155 -0.02409439 3.16609192 -0.04867554 C7.94649661 -0.09306697 12.72676171 -0.13418771 17.50732422 -0.15722656 C20.03020446 -0.17379347 22.55303764 -0.20109274 25.07568359 -0.23925781 C28.70915124 -0.2939608 32.34151808 -0.3158914 35.9753418 -0.33056641 C37.10257156 -0.35323578 38.22980133 -0.37590515 39.39118958 -0.39926147 C47.21081611 -0.3781224 47.21081611 -0.3781224 51.17529297 2.53808594 C53.45372227 5.87667107 54.11200874 8.31002623 54.11290169 12.2605381 C54.11550943 13.0914593 54.11811718 13.9223805 54.12080395 14.77848113 C54.11857323 15.69121523 54.11634251 16.60394933 54.11404419 17.54434204 C54.11638418 18.99883147 54.11638418 18.99883147 54.11877143 20.48270452 C54.12277425 23.74629744 54.11959456 27.0098442 54.11645508 30.2734375 C54.11780942 32.60720344 54.11958954 34.94096917 54.12176514 37.2747345 C54.12633506 43.62360038 54.12455184 49.97245007 54.12138605 56.32131624 C54.11911648 62.28115924 54.12084564 68.24100021 54.12231325 74.20084326 C54.12516615 86.72171547 54.12188374 99.24258037 54.11651288 111.76345138 C54.11204293 122.51727203 54.11282271 133.27108189 54.11743164 144.02490234 C54.12277715 156.50326445 54.12489368 168.98162014 54.12181938 181.45998323 C54.12025635 188.06912583 54.12006358 194.67826098 54.12335587 201.28740311 C54.12623312 207.49744346 54.12426159 213.70746332 54.11846161 219.91750145 C54.11713334 222.20368986 54.11752925 224.48987999 54.11972427 226.77606773 C54.12243309 229.88252468 54.11905799 232.98891481 54.11404419 236.09536743 C54.11739027 237.47116075 54.11739027 237.47116075 54.12080395 238.87474787 C54.10121054 245.0787211 54.10121054 245.0787211 52.98706055 246.19287109 C50.99274325 246.28692251 48.99506512 246.31030359 46.99853516 246.30639648 C45.71728256 246.30632095 44.43602997 246.30624542 43.11595154 246.3061676 C41.70710207 246.30106019 40.29825299 246.29584418 38.8894043 246.29052734 C37.4559382 246.28866312 36.02247147 246.28723924 34.58900452 246.28623962 C30.80946098 246.28241482 27.02995565 246.27258486 23.25042725 246.26153564 C19.39636756 246.25132072 15.54230173 246.24674183 11.68823242 246.24169922 C4.12115768 246.23096255 -3.44588554 246.21388658 -11.01293945 246.19287109 C-11.10416808 215.70342485 -11.17496688 185.21400358 -11.21720077 154.72445287 C-11.22220366 151.12579062 -11.22738095 147.52712864 -11.23266602 143.9284668 C-11.23371526 143.2120308 -11.2347645 142.49559481 -11.23584554 141.75744864 C-11.25325604 130.15336942 -11.28479725 118.54936938 -11.32155064 106.94533715 C-11.35894217 95.04063731 -11.38117151 83.13597897 -11.38929343 71.23122281 C-11.39429188 64.54359601 -11.40682005 57.85611344 -11.43585968 51.16854286 C-11.46295802 44.87721346 -11.47139564 38.58613815 -11.46537018 32.29475594 C-11.46647291 29.98282237 -11.4744597 27.67088053 -11.48976135 25.35899734 C-11.50960137 22.2075076 -11.50489996 19.0569829 -11.49395752 15.9054718 C-11.50560889 14.98620842 -11.51726025 14.06694503 -11.52926469 13.11982518 C-11.4899238 8.94096878 -11.37074368 6.76468842 -9.10787582 3.14833355 C-5.96669407 0.21628126 -4.20034173 0.05858691 0 0 Z " fill="#6CF4C1" transform="translate(294.012939453125,224.80712890625)"/>
<path d="M0 0 C1.0447348 -0.0127597 2.0894696 -0.02551941 3.16586304 -0.03866577 C4.29400421 -0.04089142 5.42214539 -0.04311707 6.58447266 -0.04541016 C8.32490341 -0.05539536 8.32490341 -0.05539536 10.10049438 -0.06558228 C12.5567262 -0.07571451 15.01298558 -0.08039912 17.46923828 -0.08007812 C21.22686174 -0.08444745 24.98330739 -0.12075265 28.74072266 -0.15869141 C31.1261353 -0.16456015 33.51155353 -0.16852916 35.89697266 -0.17041016 C37.02106537 -0.18478119 38.14515808 -0.19915222 39.30331421 -0.21395874 C47.10571842 -0.16827993 47.10571842 -0.16827993 51.05957031 2.19433594 C54.24501406 5.87538843 53.9972767 8.27971322 53.99378967 13.0987854 C53.9946441 13.80694881 53.99549852 14.51511222 53.99637884 15.24473512 C53.9980324 17.62932792 53.99251429 20.01385113 53.98706055 22.3984375 C53.98677862 24.10314431 53.98693651 25.80785124 53.98750305 27.51255798 C53.98779082 32.15073195 53.98189739 36.78888023 53.97492909 41.42704821 C53.96869216 46.27040509 53.96809149 51.11376252 53.96690369 55.9571228 C53.96379138 65.13333902 53.95557933 74.30954338 53.9455542 83.48575437 C53.93438996 93.93058228 53.92888182 104.37541074 53.92385876 114.82024312 C53.91339664 136.31034449 53.89579913 157.80043517 53.87353516 179.29052734 C45.54624568 179.31365419 37.21896953 179.33144417 28.89165592 179.34233952 C25.02533398 179.3475676 21.15903394 179.35466388 17.29272461 179.3659668 C13.56450115 179.37679834 9.83629881 179.38280474 6.10806084 179.38540459 C4.6826386 179.38725835 3.25721757 179.39087805 1.83180428 179.3962574 C-0.15809892 179.40347127 -2.14802318 179.40393543 -4.13793945 179.40405273 C-5.27267197 179.40627335 -6.40740448 179.40849396 -7.57652283 179.41078186 C-10.12646484 179.29052734 -10.12646484 179.29052734 -11.12646484 178.29052734 C-11.23001514 176.12948556 -11.26170089 173.96499816 -11.26690674 171.80148315 C-11.26987786 171.11544734 -11.27284898 170.42941153 -11.27591014 169.72258675 C-11.28463351 167.40651709 -11.28610846 165.09049889 -11.28759766 162.77441406 C-11.29222343 161.12061959 -11.29724776 159.4668262 -11.30264282 157.81303406 C-11.315796 153.30656905 -11.32221798 148.80011897 -11.32665348 144.29363775 C-11.3295808 141.47890998 -11.33368505 138.66418631 -11.33815765 135.8494606 C-11.3518431 127.04537946 -11.36150342 118.24130768 -11.36535954 109.43721664 C-11.36983663 99.27042689 -11.38736389 89.10377184 -11.41636014 78.93702304 C-11.43798293 71.08302786 -11.44806422 63.22907053 -11.44940066 55.3750459 C-11.45044869 50.68270583 -11.45635535 45.99049219 -11.47422028 41.29818344 C-11.49071024 36.8806657 -11.49285197 32.46336925 -11.48408127 28.04583168 C-11.48331127 26.42653244 -11.48764878 24.80722126 -11.49753952 23.18795204 C-11.51027684 20.97219705 -11.50437308 18.75722362 -11.49395752 16.54147339 C-11.49542408 15.30296064 -11.49689064 14.0644479 -11.49840164 12.78840446 C-11.05394755 8.60853893 -10.07693666 6.0072108 -8.12646484 2.29052734 C-4.8373126 0.09775918 -3.8227516 0.03168431 0 0 Z " fill="#FEE077" transform="translate(175.12646484375,291.70947265625)"/>
<path d="M0 0 C10.22203189 8.4999276 17.98731671 20.68970766 20 34 C21.03206501 51.18980402 18.25892926 65.72381081 6.8125 79.125 C-4.60982666 91.30377214 -17.49932752 95.99188125 -33.875 97.3125 C-49.10526119 96.77533311 -62.51734649 90.82565478 -73.23046875 80.125 C-84.11404804 68.41401409 -87.84282324 54.09891281 -87.3515625 38.44921875 C-86.48433798 23.85925803 -79.324222 11.92966575 -69 2 C-49.057092 -14.64026081 -20.9205134 -15.40870419 0 0 Z " fill="#F6DBCD" transform="translate(183,37)"/>
<path d="M0 0 C1.5672155 -0.02409439 1.5672155 -0.02409439 3.16609192 -0.04867554 C7.94649661 -0.09306697 12.72676171 -0.13418771 17.50732422 -0.15722656 C20.03020446 -0.17379347 22.55303764 -0.20109274 25.07568359 -0.23925781 C28.70915124 -0.2939608 32.34151808 -0.3158914 35.9753418 -0.33056641 C37.10257156 -0.35323578 38.22980133 -0.37590515 39.39118958 -0.39926147 C47.21081611 -0.3781224 47.21081611 -0.3781224 51.17529297 2.53808594 C53.5465025 6.01262204 54.11212891 8.50955908 54.10731506 12.61576843 C54.10937706 13.97242615 54.10937706 13.97242615 54.11148071 15.35649109 C54.1060878 16.84110588 54.1060878 16.84110588 54.10058594 18.35571289 C54.10073196 19.39978302 54.10087799 20.44385315 54.10102844 21.51956177 C54.10033072 24.97709212 54.09254485 28.43456888 54.0847168 31.89208984 C54.08285212 34.2867683 54.08142845 36.68144713 54.08042908 39.0761261 C54.07660783 45.38409475 54.06678086 51.69204043 54.0557251 58 C54.04370578 65.56574275 54.03910687 73.13149317 54.03327179 80.69724274 C54.02356893 92.1958015 54.00440959 103.69430986 53.98706055 115.19287109 C32.53706055 115.19287109 11.08706055 115.19287109 -11.01293945 115.19287109 C-11.17337469 88.19072934 -11.17337469 88.19072934 -11.20825195 76.69091797 C-11.23217393 68.84046634 -11.26048985 60.99020111 -11.31469727 53.13989258 C-11.35812203 46.81160627 -11.38206981 40.48351984 -11.39244843 34.15509605 C-11.39984577 31.73932435 -11.41429081 29.32356371 -11.43585968 26.90787697 C-11.46484788 23.52712897 -11.46889724 20.14720947 -11.46704102 16.76635742 C-11.48142212 15.7651033 -11.49580322 14.76384918 -11.51062012 13.73225403 C-11.48457311 9.35521134 -11.44109027 6.8898192 -9.10955811 3.0945282 C-5.95203069 0.23061471 -4.17340431 0.05821118 0 0 Z " fill="#FD646F" transform="translate(57.012939453125,355.80712890625)"/>
<path d="M0 0 C4.7718656 -0.20772329 7.50602148 -0.30928587 11.66796875 2.171875 C15.48482391 8.85137152 13.07194203 18.09687336 12.02734375 25.4375 C11.88145813 26.47831726 11.73557251 27.51913452 11.58526611 28.5914917 C11.275971 30.77698306 10.96315118 32.96197823 10.64697266 35.14648438 C10.16770357 38.48622286 9.71249443 41.82871205 9.2578125 45.171875 C8.95329532 47.30229431 8.64735487 49.43251078 8.33984375 51.5625 C8.20737244 52.55840149 8.07490112 53.55430298 7.93841553 54.5803833 C7.15580226 59.79378471 6.50046717 63.54014216 2.41796875 67.234375 C-1.59006722 68.4003491 -3.63485836 68.66678001 -7.45703125 66.921875 C-9.58203125 65.234375 -9.58203125 65.234375 -10.58203125 63.234375 C-11.12034625 56.10519675 -10.17788775 49.13865274 -9.08203125 42.109375 C-8.93894531 41.15289062 -8.79585937 40.19640625 -8.6484375 39.2109375 C-8.2994498 36.88435284 -7.94390792 34.55898344 -7.58203125 32.234375 C-8.39285156 32.99621094 -9.20367187 33.75804687 -10.0390625 34.54296875 C-16.10917291 40.21517534 -22.24309915 45.70451029 -28.7265625 50.90625 C-31.3539661 53.04842858 -33.91582662 55.24563095 -36.47070312 57.47265625 C-42.86031063 63.0357116 -49.43556991 68.27288002 -56.19604492 73.37792969 C-60.87544998 76.91397217 -65.46739887 80.53645337 -70.01953125 84.234375 C-77.5775302 90.34293604 -85.43627655 95.99664971 -93.34960938 101.6328125 C-95.43501983 103.12890749 -97.50361983 104.64479729 -99.56640625 106.171875 C-128.67208182 127.64234785 -159.49777262 146.79591711 -190.58203125 165.234375 C-191.54463867 165.80768555 -192.50724609 166.38099609 -193.49902344 166.97167969 C-196.1472158 168.54615547 -198.80082505 170.11096628 -201.45703125 171.671875 C-202.24142578 172.13859619 -203.02582031 172.60531738 -203.83398438 173.08618164 C-204.55263672 173.50504639 -205.27128906 173.92391113 -206.01171875 174.35546875 C-206.63288574 174.7208374 -207.25405273 175.08620605 -207.89404297 175.46264648 C-209.58203125 176.234375 -209.58203125 176.234375 -212.58203125 176.234375 C-213.58644465 173.9445516 -214.58570737 171.6527151 -215.58203125 169.359375 C-216.01128906 168.38291016 -216.01128906 168.38291016 -216.44921875 167.38671875 C-218.58203125 162.4609375 -218.58203125 162.4609375 -218.58203125 160.234375 C-217.6075 159.70972656 -216.63296875 159.18507812 -215.62890625 158.64453125 C-158.06167524 127.31750597 -103.95362768 89.04714018 -53.3515625 47.50390625 C-51.56189261 46.03733614 -49.7679032 44.57601435 -47.96875 43.12109375 C-42.44658745 38.64609684 -37.0210253 34.0700583 -31.64453125 29.421875 C-31.00547852 28.87047852 -30.36642578 28.31908203 -29.70800781 27.75097656 C-29.10053711 27.22342773 -28.49306641 26.69587891 -27.8671875 26.15234375 C-27.329729 25.68594482 -26.79227051 25.2195459 -26.23852539 24.73901367 C-24.28722951 22.96659856 -22.4338988 21.10992308 -20.58203125 19.234375 C-21.40405029 19.28561523 -22.22606934 19.33685547 -23.07299805 19.38964844 C-26.80425517 19.60986241 -30.53646478 19.79744678 -34.26953125 19.984375 C-35.56310547 20.06558594 -36.85667969 20.14679687 -38.18945312 20.23046875 C-39.43662109 20.28847656 -40.68378906 20.34648438 -41.96875 20.40625 C-43.11561279 20.4690918 -44.26247559 20.53193359 -45.4440918 20.59667969 C-49.29614717 20.15192359 -50.85004708 18.92197955 -53.58203125 16.234375 C-55.0263398 13.34575791 -54.95891631 11.43789799 -54.58203125 8.234375 C-52.93160765 5.68854917 -52.15732754 4.68625729 -49.58203125 3.234375 C-45.21195259 2.32484849 -40.84695279 2.16451383 -36.39453125 1.984375 C-35.13962891 1.91557129 -33.88472656 1.84676758 -32.59179688 1.77587891 C-30.07814444 1.63999708 -27.5639543 1.51368784 -25.04931641 1.39746094 C-22.0823164 1.25790623 -19.12021578 1.0903939 -16.15625 0.8984375 C-10.77286458 0.55036899 -5.38276585 0.35219842 0 0 Z " fill="#6BF5C2" transform="translate(460.58203125,34.765625)"/>
<path d="M0 0 C3.06303578 -0.08115993 6.12390815 -0.14057409 9.1875 -0.1875 C10.48397461 -0.22520508 10.48397461 -0.22520508 11.80664062 -0.26367188 C16.6947481 -0.31985702 20.08982486 -0.27688877 24 3 C26.77803564 6.08835994 27.37433068 8.03277972 27.36914349 12.16178513 C27.37511663 13.2112846 27.38108978 14.26078407 27.38724393 15.34208655 C27.37413614 17.06969982 27.37413614 17.06969982 27.36076355 18.83221436 C27.36332682 20.05661421 27.3658901 21.28101407 27.36853105 22.54251695 C27.37262286 25.94274299 27.36322965 29.34245273 27.34819686 32.74261642 C27.33525555 36.40856532 27.33962461 40.07449794 27.34190369 43.74046326 C27.34347763 50.09251442 27.33405581 56.44447323 27.31719017 62.79650116 C27.2928211 71.98048033 27.28499705 81.16441479 27.2812262 90.3484228 C27.27465842 105.24842047 27.25468842 120.14836891 27.22631836 135.04833984 C27.19878622 149.52327223 27.17754851 163.99819125 27.16479492 178.47314453 C27.16400675 179.36520532 27.16321858 180.2572661 27.16240653 181.17635903 C27.15849145 185.65151371 27.15470032 190.12666849 27.15097082 194.60182333 C27.11986476 231.73458399 27.06679727 268.86728737 27 306 C21.06 306 15.12 306 9 306 C8.99761165 304.46272121 8.99522329 302.92544243 8.99276257 301.34157944 C8.93543585 264.87159743 8.86272895 228.40167481 8.77101372 191.9317625 C8.75974519 187.44555679 8.7486068 182.95935077 8.73754883 178.47314453 C8.73534514 177.57999996 8.73314146 176.68685538 8.730871 175.76664582 C8.69547281 161.29403768 8.67062292 146.8214296 8.64965298 132.34879419 C8.62791099 117.50489726 8.59487588 102.66105663 8.55129844 87.81720757 C8.52475405 78.65350352 8.50707923 69.48986966 8.50065396 60.32612905 C8.49540858 54.04712009 8.47922035 47.76819955 8.45433434 41.48923793 C8.44029005 37.86347216 8.43115938 34.23786478 8.43499184 30.61207008 C8.43901665 26.68533221 8.42004399 22.75890097 8.39872742 18.83221436 C8.40599878 17.10460109 8.40599878 17.10460109 8.41341704 15.34208655 C8.4039605 14.29258708 8.39450396 13.24308761 8.38476086 12.16178513 C8.38286225 11.25501298 8.38096365 10.34824083 8.37900752 9.41399074 C7.920608 6.49433314 7.00651411 5.14271978 5 3 C2.41501488 1.73152315 2.41501488 1.73152315 0 1 C0 0.67 0 0.34 0 0 Z " fill="#60B7FE" transform="translate(439,164)"/>
<path d="M0 0 C3.22868746 -0.14584064 6.45652365 -0.23424106 9.6875 -0.3125 C10.59951172 -0.35439453 11.51152344 -0.39628906 12.45117188 -0.43945312 C17.10557937 -0.52407872 19.26885385 -0.55322465 23.08203125 2.33203125 C25.47915773 5.66652694 26.12493586 8.0625723 26.12584114 12.06766701 C26.12844889 12.89858821 26.13105664 13.7295094 26.13374341 14.58561003 C26.13039732 15.95471119 26.13039732 15.95471119 26.12698364 17.35147095 C26.12854363 18.32113057 26.13010362 19.29079018 26.13171089 20.28983343 C26.1357137 23.55342634 26.13253401 26.81697311 26.12939453 30.08056641 C26.13074887 32.41433235 26.13252899 34.74809808 26.13470459 37.0818634 C26.13927451 43.43072929 26.13749129 49.77957897 26.1343255 56.12844515 C26.13205593 62.08828815 26.13378509 68.04812912 26.1352527 74.00797217 C26.13810561 86.52884438 26.1348232 99.04970928 26.12945233 111.57058029 C26.12498238 122.32440094 26.12576217 133.0782108 26.13037109 143.83203125 C26.1357166 156.31039335 26.13783313 168.78874905 26.13475883 181.26711214 C26.13319581 187.87625473 26.13300303 194.48538989 26.13629532 201.09453201 C26.13917257 207.30457237 26.13720105 213.51459223 26.13140106 219.72463036 C26.13007279 222.01081877 26.1304687 224.29700889 26.13266373 226.58319664 C26.13537254 229.68965358 26.13199744 232.79604372 26.12698364 235.90249634 C26.12921436 236.81969188 26.13144509 237.73688743 26.13374341 238.68187678 C26.11414999 244.88585001 26.11414999 244.88585001 25 246 C23.65732587 246.08631874 22.31025678 246.10706473 20.96484375 246.09765625 C20.15595703 246.09443359 19.34707031 246.09121094 18.51367188 246.08789062 C17.66353516 246.07951172 16.81339844 246.07113281 15.9375 246.0625 C15.08349609 246.05798828 14.22949219 246.05347656 13.34960938 246.04882812 C11.23304337 246.03700373 9.11651315 246.01906769 7 246 C6.99761165 244.76679142 6.99522329 243.53358284 6.99276257 242.2630043 C6.93542722 213.00211969 6.86271417 183.74131175 6.77101372 154.48051645 C6.75974529 150.880566 6.74860688 147.28061516 6.73754883 143.68066406 C6.73534514 142.96396576 6.73314146 142.24726746 6.730871 141.50885102 C6.69547953 129.89768307 6.67062585 118.28651519 6.64965298 106.67531326 C6.62790564 94.76492 6.59486542 82.85459686 6.55129844 70.94426322 C6.52714683 64.25280973 6.50861939 57.56143883 6.50238609 50.86994171 C6.49635895 44.5761293 6.47644515 38.28251601 6.44572449 31.98877716 C6.43690614 29.67483907 6.43322947 27.360875 6.43499184 25.04692078 C6.43663486 21.89516324 6.42002814 18.74401978 6.39872742 15.59234619 C6.40357499 14.67016997 6.40842257 13.74799374 6.41341704 12.79787278 C6.38129748 7.96250086 6.38129748 7.96250086 4.66257954 3.52547836 C2.87012125 1.80233315 2.87012125 1.80233315 0 0 Z " fill="#05E49B" transform="translate(322,225)"/>
<path d="M0 0 C3.22886009 -0.11667875 6.45717445 -0.18740546 9.6875 -0.25 C11.05551758 -0.30027344 11.05551758 -0.30027344 12.45117188 -0.3515625 C16.81769795 -0.41507561 19.28725121 -0.43722486 23.08203125 1.890625 C26.39572163 5.53500953 26.12379398 7.90706857 26.12025452 12.77029419 C26.12110894 13.47437405 26.12196337 14.1784539 26.12284368 14.90386951 C26.12449721 17.27464292 26.11897919 19.64534634 26.11352539 22.01611328 C26.11324347 23.710968 26.11340136 25.40582284 26.1139679 27.10067749 C26.11425566 31.71199287 26.10836228 36.32328241 26.10139394 40.93459177 C26.09515695 45.74992143 26.09455633 50.56525164 26.09336853 55.38058472 C26.09025624 64.50367702 26.08204421 73.62675739 26.07201904 82.74984443 C26.06085475 93.13421398 26.05534666 103.5185841 26.05032361 113.90295815 C26.03986152 135.26864562 26.0220634 156.63432164 26 178 C20.06 178 14.12 178 8 178 C7.98786972 174.79987213 7.98786972 174.79987213 7.97549438 171.53509521 C7.89847029 151.46346138 7.81052862 131.39189674 7.71247292 111.32035446 C7.66232113 101.00053138 7.6158785 90.68071634 7.578125 80.36083984 C7.54521509 71.36751289 7.50538942 62.37424791 7.45720994 53.38098931 C7.43193501 48.61780321 7.41015665 43.85465827 7.39665604 39.09142303 C7.38384473 34.60990163 7.36180036 30.12852134 7.33261681 25.64707756 C7.32353375 24.00073965 7.3178491 22.35437902 7.31578636 20.70801735 C7.31246894 18.46279705 7.29700596 16.21797808 7.2784729 13.97283936 C7.27294214 12.71551373 7.26741138 11.4581881 7.26171303 10.16276169 C7.01268669 7.15331671 6.7145466 5.45569181 5 3 C2.46229997 1.71745356 2.46229997 1.71745356 0 1 C0 0.67 0 0.34 0 0 Z " fill="#FFD064" transform="translate(203,292)"/>
<path d="M0 0 C0.86238281 0.69738281 1.72476563 1.39476562 2.61328125 2.11328125 C14.02579865 11.82190802 21.54228947 23.65968138 28 37 C28.52980469 38.05445313 29.05960937 39.10890625 29.60546875 40.1953125 C32.83407646 47.12280131 34.22123905 53.36725592 33 61 C30.82432548 65.59309065 28.53664656 67.81580436 24 70 C21.34491636 70.25139766 18.9384652 70.35182051 16.29296875 70.29296875 C15.20487663 70.28660149 15.20487663 70.28660149 14.09480286 70.28010559 C11.79198109 70.26339543 9.49005447 70.2257596 7.1875 70.1875 C5.6204554 70.17244316 4.053397 70.1587565 2.48632812 70.14648438 C-1.34278957 70.11351731 -5.17124334 70.06178992 -9 70 C-8.39414063 69.70867187 -7.78828125 69.41734375 -7.1640625 69.1171875 C-2.86645437 66.89856669 0.13246521 64.48372891 2 60 C4.57227727 48.45889756 -3.18617406 35.70918667 -8.875 26.125 C-12.81052941 20.03520593 -17.20639435 14.43450897 -22 9 C-22.53882813 8.37738281 -23.07765625 7.75476563 -23.6328125 7.11328125 C-38.82642577 -9.26375416 -62.24032358 -19.56965101 -84 -23 C-84 -23.33 -84 -23.66 -84 -24 C-52.80691848 -27.26507022 -24.41617299 -20.00817561 0 0 Z " fill="#61B7FE" transform="translate(218,166)"/>
<path d="M0 0 C-4.07710967 3.17644527 -8.38853619 5.38579354 -13 7.6875 C-13.94061279 8.15736328 -14.88122559 8.62722656 -15.8503418 9.11132812 C-28.89553313 15.53269072 -42.23358294 21.32241649 -55.54678345 27.16081238 C-59.91070367 29.07560578 -64.26352013 31.01226684 -68.60546875 32.9765625 C-95.26188099 44.99219173 -122.75678283 55.06833032 -150.24975586 64.98535156 C-152.08850517 65.66372193 -153.91654141 66.37184084 -155.73266602 67.10864258 C-159.21188297 68.47642777 -162.32969692 68.71778105 -166 68 C-169.44652326 65.55871269 -170.78056289 64.17033126 -171.5625 60 C-170.8425194 56.16010345 -169.75676741 54.78330056 -167 52 C-164.19417907 50.49736259 -161.26051849 49.47517303 -158.2578125 48.43359375 C-156.95667763 47.96044487 -156.95667763 47.96044487 -155.6292572 47.47773743 C-153.76737741 46.8022674 -151.90299254 46.13367012 -150.03640747 45.47131348 C-145.11820263 43.72490508 -140.21906428 41.92619842 -135.31640625 40.13671875 C-134.3395134 39.78187408 -133.36262054 39.42702942 -132.35612488 39.06143188 C-114.61579474 32.60672311 -97.17597398 25.40342233 -79.8125 18 C-78.07395752 17.27006836 -78.07395752 17.27006836 -76.30029297 16.52539062 C-70.591377 14.09988234 -65.0633142 11.55057158 -59.6171875 8.578125 C-39.89020704 -1.83266865 -21.78602004 -1.31637583 0 0 Z " fill="#6BF5C2" transform="translate(202,236)"/>
<path d="M0 0 C3.22868746 -0.14584064 6.45652365 -0.23424106 9.6875 -0.3125 C10.59951172 -0.35439453 11.51152344 -0.39628906 12.45117188 -0.43945312 C17.10557937 -0.52407872 19.26885385 -0.55322465 23.08203125 2.33203125 C25.56551848 5.78665809 26.12515916 8.24050925 26.12025452 12.38493347 C26.12162918 13.28095779 26.12300385 14.17698212 26.12442017 15.10015869 C26.12082489 16.08055115 26.11722961 17.0609436 26.11352539 18.07104492 C26.11367142 19.10536148 26.11381744 20.13967804 26.1139679 21.20533752 C26.1132702 24.63040246 26.10548446 28.05541329 26.09765625 31.48046875 C26.09579156 33.85272695 26.0943679 36.22498554 26.09336853 38.59724426 C26.08954736 44.84602926 26.07972045 51.09479107 26.06866455 57.34356689 C26.05844186 63.7179737 26.05386907 70.09238424 26.04882812 76.46679688 C26.03809786 88.97787478 26.0210262 101.48893546 26 114 C19.73 114 13.46 114 7 114 C6.99635437 112.65585022 6.99270874 111.31170044 6.98895264 109.92681885 C6.95204402 97.27203399 6.89431655 84.6174934 6.81609726 71.96289444 C6.77655389 65.45669786 6.74439897 58.95063803 6.72900391 52.44433594 C6.71388268 46.16776496 6.67951748 39.89156974 6.63169098 33.61516571 C6.61683039 31.21817029 6.60895632 28.82112123 6.60811615 26.4240799 C6.60575888 23.07169827 6.57877792 19.72036563 6.54589844 16.36816406 C6.5509288 15.37266541 6.55595917 14.37716675 6.56114197 13.35150146 C6.56404119 8.02778282 6.56404119 8.02778282 4.09088135 3.47698975 C3.4008905 2.98958313 2.71089966 2.50217651 2 2 C1.34 1.34 0.68 0.68 0 0 Z " fill="#FD4856" transform="translate(85,356)"/>
<path d="M0 0 C15.27828816 -1.16529316 29.74858999 3.30717374 41.52734375 13.1015625 C51.45675249 22.45271948 58.4140345 35.24031225 59.23828125 48.96875 C59.6589395 66.20812459 55.38911308 79.91417414 43.453125 92.640625 C32.49422766 103.18071097 19.47021107 107.81245765 4.375 108.25 C1 108 1 108 -1 106 C-0.32195312 105.84144531 0.35609375 105.68289062 1.0546875 105.51953125 C15.80275374 101.82230135 27.97157125 94.27686426 36 81 C44.01906574 65.76600882 44.92186695 51.64342158 40 35 C38.63797688 31.43778569 37.00599962 28.24046093 35 25 C34.53078125 24.24203125 34.0615625 23.4840625 33.578125 22.703125 C25.53666493 11.1584546 12.58757375 4.52340655 -1 2 C-0.67 1.34 -0.34 0.68 0 0 Z " fill="#F1CBBC" transform="translate(144,26)"/>
</svg>
